<svg width="17" height="17" viewBox="0 0 17 17" fill="none" xmlns="http://www.w3.org/2000/svg">
<path d="M8.10028 6.45511e-05C5.95204 6.45511e-05 3.89182 0.853446 2.37242 2.37249C0.853382 3.89166 0 5.95187 0 8.10034C0 10.2488 0.853382 12.3088 2.37242 13.8282C3.8916 15.3472 5.95181 16.2006 8.10028 16.2006C10.2488 16.2006 12.3087 15.3472 13.8281 13.8282C15.3472 12.309 16.2006 10.2488 16.2006 8.10034C16.1982 5.95271 15.344 3.89382 13.8255 2.37507C12.307 0.856546 10.248 0.0023897 8.10022 0L8.10028 6.45511e-05ZM8.10028 15.0704V15.0702C6.25175 15.0702 4.47891 14.336 3.17168 13.0288C1.86455 11.7217 1.13026 9.94885 1.13026 8.10022C1.13026 6.25159 1.86455 4.47885 3.17168 3.17162C4.47882 1.86449 6.25165 1.1302 8.10028 1.1302C9.94891 1.1302 11.7216 1.86449 13.0289 3.17162C14.336 4.47876 15.0703 6.25159 15.0703 8.10022C15.0684 9.94814 14.3334 11.72 13.0267 13.0266C11.72 14.3332 9.94829 15.0682 8.10041 15.0701L8.10028 15.0704Z" fill="black"/>
<path d="M9.23093 12.0562H8.66579V6.59312C8.66579 6.44326 8.60625 6.29958 8.50029 6.19349C8.39433 6.08753 8.25052 6.02799 8.10066 6.02799H7.3472C7.14524 6.02799 6.95868 6.13572 6.85776 6.31056C6.75684 6.4854 6.75684 6.70085 6.85776 6.87569C6.95868 7.05053 7.14524 7.15825 7.3472 7.15825H7.53553V12.0562H6.9704C6.76844 12.0562 6.58188 12.1639 6.48096 12.3387C6.38004 12.5136 6.38004 12.729 6.48096 12.9039C6.58188 13.0787 6.76845 13.1864 6.9704 13.1864H9.23093C9.43289 13.1864 9.61945 13.0787 9.72036 12.9039C9.82128 12.729 9.82128 12.5136 9.72036 12.3387C9.61945 12.1639 9.43288 12.0562 9.23093 12.0562Z" fill="black"/>
<path d="M9.04206 4.33259C9.04206 4.8528 8.62035 5.27452 8.10013 5.27452C7.57992 5.27452 7.1582 4.8528 7.1582 4.33259C7.1582 3.8125 7.57992 3.39079 8.10013 3.39079C8.62035 3.39079 9.04206 3.8125 9.04206 4.33259Z" fill="black"/>
</svg>
