<svg width="30" height="30" viewBox="0 0 30 30" fill="none" xmlns="http://www.w3.org/2000/svg">
<path d="M17.25 7.8C17.25 7.16994 17.25 6.85491 17.3726 6.61426C17.4805 6.40258 17.6526 6.23048 17.8643 6.12262C18.1049 6 18.4199 6 19.05 6H22.2C22.8301 6 23.1451 6 23.3857 6.12262C23.5974 6.23048 23.7695 6.40258 23.8774 6.61426C24 6.85491 24 7.16994 24 7.8V10.95C24 11.5801 24 11.8951 23.8774 12.1357C23.7695 12.3474 23.5974 12.5195 23.3857 12.6274C23.1451 12.75 22.8301 12.75 22.2 12.75H19.05C18.4199 12.75 18.1049 12.75 17.8643 12.6274C17.6526 12.5195 17.4805 12.3474 17.3726 12.1357C17.25 11.8951 17.25 11.5801 17.25 10.95V7.8Z" stroke="#FFEEE6" stroke-linecap="round" stroke-linejoin="round"/>
<path d="M6 7.8C6 7.16994 6 6.85491 6.12262 6.61426C6.23048 6.40258 6.40258 6.23048 6.61426 6.12262C6.85491 6 7.16994 6 7.8 6H10.95C11.5801 6 11.8951 6 12.1357 6.12262C12.3474 6.23048 12.5195 6.40258 12.6274 6.61426C12.75 6.85491 12.75 7.16994 12.75 7.8V10.95C12.75 11.5801 12.75 11.8951 12.6274 12.1357C12.5195 12.3474 12.3474 12.5195 12.1357 12.6274C11.8951 12.75 11.5801 12.75 10.95 12.75H7.8C7.16994 12.75 6.85491 12.75 6.61426 12.6274C6.40258 12.5195 6.23048 12.3474 6.12262 12.1357C6 11.8951 6 11.5801 6 10.95V7.8Z" stroke="#FFEEE6" stroke-linecap="round" stroke-linejoin="round"/>
<path d="M6 19.05C6 18.4199 6 18.1049 6.12262 17.8643C6.23048 17.6526 6.40258 17.4805 6.61426 17.3726C6.85491 17.25 7.16994 17.25 7.8 17.25H10.95C11.5801 17.25 11.8951 17.25 12.1357 17.3726C12.3474 17.4805 12.5195 17.6526 12.6274 17.8643C12.75 18.1049 12.75 18.4199 12.75 19.05V22.2C12.75 22.8301 12.75 23.1451 12.6274 23.3857C12.5195 23.5974 12.3474 23.7695 12.1357 23.8774C11.8951 24 11.5801 24 10.95 24H7.8C7.16994 24 6.85491 24 6.61426 23.8774C6.40258 23.7695 6.23048 23.5974 6.12262 23.3857C6 23.1451 6 22.8301 6 22.2V19.05Z" stroke="#FFEEE6" stroke-linecap="round" stroke-linejoin="round"/>
<path d="M17.25 19.05C17.25 18.4199 17.25 18.1049 17.3726 17.8643C17.4805 17.6526 17.6526 17.4805 17.8643 17.3726C18.1049 17.25 18.4199 17.25 19.05 17.25H22.2C22.8301 17.25 23.1451 17.25 23.3857 17.3726C23.5974 17.4805 23.7695 17.6526 23.8774 17.8643C24 18.1049 24 18.4199 24 19.05V22.2C24 22.8301 24 23.1451 23.8774 23.3857C23.7695 23.5974 23.5974 23.7695 23.3857 23.8774C23.1451 24 22.8301 24 22.2 24H19.05C18.4199 24 18.1049 24 17.8643 23.8774C17.6526 23.7695 17.4805 23.5974 17.3726 23.3857C17.25 23.1451 17.25 22.8301 17.25 22.2V19.05Z" stroke="#FFEEE6" stroke-linecap="round" stroke-linejoin="round"/>
</svg>
