<svg width="20" height="20" viewBox="0 0 20 20" fill="none" xmlns="http://www.w3.org/2000/svg">
<path d="M1 10.0968V12.5759C1 14.8246 1 15.9489 1.43597 16.8077C1.81947 17.5632 2.43139 18.1775 3.18404 18.5624C4.03969 19 5.15979 19 7.4 19H12.6C14.8402 19 15.9603 19 16.816 18.5624C17.5686 18.1775 18.1805 17.5632 18.564 16.8077C19 15.9489 19 14.8246 19 12.5759V10.0968C19 8.94374 19 8.36723 18.8519 7.8363C18.7208 7.36601 18.5053 6.92367 18.2159 6.53102C17.8893 6.08776 17.436 5.73381 16.5292 5.02592L13.9292 2.99609C12.5239 1.89897 11.8213 1.35041 11.0454 1.13954C10.3608 0.953486 9.63921 0.953486 8.95461 1.13954C8.17873 1.35041 7.47608 1.89897 6.07078 2.99609L3.47078 5.02592C2.56404 5.73381 2.11067 6.08776 1.78405 6.53102C1.49473 6.92367 1.2792 7.36601 1.14805 7.8363C1 8.36723 1 8.94374 1 10.0968Z" fill="#FFEEE6"/>
<path d="M7 14.985H13M1 12.5759V10.0968C1 8.94374 1 8.36723 1.14805 7.8363C1.2792 7.36601 1.49473 6.92367 1.78405 6.53102C2.11067 6.08776 2.56404 5.73381 3.47078 5.02592L6.07078 2.99609C7.47608 1.89897 8.17873 1.35041 8.95461 1.13954C9.63921 0.953486 10.3608 0.953486 11.0454 1.13954C11.8213 1.35041 12.5239 1.89897 13.9292 2.99609L16.5292 5.02592C17.436 5.73381 17.8893 6.08776 18.2159 6.53102C18.5053 6.92367 18.7208 7.36601 18.8519 7.8363C19 8.36723 19 8.94374 19 10.0968V12.5759C19 14.8246 19 15.9489 18.564 16.8077C18.1805 17.5632 17.5686 18.1774 16.816 18.5624C15.9603 19 14.8402 19 12.6 19H7.4C5.15979 19 4.03969 19 3.18404 18.5624C2.43139 18.1774 1.81947 17.5632 1.43597 16.8077C1 15.9489 1 14.8246 1 12.5759Z" stroke="#F16624" stroke-linecap="round" stroke-linejoin="round"/>
</svg>
