<svg width="30" height="30" viewBox="0 0 30 30" fill="none" xmlns="http://www.w3.org/2000/svg">
<path d="M6 15.0968V17.5759C6 19.8246 6 20.9489 6.43597 21.8077C6.81947 22.5632 7.43139 23.1775 8.18404 23.5624C9.03969 24 10.1598 24 12.4 24H17.6C19.8402 24 20.9603 24 21.816 23.5624C22.5686 23.1775 23.1805 22.5632 23.564 21.8077C24 20.9489 24 19.8246 24 17.5759V15.0968C24 13.9437 24 13.3672 23.8519 12.8363C23.7208 12.366 23.5053 11.9237 23.2159 11.531C22.8893 11.0878 22.436 10.7338 21.5292 10.0259L18.9292 7.99609C17.5239 6.89897 16.8213 6.35041 16.0454 6.13954C15.3608 5.95349 14.6392 5.95349 13.9546 6.13954C13.1787 6.35041 12.4761 6.89897 11.0708 7.99609L8.47078 10.0259C7.56404 10.7338 7.11067 11.0878 6.78405 11.531C6.49473 11.9237 6.2792 12.366 6.14805 12.8363C6 13.3672 6 13.9437 6 15.0968Z" fill="#F16624"/>
<path d="M12 19.985H18M6 17.5759V15.0968C6 13.9437 6 13.3672 6.14805 12.8363C6.2792 12.366 6.49473 11.9237 6.78405 11.531C7.11067 11.0878 7.56404 10.7338 8.47078 10.0259L11.0708 7.99609C12.4761 6.89897 13.1787 6.35041 13.9546 6.13954C14.6392 5.95349 15.3608 5.95349 16.0454 6.13954C16.8213 6.35041 17.5239 6.89897 18.9292 7.99609L21.5292 10.0259C22.436 10.7338 22.8893 11.0878 23.2159 11.531C23.5053 11.9237 23.7208 12.366 23.8519 12.8363C24 13.3672 24 13.9437 24 15.0968V17.5759C24 19.8246 24 20.9489 23.564 21.8077C23.1805 22.5632 22.5686 23.1774 21.816 23.5624C20.9603 24 19.8402 24 17.6 24H12.4C10.1598 24 9.03969 24 8.18404 23.5624C7.43139 23.1774 6.81947 22.5632 6.43597 21.8077C6 20.9489 6 19.8246 6 17.5759Z" stroke="#FFEEE6" stroke-linecap="round" stroke-linejoin="round"/>
</svg>
