<svg width="31" height="30" viewBox="0 0 31 30" fill="none" xmlns="http://www.w3.org/2000/svg">
<path d="M22 14C22 18.4183 18.4183 22 14 22C9.58172 22 6 18.4183 6 14C6 9.58172 9.58172 6 14 6C18.4183 6 22 9.58172 22 14Z" fill="#FFEEE6"/>
<path d="M14 9C16.7614 9 19 11.2386 19 14M19.6588 19.6549L24 24M22 14C22 18.4183 18.4183 22 14 22C9.58172 22 6 18.4183 6 14C6 9.58172 9.58172 6 14 6C18.4183 6 22 9.58172 22 14Z" stroke="#F16624" stroke-linecap="round" stroke-linejoin="round"/>
<path d="M19.0054 19L24.0054 24" stroke="#FFEEE6" stroke-linecap="round"/>
</svg>
