<svg width="325" height="214" viewBox="0 0 325 214" fill="none" xmlns="http://www.w3.org/2000/svg">
<path d="M194.672 139.101C194.522 139.101 194.372 139.101 194.217 139.101C194.368 139.081 194.521 139.081 194.672 139.101Z" fill="#EBEBEB"/>
<path d="M123.671 29.1821V207H122.303L108.456 206.975H108.371L81.6394 206.93H81.0503L72.5143 206.92L70.9069 206.915H70.817L47.62 206.875L44.0907 206.86L43.4967 206.855L31.9106 206.8V29.1821H123.671Z" fill="#EBEBEB"/>
<path d="M70.8619 41.3503L64.093 41.2802H57.329L43.7912 41.2351H43.292V41.7361L43.3719 63.3922V63.798H43.7712L57.4039 63.6276L70.842 63.3922L57.2142 63.1568L44.1706 62.9914V63.3922L43.7712 62.9864H44.1706L44.2554 42.212H43.7562L44.2554 41.711V42.212L57.3091 42.1669L64.073 42.1368L70.5025 42.0717V41.731L70.847 42.0667H70.5075L70.5674 47.0762L70.6473 52.4564L70.847 63.3722L71.0416 52.6217L71.1215 47.1814L71.1864 41.716V41.3754L70.8619 41.3503Z" fill="#DBDBDB"/>
<path d="M108.695 47.1613L108.76 41.6959V41.3553H108.41L101.646 41.2851H94.8724L81.3395 41.2401H80.8403V41.741L80.9252 63.3971V63.8029H81.3196L94.9523 63.6326L108.39 63.3971L94.7576 63.1617L81.7239 62.9964V63.3971L81.3196 62.9914H81.7239L81.8038 42.2169H81.3046L81.8038 41.716V42.2169L94.8524 42.1718L101.626 42.1418L108.056 42.0766V41.736L108.395 42.0716H108.061L108.116 47.0812L108.201 52.4614L108.395 63.3771L108.59 52.6267L108.675 47.1864" fill="#DBDBDB"/>
<path d="M70.8619 75.0393L43.7912 74.9842H43.292V75.4851L43.3469 106.589C43.3469 111.772 43.3685 116.957 43.4118 122.144L43.5216 137.698V137.969H43.7862L57.379 137.844L70.8569 137.703L57.2642 137.558L44.0557 137.438V137.698L43.7862 137.428H44.0557L44.1456 122.134C44.1789 116.947 44.2005 111.762 44.2105 106.579L44.2704 75.961H43.7712L44.2704 75.4601V75.961L70.4276 75.9109V75.4751L70.8569 75.9109H70.4376C70.4376 80.9204 70.4376 85.93 70.4875 90.9395L70.5974 106.469L70.8669 137.693L71.1315 106.699L71.2463 91.0998C71.2912 85.8999 71.2812 80.685 71.2962 75.4751V75.0443L70.8619 75.0393Z" fill="#DBDBDB"/>
<path d="M108.416 75.0393L81.3449 74.9842H80.8457V75.4851L80.9106 106.589C80.9106 111.774 80.9405 116.959 80.9705 122.144L81.0653 137.703V137.974H81.3299L94.9227 137.849L108.401 137.708L94.8079 137.563L81.5995 137.443V137.698L81.3299 137.428H81.5995L81.6893 122.134C81.7293 116.947 81.7509 111.762 81.7542 106.579L81.8141 75.961H81.3149L81.8141 75.4601V75.961L107.966 75.9109V75.4751L108.401 75.9109H107.966C107.966 80.9204 107.966 85.93 108.021 90.9395L108.131 106.469L108.401 137.693L108.67 106.699L108.775 91.0998C108.825 85.8999 108.815 80.685 108.83 75.4751V75.0443L108.416 75.0393Z" fill="#DBDBDB"/>
<path d="M70.8619 149.37L43.7912 149.32H43.292V149.821L43.3469 180.93C43.3469 186.117 43.3685 191.302 43.4118 196.485L43.4817 206.659V206.855H44.0757V206.649L44.1306 196.465C44.1639 191.282 44.1855 186.097 44.1955 180.91L44.2554 150.287H43.7562L44.2554 149.786V150.287L70.4376 150.222V149.791L70.8669 150.222H70.4376C70.4376 155.232 70.4376 160.241 70.4875 165.251L70.5974 180.78L70.817 206.574V206.89H70.9069V206.574L71.1215 181.001L71.2363 165.406C71.2812 160.201 71.2713 154.991 71.2862 149.781V149.345L70.8619 149.37Z" fill="#DBDBDB"/>
<path d="M108.862 149.37L81.7912 149.32H81.292V149.821L81.3469 180.93C81.3469 186.117 81.3685 191.302 81.4118 196.485L81.4817 206.659V206.855H82.0757V206.649L82.1306 196.465C82.1639 191.282 82.1855 186.097 82.1955 180.91L82.2554 150.287H81.7562L82.2554 149.786V150.287L108.438 150.222V149.791L108.867 150.222H108.438C108.438 155.232 108.438 160.241 108.488 165.251L108.597 180.78L108.817 206.574V206.89H108.907V206.574L109.121 181.001L109.236 165.406C109.281 160.201 109.271 154.991 109.286 149.781V149.345L108.862 149.37Z" fill="#DBDBDB"/>
<path d="M158.416 149.37L131.345 149.32H130.846V149.821L130.911 180.93C130.911 186.115 130.941 191.3 130.971 196.485L131.03 206.599V206.945H131.619V206.599L131.679 196.485C131.719 191.302 131.741 186.117 131.744 180.93L131.804 150.307H131.305L131.804 149.806V150.307L157.956 150.252V149.821L158.391 150.252H157.956C157.956 155.262 157.956 160.271 158.011 165.281L158.121 180.81L158.341 206.544V206.98H158.426V206.544L158.65 181.031L158.755 165.436C158.805 160.231 158.795 155.021 158.81 149.811V149.375L158.416 149.37Z" fill="#DBDBDB"/>
<path d="M131.877 20.7111V206.985L123.671 207V29.1822H31.9106V206.8L23.709 206.765V20.7111H131.877Z" fill="#DBDBDB"/>
<path d="M170.401 137.688H162.079V160.557H170.401V137.688Z" fill="#DBDBDB"/>
<path d="M169.597 141.671C169.579 142.334 169.367 142.976 168.988 143.519C168.608 144.061 168.077 144.479 167.462 144.721C166.847 144.962 166.174 145.016 165.529 144.876C164.883 144.736 164.293 144.408 163.832 143.933C163.371 143.458 163.06 142.857 162.938 142.206C162.815 141.555 162.887 140.881 163.143 140.271C163.4 139.66 163.83 139.138 164.381 138.772C164.931 138.405 165.577 138.21 166.238 138.209C166.685 138.215 167.126 138.309 167.537 138.487C167.948 138.664 168.32 138.92 168.632 139.242C168.944 139.563 169.19 139.943 169.355 140.36C169.521 140.777 169.603 141.222 169.597 141.671Z" fill="#C7C7C7"/>
<path d="M314.761 7H297.649V14.2588H314.761V7Z" fill="#EBEBEB"/>
<path d="M305.212 16.1523H288.1V23.4111H305.212V16.1523Z" fill="#EBEBEB"/>
<path d="M324.306 16.1523H307.194V23.4111H324.306V16.1523Z" fill="#EBEBEB"/>
<path d="M211.329 81.8622H194.217V89.121H211.329V81.8622Z" fill="#EBEBEB"/>
<path d="M17.112 7.01001H0V14.2688H17.112V7.01001Z" fill="#EBEBEB"/>
<path d="M247.645 172.524H264.757V165.266H247.645V172.524Z" fill="#EBEBEB"/>
<path d="M257.194 163.372H274.306V156.113H257.194V163.372Z" fill="#EBEBEB"/>
<path d="M72.6956 206.749L98.3586 206.629L124.022 206.584L175.348 206.499L226.674 206.584L252.337 206.629L278 206.749L252.337 206.87L226.674 206.915L175.348 207L124.022 206.915L98.3586 206.87L72.6956 206.749Z" fill="#263238"/>
<path d="M135.593 157.611C135.593 157.611 147.204 200.427 150.004 206.75H195.04C187.268 186.326 179.042 159.6 178.807 157.741C178.807 157.656 178.807 157.611 178.807 157.611H135.593Z" fill="#263238"/>
<path d="M141.902 163.307C142.187 166.784 154.786 203.759 155.845 206.75H156.494C156.494 206.75 142.811 165.842 142.077 163.307C142.057 163.202 141.902 163.202 141.902 163.307Z" fill="#263238"/>
<path d="M172.552 157.606L166.737 196.049L166.532 197.352L166.033 200.828L165.993 201.074L165.853 202L165.139 206.734H150.004C147.209 200.412 135.593 157.591 135.593 157.591L172.552 157.606Z" fill="#263238"/>
<path d="M113.009 206.749H155.625C155.625 206.569 155.655 206.424 155.66 206.304C155.665 206.183 155.685 206.013 155.685 206.013L156.399 205.627C158.894 204.255 161.106 203.188 162.918 202.376C163.227 202.241 163.522 202.111 163.811 201.975C164.63 201.62 165.364 201.319 165.973 201.079C167.545 200.458 168.414 200.177 168.414 200.177C168.469 200.047 168.514 199.922 168.559 199.791C174.734 184.016 178.457 159.981 178.807 157.741C178.807 157.621 178.807 157.571 178.807 157.571H117.941C114.327 168.943 107.064 189.852 113.009 206.749Z" fill="#263238"/>
<path d="M170.591 199.05C165.429 200.833 160.447 203.363 155.685 206.018C155.652 206.041 155.627 206.074 155.616 206.113C155.605 206.152 155.609 206.194 155.625 206.231C155.642 206.267 155.671 206.297 155.708 206.314C155.744 206.331 155.786 206.334 155.825 206.324C160.847 204.16 165.963 202.091 170.86 199.651C170.933 199.611 170.988 199.545 171.014 199.466C171.04 199.387 171.036 199.301 171.002 199.225C170.968 199.15 170.907 199.089 170.831 199.057C170.754 199.024 170.669 199.022 170.591 199.05Z" fill="#263238"/>
<path d="M172.188 164.469C172.188 164.294 171.868 164.254 171.868 164.444C171.908 170.425 171.529 175.69 171.03 181.281C170.795 183.876 168.713 198.223 164.226 197.176C163.477 197.001 163.092 196.26 162.978 195.127C162.833 193.76 163.347 192.082 163.572 190.724C164.071 187.718 164.47 184.713 164.725 181.677C165.247 176.028 165.186 170.341 164.545 164.705C164.545 164.666 164.53 164.629 164.503 164.602C164.476 164.575 164.439 164.559 164.4 164.559C164.362 164.559 164.325 164.575 164.298 164.602C164.271 164.629 164.256 164.666 164.256 164.705C164.256 172.545 164.056 180.369 162.888 188.134C162.329 191.866 160.457 197.482 164.345 198.058C168.234 198.634 170.855 189.246 171.354 186.671C172.697 179.493 172.752 171.763 172.188 164.469Z" fill="#263238"/>
<path d="M164.366 197.562C163.971 198.532 163.638 199.526 163.367 200.538C163.078 201.32 162.936 202.148 162.948 202.982C162.956 203.015 162.972 203.044 162.996 203.068C163.02 203.091 163.05 203.107 163.082 203.114C163.115 203.12 163.148 203.118 163.179 203.106C163.21 203.094 163.238 203.074 163.258 203.048C163.787 202.381 164.006 201.464 164.301 200.668C164.645 199.751 165.005 198.84 165.299 197.908C165.333 197.787 165.32 197.657 165.263 197.545C165.206 197.433 165.109 197.347 164.991 197.304C164.874 197.26 164.744 197.262 164.628 197.31C164.512 197.358 164.419 197.448 164.366 197.562Z" fill="#263238"/>
<path d="M144.049 169.163C144.061 168.536 143.998 167.911 143.859 167.3C143.853 167.281 143.841 167.264 143.825 167.253C143.809 167.241 143.789 167.235 143.769 167.235C143.75 167.235 143.73 167.241 143.714 167.253C143.698 167.264 143.686 167.281 143.68 167.3C143.552 167.826 143.482 168.366 143.47 168.908C143.405 169.524 143.325 170.14 143.26 170.761C143.128 172.024 142.908 173.276 142.601 174.508C142.034 176.839 140.851 178.973 139.177 180.685C137.514 182.327 135.547 183.628 133.386 184.512C130.975 185.514 128.439 185.915 125.954 186.651C125.932 186.659 125.914 186.673 125.903 186.692C125.891 186.712 125.887 186.735 125.89 186.757C125.894 186.779 125.905 186.799 125.922 186.814C125.939 186.828 125.961 186.837 125.983 186.837C128.743 186.83 131.475 186.289 134.03 185.244C136.291 184.393 138.349 183.076 140.07 181.376C141.801 179.621 143.02 177.425 143.595 175.024C143.883 173.791 144.05 172.533 144.094 171.267C144.121 170.566 144.106 169.863 144.049 169.163Z" fill="#263238"/>
<path d="M118.985 206.75C117.717 203.047 116.929 199.197 116.639 195.293C116.309 191.388 116.289 187.463 116.579 183.555C116.779 181.612 116.928 179.658 117.258 177.729C117.418 176.763 117.532 175.791 117.757 174.834L118.356 171.963C118.461 171.463 118.551 171.007 118.666 170.531L119.045 169.113L119.809 166.288C120.078 165.351 120.418 164.434 120.717 163.507C121.017 162.581 121.341 161.659 121.666 160.742C121.236 162.646 120.707 164.514 120.283 166.413L119.654 169.258L119.349 170.681C119.25 171.157 119.18 171.633 119.095 172.114L118.596 174.979C118.421 175.931 118.331 176.898 118.196 177.855C117.897 179.768 117.757 181.702 117.572 183.631C117.284 187.491 117.231 191.366 117.413 195.233C117.467 196.2 117.512 197.166 117.617 198.128L117.747 199.576L117.927 201.019C118.157 202.95 118.51 204.864 118.985 206.75Z" fill="#263238"/>
<path d="M157.237 99.7061C165.404 113.167 181.573 134.372 189.375 139.091C198.046 144.336 222.82 126.532 238.864 115.872C242.049 113.753 227.193 87.9087 223.888 90.3233C215.307 96.6904 197.561 111.478 195.205 110.978C193.278 110.567 176.895 99.115 167.715 92.5525C153.129 82.1227 151.487 90.2331 157.237 99.7061Z" fill="#FFBE9D"/>
<path d="M217.624 94.1155L231.401 123.817C231.401 123.817 201.405 143.499 192.075 141.105C182.746 138.71 162.918 111.148 157.103 100.327C151.287 89.5067 153.993 83.4302 165.264 90.689C176.536 97.9478 193.888 109.555 195.715 109.615C197.542 109.675 217.624 94.1155 217.624 94.1155Z" fill="#F16624"/>
<path d="M222.905 127.364C218.966 114.675 212.921 101.935 212.002 99.641C211.962 99.5358 211.793 99.616 211.838 99.7212C212.836 101.925 218.192 117.254 222.725 127.454C222.77 127.569 222.945 127.484 222.905 127.364Z" fill="#263238"/>
<path opacity="0.1" d="M201.111 139.867C197.507 141.09 194.297 141.666 192.076 141.095C182.746 138.7 162.913 111.148 157.098 100.332C154.602 95.7035 153.683 91.9464 154.322 89.7172C165.499 101.77 191.651 129.758 201.111 139.867Z" fill="black"/>
<path d="M229.948 121.848L217.723 95.1174C218.153 94.5614 219.99 93.4593 221.802 91.746C221.802 91.746 226.554 85.1835 228.471 78.065C230.088 72.0837 231.81 63.0365 235.05 63.7729C239.772 64.8599 238.964 76.5822 238.095 83.31C241.489 81.9374 244.544 81.0757 246.501 81.226C252.991 81.727 254.488 111.198 248.997 114.955C243.696 118.527 233.547 122.369 229.948 121.848Z" fill="#FFBE9D"/>
<path d="M247.579 124.613L204.445 121.382L208.688 64.344L251.822 67.5801L247.579 124.613Z" fill="#455A64"/>
<path d="M247.46 70.9262L212.504 68.3071L208.805 118.023L243.761 120.643L247.46 70.9262Z" fill="white"/>
<path d="M225.602 69.288L212.505 68.3066L208.806 118.023L221.903 119.004L225.602 69.288Z" fill="#EBEBEB"/>
<path d="M220.349 79.0168C219.857 79.278 219.31 79.4177 218.754 79.424C218.198 79.4304 217.648 79.3033 217.15 79.0534C216.653 78.8035 216.222 78.438 215.893 77.9872C215.565 77.5365 215.349 77.0136 215.262 76.462C215.163 75.8256 215.24 75.1739 215.485 74.5785C215.73 73.9832 216.134 73.467 216.652 73.0868C217.17 72.7066 217.783 72.477 218.422 72.4232C219.062 72.3694 219.704 72.4934 220.278 72.7817C220.852 73.0701 221.336 73.5115 221.676 74.0576C222.017 74.6038 222.201 75.2334 222.208 75.8776C222.216 76.5218 222.046 77.1555 221.718 77.7093C221.39 78.263 220.916 78.7154 220.349 79.0168Z" fill="#A6A6A6"/>
<path d="M219.825 75.5803C219.811 75.7928 219.734 75.9963 219.604 76.1651C219.475 76.3338 219.298 76.4602 219.097 76.5283C218.896 76.5964 218.679 76.603 218.474 76.5475C218.269 76.4919 218.085 76.3766 217.946 76.2162C217.806 76.0557 217.717 75.8573 217.69 75.6461C217.663 75.4348 217.698 75.2202 217.793 75.0293C217.887 74.8385 218.035 74.68 218.219 74.5738C218.404 74.4677 218.615 74.4187 218.827 74.4331C219.111 74.4524 219.375 74.5841 219.563 74.7992C219.75 75.0144 219.844 75.2953 219.825 75.5803Z" fill="white"/>
<path d="M220.379 78.586L220.349 79.0319C219.768 79.3317 219.116 79.4642 218.465 79.4147C217.814 79.3652 217.189 79.1356 216.66 78.7513L216.695 78.3105C216.713 78.0677 216.778 77.8309 216.888 77.6136C216.997 77.3962 217.148 77.2026 217.332 77.0438C217.515 76.8849 217.729 76.7639 217.959 76.6877C218.189 76.6116 218.432 76.5817 218.674 76.5997C218.916 76.6178 219.152 76.6836 219.369 76.7932C219.585 76.9028 219.778 77.0541 219.937 77.2386C220.095 77.423 220.215 77.6369 220.291 77.8681C220.367 78.0993 220.397 78.3433 220.379 78.586Z" fill="white"/>
<path d="M237.034 74.3714L227.6 73.6645L227.552 74.319L236.985 75.0258L237.034 74.3714Z" fill="#EBEBEB"/>
<path d="M243.771 76.693L227.468 75.4715L227.419 76.1259L243.722 77.3474L243.771 76.693Z" fill="#EBEBEB"/>
<path d="M240.003 78.2299L227.334 77.2806L227.285 77.935L239.954 78.8843L240.003 78.2299Z" fill="#EBEBEB"/>
<path d="M234.379 81.4516L227.066 80.9037L227.017 81.5581L234.33 82.106L234.379 81.4516Z" fill="#EBEBEB"/>
<path d="M239.601 83.6604L226.932 82.7111L226.883 83.3655L239.552 84.3148L239.601 83.6604Z" fill="#EBEBEB"/>
<path d="M243.101 85.7403L226.798 84.5187L226.749 85.1731L243.052 86.3947L243.101 85.7403Z" fill="#EBEBEB"/>
<path d="M236.092 87.0349L226.658 86.3281L226.61 86.9825L236.043 87.6894L236.092 87.0349Z" fill="#EBEBEB"/>
<path d="M243.704 90.6057L227.356 89.4573L227.31 90.1135L243.658 91.262L243.704 90.6057Z" fill="#EBEBEB"/>
<path d="M238.087 92.6442L226.26 91.758L226.211 92.4124L238.039 93.2987L238.087 92.6442Z" fill="#EBEBEB"/>
<path d="M234.906 94.225L226.125 93.5671L226.076 94.2215L234.857 94.8795L234.906 94.225Z" fill="#EBEBEB"/>
<path d="M240.674 96.4745L225.989 95.3741L225.941 96.0286L240.626 97.1289L240.674 96.4745Z" fill="#EBEBEB"/>
<path d="M237.547 99.8778L225.72 98.9915L225.671 99.646L237.499 100.532L237.547 99.8778Z" fill="#EBEBEB"/>
<path d="M241.891 102.026L225.588 100.804L225.54 101.459L241.843 102.68L241.891 102.026Z" fill="#EBEBEB"/>
<path d="M240 105.521L225.315 104.421L225.266 105.075L239.951 106.176L240 105.521Z" fill="#EBEBEB"/>
<path d="M233.879 106.887L225.183 106.236L225.134 106.89L233.83 107.542L233.879 106.887Z" fill="#EBEBEB"/>
<path d="M242.432 108.756L226.083 107.607L226.038 108.263L242.386 109.412L242.432 108.756Z" fill="#EBEBEB"/>
<path d="M236.605 112.551L224.777 111.665L224.729 112.32L236.556 113.206L236.605 112.551Z" fill="#EBEBEB"/>
<path d="M242.048 114.198L225.7 113.049L225.654 113.705L242.003 114.854L242.048 114.198Z" fill="#EBEBEB"/>
<path d="M240.299 115.903L225.573 114.868L225.527 115.524L240.253 116.559L240.299 115.903Z" fill="#EBEBEB"/>
<path d="M219.999 81.6378L215.656 81.3327L215.61 81.989L219.953 82.2941L219.999 81.6378Z" fill="#A6A6A6"/>
<path d="M221.838 84.149L214.63 83.6089L214.581 84.2634L221.789 84.8034L221.838 84.149Z" fill="#A6A6A6"/>
<path d="M220.518 85.8687L214.494 85.4174L214.446 86.0718L220.469 86.5232L220.518 85.8687Z" fill="#A6A6A6"/>
<path d="M221.436 89.5792L214.228 89.0391L214.18 89.6935L221.388 90.2336L221.436 89.5792Z" fill="#A6A6A6"/>
<path d="M221.75 91.416L214.094 90.8424L214.045 91.4968L221.701 92.0705L221.75 91.416Z" fill="#A6A6A6"/>
<path d="M219.327 93.0585L213.956 92.656L213.907 93.3104L219.278 93.7129L219.327 93.0585Z" fill="#A6A6A6"/>
<path d="M221.127 94.4875L214.762 94.0404L214.716 94.6966L221.081 95.1437L221.127 94.4875Z" fill="#A6A6A6"/>
<path d="M241.436 63.4669L219.572 61.8287L218.994 69.6019L240.857 71.2401L241.436 63.4669Z" fill="#A6A6A6"/>
<path d="M238.055 66.2526L222.501 65.0854L222.95 59.0539L238.505 60.2161L238.055 66.2526Z" fill="#A6A6A6"/>
<path d="M236.318 82.4133C234.905 85.5142 239.353 85.419 239.353 85.419C239.353 85.419 232.988 87.1022 232.754 90.8643C232.549 94.4912 237.915 94.1756 238.3 94.1556C237.965 94.2508 232.155 95.964 232.31 99.7612C232.479 103.714 237.801 102.471 238.155 102.386C237.865 102.577 234.077 105.116 234.85 107.977C236.188 112.891 246.062 106.654 250.026 107.741C250.026 107.741 248.967 114.695 248.977 114.9C248.977 114.9 258.487 109.159 259.645 103.714C259.824 102.924 259.73 102.097 259.378 101.369C259.026 100.64 258.437 100.054 257.708 99.7061C257.708 99.7061 260.978 98.2033 260.948 95.1976C260.923 93.6597 258.452 92.3221 258.452 92.3221C258.452 92.3221 261.023 91.0046 260.828 88.3395C260.678 86.2155 258.222 85.2036 258.222 85.2036C258.222 85.2036 260.104 82.789 259.251 80.67C257.548 76.3818 239.348 75.7857 236.318 82.4133Z" fill="#FFBE9D"/>
<path d="M257.878 84.9882C257.888 84.9849 257.896 84.9785 257.902 84.97C257.909 84.9615 257.912 84.9512 257.912 84.9406C257.912 84.9301 257.909 84.9198 257.902 84.9112C257.896 84.9027 257.888 84.8963 257.878 84.893C251.937 83.2299 244.899 83.2299 239.093 85.394C238.899 85.4641 238.934 85.8098 239.158 85.7697C245.598 84.6876 251.378 84.2468 257.878 84.9882Z" fill="#263238"/>
<path d="M258.562 92.287C258.632 92.287 258.647 92.1818 258.562 92.1618C252.437 90.4786 244.515 90.699 238.095 93.9802C237.876 94.0955 237.791 94.4161 238.05 94.3059C242.498 92.4473 252.721 91.6107 258.562 92.287Z" fill="#263238"/>
<path d="M237.801 102.772C244.071 99.8614 250.64 99.2653 257.474 99.616C257.564 99.616 257.559 99.4957 257.474 99.4707C254.174 98.3836 249.796 98.609 246.402 99.0799C243.244 99.4519 240.239 100.649 237.686 102.552C237.601 102.632 237.671 102.832 237.801 102.772Z" fill="#263238"/>
<path d="M178.787 157.611L177.025 138.274C177.025 138.274 182.172 130.379 181.418 121.052C180.874 114.259 161.55 90.4936 160.307 89.3515C155.315 84.6776 146.884 86.5411 143.425 89.1661C124.266 103.694 124.431 126.923 117.967 157.571L178.787 157.611Z" fill="#F16624"/>
<path d="M178.787 157.611L177.025 138.274C177.025 138.274 183.654 129.408 181.418 121.052C179.181 112.696 172.592 105.071 172.592 105.071H144.099C144.099 105.071 141.518 130.089 134.994 134.347C131.032 136.998 126.198 137.997 121.516 137.132L117.941 157.571L178.787 157.611Z" fill="#263238"/>
<path d="M158.844 135.745C161.604 135.583 164.372 135.626 167.126 135.875C168.494 136.015 169.842 136.221 171.194 136.451C171.873 136.571 172.547 136.661 173.221 136.752C173.929 136.867 174.648 136.896 175.362 136.837C175.376 136.837 175.388 136.842 175.398 136.851C175.407 136.861 175.412 136.874 175.412 136.887C175.412 136.9 175.407 136.913 175.398 136.922C175.388 136.932 175.376 136.937 175.362 136.937C174.051 137.222 172.701 137.285 171.369 137.122C169.981 136.992 168.604 136.797 167.216 136.651C164.42 136.356 161.625 136.065 158.815 135.975C158.715 135.97 158.715 135.755 158.844 135.745Z" fill="#263238"/>
<path d="M152.475 139.171C154.683 138.6 156.921 138.155 159.179 137.839C160.312 137.683 161.44 137.593 162.583 137.533C163.122 137.508 163.672 137.488 164.216 137.478C164.76 137.468 165.414 137.533 166.013 137.513C166.078 137.513 166.088 137.608 166.013 137.608C165.449 137.648 164.885 137.778 164.325 137.849L162.633 138.054C161.505 138.194 160.382 138.35 159.249 138.48C156.987 138.74 154.756 139.021 152.485 139.356C152.385 139.377 152.385 139.201 152.475 139.171Z" fill="#263238"/>
<path d="M147.498 97.3867C143.974 102.421 117.298 134.237 109.765 139.046C104.039 142.708 88.9889 144.942 89.7626 130.685C90.2618 121.167 128.2 94.3159 143.505 87.8085C150.538 84.7978 154.881 86.8266 147.498 97.3867Z" fill="#F16624"/>
<path d="M95.8027 141.26C98.0499 141.871 100.404 141.976 102.696 141.566C104.974 141.192 107.16 140.39 109.141 139.201C110.127 138.604 111.068 137.934 111.956 137.197C112.845 136.466 113.693 135.669 114.532 134.868C116.204 133.25 117.822 131.567 119.414 129.858C122.629 126.482 125.734 122.985 128.844 119.504L138.138 108.984C136.716 110.837 135.238 112.646 133.771 114.494C132.303 116.343 130.776 118.096 129.278 119.884C126.253 123.445 123.14 126.938 119.938 130.364C118.321 132.063 116.684 133.736 114.981 135.349C114.128 136.15 113.264 136.947 112.346 137.693C111.427 138.447 110.443 139.118 109.405 139.697C107.342 140.867 105.075 141.63 102.726 141.946C101.567 142.089 100.396 142.111 99.2321 142.012C98.0598 141.921 96.9057 141.669 95.8027 141.26Z" fill="#263238"/>
<path d="M134.57 113.257C135.181 112.755 135.819 112.287 136.481 111.854L138.443 110.537C137.962 111.182 137.369 111.733 136.691 112.165C136.033 112.618 135.32 112.985 134.57 113.257Z" fill="#263238"/>
<path d="M144.099 105.071H148.452C148.625 98.7878 147.733 92.5204 145.816 86.5361L143.001 87.2525C143.001 87.2525 145.771 98.8345 144.099 105.071Z" fill="#263238"/>
<path d="M161.78 88.2694C161.78 88.2694 167.65 96.7555 172.592 105.071H169.826L158.749 87.1022L161.78 88.2694Z" fill="#263238"/>
<path d="M147.393 89.8073C147.738 91.0196 153.244 98.1481 158.835 97.6121C160.657 97.4368 160.866 87.9989 160.866 87.9989L160.996 87.2474L162.808 76.7725L150.304 69.5688L148.502 68.617C148.502 68.617 148.197 71.5175 147.848 75.1294C147.848 75.2947 147.818 75.465 147.803 75.6304C147.788 75.7957 147.748 76.0261 147.733 76.2165C147.678 76.7525 147.618 77.3035 147.573 77.8546C147.538 78.2754 147.498 78.6812 147.478 79.122C147.458 79.5628 147.418 79.9886 147.383 80.4345C147.144 84.7928 147.259 89.2863 147.393 89.8073Z" fill="#FFBE9D"/>
<path d="M147.848 75.1144C149.031 77.9736 150.821 80.5399 153.092 82.6351C155.364 84.7304 158.062 86.3042 161.001 87.2474L162.813 76.7725L150.304 69.5688L148.501 68.617C148.501 68.617 148.197 71.5025 147.848 75.1144Z" fill="#263238"/>
<path d="M151.621 67.6052C148.292 65.3659 138.937 62.0697 133.995 69.3635C126.937 79.7683 142.222 98.018 143.006 107.611C144.428 124.989 153.424 134.748 161.405 129.894C170.356 124.453 169.797 109.645 153.004 92.9483C142.521 82.5035 140.904 74.874 143.32 73.1207C145.736 71.3673 149.495 72.9153 149.495 72.9153L151.621 67.6052Z" fill="#263238"/>
<path d="M150.299 66.8337C148.586 65.9487 146.772 65.2758 144.898 64.8299C142.99 64.3539 141.004 64.2823 139.067 64.6195C137.08 64.9798 135.256 65.9597 133.856 67.4198C132.46 68.8679 131.432 70.6328 130.861 72.5646C130.35 74.4961 130.256 76.515 130.586 78.4858C130.917 80.4125 131.467 82.2949 132.223 84.0965C133.762 87.642 135.692 91.0028 137.979 94.1155C136.062 90.8102 134.393 87.3657 132.987 83.8109C132.338 82.0433 131.872 80.2136 131.594 78.3505C131.312 76.5225 131.416 74.6553 131.899 72.8701C132.404 71.1004 133.323 69.4774 134.58 68.1361C135.818 66.7885 137.438 65.8533 139.222 65.456C141.05 65.061 142.938 65.0287 144.778 65.3609C145.716 65.5006 146.645 65.698 147.558 65.952C148.484 66.2091 149.397 66.503 150.299 66.8337Z" fill="#263238"/>
<path d="M147.358 87.0521C148.906 88.8255 150.643 90.4185 152.315 92.0616C153.988 93.7047 155.69 95.3178 157.307 96.991C158.924 98.6642 160.522 100.387 161.964 102.206C163.435 103.994 164.726 105.924 165.818 107.967C166.925 109.971 167.644 112.167 167.94 114.439C168.147 116.726 167.955 119.032 167.371 121.252C166.798 123.487 165.709 125.555 164.191 127.289C163.428 128.162 162.556 128.931 161.595 129.578C161.116 129.899 160.616 130.187 160.098 130.44C159.579 130.712 159.024 130.908 158.45 131.021C159.624 130.852 160.75 130.443 161.76 129.818C162.794 129.224 163.745 128.497 164.59 127.654C165.433 126.797 166.166 125.838 166.772 124.799C167.372 123.753 167.851 122.642 168.199 121.488C168.548 120.344 168.785 119.17 168.908 117.981L168.988 117.079L169.023 116.182C169.049 115.574 169.032 114.965 168.973 114.359C168.692 111.949 167.951 109.615 166.792 107.486C164.52 103.243 161.301 99.6811 157.916 96.4149C156.219 94.7768 154.452 93.2238 152.67 91.6959C150.888 90.168 149.081 88.6501 147.358 87.0521Z" fill="#263238"/>
<path d="M152.17 67.1593C151.507 66.2777 149.999 65.6565 149.32 65.9671C148.641 66.2777 145.961 71.3673 146.46 72.7099C146.959 74.0524 149.535 73.5064 149.535 73.5064L152.17 67.1593Z" fill="#F16624"/>
<path d="M176.476 58.2875C180.395 76.5271 169.957 80.9405 166.033 81.7871C162.474 82.5486 150.264 84.7077 144.488 66.974C138.713 49.2403 145.921 41.6459 153.973 39.4617C162.025 37.2776 172.557 40.0478 176.476 58.2875Z" fill="#FFBE9D"/>
<path d="M170.526 55.5973C170.099 55.5915 169.672 55.5631 169.248 55.5121C168.792 55.5481 168.337 55.4299 167.955 55.1765C167.851 55.0741 167.783 54.9401 167.762 54.7952C167.742 54.6504 167.769 54.5027 167.84 54.375C168.021 54.1445 168.26 53.9664 168.532 53.859C168.804 53.7516 169.099 53.7188 169.388 53.7638C169.986 53.7659 170.563 53.9909 171.005 54.395C171.101 54.4928 171.167 54.6167 171.194 54.7515C171.221 54.8862 171.209 55.026 171.158 55.1536C171.107 55.2812 171.02 55.3912 170.908 55.47C170.796 55.5488 170.663 55.5931 170.526 55.5973Z" fill="#263238"/>
<path d="M157.786 60.3363C158.197 60.2118 158.6 60.0646 158.994 59.8955C159.44 59.7985 159.842 59.5574 160.138 59.2092C160.21 59.0817 160.237 58.9338 160.217 58.7887C160.196 58.6436 160.128 58.5096 160.023 58.4076C159.786 58.2367 159.508 58.1325 159.217 58.1061C158.926 58.0797 158.634 58.1319 158.37 58.2573C157.794 58.4246 157.302 58.8039 156.993 59.3194C156.929 59.4401 156.901 59.5769 156.913 59.7132C156.925 59.8495 156.976 59.9793 157.06 60.087C157.144 60.1947 157.257 60.2756 157.386 60.3199C157.515 60.3641 157.654 60.3698 157.786 60.3363Z" fill="#263238"/>
<path d="M160.906 62.6107C160.906 62.5656 160.816 62.6858 160.826 62.7359C161.076 63.9833 161.151 65.4561 160.092 66.0572C160.058 66.0572 160.092 66.1424 160.092 66.1274C161.46 65.7015 161.34 63.7528 160.906 62.6107Z" fill="#263238"/>
<path d="M159.573 61.4885C157.542 61.6739 158.076 65.7416 159.943 65.5713C161.81 65.4009 161.276 61.3382 159.573 61.4885Z" fill="#263238"/>
<path d="M158.805 61.8091C158.48 62.0847 158.186 62.5355 157.761 62.6307C157.337 62.7259 156.848 62.3652 156.473 61.9945C156.433 61.9594 156.404 61.9945 156.409 62.0496C156.498 62.8311 156.908 63.5925 157.746 63.6025C158.52 63.6025 158.974 62.8511 159.069 62.0446C159.089 61.8943 158.934 61.6939 158.805 61.8091Z" fill="#263238"/>
<path d="M168.429 60.9876C168.429 60.9375 168.534 61.0377 168.534 61.0928C168.579 62.3602 168.848 63.8079 170.031 64.1486C170.066 64.1486 170.066 64.2237 170.031 64.2187C168.609 64.1185 168.269 62.1949 168.429 60.9876Z" fill="#263238"/>
<path d="M169.467 59.585C171.489 59.2894 171.928 63.3671 170.057 63.6377C168.185 63.9082 167.77 59.8304 169.467 59.585Z" fill="#263238"/>
<path d="M170.286 59.7101C170.665 59.9055 171.059 60.2712 171.489 60.2712C171.918 60.2712 172.317 59.7953 172.597 59.3494C172.627 59.3043 172.667 59.3494 172.672 59.3895C172.767 60.171 172.557 61.0026 171.733 61.213C170.985 61.4033 170.361 60.7671 170.081 60.0057C170.031 59.8654 170.136 59.635 170.286 59.7101Z" fill="#263238"/>
<path d="M163.212 72.3592C163.537 72.6297 163.871 73.0154 164.335 73.0154C164.803 72.967 165.256 72.8202 165.663 72.5846C165.703 72.5846 165.748 72.5846 165.723 72.6447C165.564 72.9095 165.335 73.1257 165.063 73.2704C164.79 73.4151 164.484 73.4828 164.176 73.4663C163.914 73.419 163.671 73.2955 163.479 73.1111C163.286 72.9268 163.152 72.6897 163.092 72.4293C163.067 72.3542 163.162 72.3191 163.212 72.3592Z" fill="#263238"/>
<path d="M167.82 67.0641C167.82 67.0641 168.319 68.9076 168.464 69.7943C168.464 69.8744 168.269 69.9446 167.965 70.0047C167.965 70.0047 167.965 70.0047 167.93 70.0047C167.191 70.2482 166.399 70.2835 165.641 70.1068C164.884 69.9302 164.189 69.5483 163.632 69.0028C163.613 68.9875 163.602 68.9655 163.599 68.9415C163.597 68.9176 163.604 68.8936 163.619 68.875C163.635 68.8564 163.657 68.8447 163.681 68.8423C163.704 68.84 163.728 68.8472 163.747 68.8625C164.983 69.4772 166.383 69.6757 167.74 69.4286C167.77 69.1731 166.742 66.3027 166.882 66.2726C167.577 66.2366 168.273 66.2939 168.953 66.4429C167.98 62.5756 166.397 58.8936 165.489 55.0262C165.459 54.886 165.654 54.8158 165.709 54.9361C167.64 58.6782 168.858 63.1066 169.962 67.0741C170.106 67.5901 168.195 67.1793 167.82 67.0641Z" fill="#263238"/>
<path d="M143.445 66.508C146.605 66.7535 147.329 60.1059 147.329 60.1059C147.329 60.1059 153.748 60.1059 155.87 50.8583C155.87 50.8583 155.73 55.1715 153.024 58.5179C153.024 58.5179 164.346 57.3156 169.113 47.8075C169.113 47.8075 167.211 52.6517 165.429 54.375C165.429 54.375 170.176 53.0425 172.492 49.1751C172.492 49.1751 174.489 54.6856 175.987 56.1884C175.987 56.1884 175.522 36.3107 157.172 38.4247C157.172 38.4247 145.691 39.1911 141.558 48.3185C137.425 57.4458 143.445 66.508 143.445 66.508Z" fill="#263238"/>
<path d="M147.673 67.7504C147.673 67.7504 142.921 62.4804 140.49 64.2437C138.059 66.0071 142.142 74.0073 145.357 74.7637C145.762 74.8891 146.188 74.931 146.61 74.8867C147.031 74.8423 147.439 74.7128 147.81 74.506C148.18 74.2991 148.505 74.0191 148.764 73.6828C149.024 73.3466 149.213 72.9611 149.32 72.5495L147.673 67.7504Z" fill="#FFBE9D"/>
<path d="M141.718 66.5181C141.668 66.5181 141.668 66.5882 141.718 66.5982C143.979 67.1994 145.362 69.0579 146.415 71.0316C145.676 70.3153 144.753 69.9897 143.779 70.8864C143.729 70.9365 143.779 71.0166 143.854 70.9966C144.217 70.8278 144.622 70.7757 145.016 70.8474C145.409 70.9192 145.77 71.1113 146.051 71.3973C146.515 71.8815 146.926 72.4139 147.279 72.9854C147.403 73.1657 147.738 73.0154 147.633 72.805C147.632 72.7883 147.632 72.7716 147.633 72.7549C147.313 69.9997 144.698 66.4179 141.718 66.5181Z" fill="#263238"/>
<path d="M145.816 74.899C145.816 75.0972 145.874 75.2909 145.984 75.4556C146.094 75.6204 146.25 75.7488 146.432 75.8246C146.615 75.9005 146.815 75.9203 147.009 75.8817C147.203 75.843 147.381 75.7476 147.52 75.6075C147.66 75.4673 147.755 75.2888 147.793 75.0945C147.832 74.9001 147.812 74.6987 147.737 74.5156C147.661 74.3325 147.533 74.176 147.369 74.0659C147.205 73.9559 147.012 73.8971 146.814 73.8971C146.55 73.8971 146.296 74.0027 146.108 74.1905C145.921 74.3784 145.816 74.6333 145.816 74.899Z" fill="white"/>
<path d="M170.775 41.1349C168.613 41.3052 157.532 45.3028 153.214 49.115C148.896 52.9273 142.326 63.1066 141.992 63.6426C141.657 64.1786 133.341 46.4199 147.198 38.1492C162.289 29.1371 170.775 41.1349 170.775 41.1349Z" fill="#F16624"/>
<path d="M142.606 62.6007C142.606 62.6007 148.237 46.2797 152.759 41.4956C157.282 36.7115 169.033 30.9756 177.719 31.8623C184.503 32.5436 172.512 44.9421 172.512 44.9421C172.512 44.9421 171.419 42.9383 169.267 42.8181C165.084 42.5576 158.42 45.9941 154.851 48.6592C150.388 52.0356 142.606 62.6007 142.606 62.6007Z" fill="#F16624"/>
<path opacity="0.2" d="M142.606 62.6007C142.606 62.6007 148.237 46.2797 152.759 41.4956C157.282 36.7115 169.033 30.9756 177.719 31.8623C184.503 32.5436 172.512 44.9421 172.512 44.9421C172.512 44.9421 171.419 42.9383 169.267 42.8181C165.084 42.5576 158.42 45.9941 154.851 48.6592C150.388 52.0356 142.606 62.6007 142.606 62.6007Z" fill="black"/>
<path d="M183.754 124.608H116.844V166.268H183.754V124.608Z" fill="#F16624"/>
<path opacity="0.2" d="M183.754 124.608H116.844V166.268H183.754V124.608Z" fill="black"/>
<path opacity="0.2" d="M116.848 166.268H142.187V124.608H116.848V166.268Z" fill="black"/>
<path d="M118.59 163.397C120.467 160.435 122.328 157.463 124.171 154.48L129.662 145.523L135.088 136.506C136.889 133.5 138.671 130.495 140.435 127.489C138.558 130.448 136.699 133.419 134.859 136.401L129.368 145.363L123.942 154.38C122.141 157.366 120.358 160.371 118.59 163.397Z" fill="#F16624"/>
<path d="M118.59 127.479C120.358 130.485 122.14 133.49 123.937 136.496L129.363 145.513L134.854 154.47C136.691 157.456 138.549 160.428 140.43 163.387C138.666 160.361 136.884 157.347 135.083 154.345L129.657 145.328L124.166 136.366C122.329 133.403 120.471 130.441 118.59 127.479Z" fill="#F16624"/>
<path d="M133.317 124.608H125.619V132.333H133.317V124.608Z" fill="#EBEBEB"/>
<path d="M169.698 155.177H169.158V162.806H169.698V155.177Z" fill="#263238"/>
<path d="M170.991 155.177H170.451V162.806H170.991V155.177Z" fill="#263238"/>
<path d="M172.283 155.177H171.744V162.806H172.283V155.177Z" fill="#263238"/>
<path d="M173.576 155.177H173.036V162.806H173.576V155.177Z" fill="#263238"/>
<path d="M174.869 155.177H174.329V162.806H174.869V155.177Z" fill="#263238"/>
<path d="M176.162 155.177H175.623V162.806H176.162V155.177Z" fill="#263238"/>
<path d="M177.455 155.177H176.915V162.806H177.455V155.177Z" fill="#263238"/>
<path d="M178.748 155.177H178.208V162.806H178.748V155.177Z" fill="#263238"/>
<path d="M180.046 155.177H179.506V162.806H180.046V155.177Z" fill="#263238"/>
<path d="M163.866 162.245L165.938 162.821H161.071L163.147 162.235V159.435C161.65 159.239 161.071 157.766 161.071 155.197H165.938C165.938 157.761 165.349 159.239 163.866 159.435V162.245Z" fill="#263238"/>
<path d="M159.938 159.069H158.665V162.801H155.41V159.069H154.137L157.038 155.177L159.938 159.069Z" fill="#263238"/>
<path opacity="0.1" d="M183.754 166.268V162.616L142.187 155.853V166.263L183.754 166.268Z" fill="black"/>
<path d="M158.875 152.361L158.835 152.411C158.65 152.632 158.47 152.852 158.286 153.068C157.407 154.109 156.499 155.116 155.565 156.098C154.432 157.316 153.264 158.493 152.071 159.665C150.878 160.837 149.69 161.964 148.462 163.082C147.234 164.199 145.966 165.301 144.678 166.338C145.731 165.04 146.849 163.808 147.982 162.601C149.116 161.393 150.289 160.211 151.477 159.039C152.665 157.867 153.863 156.729 155.091 155.607C156.089 154.721 157.088 153.834 158.086 152.992C158.326 152.792 158.56 152.602 158.805 152.411L158.875 152.361Z" fill="#DBDBDB"/>
<path d="M148.482 151.444C142.791 146.37 110.089 128.02 103.465 125.726C96.841 123.431 87.4913 126.447 90.4864 136.441C93.4815 146.435 127.072 175.946 139.751 178.02C144.209 178.776 150.543 153.278 148.482 151.444Z" fill="#FFBE9D"/>
<path d="M158.121 160.321C156.818 159.319 157.337 158.618 160.267 158.593C163.198 158.568 174.799 160.957 175.288 156.825C175.777 152.692 159.374 149.556 154.482 149.972C149.59 150.387 141.902 152.777 141.902 152.777C144.957 154.029 152.126 157.786 158.121 160.321Z" fill="#FFBE9D"/>
<path d="M135.223 176.367C144.009 179.578 154.752 184.117 165.13 182.193C166.281 182.006 167.335 181.436 168.125 180.575C172.792 179.798 173.825 177.354 173.825 177.354C177.954 175.29 178.667 172.645 178.667 172.645C178.667 172.645 184.158 171.673 184.099 168.256C184.069 164.429 176.391 166.543 171.464 165.12C160.168 161.854 145.007 154.044 141.863 152.777L135.223 176.367Z" fill="#FFBE9D"/>
<path d="M157.252 170.045C160.597 170.941 163.857 171.908 167.301 172.339C171.085 172.84 174.789 172.645 178.592 172.56C178.616 172.56 178.639 172.569 178.656 172.586C178.673 172.603 178.682 172.626 178.682 172.65C178.682 172.674 178.673 172.697 178.656 172.713C178.639 172.73 178.616 172.74 178.592 172.74C171.759 173.982 163.587 172.89 157.192 170.195C157.053 170.13 157.083 170 157.252 170.045Z" fill="#263238"/>
<path d="M154.297 176.602C157.597 177.288 163.407 178.461 173.835 177.238C173.87 177.238 173.885 177.293 173.835 177.304C167.39 178.951 160.615 178.767 154.267 176.772C154.063 176.697 154.078 176.552 154.297 176.602Z" fill="#263238"/>
<path d="M152.775 180.154C158.43 181.111 162.119 180.996 168.12 180.555C168.155 180.555 168.169 180.61 168.12 180.615C161.356 181.837 158.76 181.507 152.705 180.344C152.505 180.304 152.555 180.114 152.775 180.154Z" fill="#263238"/>
<path d="M150.189 149.942L134.3 181.281C134.3 181.281 106.495 165.065 91.5896 139.457C86.6227 130.94 91.6146 119.479 106.675 125.6C121.735 131.722 150.189 149.942 150.189 149.942Z" fill="#F16624"/>
<path d="M143.779 147.657C141.283 152.241 131.654 171.357 129.857 175.63C129.732 175.926 129.887 176.081 130.057 175.786C137.924 162.26 141.718 152.381 143.954 147.762C144.014 147.647 143.844 147.542 143.779 147.657Z" fill="#263238"/>
<path d="M220.314 38.4497C219.985 41.619 218.785 44.6341 216.848 47.1585C214.91 49.683 212.312 51.6174 209.342 52.746C206.373 53.8745 203.15 54.1528 200.032 53.5496C196.914 52.9465 194.025 51.4858 191.686 49.3304L183.11 50.5928L187.398 43.1537C186.416 40.7328 185.996 38.119 186.171 35.5111C186.347 32.9031 187.112 30.3695 188.409 28.1028C189.706 25.8361 191.501 23.896 193.658 22.4299C195.814 20.9637 198.275 20.0102 200.854 19.6417C203.432 19.2732 206.061 19.4994 208.539 20.3032C211.018 21.1069 213.281 22.4671 215.157 24.2803C217.033 26.0935 218.473 28.312 219.367 30.7673C220.26 33.2225 220.584 35.8499 220.314 38.4497Z" fill="white"/>
<path d="M220.314 38.4497C219.984 41.6214 218.787 44.6398 216.855 47.1713C216.374 47.8001 215.856 48.399 215.302 48.9647C214.733 49.5147 214.129 50.0284 213.495 50.5026C212.232 51.4627 210.841 52.2401 209.362 52.812C207.882 53.3904 206.33 53.7613 204.75 53.9141C203.958 53.9868 203.162 54.0018 202.369 53.9592C201.573 53.9429 200.78 53.8608 199.997 53.7137C196.834 53.1324 193.895 51.6768 191.511 49.5107L191.716 49.5759L183.15 50.8934L182.526 50.9885L182.84 50.4375L187.109 42.9883V43.2789C186.103 40.8143 185.674 38.1507 185.857 35.4937C186.04 32.8367 186.828 30.2574 188.162 27.9548C189.496 25.661 191.331 23.7001 193.528 22.2189C195.723 20.7591 198.219 19.8177 200.828 19.4655C203.437 19.1132 206.092 19.3592 208.593 20.185C211.071 21.0281 213.329 22.4162 215.203 24.2477C217.069 26.0729 218.499 28.2993 219.385 30.7592C220.27 33.2192 220.588 35.8487 220.314 38.4497ZM220.314 38.4497C220.584 35.8608 220.259 33.2442 219.364 30.801C218.469 28.3577 217.028 26.1529 215.151 24.3558C213.275 22.5587 211.013 21.2172 208.539 20.4342C206.065 19.6513 203.445 19.4478 200.881 19.8394C198.345 20.2242 195.929 21.1835 193.818 22.6447C191.718 24.1203 189.964 26.0365 188.676 28.2604C187.412 30.4889 186.668 32.9757 186.5 35.5342C186.337 38.0981 186.75 40.6659 187.708 43.0485L187.772 43.1987L187.688 43.344L183.375 50.7631L183.065 50.3123L191.646 49.105H191.766L191.851 49.1851C194.14 51.3364 196.982 52.8041 200.057 53.4232C200.824 53.5811 201.602 53.6766 202.384 53.7087C204.735 53.8772 207.094 53.5355 209.302 52.7068C210.783 52.1713 212.175 51.4184 213.435 50.4726C214.07 50.0104 214.676 49.5084 215.248 48.9697C215.802 48.4109 216.322 47.8187 216.805 47.1963C218.76 44.6634 219.975 41.6352 220.314 38.4497Z" fill="#263238"/>
<path d="M271.371 149.355H197.576V206.75H271.371V149.355Z" fill="#F16624"/>
<path opacity="0.2" d="M271.371 149.355H197.576V206.75H271.371V149.355Z" fill="black"/>
<path opacity="0.2" d="M197.576 206.754H225.526V149.36H197.576V206.754Z" fill="black"/>
<path d="M199.503 202.822C201.576 198.741 203.628 194.647 205.658 190.539L211.718 178.195L217.708 165.797C219.705 161.659 221.67 157.504 223.604 153.333C221.537 157.414 219.487 161.509 217.454 165.616L211.388 177.965L205.398 190.363C203.412 194.485 201.446 198.637 199.503 202.822Z" fill="#F16624"/>
<path d="M199.503 153.308C201.45 157.476 203.415 161.63 205.398 165.772L211.388 178.17L217.454 190.514C219.48 194.621 221.53 198.716 223.604 202.797C221.66 198.629 219.695 194.476 217.708 190.338L211.718 177.94L205.658 165.591C203.625 161.484 201.573 157.389 199.503 153.308Z" fill="#F16624"/>
<path d="M215.737 149.355H207.251V156.359H215.737V149.355Z" fill="#EBEBEB"/>
<path d="M255.866 194.516H255.272V202.932H255.866V194.516Z" fill="#263238"/>
<path d="M257.289 194.516H256.695V202.932H257.289V194.516Z" fill="#263238"/>
<path d="M258.716 194.516H258.122V202.932H258.716V194.516Z" fill="#263238"/>
<path d="M260.144 194.516H259.55V202.932H260.144V194.516Z" fill="#263238"/>
<path d="M261.572 194.516H260.978V202.932H261.572V194.516Z" fill="#263238"/>
<path d="M262.999 194.516H262.405V202.932H262.999V194.516Z" fill="#263238"/>
<path d="M264.422 194.516H263.828V202.932H264.422V194.516Z" fill="#263238"/>
<path d="M265.85 194.516H265.256V202.932H265.85V194.516Z" fill="#263238"/>
<path d="M267.278 194.516H266.684V202.932H267.278V194.516Z" fill="#263238"/>
<path d="M249.436 202.291L251.723 202.927H246.357L248.643 202.286V199.19C247.005 198.975 246.357 197.357 246.357 194.521H251.723C251.723 197.347 251.074 198.975 249.436 199.19V202.291Z" fill="#263238"/>
<path d="M245.104 198.809H243.701V202.927H240.112V198.809H238.704L241.909 194.521L245.104 198.809Z" fill="#263238"/>
<path opacity="0.1" d="M271.371 206.75V202.722L225.526 195.263V206.75H271.371Z" fill="black"/>
<path d="M268.71 129.117H211.699V149.355H268.71V129.117Z" fill="#F16624"/>
<path opacity="0.2" d="M268.71 129.117H211.699V149.355H268.71V129.117Z" fill="black"/>
<path opacity="0.2" d="M211.703 149.355H229.125V129.117H211.703V149.355Z" fill="black"/>
<path d="M212.901 147.963C214.189 146.52 215.472 145.077 216.735 143.63L220.514 139.276L224.247 134.903C225.485 133.444 226.71 131.979 227.921 130.51C226.63 131.949 225.352 133.393 224.088 134.843L220.304 139.201L216.575 143.574C215.337 145.027 214.112 146.49 212.901 147.963Z" fill="#F16624"/>
<path d="M212.901 130.51C214.112 131.976 215.337 133.44 216.575 134.903L220.304 139.276L224.088 143.63C225.352 145.079 226.63 146.523 227.921 147.963C226.707 146.49 225.482 145.026 224.247 143.569L220.514 139.201L216.735 134.848C215.472 133.39 214.189 131.947 212.901 130.51Z" fill="#F16624"/>
<path d="M223.02 129.117H217.728V133.856H223.02V129.117Z" fill="#EBEBEB"/>
<path d="M259.047 141.731H258.677V146.976H259.047V141.731Z" fill="#263238"/>
<path d="M259.935 141.731H259.565V146.976H259.935V141.731Z" fill="#263238"/>
<path d="M260.824 141.731H260.454V146.976H260.824V141.731Z" fill="#263238"/>
<path d="M261.712 141.731H261.342V146.976H261.712V141.731Z" fill="#263238"/>
<path d="M262.601 141.731H262.231V146.976H262.601V141.731Z" fill="#263238"/>
<path d="M263.489 141.731H263.119V146.976H263.489V141.731Z" fill="#263238"/>
<path d="M264.383 141.731H264.013V146.976H264.383V141.731Z" fill="#263238"/>
<path d="M265.271 141.731H264.901V146.976H265.271V141.731Z" fill="#263238"/>
<path d="M266.159 141.731H265.79V146.976H266.159V141.731Z" fill="#263238"/>
<path d="M255.038 146.575L256.465 146.976H253.116L254.543 146.57V144.642C253.545 144.511 253.116 143.499 253.116 141.731H256.465C256.465 143.494 256.061 144.511 255.038 144.642V146.575Z" fill="#263238"/>
<path d="M252.337 144.406H251.463V146.976H249.227V144.406H248.348L250.345 141.731L252.337 144.406Z" fill="#263238"/>
<path opacity="0.1" d="M268.71 149.355V146.846L229.12 142.197V149.355H268.71Z" fill="black"/>
<path d="M209.53 45.7856L195.793 31.9999L198.053 29.7314L211.79 43.5171L209.53 45.7856ZM198.297 45.6121L195.966 43.2728L209.287 29.9048L211.618 32.2442L198.297 45.6121Z" fill="#F16624"/>
</svg>
