<svg width="24" height="25" viewBox="0 0 24 25" fill="none" xmlns="http://www.w3.org/2000/svg">
<path d="M16.9687 13.6333C17.8434 13.6333 18.6131 13.155 19.0096 12.4317L23.1847 4.85999C23.6162 4.08999 23.0564 3.13332 22.1701 3.13332H4.90984L3.81358 0.799988H0V3.13332H2.33247L6.53091 11.9883L4.95649 14.835C4.10514 16.3983 5.22473 18.3 6.9974 18.3H20.9922V15.9667H6.9974L8.28026 13.6333H16.9687ZM6.01777 5.46665H20.1875L16.9687 11.3H8.78174L6.01777 5.46665ZM6.9974 19.4667C5.71454 19.4667 4.6766 20.5167 4.6766 21.8C4.6766 23.0833 5.71454 24.1333 6.9974 24.1333C8.28026 24.1333 9.32987 23.0833 9.32987 21.8C9.32987 20.5167 8.28026 19.4667 6.9974 19.4667ZM18.6597 19.4667C17.3769 19.4667 16.3389 20.5167 16.3389 21.8C16.3389 23.0833 17.3769 24.1333 18.6597 24.1333C19.9426 24.1333 20.9922 23.0833 20.9922 21.8C20.9922 20.5167 19.9426 19.4667 18.6597 19.4667Z" fill="#FC6B00"/>
</svg>
