<svg width="22" height="20" viewBox="0 0 22 20" fill="none" xmlns="http://www.w3.org/2000/svg">
<path d="M20.9499 3.25688C20.8165 3.07337 20.6164 2.9817 20.3939 2.9817H5.2264L4.71492 0.573396C4.64821 0.229424 4.35905 0 4.02553 0H0.711754C0.311516 0 0 0.321093 0 0.734029C0 1.14679 0.31135 1.46806 0.711754 1.46806H3.46953L6.36074 15.0919C6.42745 15.4359 6.71662 15.6653 7.05014 15.6653H18.2812C18.6815 15.6653 18.993 15.3442 18.993 14.9313C18.993 14.5185 18.6817 14.1973 18.2812 14.1973H7.62837L7.2725 12.523H18.637C18.9706 12.523 19.2598 12.2936 19.3264 11.9496L21.1057 3.8762C21.1278 3.66981 21.0835 3.44037 20.9499 3.25688Z" fill="#F16624"/>
<path d="M18.5035 18.2569C18.5035 19.2195 17.7468 20 16.8134 20C15.8798 20 15.123 19.2195 15.123 18.2569C15.123 17.2941 15.8798 16.5137 16.8134 16.5137C17.7468 16.5137 18.5035 17.2941 18.5035 18.2569Z" fill="#F16624"/>
<path d="M10.2527 18.2569C10.2527 19.2195 9.49594 20 8.5625 20C7.62906 20 6.87231 19.2195 6.87231 18.2569C6.87231 17.2941 7.62906 16.5137 8.5625 16.5137C9.49594 16.5137 10.2527 17.2941 10.2527 18.2569Z" fill="#F16624"/>
</svg>
