<svg width="20" height="22" viewBox="0 0 20 22" fill="none" xmlns="http://www.w3.org/2000/svg">
<path fill-rule="evenodd" clip-rule="evenodd" d="M6.81478 2.43663H20V4.54791H6.81307C6.36324 5.95542 5.04339 6.97871 3.48916 6.97871C1.56626 6.97871 0.000299933 5.41262 0.000299933 3.48985C0.000299933 1.56609 1.56605 0 3.48916 0C5.04506 0 6.36692 1.02543 6.81508 2.4365L6.81478 2.43663ZM3.48886 14.705C5.04391 14.705 6.36495 15.7292 6.81363 17.1386H19.9997V19.2499H6.81363C6.36581 20.6594 5.04395 21.6827 3.48886 21.6827C1.56596 21.6827 0 20.1174 0 18.1938C0 16.2709 1.56575 14.7048 3.48886 14.7048V14.705ZM3.48886 16.8163C2.72406 16.8163 2.11146 17.4292 2.11146 18.194C2.11146 18.9589 2.72406 19.5714 3.48886 19.5714C4.25367 19.5714 4.86627 18.9588 4.86627 18.194C4.86627 17.4292 4.25367 16.8163 3.48886 16.8163ZM3.48886 7.35291C5.04391 7.35291 6.36581 8.37633 6.81363 9.78573H19.9997V11.898H6.81363C6.36495 13.3064 5.04395 14.3306 3.48886 14.3306C1.56596 14.3306 0 12.7649 0 10.8418C0 8.91802 1.56575 7.35291 3.48886 7.35291ZM3.48886 9.4642C2.72406 9.4642 2.11146 10.0768 2.11146 10.8416C2.11146 11.6064 2.72406 12.219 3.48886 12.219C4.25367 12.219 4.86627 11.6064 4.86627 10.8416C4.86627 10.0768 4.25367 9.4642 3.48886 9.4642ZM3.48886 2.1121C2.72406 2.1121 2.11146 2.72385 2.11146 3.48985C2.11146 4.25465 2.72406 4.86644 3.48886 4.86644C4.25367 4.86644 4.86627 4.25469 4.86627 3.48985C4.86627 2.72385 4.25367 2.1121 3.48886 2.1121Z" fill="#FC6B00"/>
</svg>
