<svg width="16" height="16" viewBox="0 0 16 16" fill="none" xmlns="http://www.w3.org/2000/svg">
<path d="M13.2856 11.6549L11.2298 10.0213C10.8928 9.75179 10.4883 9.58344 10.0502 9.54972C9.40986 9.51601 8.80322 9.7687 8.39885 10.2233C8.29776 10.3243 8.14613 10.3413 8.02813 10.257C7.18557 9.58344 6.4273 8.82546 5.75316 7.98339C5.66888 7.86545 5.66888 7.7139 5.7869 7.61288C6.27552 7.17504 6.54517 6.50133 6.44409 5.79402C6.39355 5.42351 6.22499 5.0699 5.98908 4.7667L4.35452 2.71206C3.96697 2.24062 3.37715 1.93742 2.75369 1.93742C2.61887 1.93742 2.48405 1.95422 2.34923 1.97113C1.75938 2.08908 1.25397 2.35845 0.866303 2.74589C0.293394 3.31847 -0.515551 4.64899 0.445025 7.24253C1.05167 8.87614 2.24816 10.6276 3.7984 12.177C6.1575 14.5517 8.88745 16 10.9601 16C11.887 16 12.679 15.6969 13.2519 15.1411C13.6226 14.7706 13.8923 14.2991 14.0102 13.7265C14.1955 12.9517 13.9091 12.1434 13.2856 11.6549L13.2856 11.6549ZM12.9485 13.4738C12.8642 13.8275 12.7126 14.1138 12.4767 14.3495C12.106 14.72 11.5836 14.8885 10.9601 14.8885C9.2582 14.8885 6.78105 13.5917 4.5904 11.4192C1.5909 8.43814 0.27651 4.90161 1.64145 3.53746C1.89417 3.28489 2.19754 3.13324 2.58509 3.04912C2.65244 3.03232 2.7031 3.03232 2.77046 3.03232C3.05691 3.03232 3.32654 3.16707 3.51194 3.40283L5.1465 5.49098C5.50043 5.94572 5.38241 6.60253 4.89378 6.88881L4.48932 7.12458C4.21968 7.29304 4.13539 7.64663 4.32076 7.91612C5.34868 9.36448 6.61252 10.6276 8.06172 11.6549C8.31443 11.8402 8.68518 11.7559 8.85372 11.4864L9.08963 11.0822C9.275 10.7791 9.57825 10.6275 9.89845 10.6275C10.1006 10.6275 10.3197 10.6948 10.4883 10.8295L12.5779 12.4799C12.898 12.7497 13.0328 13.1201 12.9485 13.4738L12.9485 13.4738Z" fill="black"/>
<path d="M8.97172 4.78358C8.56726 4.68255 8.19651 5.00255 8.21345 5.40668C8.23026 5.67617 8.41563 5.89502 8.68528 5.94566C9.00548 6.02989 9.30874 6.18144 9.56157 6.434C9.81429 6.68657 9.98285 6.98977 10.0502 7.30978C10.1175 7.56235 10.3366 7.76453 10.5895 7.78134C10.9939 7.81505 11.314 7.42761 11.213 7.02351C11.0781 6.48453 10.8085 5.97938 10.4041 5.57515C9.99955 5.18783 9.49411 4.91834 8.97172 4.78361V4.78358Z" fill="black"/>
<path d="M12.9986 7.96659C13.3693 8.00031 13.6726 7.6803 13.639 7.30978C13.5379 6.08039 13.0155 4.8846 12.0719 3.94151C11.1282 2.99843 9.93174 2.47635 8.70163 2.37533C8.33091 2.34161 8.0107 2.64482 8.04444 3.01533C8.06125 3.31841 8.29716 3.55431 8.60053 3.58791C9.5611 3.67214 10.4878 4.07624 11.2293 4.80048C11.9538 5.5246 12.3751 6.4678 12.4426 7.4277C12.4592 7.71399 12.712 7.94975 12.9986 7.96656L12.9986 7.96659Z" fill="black"/>
<path d="M13.7409 2.27431C12.2917 0.825952 10.4043 0.0680019 8.50015 0.00066661C8.14622 -0.0161323 7.85978 0.286954 7.87669 0.640667C7.8935 0.943751 8.14633 1.19643 8.46654 1.19643C10.0674 1.24695 11.6683 1.88696 12.8815 3.11634C14.1116 4.34573 14.752 5.92885 14.8026 7.52877C14.8194 7.83186 15.0553 8.08454 15.3587 8.11828C15.7126 8.13508 16.0159 7.86571 15.999 7.49518C15.9485 5.60886 15.1901 3.72272 13.7409 2.27437L13.7409 2.27431Z" fill="black"/>
</svg>
