<svg width="20" height="20" viewBox="0 0 20 20" fill="none" xmlns="http://www.w3.org/2000/svg">
<path d="M11.4685 4.78947C12.3938 4.97001 13.2442 5.42256 13.9108 6.0892C14.5775 6.75584 15.03 7.60625 15.2106 8.53158M11.4685 1C13.3909 1.21357 15.1837 2.07448 16.5523 3.44138C17.9209 4.80827 18.7841 6.5999 19 8.52211M15.6842 19C7.57435 19 1 12.4257 1 4.31579C1 3.9499 1.01338 3.58713 1.03968 3.22795C1.06987 2.81574 1.08496 2.60964 1.19298 2.42203C1.28245 2.26665 1.441 2.11928 1.60251 2.0414C1.7975 1.94737 2.02494 1.94737 2.4798 1.94737H5.14883C5.53134 1.94737 5.72259 1.94737 5.88655 2.01032C6.03137 2.06593 6.16033 2.15625 6.26208 2.27335C6.37727 2.40593 6.44264 2.58567 6.57336 2.94515L7.6781 5.9832C7.83019 6.40145 7.90624 6.61057 7.89333 6.80898C7.88194 6.98393 7.82224 7.15229 7.72085 7.29532C7.60587 7.45753 7.41506 7.57202 7.03344 7.80099L5.73684 8.57895C6.87548 11.0884 8.91066 13.1262 11.4211 14.2632L12.199 12.9666C12.428 12.5849 12.5425 12.3941 12.7047 12.2792C12.8477 12.1778 13.0161 12.1181 13.191 12.1067C13.3894 12.0938 13.5986 12.1698 14.0168 12.3219L17.0549 13.4266C17.4143 13.5574 17.5941 13.6227 17.7266 13.7379C17.8437 13.8397 17.9341 13.9686 17.9897 14.1135C18.0526 14.2774 18.0526 14.4687 18.0526 14.8512V17.5202C18.0526 17.9751 18.0526 18.2025 17.9586 18.3975C17.8807 18.559 17.7334 18.7176 17.578 18.807C17.3904 18.915 17.1843 18.9301 16.7721 18.9603C16.4129 18.9866 16.0501 19 15.6842 19Z" stroke="#065197" stroke-linecap="round" stroke-linejoin="round"/>
</svg>
