<svg width="16" height="18" viewBox="0 0 16 18" fill="none" xmlns="http://www.w3.org/2000/svg">
<path d="M10.642 0H2.21152C1.36848 0 0.678711 0.736364 0.678711 1.63636V12.2727C0.678711 12.7227 1.02359 13.0909 1.44512 13.0909C1.86664 13.0909 2.21152 12.7227 2.21152 12.2727V2.45455C2.21152 2.00455 2.5564 1.63636 2.97792 1.63636H10.642C11.0635 1.63636 11.4084 1.26818 11.4084 0.818182C11.4084 0.368182 11.0635 0 10.642 0ZM13.7076 3.27273H5.27714C4.43409 3.27273 3.74433 4.00909 3.74433 4.90909V16.3636C3.74433 17.2636 4.43409 18 5.27714 18H13.7076C14.5506 18 15.2404 17.2636 15.2404 16.3636V4.90909C15.2404 4.00909 14.5506 3.27273 13.7076 3.27273ZM12.9412 16.3636H6.04354C5.62202 16.3636 5.27714 15.9955 5.27714 15.5455V5.72727C5.27714 5.27727 5.62202 4.90909 6.04354 4.90909H12.9412C13.3627 4.90909 13.7076 5.27727 13.7076 5.72727V15.5455C13.7076 15.9955 13.3627 16.3636 12.9412 16.3636Z" fill="#FC6B00"/>
</svg>
