<svg width="16" height="16" viewBox="0 0 16 16" fill="none" xmlns="http://www.w3.org/2000/svg">
<path d="M1.0249 15L0.529922 14.9293C0.506499 15.0934 0.565883 15.2584 0.688481 15.3699C0.811078 15.4814 0.980958 15.5249 1.14206 15.4861L1.0249 15ZM3.17198 10.5189L2.81842 10.1654L2.81833 10.1655L3.17198 10.5189ZM1.94122 11.8729L1.52633 11.5939L1.94122 11.8729ZM1.06178 14.7417L0.566799 14.671L1.06178 14.7417ZM1.40593 12.9441L0.93369 12.7798L1.40593 12.9441ZM5.23059 12.8579L4.87702 12.5044L4.87693 12.5044L5.23059 12.8579ZM4.08825 13.9116L3.79734 13.5049L4.08825 13.9116ZM1.70237 14.8367L1.5852 14.3506H1.5852L1.70237 14.8367ZM3.19682 14.4115L3.39212 14.8718L3.19682 14.4115ZM14.4328 1.4555L14.7864 1.10205V1.10205L14.4328 1.4555ZM14.4328 3.65488L14.7863 4.00842L14.7864 4.00833L14.4328 3.65488ZM12.2346 1.45551L12.5882 1.80904L12.5883 1.80896L12.2346 1.45551ZM8.80766 14.4937C8.53151 14.4937 8.30766 14.7176 8.30766 14.9937C8.30766 15.2698 8.53151 15.4937 8.80766 15.4937V14.4937ZM15.0249 15.4937C15.301 15.4937 15.5249 15.2698 15.5249 14.9937C15.5249 14.7176 15.301 14.4937 15.0249 14.4937V15.4937ZM14.0792 3.30134L4.87702 12.5044L5.58416 13.2114L14.7863 4.00842L14.0792 3.30134ZM3.52555 10.8725L12.5882 1.80904L11.8811 1.10197L2.81842 10.1654L3.52555 10.8725ZM1.51988 15.0707L1.55676 14.8124L0.566799 14.671L0.529922 14.9293L1.51988 15.0707ZM1.5852 14.3506L0.90774 14.5139L1.14206 15.4861L1.81953 15.3228L1.5852 14.3506ZM10.3483 3.34152L12.5434 5.54393L13.2517 4.838L11.0566 2.63559L10.3483 3.34152ZM2.81833 10.1655C2.1793 10.8049 1.81165 11.1697 1.52633 11.5939L2.35611 12.152C2.57493 11.8266 2.85975 11.5386 3.52564 10.8724L2.81833 10.1655ZM1.55676 14.8124C1.68994 13.8796 1.74933 13.4788 1.87818 13.1084L0.93369 12.7798C0.76571 13.2627 0.694607 13.7759 0.566799 14.671L1.55676 14.8124ZM1.52633 11.5939C1.27868 11.9621 1.07949 12.3607 0.93369 12.7798L1.87818 13.1084C1.99576 12.7704 2.1564 12.4489 2.35611 12.152L1.52633 11.5939ZM4.87693 12.5044C4.3128 13.0689 4.06915 13.3105 3.79734 13.5049L4.37916 14.3182C4.73352 14.0648 5.0427 13.7532 5.58424 13.2113L4.87693 12.5044ZM1.81953 15.3228C2.56408 15.1433 2.99107 15.042 3.39212 14.8718L3.00151 13.9513C2.69392 14.0818 2.36083 14.1637 1.5852 14.3506L1.81953 15.3228ZM3.79734 13.5049C3.54921 13.6824 3.28233 13.8321 3.00151 13.9513L3.39212 14.8718C3.74042 14.724 4.07142 14.5384 4.37916 14.3182L3.79734 13.5049ZM14.0791 1.80896C14.491 2.22106 14.491 2.88932 14.0791 3.30143L14.7864 4.00833C15.5886 3.20575 15.5886 1.90463 14.7864 1.10205L14.0791 1.80896ZM14.7864 1.10205C13.9841 0.299314 12.6833 0.299318 11.881 1.10205L12.5883 1.80896C13 1.39701 13.6674 1.39701 14.0791 1.80896L14.7864 1.10205ZM8.80766 15.4937H15.0249V14.4937H8.80766V15.4937Z" fill="#00182E"/>
</svg>
