<svg width="16" height="16" viewBox="0 0 16 16" fill="none" xmlns="http://www.w3.org/2000/svg">
<path d="M7.9914 15.9996C9.72304 16.0042 11.4089 15.4422 12.7914 14.3997C12.9344 14.2923 13.0091 14.1169 12.9876 13.9395C12.9661 13.7621 12.8515 13.6095 12.6871 13.5395C12.5228 13.4694 12.3334 13.4923 12.1906 13.5996C10.9812 14.5123 9.50641 15.0037 7.99152 14.9988C6.46771 14.9979 4.98581 14.4995 3.77121 13.5794C2.55654 12.6593 1.67559 11.3677 1.26216 9.90098C0.848735 8.43422 0.925592 6.87269 1.48091 5.45368C2.03621 4.03466 3.0398 2.83575 4.33891 2.0394C5.63802 1.24305 7.16157 0.89232 8.67827 1.04115C10.1948 1.18983 11.6213 1.82972 12.7408 2.86343C13.8605 3.89714 14.6118 5.26806 14.8809 6.76818C15.15 8.26806 14.922 9.81469 14.2315 11.1733C14.0554 11.2035 13.877 11.219 13.6983 11.2194C13.0935 11.2206 12.515 10.9731 12.0982 10.535C11.8969 10.3016 11.8091 9.9912 11.8582 9.68701C12.0927 9.15539 12.2138 8.58085 12.2138 7.99987C12.2171 6.67533 11.5991 5.42597 10.5441 4.62495C9.48929 3.824 8.11977 3.56419 6.84476 3.92321C5.56984 4.28222 4.53711 5.21848 4.05521 6.45222C3.5733 7.68584 3.69794 9.07425 4.392 10.2024C5.08594 11.3305 6.26898 12.0678 7.58755 12.1939C8.90612 12.32 10.2073 11.8204 11.1028 10.8443C11.168 10.9599 11.2435 11.0694 11.3286 11.1714C11.9324 11.84 12.7922 12.2201 13.693 12.2168C14.0253 12.2169 14.3564 12.1781 14.6796 12.1012H14.6903L14.7472 12.0888L14.7882 12.0728L14.8308 12.0461C14.8445 12.0388 14.8575 12.0305 14.8699 12.0212C14.8825 12.0115 14.8944 12.0007 14.9055 11.9892C14.9181 11.9789 14.93 11.9676 14.9409 11.9555C14.9509 11.9443 14.9598 11.9324 14.9676 11.9199C14.9794 11.9051 14.99 11.8897 14.9997 11.8736C15.8492 10.3385 16.1706 8.56664 15.9143 6.83109C15.658 5.09535 14.8382 3.49205 13.5811 2.26824C12.324 1.04427 10.6994 0.267514 8.9576 0.0575455C7.21566 -0.152524 5.45316 0.216028 3.9411 1.10615C2.42919 1.9964 1.25186 3.35887 0.590306 4.98392C-0.0711532 6.60893 -0.180042 8.40614 0.280412 10.0995C0.740855 11.7924 1.74508 13.2871 3.13841 14.3534C4.5319 15.4195 6.2371 15.9982 7.99173 16L7.9914 15.9996ZM7.9914 11.219C7.13749 11.219 6.31867 10.8798 5.71486 10.2761C5.11105 9.67226 4.77191 8.85347 4.77191 7.99953C4.77191 7.1456 5.11108 6.3268 5.71486 5.723C6.31867 5.11919 7.13746 4.78004 7.9914 4.78004C8.84533 4.78004 9.66412 5.11922 10.2679 5.723C10.8717 6.3268 11.2109 7.1456 11.2109 7.99953C11.2095 8.85296 10.8699 9.67102 10.2664 10.2746C9.66288 10.878 8.84482 11.2177 7.9914 11.219Z" fill="#00182E"/>
</svg>
