<svg width="340" height="340" viewBox="0 0 340 340" fill="none" xmlns="http://www.w3.org/2000/svg">
<path d="M274.003 138.448C273.948 137.088 274.683 136.19 275.859 136.143C277.036 136.095 277.845 136.959 277.899 138.305C277.954 139.652 277.219 140.563 276.036 140.61C274.853 140.658 274.05 139.788 274.003 138.448ZM276.94 138.339C276.906 137.435 276.519 136.938 275.886 136.979C275.254 137.02 274.907 137.544 274.941 138.434C274.975 139.325 275.39 139.835 275.995 139.794C276.6 139.754 276.974 139.244 276.94 138.339ZM280.742 136.041L281.884 136L276.634 144.344L275.492 144.391L280.742 136.041ZM279.484 142.086C279.429 140.726 280.164 139.822 281.34 139.781C282.516 139.74 283.326 140.604 283.38 141.936C283.434 143.269 282.7 144.201 281.517 144.242C280.334 144.282 279.531 143.419 279.484 142.086ZM282.421 141.977C282.387 141.08 281.986 140.57 281.367 140.617C280.748 140.665 280.388 141.161 280.422 142.072C280.456 142.984 280.857 143.473 281.476 143.432C282.095 143.392 282.455 142.868 282.421 141.977Z" fill="#E0E0E0"/>
<path d="M209.186 138.338L214.524 141.262L209.186 144.179L206.262 149.524L203.338 144.179L198 141.262L203.338 138.338L206.262 133L209.186 138.338Z" fill="#EBEBEB"/>
<path d="M181.757 91.0792L183.58 92.072L181.757 93.0716L180.764 94.8872L179.772 93.0716L177.949 92.072L179.772 91.0792L180.764 89.2568L181.757 91.0792Z" fill="#EBEBEB"/>
<path d="M164.009 138.564L165.825 139.556L164.009 140.549L163.016 142.372L162.017 140.549L160.201 139.556L162.017 138.564L163.016 136.741L164.009 138.564Z" fill="#EBEBEB"/>
<path d="M250.875 113.284L254.159 115.08L250.875 116.875L249.08 120.159L247.284 116.875L244 115.08L247.284 113.284L249.08 110L250.875 113.284Z" fill="#EBEBEB"/>
<path d="M196.065 182.522L199.037 184.8L195.514 186.065L193.236 189.037L191.965 185.514L189 183.236L192.522 181.965L194.8 179L196.065 182.522Z" fill="#EBEBEB"/>
<path d="M240.801 178.292L243.092 179.55L240.801 180.801L239.55 183.092L238.292 180.801L236 179.55L238.292 178.292L239.55 176L240.801 178.292Z" fill="#EBEBEB"/>
<path d="M286.28 290.231C287.076 290.613 287.788 291.151 288.372 291.813C288.956 292.475 289.401 293.249 289.68 294.086C290.229 295.77 290.384 297.556 290.136 299.309C289.748 302.709 287.824 306.109 285.75 308.829C282.894 306.34 282.241 301.995 282.044 299.771C281.738 296.249 283.315 289.707 286.28 290.251" fill="#F16624"/>
<path d="M289.061 314.425C288.867 313.456 288.932 312.453 289.249 311.517C289.567 310.581 290.126 309.745 290.87 309.094C291.626 308.461 292.501 307.983 293.443 307.689C294.384 307.395 295.375 307.29 296.358 307.38C296.814 307.374 297.267 307.468 297.684 307.655C298.101 307.841 298.472 308.117 298.772 308.462C298.992 308.828 299.112 309.246 299.118 309.674C299.124 310.102 299.016 310.524 298.806 310.896C298.371 311.631 297.752 312.24 297.01 312.664C294.535 314.214 291.856 315.262 289.061 314.425Z" fill="#F16624"/>
<path d="M285.403 324.816C285.414 324.586 285.448 324.358 285.505 324.136C285.593 323.646 285.709 323.014 285.845 322.252C286.166 320.157 286.822 318.127 287.79 316.241C288.797 314.356 290.287 312.772 292.108 311.651C292.66 311.324 293.249 311.064 293.862 310.876C294.029 310.822 294.2 310.779 294.372 310.746C294.43 310.736 294.49 310.736 294.549 310.746C293.73 311.027 292.942 311.389 292.196 311.828C290.438 312.969 288.997 314.536 288.007 316.384C287.054 318.25 286.385 320.249 286.022 322.313C285.845 323.102 285.702 323.741 285.593 324.183C285.546 324.399 285.482 324.61 285.403 324.816Z" fill="#263238"/>
<path d="M285.505 295.324C285.531 295.422 285.545 295.522 285.546 295.623C285.546 295.854 285.546 296.14 285.593 296.5C285.634 297.255 285.682 298.357 285.722 299.717C285.811 302.437 285.879 306.184 285.865 310.332C285.852 314.48 285.743 318.233 285.634 320.946C285.573 322.306 285.518 323.401 285.478 324.163C285.478 324.516 285.43 324.843 285.416 325.033C285.415 325.136 285.402 325.239 285.376 325.339C285.366 325.237 285.366 325.135 285.376 325.033C285.376 324.802 285.376 324.516 285.376 324.156C285.376 323.367 285.423 322.272 285.457 320.94C285.525 318.22 285.6 314.473 285.614 310.332C285.627 306.19 285.614 302.437 285.546 299.717C285.546 298.357 285.512 297.296 285.498 296.5C285.498 296.147 285.498 295.854 285.498 295.63C285.49 295.528 285.492 295.426 285.505 295.324Z" fill="#263238"/>
<path d="M284.124 316.486C283.779 314.432 282.949 312.489 281.704 310.82C280.459 309.15 278.834 307.801 276.964 306.884C276.012 306.428 274.768 306.129 273.979 306.836C273.19 307.544 273.374 308.822 273.754 309.815C274.594 311.86 276.021 313.612 277.854 314.848C279.687 316.085 281.845 316.752 284.056 316.764" fill="#F16624"/>
<path d="M277.44 310.08C277.649 310.15 277.852 310.239 278.045 310.345C278.278 310.453 278.505 310.573 278.725 310.706C278.984 310.869 279.29 311.025 279.596 311.256C279.943 311.486 280.277 311.736 280.595 312.004C280.949 312.283 281.275 312.616 281.656 312.97C282.432 313.754 283.116 314.623 283.696 315.561C284.507 316.915 285.071 318.402 285.362 319.954C285.441 320.363 285.498 320.776 285.532 321.191C285.58 321.572 285.532 321.919 285.58 322.218C285.598 322.476 285.598 322.735 285.58 322.993C285.578 323.221 285.555 323.449 285.512 323.673C285.45 323.673 285.552 322.728 285.382 321.232C285.339 320.823 285.273 320.417 285.185 320.015C285.094 319.555 284.976 319.101 284.832 318.655C284.501 317.628 284.058 316.641 283.512 315.71C282.947 314.793 282.289 313.936 281.547 313.154C281.22 312.814 280.875 312.491 280.514 312.188C280.183 311.921 279.838 311.671 279.48 311.44C278.263 310.542 277.399 310.148 277.44 310.08Z" fill="#263238"/>
<path d="M126.888 86.9992C127.718 86.9992 136.959 89.216 139.556 93.7992C142.154 98.3824 143.269 115.144 143.269 115.144C143.269 115.144 144.017 126.936 142.406 132.593C140.794 138.251 135.497 166.063 133.566 171.707C131.056 178.949 127.493 190.896 127.493 190.896L97.0496 169.32L126.888 86.9992Z" fill="#F16624"/>
<path d="M136.558 60.86C135.238 63.7024 135.667 67.0344 136.435 70.0672C137.204 73.1 138.312 76.1056 138.292 79.2336C138.258 83.8372 137.095 90.1136 127.779 87.1488C122.101 85.34 127.323 102.184 124.256 107.284C123.719 108.332 122.972 109.258 122.06 110.004C119.768 111.636 116.62 110.684 113.995 109.691C113.152 109.371 112.2 108.922 112.01 108.045C111.947 107.585 112.003 107.117 112.173 106.685L126.086 60.52" fill="#263238"/>
<path d="M120.72 96.8048C126.065 95.5468 127.704 92.888 127.772 88.1892L127.854 82.212C127.854 82.212 133.763 81.906 135.143 73.1C136.016 67.3639 136.316 61.5554 136.041 55.76C135.694 50.4832 130.206 41.1672 124.95 41.7384L110.5 48.7832C109.73 48.8649 109.018 49.2333 108.507 49.8152C107.995 50.3972 107.721 51.1502 107.739 51.9248L108.861 86.0676" fill="#FFBEA9"/>
<path d="M132.661 61.88C132.663 62.1743 132.551 62.4578 132.348 62.6709C132.145 62.884 131.867 63.01 131.573 63.0224C131.43 63.0344 131.285 63.0176 131.148 62.9729C131.011 62.9282 130.884 62.8566 130.775 62.7622C130.666 62.6677 130.577 62.5525 130.513 62.4232C130.449 62.2939 130.412 62.1531 130.404 62.0092C130.402 61.7149 130.514 61.4313 130.717 61.2182C130.92 61.0051 131.198 60.8791 131.492 60.8668C131.635 60.8557 131.779 60.8731 131.916 60.9182C132.053 60.9632 132.179 61.0349 132.288 61.1292C132.397 61.2234 132.486 61.3383 132.55 61.4672C132.614 61.596 132.652 61.7364 132.661 61.88Z" fill="#263238"/>
<path d="M134.484 59.84C134.382 60.0304 133.389 59.5204 132.199 59.7788C131.009 60.0372 130.295 60.894 130.159 60.758C130.023 60.622 130.159 60.3772 130.458 59.9896C130.87 59.4914 131.438 59.1464 132.07 59.0104C132.7 58.8767 133.358 58.9631 133.933 59.2552C134.341 59.4524 134.531 59.7176 134.484 59.84Z" fill="#263238"/>
<path d="M120.992 61.7576C120.996 62.0512 120.885 62.3348 120.684 62.5481C120.482 62.7614 120.205 62.8876 119.911 62.9C119.767 62.9111 119.622 62.8934 119.485 62.8479C119.348 62.8024 119.221 62.7301 119.113 62.6352C119.004 62.5402 118.915 62.4245 118.851 62.2949C118.787 62.1652 118.75 62.0242 118.742 61.88C118.74 61.5857 118.852 61.3021 119.055 61.089C119.258 60.8759 119.536 60.7499 119.83 60.7376C119.973 60.7265 120.118 60.7442 120.254 60.7898C120.391 60.8353 120.517 60.9077 120.626 61.0028C120.734 61.0978 120.822 61.2135 120.885 61.3432C120.948 61.4728 120.985 61.6137 120.992 61.7576Z" fill="#263238"/>
<path d="M122.448 61.0572C122.257 61.1728 121.557 60.2208 120.292 59.8604C119.027 59.5 117.898 59.8604 117.81 59.6836C117.762 59.5884 117.994 59.3436 118.49 59.1532C119.146 58.9157 119.861 58.8943 120.53 59.092C121.194 59.2867 121.777 59.6925 122.189 60.248C122.488 60.6764 122.536 61.0028 122.448 61.0572Z" fill="#263238"/>
<path d="M126.976 68.7683C127.618 68.5626 128.283 68.4415 128.955 68.4079C129.261 68.4079 129.554 68.3127 129.635 68.1019C129.661 67.7794 129.587 67.4568 129.424 67.1771C129.132 66.4291 128.826 65.6403 128.5 64.8175C127.221 61.4583 126.29 58.6975 126.426 58.6431C126.562 58.5887 127.711 61.2747 128.996 64.6407L129.88 67.0139C130.074 67.3884 130.132 67.8188 130.043 68.2311C129.998 68.3408 129.929 68.4387 129.841 68.5177C129.752 68.5966 129.647 68.6544 129.533 68.6867C129.362 68.7317 129.186 68.7568 129.01 68.7615C128.335 68.8494 127.652 68.8517 126.976 68.7683Z" fill="#263238"/>
<path d="M127.84 82.28C123.694 82.352 119.61 81.2714 116.042 79.1588C116.042 79.1588 118.993 85.4488 127.806 84.5988L127.84 82.28Z" fill="#E4977C"/>
<path d="M126.786 71.7196C126.535 71.3036 126.194 70.949 125.788 70.682C125.382 70.4149 124.921 70.242 124.44 70.176C124.163 70.1539 123.886 70.2145 123.644 70.3501C123.402 70.4857 123.206 70.6902 123.08 70.9376C122.945 71.268 122.892 71.6265 122.926 71.982C122.96 72.3375 123.081 72.6792 123.277 72.9776C123.465 73.2872 123.74 73.5347 124.068 73.6895C124.396 73.8442 124.761 73.8993 125.12 73.848C125.712 73.6762 126.239 73.3331 126.636 72.862C126.776 72.7428 126.883 72.5909 126.949 72.42C126.979 72.3134 126.985 72.2018 126.967 72.0926C126.95 71.9835 126.909 71.8794 126.847 71.7876" fill="#E4977C"/>
<path d="M123.406 69.6116C123.604 69.6116 123.61 70.924 124.766 71.8556C125.922 72.7872 127.303 72.6376 127.31 72.8212C127.316 73.0048 126.997 73.0796 126.405 73.1C125.634 73.1114 124.883 72.8515 124.284 72.3656C123.708 71.8957 123.337 71.2202 123.25 70.482C123.168 69.9312 123.318 69.6048 123.406 69.6116Z" fill="#263238"/>
<path d="M123.508 55.4472C123.359 55.7668 122.148 55.4948 120.727 55.522C119.306 55.5492 118.109 55.828 117.946 55.522C117.878 55.3724 118.109 55.08 118.626 54.842C119.281 54.5145 120.003 54.3401 120.735 54.3318C121.468 54.3236 122.193 54.4818 122.856 54.7944C123.338 55.012 123.576 55.2976 123.508 55.4472Z" fill="#263238"/>
<path d="M134.858 57.1199C134.586 57.3919 133.552 57.1199 132.301 57.1199C131.05 57.1199 129.989 57.2967 129.744 57.0111C129.642 56.8683 129.805 56.5963 130.268 56.3311C130.913 56.017 131.624 55.8629 132.341 55.8819C133.059 55.9008 133.761 56.0922 134.388 56.4399C134.83 56.7187 134.973 57.0043 134.858 57.1199Z" fill="#263238"/>
<path d="M88.9304 89.5423C90.848 86.4347 97.0496 78.9955 99.246 73.9023C100.81 70.2439 101.966 57.4192 105.325 50.8164C108.684 44.2136 112.594 41.5411 116.457 40.5075C117.918 40.0679 119.468 40.0141 120.957 40.3514C122.445 40.6886 123.821 41.4054 124.95 42.432C126.691 43.9892 127.282 48.552 127.282 48.552C127.282 48.552 117.98 50.6259 114.845 55.9299C111.248 62.0499 110.371 65.0896 110.371 65.0896L109.208 68.4283C109.208 68.4283 110.296 74.8815 110.697 78.0707C111.098 81.2599 110.459 84.1908 107.834 85.5508L102.551 89.284C102.551 89.284 105.42 120.136 105.101 120.38C104.312 120.979 97.7024 119.646 91.7252 118.279C90.5624 118.007 89.93 107.12 89.93 107.12L88.1824 117.32L83.6876 116.3C83.6876 116.3 85 95.8799 88.9304 89.5423Z" fill="#263238"/>
<path d="M127.112 48.5384C128.826 48.4333 130.525 48.9147 131.929 49.9034C133.333 50.8921 134.359 52.3293 134.837 53.9784C135.728 56.6984 136.401 64.5456 136.401 64.5456C136.401 64.5456 137.183 58.31 136.898 54.7536C136.612 51.1972 134.858 46.6956 132.138 44.2068C129.418 41.718 127.248 40.6436 122.509 40.9292C123.745 41.5468 124.811 42.46 125.61 43.588C126.181 44.4992 126.33 45.1588 127.112 48.5384Z" fill="#263238"/>
<path d="M110.439 65.5044C110.42 65.0544 110.287 64.6166 110.054 64.2313C109.821 63.846 109.494 63.5257 109.105 63.3C108.715 63.0743 108.275 62.9505 107.824 62.94C107.374 62.9295 106.929 63.0327 106.529 63.24C105.604 63.7772 104.89 64.8584 104.978 66.9256C105.203 72.4404 110.697 71.0736 110.697 70.9172C110.697 70.7608 110.548 67.7824 110.439 65.5044Z" fill="#FFBEA9"/>
<path d="M108.929 68.884C108.929 68.884 108.834 68.952 108.678 69.0336C108.453 69.1428 108.194 69.1599 107.957 69.0812C107.365 68.8908 106.835 67.9864 106.767 66.9936C106.738 66.5297 106.813 66.0653 106.984 65.6336C107.027 65.4599 107.111 65.2992 107.229 65.1654C107.348 65.0315 107.497 64.9285 107.664 64.8652C107.773 64.8299 107.891 64.8344 107.997 64.878C108.103 64.9216 108.19 65.0014 108.242 65.1032C108.324 65.2528 108.297 65.3684 108.324 65.3752C108.351 65.382 108.44 65.28 108.385 65.0488C108.347 64.9151 108.266 64.7979 108.154 64.7156C108.077 64.66 107.99 64.621 107.898 64.6011C107.805 64.5812 107.709 64.5808 107.617 64.6C107.394 64.6548 107.188 64.7653 107.019 64.921C106.85 65.0768 106.724 65.2728 106.651 65.4908C106.434 65.9772 106.34 66.5098 106.379 67.0412C106.461 68.1564 107.059 69.1696 107.875 69.3668C108.026 69.4055 108.183 69.4091 108.335 69.3772C108.487 69.3454 108.63 69.279 108.752 69.1832C108.922 69.0132 108.95 68.8908 108.929 68.884Z" fill="#E4977C"/>
<path d="M107.556 47.6407C104.137 52.4243 101.826 57.9084 100.79 63.6955C100.11 67.3199 99.9192 71.2367 97.7228 74.1947C96.5668 75.7519 94.9144 76.9147 94.0644 78.6827C93.1396 80.5731 93.2756 82.8852 92.1876 84.694C91.0044 86.6592 88.6516 87.5907 87.1148 89.2907C84.2112 92.5003 84.8572 97.4507 83.674 101.606C82.9065 104.263 81.3626 106.631 79.2404 108.406C78.5196 109.011 77.6356 109.8 77.8804 110.704C77.9964 110.964 78.1633 111.199 78.3711 111.394C78.579 111.589 78.8236 111.74 79.0908 111.84C80.7568 112.696 82.2936 115.92 84.1364 116.3C84.5172 106.386 89.3316 94.4791 94.5472 86.0403C97.5256 81.2191 100.817 76.4048 101.993 70.8696C102.762 67.2179 102.578 63.4439 102.986 59.7311C103.394 56.0183 104.53 52.1695 107.331 49.7079" fill="#263238"/>
<path d="M105.903 72.4064C105.835 72.488 105.332 72.25 104.666 71.5156C103.892 70.5762 103.372 69.4538 103.157 68.256C102.941 67.0581 103.037 65.825 103.435 64.6748C103.826 63.6095 104.399 62.6202 105.128 61.7508C105.903 60.8377 106.746 59.9852 107.651 59.2008C108.596 58.3582 109.583 57.5639 110.609 56.8208C112.584 55.3765 114.692 54.1242 116.906 53.0808C118.946 52.1152 120.836 51.4964 122.298 50.7892C123.456 50.2791 124.528 49.5907 125.474 48.7492C126.154 48.144 126.446 47.7292 126.562 47.7904C126.677 47.8516 126.562 48.382 125.99 49.2048C125.164 50.326 124.104 51.2541 122.883 51.9248C121.4 52.8156 119.53 53.5772 117.626 54.57C115.546 55.6569 113.548 56.8955 111.649 58.276C110.643 59.0104 109.691 59.772 108.793 60.5336C107.938 61.2444 107.131 62.0123 106.379 62.832C105.728 63.5397 105.195 64.348 104.802 65.2256C104.487 65.9821 104.323 66.7929 104.319 67.6124C104.331 68.8476 104.644 70.0613 105.23 71.1484C105.665 71.8964 105.998 72.3044 105.903 72.4064Z" fill="#263238"/>
<path d="M108.12 72.6512C108.024 72.6213 107.932 72.5778 107.848 72.522C107.591 72.3891 107.347 72.2319 107.12 72.0528C106.287 71.3878 105.623 70.5349 105.182 69.564C104.49 68.1155 104.321 66.4715 104.706 64.9128C105.299 63.0534 106.454 61.4236 108.011 60.248C109.511 59.0608 111.08 57.964 112.71 56.9636C114.206 56.032 115.58 55.2432 116.749 54.6108C117.919 53.9784 118.878 53.5024 119.551 53.1828C119.891 53.0264 120.149 52.904 120.333 52.8292C120.423 52.7835 120.519 52.7493 120.618 52.7272C120.298 52.945 119.962 53.1382 119.612 53.3052C118.966 53.6588 118.021 54.1688 116.892 54.8284C115.763 55.488 114.383 56.2972 112.907 57.2424C111.303 58.2504 109.755 59.3446 108.27 60.52C106.761 61.6492 105.638 63.2165 105.053 65.008C104.667 66.4925 104.802 68.0644 105.434 69.462C105.846 70.413 106.461 71.2624 107.236 71.9508C107.8 72.4268 108.168 72.6172 108.12 72.6512Z" fill="#455A64"/>
<path d="M119.095 40.12C119.699 40.0095 120.321 40.0516 120.904 40.2424C122.335 40.6172 123.661 41.3151 124.78 42.2824C125.898 43.2726 126.684 44.5833 127.031 46.036C127.132 46.4687 127.186 46.9109 127.194 47.3552C127.211 47.5199 127.195 47.6865 127.146 47.8448C127.085 47.8448 127.092 47.1648 126.786 46.0972C126.388 44.7277 125.612 43.4977 124.549 42.5476C123.458 41.6295 122.196 40.9363 120.836 40.5076C120.263 40.3491 119.682 40.2197 119.095 40.12Z" fill="#455A64"/>
<path d="M105.121 70.1964C105.121 70.1964 104.87 70.4548 104.482 70.9716C103.948 71.702 103.6 72.5516 103.469 73.4468C103.281 74.7739 103.605 76.1228 104.373 77.2208C104.814 77.8987 105.43 78.4457 106.154 78.8046C106.879 79.1635 107.687 79.321 108.494 79.2608C109.321 79.1695 110.093 78.8003 110.684 78.2136C111.212 77.6426 111.572 76.9365 111.724 76.1736C112.03 74.8695 111.91 73.5019 111.384 72.2704C111.007 71.4508 110.337 70.8012 109.507 70.448C109.192 70.3403 108.869 70.2562 108.542 70.1964C108.629 70.183 108.719 70.183 108.807 70.1964C109.062 70.2074 109.314 70.2555 109.555 70.3392C110.447 70.668 111.177 71.328 111.595 72.182C112.182 73.4577 112.335 74.891 112.03 76.262C111.87 77.0857 111.484 77.8487 110.915 78.4652C110.279 79.1177 109.434 79.5268 108.528 79.6212C107.628 79.7233 106.719 79.5452 105.924 79.1112C105.189 78.711 104.56 78.1424 104.088 77.452C103.292 76.2815 102.976 74.8504 103.204 73.4536C103.365 72.5292 103.764 71.6625 104.36 70.9376C104.521 70.7418 104.698 70.5598 104.89 70.3936C104.954 70.3138 105.032 70.2469 105.121 70.1964Z" fill="#E0E0E0"/>
<path d="M83.5108 309.896L87.38 293.128L73.7664 290.85V303.11L77.554 308.693L83.5108 309.896Z" fill="#FFBEA9"/>
<path d="M84.7688 309.094L84.3064 309.822C84.3064 309.822 93.466 322.585 92.1128 324.999L67.7688 309.359L73.3108 301.471C74.5634 303.488 76.2347 305.213 78.2115 306.528C80.1883 307.843 82.4245 308.718 84.7688 309.094Z" fill="#F16624"/>
<g opacity="0.6">
<path d="M74.12 305.626C73.8409 305.547 73.5425 305.572 73.2808 305.697C73.019 305.822 72.8121 306.039 72.6988 306.306C72.6103 306.583 72.6315 306.884 72.7581 307.145C72.8846 307.407 73.1068 307.611 73.3788 307.714C73.6766 307.798 73.9951 307.769 74.2726 307.632C74.5502 307.495 74.7671 307.26 74.8816 306.972C74.936 306.679 74.8772 306.375 74.717 306.123C74.5568 305.87 74.3071 305.688 74.018 305.612" fill="white"/>
</g>
<g opacity="0.6">
<path d="M67.7688 309.339L69.1288 307.442L91.97 323.15C91.97 323.15 92.752 324.319 92.14 324.999L67.7688 309.339Z" fill="white"/>
</g>
<path d="M84.32 309.944C84.2452 310.06 83.64 309.733 82.7832 309.733C81.9264 309.733 81.3212 310.039 81.2396 309.924C81.158 309.808 81.7836 309.244 82.7832 309.244C83.7828 309.244 84.4492 309.849 84.32 309.944Z" fill="#263238"/>
<path d="M86.224 312.644C86.1764 312.773 85.544 312.644 84.8028 312.888C84.0616 313.133 83.6196 313.568 83.504 313.507C83.3884 313.446 83.7488 312.705 84.6532 312.419C85.5576 312.134 86.292 312.528 86.224 312.644Z" fill="#263238"/>
<path d="M85.68 316.628C85.5576 316.588 85.7752 315.887 86.496 315.432C87.2168 314.976 87.9444 315.078 87.9308 315.207C87.9172 315.336 87.346 315.466 86.7612 315.846C86.1764 316.227 85.8364 316.696 85.68 316.628Z" fill="#263238"/>
<path d="M50.082 203.803L62.2812 205.442L57.5892 218.899L44.4992 214.397L43.758 209.426L50.082 203.803Z" fill="#FFBEA9"/>
<path d="M45.7912 215.308L45.05 215.002C45.05 215.002 34.7276 225.304 32.3136 224.4L43.0168 199.743L51.0748 203.646C49.4062 205.095 48.0702 206.887 47.1583 208.9C46.2463 210.913 45.78 213.099 45.7912 215.308Z" fill="#F16624"/>
<g opacity="0.6">
<path d="M47.3688 205.027C47.3974 204.758 47.3269 204.488 47.1703 204.267C47.0138 204.047 46.7821 203.891 46.5188 203.83C46.2493 203.792 45.9754 203.859 45.7539 204.017C45.5324 204.175 45.3802 204.413 45.3288 204.68C45.3024 204.963 45.3805 205.246 45.5484 205.475C45.7163 205.704 45.9623 205.864 46.24 205.924C46.7772 205.958 47.43 205.462 47.3824 204.925" fill="white"/>
</g>
<g opacity="0.6">
<path d="M43.0168 199.77L44.9548 200.709L34 223.992C34 223.992 33.0412 224.883 32.3272 224.427L43.0168 199.77Z" fill="white"/>
</g>
<path d="M44.948 215.057C44.8256 215.002 45.0364 214.377 44.9072 213.615C44.778 212.854 44.404 212.316 44.4992 212.255C44.5944 212.194 45.1792 212.65 45.356 213.568C45.5328 214.486 45.0432 215.132 44.948 215.057Z" fill="#263238"/>
<path d="M42.7516 217.178C42.6292 217.178 42.6496 216.546 42.3164 215.914C41.9832 215.281 41.5004 214.934 41.5548 214.812C41.6092 214.69 42.3232 214.914 42.7244 215.71C43.1256 216.505 42.84 217.226 42.7516 217.178Z" fill="#263238"/>
<path d="M39.0252 217.301C39.0252 217.178 39.7052 217.301 40.2424 217.872C40.7796 218.443 40.7864 219.144 40.664 219.15C40.5416 219.157 40.3376 218.654 39.9024 218.171C39.4672 217.688 38.9844 217.43 39.0252 217.301Z" fill="#263238"/>
<path d="M117.15 190.896C116.069 191.427 102.435 243.984 98.1444 246.153L89.454 288.884C89.7313 289.283 89.9269 289.733 90.0296 290.208C90.1323 290.683 90.14 291.174 90.0524 291.652C89.8552 293.529 89.0596 293.828 89.0596 293.828C89.0596 293.828 76.5136 295.412 71.4748 291.754C71.4748 291.754 72.0664 288 72.3656 287.674C72.6648 287.348 73.848 253.484 76.908 245.582C79.968 237.68 84.0208 212.677 83.6264 207.638C83.232 202.599 81.8516 190.842 82.144 187.088C82.3978 184.534 82.929 182.014 83.7284 179.574L117.15 190.896Z" fill="#00182E"/>
<path d="M122.563 193.018C122.563 193.018 117.939 224.706 113.948 229.86C109.956 235.015 104.53 235.151 103.238 235.368C101.946 235.586 54.9576 218.219 54.9576 218.219C54.9576 218.219 54.2232 205.428 55.76 203.517C55.76 203.517 59.9556 203.708 60.9144 205.047L85.3468 208.447L94.316 181.152L122.563 193.018Z" fill="#00182E"/>
<path d="M114.546 192.964C114.526 193.147 114.492 193.329 114.444 193.508C114.356 193.895 114.233 194.412 114.084 195.058C113.75 196.418 113.281 198.37 112.724 200.75L108.045 219.477C106.23 226.794 104.339 233.383 102.476 237.973C101.565 240.271 100.722 242.094 100.096 243.324C99.79 243.943 99.518 244.412 99.348 244.732C99.2688 244.9 99.1731 245.059 99.0624 245.208C99.1248 245.033 99.1998 244.862 99.2868 244.698C99.4364 244.365 99.688 243.889 99.9668 243.263C100.558 242.012 101.327 240.183 102.245 237.884C104.04 233.281 105.89 226.712 107.685 219.388L112.445 200.688C113.064 198.322 113.574 196.398 113.934 195.024C114.111 194.385 114.247 193.875 114.356 193.494C114.402 193.312 114.466 193.134 114.546 192.964Z" fill="#455A64"/>
<path d="M82.2256 186.266C82.2256 186.266 82.2256 186.436 82.178 186.742C82.1397 187.194 82.1261 187.648 82.1372 188.102C82.1372 189.298 82.2664 191.019 82.45 193.154C82.6336 195.289 82.892 197.826 83.13 200.634C83.368 203.442 83.81 206.543 83.81 209.821C83.8916 216.41 82.4024 222.217 81.5048 226.379C81.056 228.419 80.682 230.119 80.4236 231.322L80.1312 232.682C80.1035 232.843 80.0602 233 80.002 233.152C80.0032 232.991 80.0214 232.832 80.0564 232.676C80.1176 232.329 80.1924 231.873 80.2876 231.316C80.4916 230.132 80.8248 228.432 81.26 226.338C82.0964 222.156 83.538 216.369 83.4564 209.841C83.4564 206.584 82.9872 203.504 82.7764 200.682C82.5656 197.86 82.3276 195.337 82.144 193.202C81.9604 191.066 81.9128 189.332 81.9468 188.136C81.9468 187.68 81.9809 187.226 82.0488 186.776C82.0822 186.598 82.1418 186.426 82.2256 186.266Z" fill="#455A64"/>
<path d="M60.418 204.857C60.4656 204.857 60.1936 205.666 59.8264 206.958C58.8558 210.318 58.3547 213.796 58.3372 217.294C58.3736 218.019 58.3736 218.745 58.3372 219.47C58.2742 219.283 58.2376 219.089 58.2284 218.892C58.1808 218.518 58.14 217.967 58.1128 217.294C57.9892 213.762 58.4981 210.236 59.6156 206.883C59.8332 206.244 60.0236 205.727 60.18 205.387C60.3364 205.047 60.3908 204.85 60.418 204.857Z" fill="#455A64"/>
<path d="M47.7496 216.56C47.7496 216.662 47.6884 216.736 47.6136 216.736C47.5388 216.736 47.4844 216.662 47.4844 216.56C47.4844 216.458 47.5456 216.383 47.6136 216.383C47.6545 216.389 47.6913 216.411 47.7165 216.444C47.7418 216.477 47.7536 216.518 47.7496 216.56Z" fill="#455A64"/>
<path d="M72.6784 287.035C73.5091 287.109 74.3353 287.227 75.1536 287.388C76.6768 287.626 78.7916 287.932 81.1308 288.17C83.47 288.408 85.5984 288.531 87.142 288.599C87.976 288.603 88.8091 288.653 89.6376 288.748C89.4155 288.804 89.1864 288.827 88.9576 288.816C88.5224 288.816 87.8968 288.816 87.1284 288.816C85.578 288.816 83.436 288.721 81.09 288.483C78.744 288.245 76.6224 287.905 75.106 287.599C74.3444 287.45 73.746 287.314 73.3176 287.205C73.0975 287.179 72.8823 287.122 72.6784 287.035Z" fill="#455A64"/>
<path d="M121.462 195.663C121.611 195.568 130.39 195.663 130.39 195.663C130.39 195.663 136.959 163.649 137.741 153.836C138.523 144.024 121.72 158.386 121.72 158.386L121.462 195.663Z" fill="#F16624"/>
<path d="M109.609 84.0888C109.609 84.0888 118.136 84.0888 123.148 95.234C123.148 95.234 138.258 121.577 138.604 132.824C138.604 132.824 138.428 149.512 135.619 159.344C132.811 169.177 124.739 195.248 124.739 195.248C124.739 195.248 99.45 193.072 94.3568 189.38C89.2636 185.688 78.0368 186.218 78.0368 186.218C78.0368 186.218 84.8912 165.315 93.3232 152.674C101.755 140.032 98.4164 117.538 98.4164 117.538C98.4164 117.538 96.0228 84.1908 109.609 84.0888Z" fill="#F16624"/>
<path d="M121.72 194.956C121.856 194.944 121.992 194.944 122.128 194.956C122.393 194.956 122.808 194.956 123.311 194.956C124.352 194.956 125.868 194.895 127.772 194.711L127.684 194.779C129.445 188.605 132.342 178.058 134.79 165.913C136.543 157.656 137.725 149.288 138.326 140.869C138.509 137.639 138.509 135.014 138.448 133.205C138.407 132.321 138.373 131.628 138.353 131.124C138.353 130.9 138.353 130.723 138.353 130.58C138.345 130.519 138.345 130.458 138.353 130.397C138.363 130.458 138.363 130.52 138.353 130.58C138.353 130.716 138.353 130.9 138.4 131.118C138.441 131.621 138.496 132.314 138.564 133.198C138.666 135.014 138.706 137.639 138.564 140.882C138.033 149.322 136.883 157.71 135.123 165.981C132.668 178.146 129.683 188.68 127.86 194.834V194.902H127.84C126.35 195.039 124.854 195.091 123.359 195.058C122.835 195.058 122.441 195.017 122.169 194.983C122.019 194.997 121.867 194.987 121.72 194.956Z" fill="#263238"/>
<path d="M127.745 88.8828C127.799 87.9308 137.115 102.544 139.543 117.96C140.42 123.502 138.353 130.431 138.353 130.431L120.877 91.188C120.877 91.188 127.282 97.478 127.745 88.8828Z" fill="#E0E0E0"/>
<path d="M114.954 85.7208C115.697 86.2537 116.381 86.8647 116.994 87.5432C117.723 88.3348 118.322 89.2367 118.769 90.2156C119.299 91.3512 119.755 92.6908 120.312 94.146V94.1936C120.348 95.5393 120.598 96.8707 121.054 98.1376C121.574 99.5709 122.209 100.96 122.951 102.292C124.501 105.101 126.181 108.188 127.806 111.472C130.873 117.641 133.597 123.975 135.966 130.444C136.877 132.926 137.55 134.953 138.006 136.36L138.509 137.986C138.576 138.174 138.626 138.367 138.659 138.564C138.659 138.564 138.577 138.373 138.441 138.006C138.305 137.639 138.115 137.081 137.877 136.401C137.38 135.041 136.673 133.001 135.735 130.533C133.865 125.596 131.09 118.844 127.493 111.629C125.875 108.351 124.209 105.278 122.665 102.449C121.921 101.098 121.288 99.6875 120.775 98.2328C120.317 96.9343 120.074 95.5701 120.054 94.1936V94.2412C119.51 92.7792 119.068 91.4328 118.565 90.304C118.141 89.337 117.573 88.4404 116.878 87.6452C116.434 87.1407 115.962 86.6617 115.464 86.2104L115.076 85.85C115.032 85.8107 114.991 85.7675 114.954 85.7208Z" fill="#263238"/>
<path d="M126.745 144.16C126.745 144.16 126.888 144.16 127.112 144.248C127.416 144.424 127.655 144.694 127.792 145.017C127.911 145.259 127.972 145.526 127.972 145.795C127.972 146.065 127.911 146.332 127.792 146.574C127.617 146.86 127.365 147.092 127.064 147.241C126.764 147.391 126.427 147.453 126.093 147.421C125.759 147.388 125.441 147.262 125.175 147.057C124.909 146.852 124.706 146.576 124.59 146.261C124.524 145.998 124.517 145.723 124.572 145.457C124.626 145.191 124.739 144.941 124.902 144.724C125.131 144.443 125.447 144.244 125.8 144.16C126.045 144.099 126.181 144.16 126.181 144.16C125.766 144.297 125.406 144.564 125.154 144.922C125.031 145.112 124.949 145.326 124.914 145.549C124.879 145.773 124.891 146.002 124.95 146.22C125.041 146.476 125.206 146.699 125.424 146.86C125.642 147.021 125.903 147.113 126.174 147.125C126.439 147.163 126.71 147.122 126.952 147.007C127.193 146.892 127.396 146.708 127.534 146.479C127.635 146.276 127.691 146.054 127.7 145.828C127.708 145.601 127.668 145.376 127.582 145.166C127.421 144.748 127.127 144.395 126.745 144.16Z" fill="#263238"/>
<path d="M104.822 146.737C104.822 146.737 104.387 146.581 103.605 146.322C103.134 146.16 102.652 146.033 102.163 145.942C101.526 145.816 100.869 145.832 100.239 145.989C99.4864 146.205 98.849 146.708 98.464 147.39C98.0326 148.2 97.6621 149.041 97.3556 149.906L94.996 155.815C94.7648 156.38 94.5404 156.937 94.316 157.468L94.146 157.23C97.6417 157.136 101.103 157.937 104.203 159.555C105.12 160.032 105.996 160.585 106.821 161.208C107.114 161.418 107.324 161.609 107.501 161.731C107.678 161.854 107.712 161.922 107.705 161.935C107.384 161.743 107.073 161.534 106.774 161.31C105.927 160.734 105.041 160.218 104.122 159.766C101.038 158.238 97.6272 157.487 94.1868 157.576H93.9148L94.0168 157.325L94.6968 155.666C95.54 153.578 96.3424 151.586 97.0836 149.77C97.4004 148.891 97.787 148.038 98.2396 147.22C98.4728 146.851 98.7671 146.524 99.11 146.254C99.4378 146.015 99.8065 145.838 100.198 145.731C100.869 145.572 101.567 145.572 102.238 145.731C102.734 145.832 103.219 145.98 103.686 146.173C104.074 146.322 104.366 146.458 104.564 146.554C104.657 146.604 104.744 146.665 104.822 146.737Z" fill="#263238"/>
<path d="M138.577 139.04C138.577 139.04 138.577 138.958 138.577 138.795L138.672 138.074C138.774 137.394 138.917 136.49 139.087 135.354C139.468 132.967 140.005 129.622 140.644 125.61C140.726 123.57 140.821 121.366 140.869 119.02C140.886 117.818 140.843 116.615 140.74 115.416C140.706 114.798 140.638 114.186 140.549 113.56C140.461 112.934 140.379 112.309 140.257 111.683C139.596 108.172 138.53 104.749 137.081 101.483C135.925 98.8137 134.527 96.2554 132.906 93.84C131.799 92.2122 130.581 90.6627 129.261 89.2024C128.799 88.6856 128.404 88.3116 128.153 88.0396C128.019 87.9098 127.894 87.7712 127.779 87.6248C127.932 87.7317 128.073 87.8548 128.2 87.992C128.466 88.2436 128.88 88.604 129.363 89.1072C130.727 90.54 131.979 92.0744 133.11 93.6972C136.807 99.1053 139.353 105.216 140.59 111.649C140.712 112.282 140.814 112.914 140.882 113.54C140.95 114.165 141.046 114.798 141.073 115.416C141.177 116.626 141.218 117.84 141.195 119.054C141.141 121.407 141.032 123.624 140.937 125.65C140.257 129.649 139.665 132.988 139.25 135.368C139.04 136.517 138.876 137.408 138.754 138.088C138.7 138.38 138.652 138.611 138.611 138.802C138.61 138.882 138.599 138.962 138.577 139.04Z" fill="#263238"/>
<path d="M109.521 85.7208C111.908 85.7208 118.034 90.3652 118.361 102.313C118.687 113.927 117.932 134.953 117.932 134.953L127.602 178.473C127.888 178.901 118.204 184.022 113.927 182.927C113.927 182.927 102.789 143.636 101.837 138.788C100.885 133.94 98.8176 111.391 99.6132 106.304C100.409 101.218 99.1916 85.7412 109.521 85.7208Z" fill="#F16624"/>
<path d="M115.11 178.208C114.905 178.059 114.651 177.994 114.4 178.027C114.149 178.06 113.92 178.187 113.759 178.383C113.599 178.579 113.52 178.829 113.537 179.082C113.555 179.334 113.669 179.571 113.856 179.742C114.042 179.914 114.287 180.007 114.54 180.004C114.793 180.001 115.036 179.901 115.218 179.725C115.4 179.549 115.508 179.31 115.52 179.057C115.531 178.804 115.446 178.556 115.28 178.364" fill="#E0E0E0"/>
<path d="M115.28 178.364C115.28 178.364 115.382 178.364 115.471 178.52C115.596 178.724 115.644 178.965 115.607 179.2C115.585 179.376 115.524 179.545 115.427 179.693C115.331 179.842 115.201 179.966 115.049 180.057C114.847 180.148 114.622 180.178 114.402 180.145C114.183 180.111 113.978 180.015 113.811 179.868C113.645 179.721 113.524 179.529 113.464 179.316C113.404 179.102 113.406 178.875 113.472 178.663C113.542 178.497 113.649 178.348 113.786 178.231C113.923 178.113 114.085 178.028 114.26 177.983C114.487 177.92 114.729 177.942 114.94 178.044C115.09 178.112 115.138 178.194 115.124 178.208C115.11 178.221 114.804 178.051 114.342 178.208C114.218 178.252 114.105 178.323 114.01 178.414C113.915 178.505 113.841 178.616 113.791 178.738C113.748 178.887 113.75 179.045 113.798 179.193C113.845 179.341 113.935 179.471 114.056 179.568C114.168 179.675 114.308 179.748 114.46 179.777C114.613 179.806 114.77 179.79 114.913 179.731C115.028 179.666 115.128 179.579 115.206 179.473C115.284 179.368 115.34 179.247 115.369 179.119C115.407 178.864 115.377 178.603 115.28 178.364Z" fill="#263238"/>
<path d="M114.165 175.63C114.032 175.572 113.886 175.549 113.741 175.565C113.596 175.581 113.458 175.634 113.34 175.72C113.223 175.807 113.13 175.922 113.071 176.055C113.013 176.189 112.99 176.335 113.006 176.48C113.022 176.625 113.076 176.763 113.162 176.88C113.248 176.998 113.363 177.09 113.497 177.149C113.63 177.208 113.777 177.23 113.921 177.214C114.066 177.198 114.204 177.145 114.322 177.058C114.429 176.966 114.512 176.849 114.564 176.718C114.616 176.586 114.635 176.444 114.62 176.303C114.605 176.162 114.555 176.028 114.476 175.911C114.397 175.793 114.29 175.697 114.165 175.63Z" fill="#E0E0E0"/>
<path d="M114.165 175.63C114.165 175.63 114.254 175.63 114.376 175.685C114.546 175.801 114.669 175.975 114.723 176.174C114.766 176.327 114.772 176.488 114.741 176.644C114.711 176.8 114.644 176.947 114.546 177.072C114.403 177.212 114.222 177.307 114.025 177.343C113.829 177.379 113.625 177.355 113.442 177.274C113.259 177.194 113.105 177.06 112.998 176.891C112.892 176.721 112.839 176.524 112.846 176.324C112.87 176.167 112.931 176.019 113.025 175.891C113.118 175.763 113.241 175.66 113.383 175.59C113.567 175.493 113.78 175.466 113.982 175.515C114.118 175.556 114.172 175.617 114.165 175.63C114.158 175.644 113.859 175.569 113.485 175.807C113.392 175.868 113.313 175.949 113.254 176.045C113.195 176.14 113.158 176.247 113.145 176.358C113.148 176.488 113.188 176.614 113.26 176.721C113.331 176.829 113.433 176.914 113.551 176.966C113.67 177.018 113.801 177.035 113.929 177.016C114.057 176.996 114.177 176.94 114.274 176.854C114.347 176.769 114.401 176.669 114.431 176.561C114.462 176.453 114.468 176.34 114.451 176.229C114.417 175.814 114.131 175.678 114.165 175.63Z" fill="#263238"/>
<path d="M113.492 173.019C113.359 172.96 113.212 172.938 113.068 172.954C112.923 172.97 112.785 173.023 112.667 173.109C112.55 173.195 112.457 173.311 112.398 173.444C112.34 173.578 112.317 173.724 112.333 173.869C112.349 174.013 112.402 174.152 112.489 174.269C112.575 174.386 112.69 174.479 112.824 174.538C112.957 174.596 113.103 174.619 113.248 174.603C113.393 174.587 113.531 174.533 113.648 174.447C113.756 174.355 113.839 174.238 113.891 174.106C113.943 173.975 113.962 173.833 113.947 173.692C113.931 173.551 113.882 173.417 113.803 173.299C113.723 173.182 113.617 173.086 113.492 173.019Z" fill="#E0E0E0"/>
<path d="M113.492 173.019C113.492 173.019 113.58 173.019 113.703 173.074C113.873 173.19 113.996 173.364 114.05 173.563C114.094 173.716 114.102 173.877 114.071 174.034C114.04 174.19 113.972 174.336 113.873 174.461C113.73 174.601 113.549 174.695 113.352 174.731C113.155 174.767 112.952 174.744 112.769 174.663C112.586 174.583 112.431 174.449 112.325 174.28C112.219 174.11 112.166 173.913 112.173 173.713C112.198 173.556 112.261 173.407 112.355 173.279C112.45 173.151 112.574 173.048 112.717 172.978C112.898 172.881 113.108 172.852 113.308 172.897C113.444 172.938 113.499 173.006 113.492 173.019C113.485 173.033 113.186 172.958 112.812 173.196C112.719 173.256 112.64 173.336 112.581 173.43C112.522 173.524 112.485 173.63 112.472 173.74C112.471 173.87 112.51 173.998 112.585 174.105C112.659 174.212 112.764 174.294 112.887 174.338C113.004 174.392 113.133 174.412 113.261 174.395C113.389 174.378 113.509 174.326 113.608 174.243C113.68 174.158 113.732 174.057 113.762 173.949C113.791 173.841 113.797 173.728 113.778 173.618C113.75 173.203 113.465 173.067 113.492 173.019Z" fill="#263238"/>
<path d="M99.7696 105.155C99.7696 105.155 99.7696 105.291 99.7696 105.556C99.7696 105.822 99.7696 106.236 99.7696 106.746C99.7696 107.794 99.8172 109.33 99.9124 111.323C100.096 115.301 100.484 121.054 101.048 128.194C101.198 129.975 101.352 131.843 101.51 133.797C101.599 134.769 101.68 135.762 101.769 136.775C101.769 137.034 101.816 137.285 101.837 137.544L101.871 137.924L101.952 138.292C102.048 138.788 102.19 139.298 102.313 139.808C103.36 143.888 104.564 148.254 105.822 152.85L114.138 182.859L113.988 182.73C115.705 182.864 117.432 182.705 119.095 182.26C122.118 181.445 124.975 180.11 127.541 178.316L127.473 178.493C123.862 162.173 120.571 147.397 117.953 135.578C118.361 125.997 118.687 118.184 118.918 112.758C119.041 110.038 119.136 107.95 119.204 106.508C119.24 105.801 119.267 105.257 119.286 104.876C119.286 104.509 119.333 104.319 119.333 104.319C119.333 104.319 119.333 104.509 119.333 104.876C119.333 105.244 119.333 105.801 119.292 106.508C119.245 107.957 119.17 110.065 119.082 112.764C118.878 118.204 118.592 126.004 118.238 135.592V135.551L127.84 178.452V178.568L127.752 178.629C125.151 180.453 122.251 181.808 119.184 182.634C117.481 183.091 115.712 183.254 113.954 183.117H113.832L113.798 183.002C110.847 172.305 108.045 162.166 105.509 152.98C104.264 148.383 103.074 144.024 102.034 139.924C101.912 139.414 101.776 138.91 101.674 138.387L101.592 137.999L101.558 137.612L101.497 136.85C101.408 135.837 101.327 134.81 101.245 133.865C101.096 131.913 100.946 130.043 100.81 128.255C100.273 121.122 99.9192 115.335 99.7764 111.377C99.7016 109.385 99.688 107.841 99.7016 106.794C99.7016 106.27 99.7424 105.869 99.756 105.604C99.7696 105.339 99.7696 105.155 99.7696 105.155Z" fill="#263238"/>
<path d="M134.83 185.64C134.805 185.433 134.762 185.228 134.701 185.028V184.994C134.551 184.525 134.321 184.085 134.021 183.695C132.729 182.029 126.222 179.411 125.861 179.574L119.741 182.254C119.741 182.254 119.904 182.444 120.958 184.035C121.024 184.159 121.115 184.269 121.225 184.357C121.335 184.444 121.462 184.508 121.598 184.545C121.598 184.545 130.438 185.456 131.532 186.667C132.627 187.877 130.472 191.121 130.472 191.121C130.04 191.85 129.754 192.656 129.628 193.494C129.587 193.635 129.582 193.785 129.614 193.929C129.646 194.073 129.714 194.206 129.812 194.317C130.132 194.575 130.587 194.317 130.907 194.058L133.885 191.678C134.32 191.38 134.691 190.996 134.973 190.55C135.164 190.158 135.28 189.733 135.313 189.298C135.374 188.06 135.21 186.82 134.83 185.64Z" fill="#FFBEA9"/>
<path d="M245.241 201.624C245.193 201.598 246.313 193.413 247.767 183.307C249.221 173.202 250.451 165.013 250.509 165.021C250.567 165.029 249.44 173.227 247.983 183.338C246.525 193.449 245.304 201.635 245.241 201.624Z" fill="#263238"/>
<path d="M290.792 168.056C290.776 168.098 290.754 168.139 290.727 168.176C290.682 168.26 290.592 168.357 290.5 168.486C290.279 168.769 289.982 169.165 289.593 169.674C288.8 170.723 287.667 172.206 286.258 174.059C283.447 177.753 279.601 182.875 275.402 188.571C271.202 194.267 267.526 199.519 264.868 203.317C263.546 205.209 262.475 206.749 261.73 207.808C261.366 208.33 261.077 208.739 260.875 209.031L260.644 209.347C260.602 209.425 260.583 209.461 260.583 209.461C260.583 209.461 260.605 209.419 260.644 209.347C260.682 209.275 260.753 209.143 260.827 209.006L261.655 207.76C262.373 206.679 263.427 205.13 264.733 203.237C267.359 199.414 271.047 194.169 275.22 188.45C279.392 182.732 283.294 177.578 286.139 173.949C287.557 172.109 288.691 170.626 289.535 169.597C289.932 169.1 290.25 168.707 290.468 168.43C290.572 168.308 290.657 168.207 290.713 168.13C290.77 168.052 290.792 168.056 290.792 168.056Z" fill="#263238"/>
<path d="M305.69 205.862C305.732 205.884 298.66 208.777 289.929 212.248C281.198 215.718 274.114 218.489 274.095 218.425C274.075 218.36 281.128 215.503 289.859 212.033C298.59 208.562 305.668 205.803 305.69 205.862Z" fill="#263238"/>
<path d="M230.849 199.086C230.791 199.108 229.376 195.628 227.69 191.316C226.003 187.003 224.678 183.486 224.733 183.469C224.788 183.452 226.206 186.927 227.893 191.239C229.579 195.552 230.904 199.069 230.849 199.086Z" fill="#263238"/>
<path d="M292.713 240.844C292.684 240.897 289.433 238.902 285.454 236.393C281.475 233.885 278.294 231.788 278.316 231.761C278.338 231.734 281.596 233.703 285.575 236.211C289.554 238.72 292.748 240.793 292.713 240.844Z" fill="#263238"/>
<path d="M226.386 325.251C230.735 325.251 234.26 321.725 234.26 317.376C234.26 313.028 230.735 309.502 226.386 309.502C222.037 309.502 218.511 313.028 218.511 317.376C218.511 321.725 222.037 325.251 226.386 325.251Z" fill="#263238"/>
<path d="M226.386 321.667C228.755 321.667 230.676 319.746 230.676 317.376C230.676 315.007 228.755 313.086 226.386 313.086C224.016 313.086 222.095 315.007 222.095 317.376C222.095 319.746 224.016 321.667 226.386 321.667Z" fill="#E0E0E0"/>
<path d="M239.986 304.579V309.835L227.746 319.675C227.185 320.08 226.542 320.357 225.862 320.484C224.958 320.579 224.108 320.069 224.108 318.716C224.108 316.159 227.297 308.693 227.297 308.693H229.854V304.613L239.986 304.579Z" fill="#455A64"/>
<path d="M225.699 318.063C225.665 318.063 225.542 317.757 225.889 317.417C225.996 317.328 226.124 317.268 226.261 317.242C226.398 317.215 226.539 317.224 226.671 317.268C226.838 317.324 226.983 317.431 227.087 317.573C227.19 317.716 227.247 317.887 227.249 318.063C227.247 318.24 227.19 318.412 227.086 318.555C226.983 318.699 226.838 318.807 226.671 318.866C226.539 318.91 226.397 318.919 226.259 318.891C226.122 318.864 225.995 318.801 225.889 318.709C225.542 318.376 225.665 318.029 225.699 318.063C225.733 318.097 225.76 318.328 226.046 318.512C226.122 318.559 226.209 318.588 226.298 318.596C226.388 318.605 226.478 318.592 226.562 318.56C226.66 318.519 226.743 318.45 226.802 318.361C226.86 318.273 226.89 318.169 226.889 318.063C226.89 317.958 226.859 317.856 226.801 317.768C226.743 317.681 226.66 317.613 226.562 317.574C226.479 317.54 226.388 317.526 226.298 317.534C226.208 317.543 226.122 317.572 226.046 317.621C225.76 317.798 225.76 318.077 225.699 318.063Z" fill="#263238"/>
<path d="M227.324 308.72C227.937 308.62 228.559 308.583 229.18 308.611C230.33 308.611 231.9 308.611 233.662 308.645L238.136 308.788C238.755 308.776 239.375 308.821 239.986 308.924C239.372 309.025 238.75 309.064 238.129 309.04C236.987 309.04 235.409 309.04 233.648 308.999L229.18 308.856C228.559 308.873 227.937 308.827 227.324 308.72Z" fill="#263238"/>
<path d="M130.873 325.332C135.222 325.332 138.747 321.807 138.747 317.458C138.747 313.109 135.222 309.584 130.873 309.584C126.524 309.584 122.998 313.109 122.998 317.458C122.998 321.807 126.524 325.332 130.873 325.332Z" fill="#263238"/>
<path d="M130.873 321.749C133.243 321.749 135.164 319.828 135.164 317.458C135.164 315.088 133.243 313.167 130.873 313.167C128.503 313.167 126.582 315.088 126.582 317.458C126.582 319.828 128.503 321.749 130.873 321.749Z" fill="#E0E0E0"/>
<path d="M144.48 303.158V309.917L132.24 319.756C131.679 320.162 131.036 320.438 130.356 320.566C129.445 320.661 128.595 320.151 128.595 318.798C128.595 316.241 131.791 308.774 131.791 308.774H134.341V303.158H144.48Z" fill="#455A64"/>
<path d="M130.186 318.145C130.186 318.145 130.036 317.839 130.383 317.499C130.489 317.408 130.617 317.346 130.754 317.32C130.891 317.294 131.033 317.304 131.165 317.349C131.333 317.404 131.48 317.51 131.584 317.653C131.688 317.796 131.744 317.968 131.744 318.145C131.744 318.321 131.688 318.494 131.584 318.637C131.48 318.78 131.333 318.886 131.165 318.94C131.033 318.987 130.891 318.998 130.754 318.971C130.617 318.945 130.489 318.883 130.383 318.791C130.036 318.451 130.152 318.111 130.186 318.145C130.22 318.179 130.254 318.41 130.533 318.594C130.61 318.641 130.696 318.669 130.786 318.676C130.876 318.683 130.966 318.669 131.05 318.634C131.149 318.597 131.235 318.53 131.295 318.442C131.355 318.355 131.388 318.251 131.388 318.145C131.388 318.038 131.355 317.935 131.295 317.847C131.235 317.76 131.149 317.693 131.05 317.655C130.966 317.621 130.876 317.606 130.786 317.614C130.696 317.621 130.61 317.649 130.533 317.696C130.254 317.88 130.24 318.152 130.186 318.145Z" fill="#263238"/>
<path d="M131.818 308.774C132.431 308.673 133.053 308.635 133.674 308.659C134.817 308.659 136.394 308.659 138.149 308.7L142.623 308.842C143.245 308.826 143.867 308.871 144.48 308.978C143.866 309.079 143.244 309.118 142.623 309.094C141.474 309.094 139.903 309.094 138.142 309.053L133.668 308.91C133.048 308.922 132.429 308.877 131.818 308.774Z" fill="#263238"/>
<path d="M168.354 267.832C167.205 267.83 166.084 267.469 165.149 266.8C164.214 266.131 163.511 265.186 163.139 264.098L140.155 196.71L262.072 216.43L259.277 257.584C259.194 258.819 258.666 259.982 257.791 260.858C256.916 261.733 255.752 262.261 254.517 262.344L168.708 267.852L168.354 267.832ZM142.174 198.417L164.424 263.663C164.721 264.525 165.292 265.265 166.05 265.771C166.808 266.277 167.71 266.521 168.62 266.465L254.429 260.95C255.332 260.89 256.183 260.505 256.824 259.866C257.465 259.227 257.854 258.378 257.917 257.475L260.637 217.559L142.174 198.417Z" fill="#455A64"/>
<path d="M145.69 212.582L140.59 208.692L135.551 194.038L131.138 191.481L131.818 190.305L136.673 193.12L141.739 207.862L146.513 211.5L145.69 212.582Z" fill="#455A64"/>
<path d="M145.514 209.369L145.329 210.716L260.659 226.535L260.843 225.187L145.514 209.369Z" fill="#455A64"/>
<path d="M152.227 229.235L152.146 230.592L260.444 237.007L260.524 235.65L152.227 229.235Z" fill="#455A64"/>
<path d="M259.171 246.322L158.913 248.965L158.949 250.325L259.207 247.682L259.171 246.322Z" fill="#455A64"/>
<path d="M258.573 256.599L163.288 261.21L163.353 262.568L258.639 257.958L258.573 256.599Z" fill="#455A64"/>
<path d="M250.172 261.12L248.812 261.004C250.084 245.82 250.94 230.404 251.342 215.166L252.702 215.206C252.28 230.425 251.45 245.874 250.172 261.12Z" fill="#455A64"/>
<path d="M242.352 261.882H240.992C240.992 261.562 241.223 229.629 241.624 214.486L242.984 214.526C242.583 229.643 242.352 261.555 242.352 261.882Z" fill="#455A64"/>
<path d="M233.074 211.986L231.715 212.022L233.033 262.039L234.393 262.003L233.074 211.986Z" fill="#455A64"/>
<path d="M221.695 211.906L220.335 212.001L224.02 264.647L225.38 264.552L221.695 211.906Z" fill="#455A64"/>
<path d="M208.179 207.958L206.831 208.139L214.322 263.908L215.67 263.727L208.179 207.958Z" fill="#455A64"/>
<path d="M193.271 205.191L191.934 205.441L203.018 264.778L204.355 264.528L193.271 205.191Z" fill="#455A64"/>
<path d="M175.641 202.867L174.322 203.201L190.116 265.525L191.434 265.191L175.641 202.867Z" fill="#455A64"/>
<path d="M153.572 199.252L152.279 199.673L175.059 269.741L176.352 269.32L153.572 199.252Z" fill="#455A64"/>
<path d="M244.154 305.803H244.12L132.92 303.96C132.695 303.956 132.474 303.908 132.269 303.818C132.063 303.728 131.878 303.599 131.723 303.436C131.41 303.107 131.239 302.667 131.247 302.212C131.301 300.22 131.587 290.163 132.362 287.932C132.634 287.144 133.096 285.824 151.565 276.774C153.394 275.869 169.531 267.988 171.761 267.866C173.992 267.743 194.575 266.859 195.446 266.825C195.896 266.806 196.336 266.967 196.669 267.273C197.001 267.578 197.198 268.003 197.217 268.454C197.236 268.905 197.075 269.345 196.77 269.677C196.464 270.009 196.039 270.206 195.588 270.225C195.378 270.225 174.597 271.116 172.013 271.252C169.096 271.878 138.693 286.484 135.504 289.292C135.17 290.734 134.824 295.739 134.694 300.567L244.174 302.355C244.625 302.355 245.058 302.534 245.376 302.853C245.695 303.172 245.874 303.604 245.874 304.055C245.874 304.506 245.695 304.938 245.376 305.257C245.058 305.576 244.625 305.755 244.174 305.755L244.154 305.803Z" fill="#455A64"/>
<path d="M195.119 302.967L180.996 302.6C178.33 302.471 176.338 301.675 175.052 300.247C173.767 298.819 173.291 297.031 173.427 294.698C173.578 292.531 174.28 290.439 175.467 288.619L189.128 268.416L190.257 269.178L176.603 289.374C175.531 290.986 174.896 292.849 174.76 294.78C174.644 296.732 175.073 298.268 176.038 299.343C177.004 300.417 178.758 301.131 181.016 301.24L195.119 301.587V302.967Z" fill="#455A64"/>
<path d="M191.196 269.083C179.819 248.581 149.954 195.004 148.458 193.297C147.553 192.488 140.298 189.897 135.905 188.503L136.326 187.211C137.51 187.598 147.934 191.005 149.389 192.304C150.844 193.603 185.429 255.932 192.386 268.416L191.196 269.083Z" fill="#455A64"/>
<path d="M139.046 188.265L131.566 192.814C131.566 192.814 122.91 188.897 122.189 187.972C121.468 187.048 121.264 183.6 124.229 182.954C127.194 182.308 139.046 188.265 139.046 188.265Z" fill="#455A64"/>
<path d="M124.637 186.007C124.637 186.007 124.576 185.878 124.637 185.647C124.696 185.306 124.877 184.999 125.147 184.783C125.348 184.616 125.59 184.504 125.847 184.459C126.105 184.414 126.37 184.436 126.616 184.525C126.926 184.629 127.196 184.828 127.387 185.094C127.579 185.36 127.681 185.68 127.681 186.007C127.681 186.335 127.579 186.654 127.387 186.92C127.196 187.186 126.926 187.385 126.616 187.49C126.37 187.576 126.105 187.598 125.848 187.552C125.591 187.507 125.349 187.397 125.147 187.231C124.877 187.015 124.696 186.708 124.637 186.368C124.603 186.136 124.637 186.007 124.637 186.007C124.637 186.007 124.678 186.13 124.746 186.334C124.843 186.611 125.026 186.849 125.27 187.014C125.444 187.136 125.645 187.213 125.856 187.239C126.067 187.265 126.281 187.239 126.48 187.163C126.719 187.073 126.924 186.912 127.069 186.702C127.215 186.491 127.292 186.242 127.292 185.987C127.292 185.731 127.215 185.482 127.069 185.272C126.924 185.062 126.719 184.901 126.48 184.81C126.282 184.733 126.067 184.705 125.856 184.732C125.644 184.758 125.443 184.836 125.27 184.96C125.028 185.126 124.845 185.364 124.746 185.64C124.678 185.878 124.664 186.007 124.637 186.007Z" fill="#263238"/>
<path d="M132.954 303.688C132.954 303.593 157.801 303.906 188.442 304.368C219.082 304.83 243.936 305.334 243.936 305.429C243.936 305.524 219.096 305.211 188.442 304.749C157.787 304.286 132.947 303.783 132.954 303.688Z" fill="#263238"/>
<path d="M304.008 325.339C304.008 325.434 243.399 325.516 168.647 325.516C93.8944 325.516 33.2724 325.434 33.2724 325.339C33.2724 325.244 93.8672 325.162 168.647 325.162C243.426 325.162 304.008 325.237 304.008 325.339Z" fill="#263238"/>
</svg>
