<svg width="15" height="14" viewBox="0 0 15 14" fill="none" xmlns="http://www.w3.org/2000/svg">
<path d="M12.6249 10.198L10.8261 8.7686C10.5312 8.5328 10.1773 8.38549 9.79396 8.35599C9.23363 8.32649 8.70282 8.54759 8.349 8.94538C8.26054 9.03379 8.12787 9.04859 8.02461 8.97489C7.28737 8.38549 6.62389 7.72226 6.03402 6.98545C5.96027 6.88225 5.96027 6.74965 6.06354 6.66126C6.49108 6.27814 6.72702 5.68864 6.63858 5.06975C6.59436 4.74555 6.44687 4.43615 6.24045 4.17084L4.81021 2.37303C4.4711 1.96052 3.95501 1.69522 3.40948 1.69522C3.29151 1.69522 3.17354 1.70992 3.05558 1.72472C2.53946 1.82793 2.09722 2.06363 1.75802 2.40264C1.25672 2.90364 0.548893 4.06785 1.3894 6.33719C1.92021 7.7666 2.96714 9.29916 4.3236 10.6549C6.38782 12.7327 8.77652 14 10.5901 14C11.4011 14 12.0941 13.7348 12.5954 13.2485C12.9198 12.9243 13.1557 12.5117 13.2589 12.0107C13.4211 11.3328 13.1704 10.6254 12.6249 10.198L12.6249 10.198ZM12.3299 11.7895C12.2562 12.099 12.1235 12.3495 11.9171 12.5558C11.5927 12.88 11.1356 13.0274 10.5901 13.0274C9.10093 13.0274 6.93342 11.8927 5.0166 9.99178C2.39204 7.38335 1.24195 4.28889 2.43627 3.09526C2.6574 2.87426 2.92285 2.74156 3.26195 2.66796C3.32089 2.65326 3.36521 2.65326 3.42415 2.65326C3.6748 2.65326 3.91073 2.77117 4.07294 2.97746L5.50319 4.80459C5.81288 5.20249 5.70961 5.7772 5.28206 6.02769L4.92816 6.23399C4.69222 6.38139 4.61846 6.69078 4.78067 6.92659C5.6801 8.1939 6.78595 9.29911 8.054 10.198C8.27513 10.3601 8.59953 10.2864 8.747 10.0506L8.95343 9.69692C9.11562 9.43172 9.38097 9.29902 9.66115 9.29902C9.83805 9.29902 10.0298 9.35792 10.1773 9.47582L12.0056 10.9199C12.2857 11.1559 12.4037 11.48 12.3299 11.7896L12.3299 11.7895Z" fill="#FC6B00"/>
<path d="M8.8505 4.18565C8.4966 4.09725 8.17219 4.37725 8.18701 4.73086C8.20172 4.96666 8.36392 5.15816 8.59987 5.20247C8.88004 5.27617 9.1454 5.40877 9.36662 5.62977C9.58775 5.85077 9.73524 6.11606 9.79416 6.39607C9.8531 6.61707 10.0448 6.79398 10.266 6.80869C10.6199 6.83819 10.9 6.49917 10.8116 6.14558C10.6936 5.67397 10.4577 5.23197 10.1039 4.87827C9.74985 4.53937 9.30759 4.30356 8.8505 4.18568V4.18565Z" fill="#FC6B00"/>
<path d="M12.3746 6.97079C12.699 7.00029 12.9644 6.72028 12.9349 6.39608C12.8465 5.32036 12.3894 4.27404 11.5637 3.44884C10.7381 2.62364 9.69112 2.16682 8.61478 2.07843C8.2904 2.04893 8.01022 2.31423 8.03974 2.63843C8.05444 2.90363 8.26087 3.11004 8.52631 3.13944C9.36682 3.21314 10.1777 3.56673 10.8265 4.20044C11.4604 4.83404 11.8291 5.65935 11.8881 6.49926C11.9027 6.74976 12.1238 6.95605 12.3746 6.97076L12.3746 6.97079Z" fill="#FC6B00"/>
<path d="M13.0234 1.99002C11.7553 0.722708 10.1039 0.0595016 8.43775 0.000583284C8.12806 -0.0141158 7.87743 0.251085 7.89222 0.560584C7.90693 0.825782 8.12816 1.04688 8.40834 1.04688C9.80907 1.09108 11.2098 1.65109 12.2715 2.7268C13.3478 3.80251 13.9081 5.18774 13.9524 6.58768C13.9671 6.85287 14.1735 7.07397 14.4389 7.10349C14.7486 7.11819 15.014 6.88249 14.9993 6.55828C14.955 4.90775 14.2914 3.25738 13.0234 1.99007L13.0234 1.99002Z" fill="#FC6B00"/>
</svg>
