<svg width="12" height="16" viewBox="0 0 12 16" fill="none" xmlns="http://www.w3.org/2000/svg">
<path d="M5.6 1.6C7.144 1.6 9.6 2.72 9.6 5.72C9.6 7.448 8.224 9.456 5.6 11.576C2.976 9.456 1.6 7.44 1.6 5.72C1.6 2.72 4.056 1.6 5.6 1.6ZM5.6 0C2.984 0 0 1.968 0 5.72C0 8.216 1.864 10.848 5.6 13.6C9.336 10.848 11.2 8.216 11.2 5.72C11.2 1.968 8.216 0 5.6 0Z" fill="#FC6B00"/>
<path d="M5.6 4C4.72 4 4 4.72 4 5.6C4 6.48 4.72 7.2 5.6 7.2C6.02435 7.2 6.43131 7.03143 6.73137 6.73137C7.03143 6.43131 7.2 6.02435 7.2 5.6C7.2 5.17565 7.03143 4.76869 6.73137 4.46863C6.43131 4.16857 6.02435 4 5.6 4ZM0 14.4H11.2V16H0V14.4Z" fill="#FC6B00"/>
</svg>
