<svg width="47" height="23" viewBox="0 0 47 23" fill="none" xmlns="http://www.w3.org/2000/svg">
<path d="M0.755652 0.627407C0.591884 0.791668 0.334641 1.05761 0.160777 1.63644C0.0332771 2.06095 0.00598241 2.46911 0 2.70662C0.00598241 2.94412 0.0332771 3.35299 0.160777 3.7768C0.334641 4.35562 0.59151 4.62156 0.755652 4.78582C1.19947 5.23025 1.6332 5.20465 1.85455 5.15772V2.70662V0.255511C1.6332 0.208579 1.19947 0.182269 0.755652 0.627407Z" fill="#FC6B00"/>
<path d="M47 4.78028H4.06055C3.5759 4.82908 2.62707 4.8557 1.65451 4.39358C1.29594 4.22204 0.732699 3.94624 0.352023 3.34363C0.0728606 2.90295 0.0130985 2.47779 0 2.23083V19.6562C0.0130985 19.9032 0.0728606 20.3284 0.352023 20.769C0.732699 21.3709 1.29512 21.6474 1.65451 21.8183C2.5141 22.2271 3.35404 22.2538 3.87225 22.2205V22.2308H47L38.7258 13.5052L47 4.78028Z" fill="url(#paint0_linear_18_8016)"/>
<defs>
<linearGradient id="paint0_linear_18_8016" x1="43.475" y1="7.16918" x2="7.30754" y2="22.2173" gradientUnits="userSpaceOnUse">
<stop stop-color="#F26700"/>
<stop offset="1" stop-color="#FE8A00"/>
</linearGradient>
</defs>
</svg>
