<svg width="13" height="16" viewBox="0 0 13 16" fill="none" xmlns="http://www.w3.org/2000/svg">
<path fill-rule="evenodd" clip-rule="evenodd" d="M6.28574 0C3.4521 0 1.14293 2.36338 1.14293 5.28583C1.14293 6.85611 1.90579 8.52293 2.8457 9.94996C4.20233 12.0099 5.89939 13.5636 5.89939 13.5636C6.11827 13.7641 6.45308 13.7641 6.67196 13.5636C6.67196 13.5636 8.36915 12.01 9.72564 9.94996C10.6657 8.52306 11.4284 6.85624 11.4284 5.28583C11.4284 2.36354 9.11925 0 6.28561 0H6.28574ZM6.28574 2.28569C7.86225 2.28569 9.14286 3.5663 9.14286 5.14281C9.14286 6.71932 7.86225 7.99993 6.28574 7.99993C4.70923 7.99993 3.42862 6.71932 3.42862 5.14281C3.42862 3.5663 4.70923 2.28569 6.28574 2.28569ZM6.28574 3.42854C5.33946 3.42854 4.57147 4.19654 4.57147 5.14281C4.57147 6.08909 5.33946 6.85708 6.28574 6.85708C7.23202 6.85708 8.00001 6.08909 8.00001 5.14281C8.00001 4.19654 7.23202 3.42854 6.28574 3.42854ZM2.82585 11.2577C2.7881 11.26 2.75047 11.2669 2.71207 11.2766C1.77383 11.5234 1.04117 11.8715 0.599472 12.2577C0.192586 12.6149 0 13.0211 0 13.4286C0 13.9171 0.288007 14.4143 0.8908 14.8217C1.90278 15.5046 3.93642 16 6.28569 16C8.63477 16 10.6687 15.5046 11.6806 14.8212C12.2834 14.4143 12.5714 13.9172 12.5714 13.4286C12.5714 13.0212 12.3788 12.6148 11.9719 12.2577C11.5302 11.8715 10.7977 11.5234 9.85931 11.2766C9.55472 11.196 9.24159 11.3782 9.16162 11.684C9.08101 11.9891 9.26392 12.3017 9.56903 12.3817C10.1873 12.5451 10.6992 12.7492 11.0547 12.992C11.2621 13.1348 11.4284 13.2583 11.4284 13.4286C11.4284 13.5148 11.3685 13.5885 11.2948 13.6663C11.1457 13.823 10.9239 13.9635 10.6508 14.0938C9.66621 14.564 8.07592 14.8572 6.28573 14.8572C4.49545 14.8572 2.90519 14.564 1.92071 14.0938C1.64762 13.9635 1.42582 13.8229 1.2767 13.6663C1.20297 13.5887 1.14302 13.5149 1.14302 13.4286C1.14302 13.2583 1.30935 13.1348 1.51673 12.992C1.87223 12.7491 2.38419 12.5452 3.00244 12.3817C3.30754 12.3017 3.49043 11.9891 3.40984 11.684C3.33957 11.4165 3.09097 11.2428 2.82578 11.2577L2.82585 11.2577Z" fill="#00182E"/>
</svg>
