<svg width="11" height="16" viewBox="0 0 11 16" fill="none" xmlns="http://www.w3.org/2000/svg">
<path d="M5.5 0C2.45929 0 0 2.45929 0 5.5C0 9.625 5.5 15.7143 5.5 15.7143C5.5 15.7143 11 9.625 11 5.5C11 2.45929 8.54071 0 5.5 0ZM1.57143 5.5C1.57143 3.33143 3.33143 1.57143 5.5 1.57143C7.66857 1.57143 9.42857 3.33143 9.42857 5.5C9.42857 7.76286 7.16571 11.1493 5.5 13.2629C3.86571 11.165 1.57143 7.73929 1.57143 5.5Z" fill="#FC6B00"/>
<path d="M5.49993 7.46429C6.58478 7.46429 7.46422 6.58485 7.46422 5.5C7.46422 4.41516 6.58478 3.53572 5.49993 3.53572C4.41509 3.53572 3.53564 4.41516 3.53564 5.5C3.53564 6.58485 4.41509 7.46429 5.49993 7.46429Z" fill="#FC6B00"/>
</svg>
