<svg width="340" height="340" viewBox="0 0 340 340" fill="none" xmlns="http://www.w3.org/2000/svg">
<path d="M274.373 54.706H205.013C205.013 54.706 211.888 35.9176 222.476 35.9176C233.063 35.9176 236.368 48.8852 236.368 48.8852C236.368 48.8852 243.508 41.8404 249.376 41.8404C255.245 41.8404 260.345 51.1496 260.345 51.1496C260.345 51.1496 268.634 46.1448 274.373 54.706Z" fill="#EBEBEB"/>
<path opacity="0.5" d="M306.68 74.7524H274.285C274.285 74.7524 281.52 64.26 287.239 64.26C292.957 64.26 294.63 71.2572 294.63 71.2572C294.63 71.2572 298.656 67.9864 302.389 68.5372C306.122 69.088 306.68 74.7524 306.68 74.7524Z" fill="#EBEBEB"/>
<path opacity="0.5" d="M240.958 113.791H208.542C208.542 113.791 215.784 103.299 221.496 103.299C227.208 103.299 228.888 110.289 228.888 110.289C228.888 110.289 232.914 107.025 236.647 107.61C240.38 108.195 240.958 113.791 240.958 113.791Z" fill="#EBEBEB"/>
<path d="M96.4376 121.856H33.3199C33.3199 121.856 41.9423 102.551 51.1903 101.32C60.4383 100.089 64.8651 115.661 64.8651 115.661C64.8651 115.661 70.8355 110.167 75.5275 110.167C80.2195 110.167 83.8371 117.402 83.8371 117.402C83.8371 117.402 93.2212 112.472 96.4376 121.856Z" fill="#EBEBEB"/>
<path opacity="0.5" d="M125.276 65.1236H82.62C82.62 65.1236 89.9504 51.136 97.92 50.932C105.89 50.728 110.024 61.5196 110.024 61.5196C110.024 61.5196 122.4 51.5984 125.276 65.1236Z" fill="#EBEBEB"/>
<path d="M193.807 131.662H168.456V264.561H193.807V131.662Z" fill="#DBDBDB"/>
<path d="M177.324 135.98H172.394V141.052H177.324V135.98Z" fill="#EBEBEB"/>
<path d="M183.627 135.98H178.697V141.052H183.627V135.98Z" fill="#EBEBEB"/>
<path d="M177.324 144.595H172.394V149.668H177.324V144.595Z" fill="#EBEBEB"/>
<path d="M183.627 144.595H178.697V149.668H183.627V144.595Z" fill="#EBEBEB"/>
<path d="M177.324 153.211H172.394V158.284H177.324V153.211Z" fill="#EBEBEB"/>
<path d="M183.627 153.211H178.697V158.284H183.627V153.211Z" fill="#EBEBEB"/>
<path d="M177.324 161.826H172.394V166.899H177.324V161.826Z" fill="#EBEBEB"/>
<path d="M183.627 161.826H178.697V166.899H183.627V161.826Z" fill="#EBEBEB"/>
<path d="M177.324 170.442H172.394V175.515H177.324V170.442Z" fill="#EBEBEB"/>
<path d="M183.627 170.442H178.697V175.515H183.627V170.442Z" fill="#EBEBEB"/>
<path d="M177.324 179.058H172.394V184.13H177.324V179.058Z" fill="#EBEBEB"/>
<path d="M183.627 179.058H178.697V184.13H183.627V179.058Z" fill="#EBEBEB"/>
<path d="M177.324 187.673H172.394V192.746H177.324V187.673Z" fill="#EBEBEB"/>
<path d="M183.627 187.673H178.697V192.746H183.627V187.673Z" fill="#EBEBEB"/>
<path d="M177.324 196.289H172.394V201.362H177.324V196.289Z" fill="#EBEBEB"/>
<path d="M183.627 196.289H178.697V201.362H183.627V196.289Z" fill="#EBEBEB"/>
<path d="M177.324 204.904H172.394V209.977H177.324V204.904Z" fill="#EBEBEB"/>
<path d="M183.627 204.904H178.697V209.977H183.627V204.904Z" fill="#EBEBEB"/>
<path d="M177.324 213.52H172.394V218.593H177.324V213.52Z" fill="#EBEBEB"/>
<path d="M183.627 213.52H178.697V218.593H183.627V213.52Z" fill="#EBEBEB"/>
<path d="M177.324 222.136H172.394V227.208H177.324V222.136Z" fill="#EBEBEB"/>
<path d="M183.627 222.136H178.697V227.208H183.627V222.136Z" fill="#EBEBEB"/>
<path d="M177.324 230.751H172.394V235.824H177.324V230.751Z" fill="#EBEBEB"/>
<path d="M183.627 230.751H178.697V235.824H183.627V230.751Z" fill="#EBEBEB"/>
<path d="M177.324 239.367H172.394V244.44H177.324V239.367Z" fill="#EBEBEB"/>
<path d="M183.627 239.367H178.697V244.44H183.627V239.367Z" fill="#EBEBEB"/>
<path d="M177.324 247.982H172.394V253.055H177.324V247.982Z" fill="#EBEBEB"/>
<path d="M184.94 253.048H189.87V247.976H184.94V253.048Z" fill="#EBEBEB"/>
<path d="M184.94 244.433H189.87V239.36H184.94V244.433Z" fill="#EBEBEB"/>
<path d="M184.94 235.817H189.87V230.744H184.94V235.817Z" fill="#EBEBEB"/>
<path d="M184.94 227.208H189.87V222.136H184.94V227.208Z" fill="#EBEBEB"/>
<path d="M184.94 218.593H189.87V213.52H184.94V218.593Z" fill="#EBEBEB"/>
<path d="M184.94 209.977H189.87V204.904H184.94V209.977Z" fill="#EBEBEB"/>
<path d="M184.94 201.362H189.87V196.289H184.94V201.362Z" fill="#EBEBEB"/>
<path d="M184.94 192.746H189.87V187.673H184.94V192.746Z" fill="#EBEBEB"/>
<path d="M184.94 184.13H189.87V179.058H184.94V184.13Z" fill="#EBEBEB"/>
<path d="M184.94 175.515H189.87V170.442H184.94V175.515Z" fill="#EBEBEB"/>
<path d="M184.94 166.899H189.87V161.826H184.94V166.899Z" fill="#EBEBEB"/>
<path d="M184.94 158.284H189.87V153.211H184.94V158.284Z" fill="#EBEBEB"/>
<path d="M184.94 149.668H189.87V144.595H184.94V149.668Z" fill="#EBEBEB"/>
<path d="M184.94 141.052H189.87V135.98H184.94V141.052Z" fill="#EBEBEB"/>
<path d="M183.627 247.982H178.697V253.055H183.627V247.982Z" fill="#EBEBEB"/>
<path d="M213.799 131.662H193.807V264.561H213.799V131.662Z" fill="#A6A6A6"/>
<path d="M207.665 253.048H211.738V247.976H207.665V253.048Z" fill="#C7C7C7"/>
<path d="M202.463 253.048H206.53V247.976H202.463V253.048Z" fill="#C7C7C7"/>
<path d="M207.665 244.433H211.738V239.36H207.665V244.433Z" fill="#C7C7C7"/>
<path d="M202.463 244.433H206.53V239.36H202.463V244.433Z" fill="#C7C7C7"/>
<path d="M207.665 235.817H211.738V230.744H207.665V235.817Z" fill="#C7C7C7"/>
<path d="M202.463 235.817H206.53V230.744H202.463V235.817Z" fill="#C7C7C7"/>
<path d="M207.665 227.208H211.738V222.136H207.665V227.208Z" fill="#C7C7C7"/>
<path d="M202.463 227.208H206.53V222.136H202.463V227.208Z" fill="#C7C7C7"/>
<path d="M207.665 218.593H211.738V213.52H207.665V218.593Z" fill="#C7C7C7"/>
<path d="M202.463 218.593H206.53V213.52H202.463V218.593Z" fill="#C7C7C7"/>
<path d="M207.665 209.977H211.738V204.904H207.665V209.977Z" fill="#C7C7C7"/>
<path d="M202.463 209.977H206.53V204.904H202.463V209.977Z" fill="#C7C7C7"/>
<path d="M207.665 201.362H211.738V196.289H207.665V201.362Z" fill="#C7C7C7"/>
<path d="M202.463 201.362H206.53V196.289H202.463V201.362Z" fill="#C7C7C7"/>
<path d="M207.665 192.746H211.738V187.673H207.665V192.746Z" fill="#C7C7C7"/>
<path d="M202.463 192.746H206.53V187.673H202.463V192.746Z" fill="#C7C7C7"/>
<path d="M207.665 184.13H211.738V179.058H207.665V184.13Z" fill="#C7C7C7"/>
<path d="M202.463 184.13H206.53V179.058H202.463V184.13Z" fill="#C7C7C7"/>
<path d="M207.665 175.515H211.738V170.442H207.665V175.515Z" fill="#C7C7C7"/>
<path d="M202.463 175.515H206.53V170.442H202.463V175.515Z" fill="#C7C7C7"/>
<path d="M207.665 166.899H211.738V161.826H207.665V166.899Z" fill="#C7C7C7"/>
<path d="M202.463 166.899H206.53V161.826H202.463V166.899Z" fill="#C7C7C7"/>
<path d="M207.665 158.284H211.738V153.211H207.665V158.284Z" fill="#C7C7C7"/>
<path d="M202.463 158.284H206.53V153.211H202.463V158.284Z" fill="#C7C7C7"/>
<path d="M207.665 149.668H211.738V144.595H207.665V149.668Z" fill="#C7C7C7"/>
<path d="M202.463 149.668H206.53V144.595H202.463V149.668Z" fill="#C7C7C7"/>
<path d="M207.665 141.052H211.738V135.98H207.665V141.052Z" fill="#C7C7C7"/>
<path d="M201.368 135.98H197.302V141.052H201.368V135.98Z" fill="#C7C7C7"/>
<path d="M201.368 144.595H197.302V149.668H201.368V144.595Z" fill="#C7C7C7"/>
<path d="M201.368 153.211H197.302V158.284H201.368V153.211Z" fill="#C7C7C7"/>
<path d="M201.368 161.826H197.302V166.899H201.368V161.826Z" fill="#C7C7C7"/>
<path d="M201.368 170.442H197.302V175.515H201.368V170.442Z" fill="#C7C7C7"/>
<path d="M201.368 179.058H197.302V184.13H201.368V179.058Z" fill="#C7C7C7"/>
<path d="M201.368 187.673H197.302V192.746H201.368V187.673Z" fill="#C7C7C7"/>
<path d="M201.368 196.289H197.302V201.362H201.368V196.289Z" fill="#C7C7C7"/>
<path d="M201.368 204.904H197.302V209.977H201.368V204.904Z" fill="#C7C7C7"/>
<path d="M201.368 213.52H197.302V218.593H201.368V213.52Z" fill="#C7C7C7"/>
<path d="M201.368 222.136H197.302V227.208H201.368V222.136Z" fill="#C7C7C7"/>
<path d="M201.368 230.751H197.302V235.824H201.368V230.751Z" fill="#C7C7C7"/>
<path d="M201.368 239.367H197.302V244.44H201.368V239.367Z" fill="#C7C7C7"/>
<path d="M201.368 247.982H197.302V253.055H201.368V247.982Z" fill="#C7C7C7"/>
<path d="M202.463 141.052H206.53V135.98H202.463V141.052Z" fill="#C7C7C7"/>
<path d="M102.653 128.765H76.2075V264.561H102.653V128.765Z" fill="#EBEBEB"/>
<path d="M102.66 126.058H75.5752V128.765H102.66V126.058Z" fill="#C7C7C7"/>
<path d="M81.2804 132.75H78.6012V264.561H81.2804V132.75Z" fill="white"/>
<path d="M86.0267 132.75H83.3475V264.561H86.0267V132.75Z" fill="white"/>
<path d="M90.7732 132.75H88.094V264.561H90.7732V132.75Z" fill="white"/>
<path d="M95.5195 132.75H92.8403V264.561H95.5195V132.75Z" fill="white"/>
<path d="M100.266 132.75H97.5868V264.561H100.266V132.75Z" fill="white"/>
<path d="M81.2804 136.163H78.6012V141.501H81.2804V136.163Z" fill="#EBEBEB"/>
<path d="M86.0267 136.163H83.3475V141.501H86.0267V136.163Z" fill="#EBEBEB"/>
<path d="M90.7732 136.163H88.094V141.501H90.7732V136.163Z" fill="#EBEBEB"/>
<path d="M95.5195 136.163H92.8403V141.501H95.5195V136.163Z" fill="#EBEBEB"/>
<path d="M100.266 136.163H97.5868V141.501H100.266V136.163Z" fill="#EBEBEB"/>
<path d="M81.2804 144.84H78.6012V150.178H81.2804V144.84Z" fill="#EBEBEB"/>
<path d="M86.0267 144.84H83.3475V150.178H86.0267V144.84Z" fill="#EBEBEB"/>
<path d="M90.7732 144.84H88.094V150.178H90.7732V144.84Z" fill="#EBEBEB"/>
<path d="M95.5195 144.84H92.8403V150.178H95.5195V144.84Z" fill="#EBEBEB"/>
<path d="M100.266 144.84H97.5868V150.178H100.266V144.84Z" fill="#EBEBEB"/>
<path d="M81.2804 153.517H78.6012V158.855H81.2804V153.517Z" fill="#EBEBEB"/>
<path d="M86.0267 153.517H83.3475V158.855H86.0267V153.517Z" fill="#EBEBEB"/>
<path d="M90.7732 153.517H88.094V158.855H90.7732V153.517Z" fill="#EBEBEB"/>
<path d="M95.5195 153.517H92.8403V158.855H95.5195V153.517Z" fill="#EBEBEB"/>
<path d="M100.266 153.517H97.5868V158.855H100.266V153.517Z" fill="#EBEBEB"/>
<path d="M81.2804 162.194H78.6012V167.532H81.2804V162.194Z" fill="#EBEBEB"/>
<path d="M86.0267 162.194H83.3475V167.532H86.0267V162.194Z" fill="#EBEBEB"/>
<path d="M90.7732 162.194H88.094V167.532H90.7732V162.194Z" fill="#EBEBEB"/>
<path d="M95.5195 162.194H92.8403V167.532H95.5195V162.194Z" fill="#EBEBEB"/>
<path d="M100.266 162.194H97.5868V167.532H100.266V162.194Z" fill="#EBEBEB"/>
<path d="M81.2804 170.87H78.6012V176.208H81.2804V170.87Z" fill="#EBEBEB"/>
<path d="M86.0267 170.87H83.3475V176.208H86.0267V170.87Z" fill="#EBEBEB"/>
<path d="M90.7732 170.87H88.094V176.208H90.7732V170.87Z" fill="#EBEBEB"/>
<path d="M95.5195 170.87H92.8403V176.208H95.5195V170.87Z" fill="#EBEBEB"/>
<path d="M100.266 170.87H97.5868V176.208H100.266V170.87Z" fill="#EBEBEB"/>
<path d="M81.2804 179.54H78.6012V184.878H81.2804V179.54Z" fill="#EBEBEB"/>
<path d="M86.0267 179.54H83.3475V184.878H86.0267V179.54Z" fill="#EBEBEB"/>
<path d="M90.7732 179.54H88.094V184.878H90.7732V179.54Z" fill="#EBEBEB"/>
<path d="M95.5195 179.54H92.8403V184.878H95.5195V179.54Z" fill="#EBEBEB"/>
<path d="M100.266 179.54H97.5868V184.878H100.266V179.54Z" fill="#EBEBEB"/>
<path d="M81.2804 188.217H78.6012V193.555H81.2804V188.217Z" fill="#EBEBEB"/>
<path d="M86.0267 188.217H83.3475V193.555H86.0267V188.217Z" fill="#EBEBEB"/>
<path d="M90.7732 188.217H88.094V193.555H90.7732V188.217Z" fill="#EBEBEB"/>
<path d="M95.5195 188.217H92.8403V193.555H95.5195V188.217Z" fill="#EBEBEB"/>
<path d="M100.266 188.217H97.5868V193.555H100.266V188.217Z" fill="#EBEBEB"/>
<path d="M81.2804 196.894H78.6012V202.232H81.2804V196.894Z" fill="#EBEBEB"/>
<path d="M86.0267 196.894H83.3475V202.232H86.0267V196.894Z" fill="#EBEBEB"/>
<path d="M90.7732 196.894H88.094V202.232H90.7732V196.894Z" fill="#EBEBEB"/>
<path d="M95.5195 196.894H92.8403V202.232H95.5195V196.894Z" fill="#EBEBEB"/>
<path d="M100.266 196.894H97.5868V202.232H100.266V196.894Z" fill="#EBEBEB"/>
<path d="M81.2804 205.571H78.6012V210.909H81.2804V205.571Z" fill="#EBEBEB"/>
<path d="M86.0267 205.571H83.3475V210.909H86.0267V205.571Z" fill="#EBEBEB"/>
<path d="M90.7732 205.571H88.094V210.909H90.7732V205.571Z" fill="#EBEBEB"/>
<path d="M95.5195 205.571H92.8403V210.909H95.5195V205.571Z" fill="#EBEBEB"/>
<path d="M100.266 205.571H97.5868V210.909H100.266V205.571Z" fill="#EBEBEB"/>
<path d="M81.2804 214.248H78.6012V219.586H81.2804V214.248Z" fill="#EBEBEB"/>
<path d="M86.0267 214.248H83.3475V219.586H86.0267V214.248Z" fill="#EBEBEB"/>
<path d="M90.7732 214.248H88.094V219.586H90.7732V214.248Z" fill="#EBEBEB"/>
<path d="M95.5195 214.248H92.8403V219.586H95.5195V214.248Z" fill="#EBEBEB"/>
<path d="M100.266 214.248H97.5868V219.586H100.266V214.248Z" fill="#EBEBEB"/>
<path d="M81.2804 222.924H78.6012V228.262H81.2804V222.924Z" fill="#EBEBEB"/>
<path d="M86.0267 222.924H83.3475V228.262H86.0267V222.924Z" fill="#EBEBEB"/>
<path d="M90.7732 222.924H88.094V228.262H90.7732V222.924Z" fill="#EBEBEB"/>
<path d="M95.5195 222.924H92.8403V228.262H95.5195V222.924Z" fill="#EBEBEB"/>
<path d="M100.266 222.924H97.5868V228.262H100.266V222.924Z" fill="#EBEBEB"/>
<path d="M81.2804 231.594H78.6012V236.932H81.2804V231.594Z" fill="#EBEBEB"/>
<path d="M86.0267 231.594H83.3475V236.932H86.0267V231.594Z" fill="#EBEBEB"/>
<path d="M90.7732 231.594H88.094V236.932H90.7732V231.594Z" fill="#EBEBEB"/>
<path d="M95.5195 231.594H92.8403V236.932H95.5195V231.594Z" fill="#EBEBEB"/>
<path d="M100.266 231.594H97.5868V236.932H100.266V231.594Z" fill="#EBEBEB"/>
<path d="M81.2804 240.271H78.6012V245.609H81.2804V240.271Z" fill="#EBEBEB"/>
<path d="M86.0267 240.271H83.3475V245.609H86.0267V240.271Z" fill="#EBEBEB"/>
<path d="M90.7732 240.271H88.094V245.609H90.7732V240.271Z" fill="#EBEBEB"/>
<path d="M95.5195 240.271H92.8403V245.609H95.5195V240.271Z" fill="#EBEBEB"/>
<path d="M100.266 240.271H97.5868V245.609H100.266V240.271Z" fill="#EBEBEB"/>
<path d="M81.2804 248.948H78.6012V264.561H81.2804V248.948Z" fill="#EBEBEB"/>
<path d="M86.0267 248.948H83.3475V264.561H86.0267V248.948Z" fill="#EBEBEB"/>
<path d="M90.7732 248.948H88.094V264.561H90.7732V248.948Z" fill="#EBEBEB"/>
<path d="M95.5195 248.948H92.8403V264.561H95.5195V248.948Z" fill="#EBEBEB"/>
<path d="M100.266 248.948H97.5868V264.561H100.266V248.948Z" fill="#EBEBEB"/>
<path d="M119.639 128.765H102.66V264.561H119.639V128.765Z" fill="#DBDBDB"/>
<path d="M120.374 126.058H102.66V128.765H120.374V126.058Z" fill="#C7C7C7"/>
<path d="M107.726 132.75H105.046V264.561H107.726V132.75Z" fill="#C7C7C7"/>
<path d="M112.472 132.75H109.793V264.561H112.472V132.75Z" fill="#C7C7C7"/>
<path d="M117.218 132.75H114.539V264.561H117.218V132.75Z" fill="#C7C7C7"/>
<path d="M107.726 136.163H105.046V141.501H107.726V136.163Z" fill="#DBDBDB"/>
<path d="M112.472 136.163H109.793V141.501H112.472V136.163Z" fill="#DBDBDB"/>
<path d="M117.218 136.163H114.539V141.501H117.218V136.163Z" fill="#DBDBDB"/>
<path d="M107.726 144.84H105.046V150.178H107.726V144.84Z" fill="#DBDBDB"/>
<path d="M112.472 144.84H109.793V150.178H112.472V144.84Z" fill="#DBDBDB"/>
<path d="M117.218 144.84H114.539V150.178H117.218V144.84Z" fill="#DBDBDB"/>
<path d="M107.726 153.517H105.046V158.855H107.726V153.517Z" fill="#DBDBDB"/>
<path d="M112.472 153.517H109.793V158.855H112.472V153.517Z" fill="#DBDBDB"/>
<path d="M117.218 153.517H114.539V158.855H117.218V153.517Z" fill="#DBDBDB"/>
<path d="M107.726 162.194H105.046V167.532H107.726V162.194Z" fill="#DBDBDB"/>
<path d="M112.472 162.194H109.793V167.532H112.472V162.194Z" fill="#DBDBDB"/>
<path d="M117.218 162.194H114.539V167.532H117.218V162.194Z" fill="#DBDBDB"/>
<path d="M107.726 170.87H105.046V176.208H107.726V170.87Z" fill="#DBDBDB"/>
<path d="M112.472 170.87H109.793V176.208H112.472V170.87Z" fill="#DBDBDB"/>
<path d="M117.218 170.87H114.539V176.208H117.218V170.87Z" fill="#DBDBDB"/>
<path d="M107.726 179.54H105.046V184.878H107.726V179.54Z" fill="#DBDBDB"/>
<path d="M112.472 179.54H109.793V184.878H112.472V179.54Z" fill="#DBDBDB"/>
<path d="M117.218 179.54H114.539V184.878H117.218V179.54Z" fill="#DBDBDB"/>
<path d="M107.726 188.217H105.046V193.555H107.726V188.217Z" fill="#DBDBDB"/>
<path d="M112.472 188.217H109.793V193.555H112.472V188.217Z" fill="#DBDBDB"/>
<path d="M117.218 188.217H114.539V193.555H117.218V188.217Z" fill="#DBDBDB"/>
<path d="M107.726 196.894H105.046V202.232H107.726V196.894Z" fill="#DBDBDB"/>
<path d="M112.472 196.894H109.793V202.232H112.472V196.894Z" fill="#DBDBDB"/>
<path d="M117.218 196.894H114.539V202.232H117.218V196.894Z" fill="#DBDBDB"/>
<path d="M107.726 205.571H105.046V210.909H107.726V205.571Z" fill="#DBDBDB"/>
<path d="M112.472 205.571H109.793V210.909H112.472V205.571Z" fill="#DBDBDB"/>
<path d="M117.218 205.571H114.539V210.909H117.218V205.571Z" fill="#DBDBDB"/>
<path d="M107.726 214.248H105.046V219.586H107.726V214.248Z" fill="#DBDBDB"/>
<path d="M112.472 214.248H109.793V219.586H112.472V214.248Z" fill="#DBDBDB"/>
<path d="M117.218 214.248H114.539V219.586H117.218V214.248Z" fill="#DBDBDB"/>
<path d="M107.726 222.924H105.046V228.262H107.726V222.924Z" fill="#DBDBDB"/>
<path d="M112.472 222.924H109.793V228.262H112.472V222.924Z" fill="#DBDBDB"/>
<path d="M117.218 222.924H114.539V228.262H117.218V222.924Z" fill="#DBDBDB"/>
<path d="M107.726 231.594H105.046V236.932H107.726V231.594Z" fill="#DBDBDB"/>
<path d="M112.472 231.594H109.793V236.932H112.472V231.594Z" fill="#DBDBDB"/>
<path d="M117.218 231.594H114.539V236.932H117.218V231.594Z" fill="#DBDBDB"/>
<path d="M107.726 240.271H105.046V245.609H107.726V240.271Z" fill="#DBDBDB"/>
<path d="M112.472 240.271H109.793V245.609H112.472V240.271Z" fill="#DBDBDB"/>
<path d="M117.218 240.271H114.539V245.609H117.218V240.271Z" fill="#DBDBDB"/>
<path d="M107.726 248.948H105.046V264.561H107.726V248.948Z" fill="#DBDBDB"/>
<path d="M112.472 248.948H109.793V264.561H112.472V248.948Z" fill="#DBDBDB"/>
<path d="M117.218 248.948H114.539V264.561H117.218V248.948Z" fill="#DBDBDB"/>
<path d="M64.2804 169.436H39.1952V264.561H64.2804V169.436Z" fill="#EBEBEB"/>
<path d="M64.2803 163.125H42.7651V169.436H64.2803V163.125Z" fill="#C7C7C7"/>
<path d="M61.5264 172.727H41.9424V243.841H61.5264V172.727Z" fill="#DBDBDB"/>
<path d="M61.5264 179.513H41.9424V181.193H61.5264V179.513Z" fill="white"/>
<path d="M61.5264 186.476H41.9424V188.156H61.5264V186.476Z" fill="white"/>
<path d="M61.5264 193.433H41.9424V195.112H61.5264V193.433Z" fill="white"/>
<path d="M61.5264 200.396H41.9424V202.076H61.5264V200.396Z" fill="white"/>
<path d="M61.5264 207.359H41.9424V209.039H61.5264V207.359Z" fill="white"/>
<path d="M61.5264 214.316H41.9424V215.995H61.5264V214.316Z" fill="white"/>
<path d="M61.5264 221.279H41.9424V222.958H61.5264V221.279Z" fill="white"/>
<path d="M61.5264 228.242H41.9424V229.922H61.5264V228.242Z" fill="white"/>
<path d="M61.5264 235.198H41.9424V236.878H61.5264V235.198Z" fill="white"/>
<path d="M61.5264 242.162H41.9424V243.841H61.5264V242.162Z" fill="white"/>
<path d="M79.9884 169.436H64.2804V264.561H79.9884V169.436Z" fill="#DBDBDB"/>
<path d="M77.6356 163.125H64.2804V169.436H77.6356V163.125Z" fill="#A6A6A6"/>
<path d="M78.5196 172.727H66.4427V243.841H78.5196V172.727Z" fill="#C7C7C7"/>
<path d="M78.5196 179.513H66.4427V181.193H78.5196V179.513Z" fill="white"/>
<path d="M78.5196 186.476H66.4427V188.156H78.5196V186.476Z" fill="white"/>
<path d="M78.5196 193.433H66.4427V195.112H78.5196V193.433Z" fill="white"/>
<path d="M78.5196 200.396H66.4427V202.076H78.5196V200.396Z" fill="white"/>
<path d="M78.5196 207.359H66.4427V209.039H78.5196V207.359Z" fill="white"/>
<path d="M78.5196 214.316H66.4427V215.995H78.5196V214.316Z" fill="white"/>
<path d="M78.5196 221.279H66.4427V222.958H78.5196V221.279Z" fill="white"/>
<path d="M78.5196 228.242H66.4427V229.922H78.5196V228.242Z" fill="white"/>
<path d="M78.5196 235.198H66.4427V236.878H78.5196V235.198Z" fill="white"/>
<path d="M78.5196 242.162H66.4427V243.841H78.5196V242.162Z" fill="white"/>
<path d="M276.719 171.04H263.323V186.864H276.719V171.04Z" fill="#DBDBDB"/>
<path d="M285.212 171.04H276.719V187.449H285.212V171.04Z" fill="#C7C7C7"/>
<path d="M285.777 178.024H277.345V187.442H285.777V178.024Z" fill="#DBDBDB"/>
<path d="M291.033 178.024H285.777V187.442H291.033V178.024Z" fill="#C7C7C7"/>
<path d="M279.847 185.837H258.182V264.568H279.847V185.837Z" fill="#EBEBEB"/>
<path d="M267.471 189.217H260.658V191.998H267.471V189.217Z" fill="white"/>
<path d="M276.189 189.217H269.375V191.998H276.189V189.217Z" fill="white"/>
<path d="M267.471 193.943H260.658V196.724H267.471V193.943Z" fill="white"/>
<path d="M276.189 193.943H269.375V196.724H276.189V193.943Z" fill="white"/>
<path d="M267.471 198.669H260.658V201.45H267.471V198.669Z" fill="white"/>
<path d="M276.189 198.669H269.375V201.45H276.189V198.669Z" fill="white"/>
<path d="M267.471 203.395H260.658V206.176H267.471V203.395Z" fill="white"/>
<path d="M276.189 203.395H269.375V206.176H276.189V203.395Z" fill="white"/>
<path d="M267.471 208.121H260.658V210.902H267.471V208.121Z" fill="white"/>
<path d="M276.189 208.121H269.375V210.902H276.189V208.121Z" fill="white"/>
<path d="M267.471 212.847H260.658V215.628H267.471V212.847Z" fill="white"/>
<path d="M276.189 212.847H269.375V215.628H276.189V212.847Z" fill="white"/>
<path d="M267.471 217.573H260.658V220.354H267.471V217.573Z" fill="white"/>
<path d="M276.189 217.573H269.375V220.354H276.189V217.573Z" fill="white"/>
<path d="M267.471 222.299H260.658V225.08H267.471V222.299Z" fill="white"/>
<path d="M276.189 222.299H269.375V225.08H276.189V222.299Z" fill="white"/>
<path d="M267.471 227.025H260.658V229.806H267.471V227.025Z" fill="white"/>
<path d="M276.189 227.025H269.375V229.806H276.189V227.025Z" fill="white"/>
<path d="M267.471 231.751H260.658V234.532H267.471V231.751Z" fill="white"/>
<path d="M276.189 231.751H269.375V234.532H276.189V231.751Z" fill="white"/>
<path d="M267.471 236.47H260.658V239.251H267.471V236.47Z" fill="white"/>
<path d="M276.189 236.47H269.375V239.251H276.189V236.47Z" fill="white"/>
<path d="M267.471 241.196H260.658V243.977H267.471V241.196Z" fill="white"/>
<path d="M276.189 241.196H269.375V243.977H276.189V241.196Z" fill="white"/>
<path d="M267.471 245.922H260.658V248.703H267.471V245.922Z" fill="white"/>
<path d="M276.189 245.922H269.375V248.703H276.189V245.922Z" fill="white"/>
<path d="M267.471 250.648H260.658V253.429H267.471V250.648Z" fill="white"/>
<path d="M276.189 250.648H269.375V253.429H276.189V250.648Z" fill="white"/>
<path d="M297.398 185.837H279.847V264.568H297.398V185.837Z" fill="#C7C7C7"/>
<path d="M290.047 253.436H295.637V250.655H290.047V253.436Z" fill="#EBEBEB"/>
<path d="M282.894 253.436H288.483V250.655H282.894V253.436Z" fill="#EBEBEB"/>
<path d="M290.047 248.71H295.637V245.929H290.047V248.71Z" fill="#EBEBEB"/>
<path d="M282.894 248.71H288.483V245.929H282.894V248.71Z" fill="#EBEBEB"/>
<path d="M290.047 243.984H295.637V241.203H290.047V243.984Z" fill="#EBEBEB"/>
<path d="M282.894 243.984H288.483V241.203H282.894V243.984Z" fill="#EBEBEB"/>
<path d="M290.047 239.258H295.637V236.477H290.047V239.258Z" fill="#EBEBEB"/>
<path d="M282.894 239.258H288.483V236.477H282.894V239.258Z" fill="#EBEBEB"/>
<path d="M290.047 234.525H295.637V231.744H290.047V234.525Z" fill="#EBEBEB"/>
<path d="M282.894 234.525H288.483V231.744H282.894V234.525Z" fill="#EBEBEB"/>
<path d="M290.047 229.806H295.637V227.025H290.047V229.806Z" fill="#EBEBEB"/>
<path d="M282.894 229.806H288.483V227.025H282.894V229.806Z" fill="#EBEBEB"/>
<path d="M290.047 225.08H295.637V222.299H290.047V225.08Z" fill="#EBEBEB"/>
<path d="M282.894 225.08H288.483V222.299H282.894V225.08Z" fill="#EBEBEB"/>
<path d="M290.047 220.354H295.637V217.573H290.047V220.354Z" fill="#EBEBEB"/>
<path d="M282.894 220.354H288.483V217.573H282.894V220.354Z" fill="#EBEBEB"/>
<path d="M290.047 215.628H295.637V212.847H290.047V215.628Z" fill="#EBEBEB"/>
<path d="M282.894 215.628H288.483V212.847H282.894V215.628Z" fill="#EBEBEB"/>
<path d="M290.047 210.902H295.637V208.121H290.047V210.902Z" fill="#EBEBEB"/>
<path d="M282.894 210.902H288.483V208.121H282.894V210.902Z" fill="#EBEBEB"/>
<path d="M290.047 206.176H295.637V203.395H290.047V206.176Z" fill="#EBEBEB"/>
<path d="M282.894 206.176H288.483V203.395H282.894V206.176Z" fill="#EBEBEB"/>
<path d="M290.047 201.457H295.637V198.676H290.047V201.457Z" fill="#EBEBEB"/>
<path d="M282.894 201.457H288.483V198.676H282.894V201.457Z" fill="#EBEBEB"/>
<path d="M290.047 196.731H295.637V193.95H290.047V196.731Z" fill="#EBEBEB"/>
<path d="M282.894 196.731H288.483V193.95H282.894V196.731Z" fill="#EBEBEB"/>
<path d="M290.047 192.005H295.637V189.224H290.047V192.005Z" fill="#EBEBEB"/>
<path d="M282.894 192.005H288.483V189.224H282.894V192.005Z" fill="#EBEBEB"/>
<path d="M131.886 171.04H118.49V186.864H131.886V171.04Z" fill="#DBDBDB"/>
<path d="M140.379 171.04H131.886V187.449H140.379V171.04Z" fill="#C7C7C7"/>
<path d="M140.95 178.024H132.518V187.442H140.95V178.024Z" fill="#DBDBDB"/>
<path d="M146.2 178.024H140.944V187.442H146.2V178.024Z" fill="#C7C7C7"/>
<path d="M135.014 185.837H113.349V264.568H135.014V185.837Z" fill="#EBEBEB"/>
<path d="M122.638 189.217H115.824V191.998H122.638V189.217Z" fill="white"/>
<path d="M131.356 189.217H124.542V191.998H131.356V189.217Z" fill="white"/>
<path d="M122.638 193.943H115.824V196.724H122.638V193.943Z" fill="white"/>
<path d="M131.356 193.943H124.542V196.724H131.356V193.943Z" fill="white"/>
<path d="M122.638 198.669H115.824V201.45H122.638V198.669Z" fill="white"/>
<path d="M131.356 198.669H124.542V201.45H131.356V198.669Z" fill="white"/>
<path d="M122.638 203.395H115.824V206.176H122.638V203.395Z" fill="white"/>
<path d="M131.356 203.395H124.542V206.176H131.356V203.395Z" fill="white"/>
<path d="M122.638 208.121H115.824V210.902H122.638V208.121Z" fill="white"/>
<path d="M131.356 208.121H124.542V210.902H131.356V208.121Z" fill="white"/>
<path d="M122.638 212.847H115.824V215.628H122.638V212.847Z" fill="white"/>
<path d="M131.356 212.847H124.542V215.628H131.356V212.847Z" fill="white"/>
<path d="M122.638 217.573H115.824V220.354H122.638V217.573Z" fill="white"/>
<path d="M131.356 217.573H124.542V220.354H131.356V217.573Z" fill="white"/>
<path d="M122.638 222.299H115.824V225.08H122.638V222.299Z" fill="white"/>
<path d="M131.356 222.299H124.542V225.08H131.356V222.299Z" fill="white"/>
<path d="M122.638 227.025H115.824V229.806H122.638V227.025Z" fill="white"/>
<path d="M131.356 227.025H124.542V229.806H131.356V227.025Z" fill="white"/>
<path d="M122.638 231.751H115.824V234.532H122.638V231.751Z" fill="white"/>
<path d="M131.356 231.751H124.542V234.532H131.356V231.751Z" fill="white"/>
<path d="M122.638 236.47H115.824V239.251H122.638V236.47Z" fill="white"/>
<path d="M131.356 236.47H124.542V239.251H131.356V236.47Z" fill="white"/>
<path d="M122.638 241.196H115.824V243.977H122.638V241.196Z" fill="white"/>
<path d="M131.356 241.196H124.542V243.977H131.356V241.196Z" fill="white"/>
<path d="M122.638 245.922H115.824V248.703H122.638V245.922Z" fill="white"/>
<path d="M131.356 245.922H124.542V248.703H131.356V245.922Z" fill="white"/>
<path d="M122.638 250.648H115.824V253.429H122.638V250.648Z" fill="white"/>
<path d="M131.356 250.648H124.542V253.429H131.356V250.648Z" fill="white"/>
<path d="M152.565 185.837H135.014V264.568H152.565V185.837Z" fill="#C7C7C7"/>
<path d="M145.214 253.436H150.804V250.655H145.214V253.436Z" fill="#EBEBEB"/>
<path d="M138.06 253.436H143.65V250.655H138.06V253.436Z" fill="#EBEBEB"/>
<path d="M145.214 248.71H150.804V245.929H145.214V248.71Z" fill="#EBEBEB"/>
<path d="M138.06 248.71H143.65V245.929H138.06V248.71Z" fill="#EBEBEB"/>
<path d="M145.214 243.984H150.804V241.203H145.214V243.984Z" fill="#EBEBEB"/>
<path d="M138.06 243.984H143.65V241.203H138.06V243.984Z" fill="#EBEBEB"/>
<path d="M145.214 239.258H150.804V236.477H145.214V239.258Z" fill="#EBEBEB"/>
<path d="M138.06 239.258H143.65V236.477H138.06V239.258Z" fill="#EBEBEB"/>
<path d="M145.214 234.525H150.804V231.744H145.214V234.525Z" fill="#EBEBEB"/>
<path d="M138.06 234.525H143.65V231.744H138.06V234.525Z" fill="#EBEBEB"/>
<path d="M145.214 229.806H150.804V227.025H145.214V229.806Z" fill="#EBEBEB"/>
<path d="M138.06 229.806H143.65V227.025H138.06V229.806Z" fill="#EBEBEB"/>
<path d="M145.214 225.08H150.804V222.299H145.214V225.08Z" fill="#EBEBEB"/>
<path d="M138.06 225.08H143.65V222.299H138.06V225.08Z" fill="#EBEBEB"/>
<path d="M145.214 220.354H150.804V217.573H145.214V220.354Z" fill="#EBEBEB"/>
<path d="M138.06 220.354H143.65V217.573H138.06V220.354Z" fill="#EBEBEB"/>
<path d="M145.214 215.628H150.804V212.847H145.214V215.628Z" fill="#EBEBEB"/>
<path d="M138.06 215.628H143.65V212.847H138.06V215.628Z" fill="#EBEBEB"/>
<path d="M145.214 210.902H150.804V208.121H145.214V210.902Z" fill="#EBEBEB"/>
<path d="M138.06 210.902H143.65V208.121H138.06V210.902Z" fill="#EBEBEB"/>
<path d="M145.214 206.176H150.804V203.395H145.214V206.176Z" fill="#EBEBEB"/>
<path d="M138.06 206.176H143.65V203.395H138.06V206.176Z" fill="#EBEBEB"/>
<path d="M145.214 201.457H150.804V198.676H145.214V201.457Z" fill="#EBEBEB"/>
<path d="M138.06 201.457H143.65V198.676H138.06V201.457Z" fill="#EBEBEB"/>
<path d="M145.214 196.731H150.804V193.95H145.214V196.731Z" fill="#EBEBEB"/>
<path d="M138.06 196.731H143.65V193.95H138.06V196.731Z" fill="#EBEBEB"/>
<path d="M145.214 192.005H150.804V189.224H145.214V192.005Z" fill="#EBEBEB"/>
<path d="M138.06 192.005H143.65V189.224H138.06V192.005Z" fill="#EBEBEB"/>
<path d="M170 310.597C234.659 310.597 287.076 305.36 287.076 298.901C287.076 292.441 234.659 287.205 170 287.205C105.341 287.205 52.9244 292.441 52.9244 298.901C52.9244 305.36 105.341 310.597 170 310.597Z" fill="#EBEBEB"/>
<path d="M236.042 213.262H210.494V264.561H236.042V213.262Z" fill="#37474F"/>
<path d="M219.035 217.702H214.513V220.844H219.035V217.702Z" fill="#455A64"/>
<path d="M219.035 224.414H214.513V227.555H219.035V224.414Z" fill="#455A64"/>
<path d="M219.035 231.125H214.513V234.267H219.035V231.125Z" fill="#455A64"/>
<path d="M219.035 237.844H214.513V240.985H219.035V237.844Z" fill="#455A64"/>
<path d="M219.035 244.555H214.513V247.697H219.035V244.555Z" fill="#455A64"/>
<path d="M219.035 251.267H214.513V254.408H219.035V251.267Z" fill="#455A64"/>
<path d="M219.035 257.978H214.513V261.12H219.035V257.978Z" fill="#455A64"/>
<path d="M225.536 217.702H221.014V220.844H225.536V217.702Z" fill="#455A64"/>
<path d="M225.536 224.414H221.014V227.555H225.536V224.414Z" fill="#455A64"/>
<path d="M225.536 231.125H221.014V234.267H225.536V231.125Z" fill="#455A64"/>
<path d="M225.536 237.844H221.014V240.985H225.536V237.844Z" fill="#455A64"/>
<path d="M225.536 244.555H221.014V247.697H225.536V244.555Z" fill="#455A64"/>
<path d="M225.536 251.267H221.014V254.408H225.536V251.267Z" fill="#455A64"/>
<path d="M225.536 257.978H221.014V261.12H225.536V257.978Z" fill="#455A64"/>
<path d="M232.03 217.702H227.508V220.844H232.03V217.702Z" fill="#455A64"/>
<path d="M232.03 224.414H227.508V227.555H232.03V224.414Z" fill="#455A64"/>
<path d="M232.03 231.125H227.508V234.267H232.03V231.125Z" fill="#455A64"/>
<path d="M232.03 237.844H227.508V240.985H232.03V237.844Z" fill="#455A64"/>
<path d="M232.03 244.555H227.508V247.697H232.03V244.555Z" fill="#455A64"/>
<path d="M232.03 251.267H227.508V254.408H232.03V251.267Z" fill="#455A64"/>
<path d="M232.03 257.978H227.508V261.12H232.03V257.978Z" fill="#455A64"/>
<path d="M236.048 207.917H219.035V213.262H236.048V207.917Z" fill="#455A64"/>
<path d="M236.042 204.605H225.257V207.917H236.042V204.605Z" fill="#37474F"/>
<path d="M253.966 213.262H236.042V264.561H253.966V213.262Z" fill="#263238"/>
<path d="M248.452 260.617H252.13V257.475H248.452V260.617Z" fill="#37474F"/>
<path d="M248.452 253.912H252.13V250.77H248.452V253.912Z" fill="#37474F"/>
<path d="M248.452 247.2H252.13V244.059H248.452V247.2Z" fill="#37474F"/>
<path d="M248.452 240.482H252.13V237.34H248.452V240.482Z" fill="#37474F"/>
<path d="M248.452 233.77H252.13V230.629H248.452V233.77Z" fill="#37474F"/>
<path d="M248.452 227.052H252.13V223.91H248.452V227.052Z" fill="#37474F"/>
<path d="M248.452 220.347H252.13V217.206H248.452V220.347Z" fill="#37474F"/>
<path d="M243.161 260.617H246.84V257.475H243.161V260.617Z" fill="#37474F"/>
<path d="M243.161 253.912H246.84V250.77H243.161V253.912Z" fill="#37474F"/>
<path d="M243.161 247.2H246.84V244.059H243.161V247.2Z" fill="#37474F"/>
<path d="M243.161 240.482H246.84V237.34H243.161V240.482Z" fill="#37474F"/>
<path d="M243.161 233.77H246.84V230.629H243.161V233.77Z" fill="#37474F"/>
<path d="M243.161 227.052H246.84V223.91H243.161V227.052Z" fill="#37474F"/>
<path d="M243.161 220.347H246.84V217.206H243.161V220.347Z" fill="#37474F"/>
<path d="M237.884 260.617H241.563V257.475H237.884V260.617Z" fill="#37474F"/>
<path d="M237.884 253.912H241.563V250.77H237.884V253.912Z" fill="#37474F"/>
<path d="M237.884 247.2H241.563V244.059H237.884V247.2Z" fill="#37474F"/>
<path d="M237.884 240.482H241.563V237.34H237.884V240.482Z" fill="#37474F"/>
<path d="M237.884 233.77H241.563V230.629H237.884V233.77Z" fill="#37474F"/>
<path d="M237.884 227.052H241.563V223.91H237.884V227.052Z" fill="#37474F"/>
<path d="M237.884 220.347H241.563V217.206H237.884V220.347Z" fill="#37474F"/>
<path d="M251.253 207.917H236.042V213.262H251.253V207.917Z" fill="#37474F"/>
<path d="M244.283 204.605H236.042V207.917H244.283V204.605Z" fill="#263238"/>
<path d="M229.092 66.2728H235.96C220.844 66.2728 208.597 78.71 208.597 94.0508C208.597 109.392 220.837 121.842 235.96 121.842H229.092C213.976 121.842 201.729 109.405 201.729 94.0508C201.729 78.6964 213.976 66.2728 229.092 66.2728Z" fill="#F16624"/>
<g opacity="0.1">
<path d="M229.092 66.2728H235.96C220.844 66.2728 208.597 78.71 208.597 94.0508C208.597 109.392 220.837 121.842 235.96 121.842H229.092C213.976 121.842 201.729 109.405 201.729 94.0508C201.729 78.6964 213.976 66.2728 229.092 66.2728Z" fill="black"/>
</g>
<path d="M235.96 200.675H229.092C256.87 168.314 282.887 132.838 279.065 93.67C276.576 68.2992 259.345 43.0304 229.092 43.0304H235.96C266.22 43.0304 283.444 68.2992 285.926 93.67C289.782 132.838 263.765 168.314 235.96 200.675Z" fill="#F16624"/>
<g opacity="0.1">
<path d="M235.96 200.675H229.092C256.87 168.314 282.887 132.838 279.065 93.67C276.576 68.2992 259.345 43.0304 229.092 43.0304H235.96C266.22 43.0304 283.444 68.2992 285.926 93.67C289.782 132.838 263.765 168.314 235.96 200.675Z" fill="black"/>
</g>
<path d="M279.058 93.67C282.887 132.838 256.87 168.314 229.092 200.682C201.348 168.314 175.331 132.838 179.153 93.67C181.642 68.2992 198.873 43.0372 229.092 43.0372C259.311 43.0372 276.576 68.2992 279.058 93.67ZM229.092 121.842C244.242 121.842 256.489 109.405 256.489 94.0508C256.489 78.6964 244.249 66.2728 229.092 66.2728C213.935 66.2728 201.729 78.71 201.729 94.0508C201.729 109.392 213.969 121.842 229.092 121.842Z" fill="#F16624"/>
<path d="M34.5984 267.716L68.4488 267.553L102.299 267.492L170 267.376L237.701 267.492L271.551 267.553L305.402 267.716L271.551 267.886L237.701 267.947L170 268.056L102.299 267.947L68.4488 267.886L34.5984 267.716Z" fill="#263238"/>
<path d="M305.524 264.561H34.476V267.716H305.524V264.561Z" fill="#C7C7C7"/>
<path d="M42.3164 264.561C42.4977 265.605 42.4977 266.672 42.3164 267.716C42.126 266.673 42.126 265.604 42.3164 264.561Z" fill="#263238"/>
<path d="M51.4352 264.561C51.6164 265.605 51.6164 266.672 51.4352 267.716C51.2539 266.672 51.2539 265.605 51.4352 264.561Z" fill="#263238"/>
<path d="M60.5539 264.561C60.7352 265.605 60.7352 266.672 60.5539 267.716C60.3726 266.672 60.3726 265.605 60.5539 264.561Z" fill="#263238"/>
<path d="M69.6727 264.561C69.854 265.605 69.854 266.672 69.6727 267.716C69.4914 266.672 69.4914 265.605 69.6727 264.561Z" fill="#263238"/>
<path d="M78.7983 264.561C78.9796 265.605 78.9796 266.672 78.7983 267.716C78.6079 266.673 78.6079 265.604 78.7983 264.561Z" fill="#263238"/>
<path d="M87.9172 264.561C88.0985 265.605 88.0985 266.672 87.9172 267.716C87.7359 266.672 87.7359 265.605 87.9172 264.561Z" fill="#263238"/>
<path d="M97.036 264.561C97.2173 265.605 97.2173 266.672 97.036 267.716C96.8547 266.672 96.8547 265.605 97.036 264.561Z" fill="#263238"/>
<path d="M106.155 264.561C106.336 265.605 106.336 266.672 106.155 267.716C105.973 266.672 105.973 265.605 106.155 264.561Z" fill="#263238"/>
<path d="M115.28 264.561C115.462 265.605 115.462 266.672 115.28 267.716C115.09 266.673 115.09 265.604 115.28 264.561Z" fill="#263238"/>
<path d="M124.399 264.561C124.58 265.605 124.58 266.672 124.399 267.716C124.218 266.672 124.218 265.605 124.399 264.561Z" fill="#263238"/>
<path d="M133.518 264.561C133.699 265.605 133.699 266.672 133.518 267.716C133.337 266.672 133.337 265.605 133.518 264.561Z" fill="#263238"/>
<path d="M142.637 264.561C142.818 265.605 142.818 266.672 142.637 267.716C142.455 266.672 142.455 265.605 142.637 264.561Z" fill="#263238"/>
<path d="M151.762 264.561C151.944 265.605 151.944 266.672 151.762 267.716C151.572 266.673 151.572 265.604 151.762 264.561Z" fill="#263238"/>
<path d="M160.881 264.561C161.062 265.605 161.062 266.672 160.881 267.716C160.7 266.672 160.7 265.605 160.881 264.561Z" fill="#263238"/>
<path d="M170 264.561C170.181 265.605 170.181 266.672 170 267.716C169.819 266.672 169.819 265.605 170 264.561Z" fill="#263238"/>
<path d="M179.119 264.561C179.3 265.605 179.3 266.672 179.119 267.716C178.937 266.672 178.937 265.605 179.119 264.561Z" fill="#263238"/>
<path d="M188.244 264.561C188.426 265.605 188.426 266.672 188.244 267.716C188.054 266.673 188.054 265.604 188.244 264.561Z" fill="#263238"/>
<path d="M197.363 264.561C197.544 265.605 197.544 266.672 197.363 267.716C197.182 266.672 197.182 265.605 197.363 264.561Z" fill="#263238"/>
<path d="M206.482 264.561C206.663 265.605 206.663 266.672 206.482 267.716C206.301 266.672 206.301 265.605 206.482 264.561Z" fill="#263238"/>
<path d="M215.601 264.561C215.782 265.605 215.782 266.672 215.601 267.716C215.419 266.672 215.419 265.605 215.601 264.561Z" fill="#263238"/>
<path d="M224.72 264.561C224.91 265.604 224.91 266.673 224.72 267.716C224.538 266.672 224.538 265.605 224.72 264.561Z" fill="#263238"/>
<path d="M233.845 264.561C234.026 265.605 234.026 266.672 233.845 267.716C233.664 266.672 233.664 265.605 233.845 264.561Z" fill="#263238"/>
<path d="M242.964 264.561C243.145 265.605 243.145 266.672 242.964 267.716C242.783 266.672 242.783 265.605 242.964 264.561Z" fill="#263238"/>
<path d="M252.083 264.561C252.264 265.605 252.264 266.672 252.083 267.716C251.901 266.672 251.901 265.605 252.083 264.561Z" fill="#263238"/>
<path d="M261.202 264.561C261.392 265.604 261.392 266.673 261.202 267.716C261.02 266.672 261.02 265.605 261.202 264.561Z" fill="#263238"/>
<path d="M270.327 264.561C270.508 265.605 270.508 266.672 270.327 267.716C270.146 266.672 270.146 265.605 270.327 264.561Z" fill="#263238"/>
<path d="M279.48 264.561C279.661 265.605 279.661 266.672 279.48 267.716C279.38 267.196 279.335 266.668 279.344 266.138C279.338 265.609 279.384 265.081 279.48 264.561Z" fill="#263238"/>
<path d="M288.565 264.561C288.746 265.605 288.746 266.672 288.565 267.716C288.383 266.672 288.383 265.605 288.565 264.561Z" fill="#263238"/>
<path d="M297.684 264.561C297.874 265.604 297.874 266.673 297.684 267.716C297.502 266.672 297.502 265.605 297.684 264.561Z" fill="#263238"/>
<path d="M62.866 264.561H47.906C47.906 264.561 47.906 262.337 49.4088 261.746C49.809 261.578 50.2523 261.542 50.6742 261.644C51.0961 261.745 51.4746 261.979 51.7548 262.31C51.7548 262.31 52.3532 258.23 55.0936 258.23C57.834 258.23 59.16 261.746 59.16 261.746C59.3923 261.408 59.7182 261.146 60.0976 260.991C60.4769 260.837 60.8932 260.796 61.2952 260.875C62.8048 261.079 62.866 264.561 62.866 264.561Z" fill="#37474F"/>
<path d="M303.185 264.561C303.185 264.561 302.729 262.426 301.825 262.092C301.545 262.019 301.248 262.041 300.982 262.156C300.715 262.27 300.495 262.471 300.356 262.725C300.356 262.725 300.138 260.685 298.84 260.073C297.541 259.461 296.568 260.712 296.568 260.712C296.568 260.712 295.576 258.121 293.794 258.121C292.012 258.121 291.115 261.909 291.115 261.909C291.115 261.909 290.068 260.78 288.993 261.419C287.919 262.058 287.919 264.561 287.919 264.561H303.185Z" fill="#37474F"/>
<path d="M163.601 264.561C163.601 264.561 163.146 262.426 162.241 262.092C161.96 262.018 161.662 262.04 161.395 262.155C161.127 262.27 160.906 262.47 160.766 262.725C160.766 262.725 160.555 260.685 159.256 260.073C157.957 259.461 156.985 260.712 156.985 260.712C156.985 260.712 155.985 258.121 154.21 258.121C152.436 258.121 151.531 261.909 151.531 261.909C151.531 261.909 150.484 260.78 149.41 261.419C148.335 262.058 148.328 264.561 148.328 264.561H163.601Z" fill="#37474F"/>
<path d="M50.5988 264.561H36.8152C36.8152 264.561 37.2708 262.616 38.1752 262.48C38.4526 262.452 38.7319 262.51 38.9751 262.647C39.2184 262.783 39.4139 262.991 39.5352 263.242C39.5352 263.242 39.4944 260.522 41.2012 260.073C42.908 259.624 44.336 262.004 44.336 262.004C44.6409 261.621 45.0247 261.309 45.4612 261.089C45.8978 260.868 46.3768 260.744 46.8656 260.726C48.3276 260.814 48.6948 263.072 48.6948 263.072C48.6948 263.072 50.014 262.29 50.5988 264.561Z" fill="#455A64"/>
<path d="M151.286 264.561H137.503C137.503 264.561 137.958 262.616 138.863 262.48C139.14 262.452 139.419 262.51 139.663 262.647C139.906 262.783 140.102 262.991 140.223 263.242C140.223 263.242 140.182 260.522 141.889 260.073C143.596 259.624 145.03 262.004 145.03 262.004C145.335 261.621 145.719 261.309 146.156 261.089C146.592 260.868 147.071 260.744 147.56 260.726C149.015 260.814 149.389 263.072 149.389 263.072C149.389 263.072 150.702 262.29 151.286 264.561Z" fill="#455A64"/>
<path d="M288.891 264.561H280.418C280.418 264.561 280.418 263.303 281.275 262.97C281.5 262.87 281.751 262.847 281.991 262.903C282.23 262.96 282.444 263.093 282.601 263.282C282.601 263.282 282.941 260.97 284.492 260.97C286.042 260.97 286.783 262.97 286.783 262.97C286.915 262.778 287.1 262.63 287.314 262.541C287.529 262.453 287.765 262.43 287.994 262.473C288.857 262.589 288.891 264.561 288.891 264.561Z" fill="#455A64"/>
<path d="M185.28 264.561H176.8C176.8 264.561 176.8 263.303 177.65 262.97C177.879 262.863 178.137 262.836 178.384 262.892C178.63 262.949 178.851 263.086 179.01 263.282C179.01 263.282 179.35 260.97 180.9 260.97C182.451 260.97 183.192 262.97 183.192 262.97C183.324 262.778 183.508 262.63 183.723 262.541C183.938 262.453 184.174 262.43 184.402 262.473C185.246 262.589 185.28 264.561 185.28 264.561Z" fill="#455A64"/>
<path d="M150.185 301.179C148.6 301.689 103.387 301.111 101.68 299.996C101 299.581 100.722 292.992 100.592 285.036V284.784C100.558 283.138 100.538 281.445 100.531 279.732C100.531 279.494 100.531 279.262 100.531 279.052L102.721 255.598L132.967 255.891L129.989 279.126L129.948 280.051L129.771 284.859V285.355C129.771 285.355 146.982 293.311 148.73 294.739C150.477 296.167 151.769 300.669 150.185 301.179Z" fill="#FFBE9D"/>
<path d="M150.185 301.179C148.6 301.689 103.387 301.111 101.68 299.996C101 299.581 100.722 292.992 100.592 285.036V284.784C100.558 283.138 100.538 281.445 100.531 279.732C100.531 279.494 100.531 279.262 100.531 279.052L129.989 279.126L129.948 280.051L129.771 284.859V285.355C129.771 285.355 146.982 293.311 148.73 294.739C150.477 296.167 151.769 300.669 150.185 301.179Z" fill="#EBEBEB"/>
<path d="M150.192 301.172C149.376 301.437 137.088 301.41 125.086 301.172C122.672 301.124 120.272 301.07 117.98 301.009C109.419 300.778 102.34 300.424 101.66 299.996C100.98 299.567 100.708 293.196 100.572 285.348C100.572 285.233 100.572 285.124 100.572 285.015C100.572 284.906 100.572 284.838 100.572 284.757H100.64L129.778 284.804V285.308C129.778 285.308 146.982 293.264 148.73 294.685C150.477 296.106 151.776 300.669 150.192 301.172Z" fill="#F16624"/>
<path d="M149.695 299.418C142.079 299.132 111.323 298.704 103.768 299.003C103.707 299.003 103.707 299.05 103.768 299.05C111.309 299.499 142.072 299.676 149.695 299.54C149.858 299.54 149.858 299.424 149.695 299.418Z" fill="#263238"/>
<path d="M133.008 284.92C130.016 284.322 126.344 284.736 124.025 286.844C123.937 286.926 124.025 287.055 124.148 287.021C127.025 286.136 129.988 285.56 132.988 285.301C133.038 285.304 133.088 285.286 133.125 285.252C133.163 285.218 133.185 285.171 133.188 285.121C133.191 285.07 133.173 285.021 133.14 284.983C133.106 284.945 133.058 284.923 133.008 284.92Z" fill="#263238"/>
<path d="M135.157 286.28C132.165 285.682 128.493 286.096 126.174 288.204C126.079 288.286 126.174 288.408 126.296 288.381C129.174 287.496 132.137 286.919 135.136 286.661C135.187 286.664 135.236 286.646 135.274 286.612C135.312 286.578 135.334 286.531 135.337 286.481C135.34 286.43 135.322 286.381 135.288 286.343C135.255 286.305 135.207 286.283 135.157 286.28Z" fill="#263238"/>
<path d="M137.306 287.599C134.314 287.001 130.642 287.416 128.323 289.524C128.228 289.605 128.323 289.728 128.445 289.7C131.322 288.812 134.285 288.235 137.285 287.98C137.336 287.983 137.385 287.965 137.423 287.931C137.46 287.898 137.483 287.85 137.486 287.8C137.489 287.749 137.471 287.7 137.437 287.662C137.403 287.625 137.356 287.602 137.306 287.599Z" fill="#263238"/>
<path d="M125.12 301.172C122.706 301.124 120.306 301.07 118.014 301.009C109.453 300.778 102.374 300.424 101.694 299.996C101.014 299.567 100.742 293.196 100.606 285.348C100.606 285.233 100.606 285.124 100.606 285.015C100.606 284.906 100.606 284.838 100.606 284.757H100.64C104.618 287.558 118.687 296.922 125.12 301.172Z" fill="#263238"/>
<path d="M131.505 284.92H98.94C98.94 284.92 105.482 208.862 105.223 207.536C104.897 205.836 102.972 198.138 100.416 188.081C99.6132 184.933 98.7428 181.56 97.8452 178.058C95.4176 168.599 92.7384 158.256 90.406 149.26C86.904 135.782 84.1636 125.31 84.1636 125.31H111.765C111.765 125.31 114.981 135.51 119.041 148.77C125.65 170.326 134.477 199.995 135.361 207.21C136.768 218.851 131.505 284.92 131.505 284.92Z" fill="#244D73"/>
<path d="M130.064 279.358C125.086 279.256 126.514 279.215 121.543 279.167C119.109 279.167 103.115 279.004 100.837 279.385C100.79 279.385 100.79 279.473 100.837 279.487C103.115 279.861 119.109 279.718 121.543 279.691C126.514 279.643 125.086 279.602 130.064 279.5C130.079 279.496 130.092 279.486 130.102 279.473C130.111 279.46 130.116 279.445 130.116 279.429C130.116 279.413 130.111 279.397 130.102 279.385C130.092 279.372 130.079 279.362 130.064 279.358Z" fill="#263238"/>
<path d="M111.35 202.885C110.282 198.179 108.684 193.569 107.27 188.945C104.441 179.561 101.599 170.179 98.7428 160.8C97.3238 156.108 95.8913 151.42 94.4452 146.737C93.7198 144.371 92.9877 142.007 92.2488 139.645C91.5212 137.333 90.6984 135.041 90.0456 132.709C89.7804 131.764 89.6308 132.28 89.9708 133.491C90.6508 135.918 91.3308 138.346 92.0448 140.767C93.4501 145.568 94.8645 150.364 96.288 155.156C99.1122 164.676 101.961 174.207 104.836 183.75C106.268 188.528 107.705 193.304 109.147 198.077C109.876 200.351 110.464 202.667 110.908 205.013C111.294 207.464 111.392 209.952 111.2 212.425C110.888 217.41 110.31 222.38 109.84 227.351C109.371 232.322 108.922 237.313 108.48 242.311C107.574 252.217 106.667 262.129 105.76 272.048C105.642 273.303 105.536 274.561 105.441 275.822C105.407 276.243 106.046 276.209 106.087 275.822C107.161 266.023 107.977 256.19 108.895 246.371C109.813 236.552 110.724 226.834 111.615 217.07C111.84 214.615 112.105 212.16 112.105 209.692C112.111 207.401 111.858 205.118 111.35 202.885Z" fill="#263238"/>
<path d="M108.63 125.304C106.719 140.128 103.074 167.919 100.416 188.081C94.1868 163.656 84.1636 125.31 84.1636 125.31L108.63 125.304Z" fill="#263238"/>
<path d="M115.104 301.621C113.519 302.138 68.306 301.73 66.5924 300.614C65.9124 300.206 65.6132 293.617 65.45 285.654C65.45 285.566 65.45 285.484 65.45 285.403C65.45 283.757 65.3888 282.064 65.3752 280.35C65.3752 280.112 65.3752 279.881 65.3752 279.67C65.2664 268.158 66.096 256.21 66.096 256.21L95.6488 256.401L94.826 279.636V280.561L94.6628 285.369V285.865C94.6628 285.865 111.901 293.76 113.655 295.181C115.41 296.602 116.688 301.111 115.104 301.621Z" fill="#FFBE9D"/>
<path d="M115.104 301.621C113.519 302.138 68.306 301.73 66.5924 300.614C65.9124 300.206 65.6132 293.617 65.45 285.654C65.45 285.566 65.45 285.484 65.45 285.403C65.45 283.757 65.3888 282.064 65.3752 280.35C65.3752 280.112 65.3752 279.881 65.3752 279.67L94.826 279.636V280.561L94.6628 285.369V285.865C94.6628 285.865 111.901 293.76 113.655 295.181C115.41 296.602 116.688 301.111 115.104 301.621Z" fill="#EBEBEB"/>
<path d="M115.104 301.621C113.519 302.138 68.306 301.73 66.5924 300.614C65.9124 300.206 65.6132 293.617 65.45 285.654C65.45 285.566 65.45 285.484 65.45 285.403L94.6288 285.342V285.838C94.6288 285.838 111.867 293.733 113.621 295.154C115.376 296.575 116.688 301.111 115.104 301.621Z" fill="#F16624"/>
<path d="M114.607 299.88C106.984 299.628 76.228 299.309 68.6732 299.635C68.612 299.635 68.612 299.683 68.6732 299.683C76.2212 300.104 106.984 300.172 114.607 300.009C114.764 299.982 114.77 299.88 114.607 299.88Z" fill="#263238"/>
<path d="M97.8656 285.444C94.8736 284.852 91.2016 285.28 88.8896 287.395C88.8012 287.477 88.8896 287.606 89.012 287.572C91.8881 286.676 94.8515 286.087 97.852 285.818C97.8959 285.811 97.9361 285.789 97.9656 285.756C97.9952 285.723 98.0123 285.681 98.0139 285.636C98.0155 285.592 98.0016 285.548 97.9745 285.513C97.9474 285.478 97.9089 285.453 97.8656 285.444Z" fill="#263238"/>
<path d="M100.021 286.763C97.0224 286.178 93.3505 286.606 91.0385 288.721C90.9501 288.803 91.0725 288.932 91.1677 288.898C94.0435 288 97.007 287.412 100.008 287.144C100.058 287.145 100.107 287.127 100.144 287.093C100.181 287.058 100.203 287.01 100.205 286.96C100.207 286.909 100.188 286.86 100.154 286.823C100.119 286.786 100.072 286.765 100.021 286.763Z" fill="#263238"/>
<path d="M102.17 288.089C99.178 287.504 95.506 287.932 93.194 290.047C93.1056 290.129 93.194 290.251 93.3164 290.224C96.1917 289.324 99.1554 288.736 102.156 288.47C102.207 288.471 102.256 288.453 102.293 288.419C102.33 288.384 102.352 288.336 102.354 288.286C102.355 288.235 102.337 288.186 102.303 288.149C102.268 288.112 102.221 288.091 102.17 288.089Z" fill="#263238"/>
<path d="M110.874 125.304C110.874 125.304 110.235 138.509 107.216 148.968C106.978 149.831 106.712 150.681 106.427 151.497C103.659 152.613 100.998 153.979 98.4776 155.577C98.4776 155.577 98.158 166.199 97.8452 178.017C97.4984 191.264 97.1652 206.04 97.206 209.168C97.4916 220.891 95.7576 285.328 95.7576 285.328L63.24 285.532C63.24 285.532 69.1084 213.547 69.0676 209.25C68.9996 202.348 70.6316 171.85 71.8964 149.593C72.6648 135.884 73.2972 125.31 73.2972 125.31L110.874 125.304Z" fill="#244D73"/>
<path d="M94.6424 279.602C89.6716 279.521 91.0996 279.473 86.122 279.453C83.6876 279.453 67.694 279.371 65.4228 279.759C65.3752 279.759 65.3752 279.847 65.4228 279.861C67.7008 280.228 83.6944 280.017 86.1288 279.976C91.0996 279.908 89.6716 279.874 94.6424 279.752C94.6622 279.752 94.6813 279.744 94.6953 279.73C94.7093 279.716 94.7172 279.697 94.7172 279.677C94.7172 279.657 94.7093 279.638 94.6953 279.624C94.6813 279.61 94.6622 279.602 94.6424 279.602Z" fill="#263238"/>
<path d="M76.0036 130.03C75.4052 148.192 74.7796 166.355 73.9636 184.511C73.1476 202.667 72.0596 220.946 70.5636 239.115C69.7136 249.268 68.918 263.548 67.8436 273.68C67.8436 273.748 67.9388 273.775 67.9456 273.68C70.312 255.66 71.6312 233.383 72.794 215.247C73.9568 197.112 74.7388 178.962 75.3508 160.806C75.7044 150.532 75.9628 140.264 76.2688 129.989C76.2348 129.88 76.0104 129.88 76.0036 130.03Z" fill="#263238"/>
<path d="M107.78 150.708C104.543 152.062 101.43 153.696 98.4776 155.591C98.362 155.659 98.4776 155.842 98.5728 155.781C101.714 154.251 104.924 152.782 107.97 151.082C108.015 151.054 108.047 151.011 108.061 150.96C108.074 150.91 108.069 150.856 108.045 150.809C108.021 150.762 107.981 150.726 107.932 150.707C107.883 150.689 107.829 150.689 107.78 150.708Z" fill="#263238"/>
<path d="M107.964 139.509C107.746 140.665 107.467 141.814 107.216 142.963C106.964 144.112 106.814 145.139 106.536 146.207C106.299 147.239 105.773 148.183 105.019 148.927C104.598 149.314 104.135 149.668 103.659 150.028L102.904 150.606L102.986 150.137C103.068 149.702 103.142 149.26 103.21 148.825C103.374 147.846 103.53 146.873 103.68 145.894C103.972 143.976 104.244 142.032 104.645 140.134C104.65 140.118 104.648 140.101 104.639 140.086C104.631 140.071 104.617 140.061 104.601 140.056C104.585 140.052 104.567 140.054 104.553 140.062C104.538 140.07 104.527 140.084 104.523 140.1C104.047 141.984 103.516 143.847 103.102 145.751C102.898 146.683 102.17 151.28 102.136 151.606C102.102 151.932 102.075 152.286 102.068 152.619C102.02 152.962 102.02 153.31 102.068 153.653C102.068 153.734 102.184 153.721 102.224 153.653C102.367 153.334 102.465 152.998 102.517 152.653C102.606 152.326 102.679 151.995 102.734 151.66C102.734 151.538 102.775 151.416 102.789 151.293C103.244 151.014 103.666 150.654 104.088 150.348C104.509 150.042 105.012 149.668 105.448 149.328C106.247 148.656 106.823 147.758 107.1 146.751C107.376 145.665 107.558 144.557 107.644 143.439C107.787 142.134 107.896 140.821 108.079 139.516C108.12 139.461 107.977 139.4 107.964 139.509Z" fill="#263238"/>
<path d="M99.1508 91.2492C100.953 96.2812 107.311 107.569 117.062 116.457C120.836 119.891 148.913 117.633 151.694 116.552C153.639 115.79 157.27 101.64 155.224 100.361C151.388 97.9608 126.29 103.496 125.222 102.932C123.59 102.061 112.785 94.8192 105.822 87.9376C100.742 82.9192 96.152 82.8716 99.1508 91.2492Z" fill="#FFBE9D"/>
<path d="M106.366 106.121L122.291 99.7968C122.291 99.7968 108.011 87.5092 102.775 85.0816C96.8931 82.3616 96.7843 85.952 98.8515 91.7592C100.919 97.5664 106.366 106.121 106.366 106.121Z" fill="#244D73"/>
<path d="M118.925 97.8588C118.34 97.988 113.349 99.8988 112.275 100.32C111.2 100.742 106.774 102.49 105.699 103.04C105.688 103.04 105.678 103.045 105.67 103.052C105.663 103.06 105.658 103.07 105.658 103.081C105.658 103.092 105.663 103.102 105.67 103.11C105.678 103.118 105.688 103.122 105.699 103.122C106.855 102.796 111.316 101.082 112.424 100.633C113.533 100.184 118.429 98.226 118.939 97.9132C119 97.92 119 97.852 118.925 97.8588Z" fill="#263238"/>
<path d="M112.506 103.68L106.386 106.121C106.386 106.121 100.946 97.5596 98.9059 91.7592C97.3963 87.516 97.0495 84.4424 99.2663 84.1704L112.506 103.68Z" fill="#263238"/>
<path d="M69.632 139.679C69.734 139.794 114.77 140.087 115.192 139.631C115.77 138.951 105.767 90.1476 101.164 84.1024C100.178 82.8104 93.9692 81.0492 90.3652 83.9868C82.7084 90.2224 76.0852 111.622 74.5212 118.082C71.9644 128.731 69.258 139.257 69.632 139.679Z" fill="#F16624"/>
<path opacity="0.1" d="M101.415 84.4832H89.76C89.9504 84.3064 90.1408 84.1432 90.3312 83.9868C90.4468 83.8924 90.5671 83.8039 90.6916 83.7216H100.708C100.866 83.8276 101.008 83.9558 101.13 84.1024C101.233 84.223 101.328 84.3502 101.415 84.4832Z" fill="black"/>
<path opacity="0.1" d="M102.503 86.6728H87.7811C87.9919 86.4076 88.2027 86.1492 88.4203 85.9044H102.17C102.279 86.1424 102.388 86.4008 102.503 86.6728Z" fill="black"/>
<path opacity="0.1" d="M103.36 88.8624H86.2036C86.3804 88.5972 86.5504 88.3456 86.7272 88.094H103.047L103.36 88.8624Z" fill="black"/>
<path opacity="0.1" d="M104.088 91.0452H84.864C85.0136 90.7868 85.1632 90.5284 85.3196 90.2768H103.836C103.924 90.5284 104.04 90.7868 104.088 91.0452Z" fill="black"/>
<path opacity="0.1" d="M104.781 93.2348H83.64C83.776 92.9764 83.9052 92.718 84.048 92.4664H104.516C104.618 92.718 104.72 92.9764 104.781 93.2348Z" fill="black"/>
<path opacity="0.1" d="M105.4 95.4244H82.5724C82.6948 95.166 82.8172 94.9076 82.9464 94.656H105.203L105.4 95.4244Z" fill="black"/>
<path opacity="0.1" d="M106.08 97.6072H81.6L81.9468 96.8388H105.862C105.903 97.0904 105.971 97.3488 106.08 97.6072Z" fill="black"/>
<path opacity="0.1" d="M106.638 99.7968H80.6207L80.9471 99.0284H106.434L106.638 99.7968Z" fill="black"/>
<path opacity="0.1" d="M107.216 102H79.7368C79.832 101.742 79.934 101.49 80.0428 101.232H107.018C107.08 101.47 107.148 101.728 107.216 102Z" fill="black"/>
<path opacity="0.1" d="M107.773 104.169H78.88C78.9752 103.911 79.0704 103.659 79.1724 103.401H107.569C107.644 103.659 107.712 103.911 107.773 104.169Z" fill="black"/>
<path opacity="0.1" d="M108.324 106.359H78.098C78.1864 106.1 78.2816 105.849 78.3768 105.59H108.12C108.195 105.849 108.256 106.08 108.324 106.359Z" fill="black"/>
<path opacity="0.1" d="M108.854 108.542H77.3431C77.4247 108.29 77.5131 108.032 77.6083 107.78H108.671L108.854 108.542Z" fill="black"/>
<path opacity="0.1" d="M109.378 110.731H76.6224L76.8672 109.963H109.194L109.378 110.731Z" fill="black"/>
<path opacity="0.1" d="M109.888 112.921H75.9424C76.0172 112.669 76.092 112.411 76.1736 112.152H109.718C109.772 112.411 109.834 112.669 109.888 112.921Z" fill="black"/>
<path opacity="0.1" d="M110.398 115.104H75.3032L75.5208 114.342H110.201C110.276 114.6 110.337 114.852 110.398 115.104Z" fill="black"/>
<path opacity="0.1" d="M110.888 117.293H74.7115C74.7727 117.055 74.8407 116.797 74.9087 116.525H110.718C110.772 116.783 110.84 117.035 110.888 117.293Z" fill="black"/>
<path opacity="0.1" d="M111.377 119.483H74.1812L74.3648 118.714H111.207C111.262 119 111.316 119.231 111.377 119.483Z" fill="black"/>
<path opacity="0.1" d="M111.853 121.666H73.6508L73.8344 120.904H111.69L111.853 121.666Z" fill="black"/>
<path opacity="0.1" d="M112.316 123.855H73.1204L73.304 123.087H112.152C112.2 123.345 112.268 123.597 112.316 123.855Z" fill="black"/>
<path opacity="0.1" d="M112.778 126.045H72.59L72.7736 125.276H112.622C112.676 125.535 112.73 125.8 112.778 126.045Z" fill="black"/>
<path opacity="0.1" d="M113.227 128.228H72.08L72.2636 127.459H113.064C113.125 127.718 113.179 127.976 113.227 128.228Z" fill="black"/>
<path opacity="0.1" d="M113.669 130.417H71.5088C71.5768 130.166 71.638 129.907 71.6992 129.649H113.499C113.56 129.88 113.621 130.166 113.669 130.417Z" fill="black"/>
<path opacity="0.1" d="M114.097 132.6H71.0056C71.0668 132.348 71.1212 132.097 71.1892 131.832H113.948C113.995 132.104 114.05 132.355 114.097 132.6Z" fill="black"/>
<path opacity="0.1" d="M114.505 134.79H70.4956C70.55 134.538 70.6112 134.286 70.6724 134.021H114.362C114.41 134.286 114.458 134.538 114.505 134.79Z" fill="black"/>
<path opacity="0.1" d="M114.92 136.979H70.04C70.0876 136.741 70.142 136.483 70.21 136.211H114.784C114.804 136.483 114.845 136.734 114.92 136.979Z" fill="black"/>
<path opacity="0.1" d="M115.199 139.169H69.6388C69.6388 138.965 69.7 138.706 69.7544 138.4H115.124C115.151 138.72 115.178 138.972 115.199 139.169Z" fill="black"/>
<path d="M103.34 140.957L110.541 110.174L113.383 82.5724L128.316 86.5368L140.801 84.0344L151.96 88.808L167.851 85.2108L157.1 114.362L152.572 143.881L140.556 146.86L128.472 141.671L116.226 145.676L103.34 140.957Z" fill="#EBEBEB"/>
<path d="M116.226 145.676L128.316 86.5368L140.801 84.0344L128.472 141.671L116.226 145.676Z" fill="#DBDBDB"/>
<path d="M140.556 146.86L151.96 88.808L167.851 85.2108L157.1 114.362L152.572 143.881L140.556 146.86Z" fill="#DBDBDB"/>
<path d="M164.859 98.4028C165.356 101.327 167.532 105.407 167.192 107.583C167.125 108.123 166.887 108.627 166.513 109.021C166.138 109.415 165.647 109.679 165.111 109.772C165.111 109.772 166.92 111.418 166.28 113.342C165.954 114.335 164.077 114.702 164.077 114.702C164.467 115.097 164.74 115.591 164.867 116.131C164.994 116.671 164.97 117.235 164.798 117.762C164.261 119.122 162.466 119.245 162.466 119.245C162.466 119.245 163.186 121.19 162.2 122.373C160.208 124.78 148.315 121.421 147.716 116.518C147.438 114.233 150.294 115.212 150.294 115.212C150.294 115.212 146.52 112.812 147.152 110.337C147.784 107.862 151.422 109.364 151.422 109.364C151.422 109.364 147.784 107.005 148.702 104.509C149.62 102.014 153.041 104.033 153.041 104.033C153.041 104.033 150.899 101.497 152.041 99.7424C153.911 96.8524 158.794 102.517 161.561 102.639L162.982 98.4572L164.859 98.4028Z" fill="#FFBE9D"/>
<path d="M165.92 102.741C165.689 99.926 167.838 99.3412 168.375 96.6824C168.973 93.7108 165.322 93.5 163.037 98.2872L161.561 102.619L165.92 102.741Z" fill="#FFBE9D"/>
<path d="M162.187 119.286C162.196 119.286 162.204 119.289 162.211 119.296C162.217 119.302 162.221 119.311 162.221 119.32C162.221 119.329 162.217 119.337 162.211 119.344C162.204 119.35 162.196 119.354 162.187 119.354C157.838 119.207 153.636 117.744 150.137 115.158C150.028 115.07 150.137 114.859 150.26 114.927C154.003 116.949 158.021 118.418 162.187 119.286Z" fill="#263238"/>
<path d="M164.132 114.723C164.179 114.723 164.132 114.811 164.132 114.804C159.338 114.603 154.776 112.69 151.273 109.412C151.157 109.296 151.164 109.072 151.314 109.194C153.775 111.309 160.208 113.968 164.132 114.723Z" fill="#263238"/>
<path d="M152.857 103.686C156.318 106.855 160.439 108.596 164.934 109.806C164.988 109.806 164.934 109.908 164.934 109.908C162.574 109.908 159.793 108.875 157.692 107.868C155.726 106.979 154.028 105.588 152.769 103.836C152.701 103.734 152.782 103.618 152.857 103.686Z" fill="#263238"/>
<path d="M84.32 88.0056C76.3912 96.7912 61.0232 119.476 63.9812 125.494C67.9592 133.6 83.0552 145.69 88.4612 147.669C90.7936 148.519 100.83 131.614 98.6612 130.064C96.0772 128.207 81.7156 117.987 81.8584 117.028C82.0012 116.069 86.5164 105.026 88.978 95.268C91.8544 83.98 88.6788 83.1776 84.32 88.0056Z" fill="#FFBE9D"/>
<path d="M88.8692 128.472C88.8692 128.472 96.1656 126.507 100.994 125.44C103.714 124.848 108.399 124.25 110.575 124.719C113.832 125.399 127.01 130.444 125.861 133.668C124.821 136.585 114.05 130.832 114.05 130.832C114.05 130.832 125.433 135.674 123.536 138.951C121.638 142.229 110.33 134.116 110.33 134.116C110.33 134.116 121.89 139.352 119.422 142.426C117.538 144.752 106.882 137.972 106.882 137.972C106.882 137.972 116.804 142.548 114.974 145.017C112.934 147.737 102.734 142.113 102.734 142.113C97.0088 147.614 91.8544 148.648 88.4544 147.669C87.6316 147.424 88.8692 128.472 88.8692 128.472Z" fill="#FFBE9D"/>
<path d="M110.221 128.901C111.581 129.424 112.941 129.941 114.26 130.58C115.58 131.22 116.851 131.906 118.096 132.661C119.737 133.617 121.264 134.757 122.645 136.061C120.02 133.919 115.382 131.56 114.07 130.92C112.758 130.281 111.5 129.56 110.194 128.935C110.16 128.935 110.16 128.887 110.221 128.901Z" fill="#263238"/>
<path d="M107.821 133.579C109.528 134.32 111.221 134.987 112.921 135.803C114.621 136.619 116.096 137.53 117.681 138.455C117.81 138.53 117.728 138.57 117.599 138.502C115.96 137.646 114.376 136.979 112.73 136.136C111.085 135.293 109.46 134.395 107.787 133.62L107.821 133.579Z" fill="#263238"/>
<path d="M105.046 137.224C107.689 138.293 110.214 139.633 112.581 141.222C112.696 141.297 112.581 141.345 112.465 141.277C109.983 139.917 108.052 138.795 104.985 137.312C104.965 137.292 104.992 137.204 105.046 137.224Z" fill="#263238"/>
<path d="M85.7956 107.168L68.986 103.816C68.986 103.816 80.8248 89.148 85.5236 85.816C90.814 82.0692 91.5756 85.5916 90.5896 91.6776C89.6036 97.7636 85.7956 107.168 85.7956 107.168Z" fill="#244D73"/>
<path d="M85.9452 104.23C85.3808 104.026 80.1516 102.938 79.0092 102.728C77.8668 102.517 73.2088 101.612 72.012 101.49C72.0012 101.49 71.9908 101.494 71.9831 101.502C71.9755 101.51 71.9712 101.52 71.9712 101.531C71.9712 101.542 71.9755 101.552 71.9831 101.56C71.9908 101.567 72.0012 101.572 72.012 101.572C73.1612 101.912 77.86 102.843 79.016 103.081C80.172 103.319 85.374 104.285 85.9588 104.312C85.986 104.312 85.986 104.244 85.9452 104.23Z" fill="#263238"/>
<path d="M95.6896 80.716C91.9836 80.3012 87.5296 83.4768 90.8344 87.7676C94.1392 92.0584 97.6344 92.8948 99.5928 92.2964C101.912 91.5688 102.775 86.8564 102.204 84.6668C101.633 82.4772 98.8516 81.0696 95.6896 80.716Z" fill="#244D73"/>
<path d="M98.736 90.746C97.1856 90.9772 92.616 88.1416 90.9092 85.0816C90.7936 84.8708 91.5892 76.4048 91.5552 74.7116C91.5552 74.3648 102.204 77.1664 102.204 77.1664C101.621 79.2906 101.301 81.4785 101.252 83.6808C101.258 83.9095 101.286 84.1371 101.334 84.3608C101.334 84.3608 101.334 84.4288 101.334 84.4764C101.578 85.8092 101.007 90.44 98.736 90.746Z" fill="#FFBE9D"/>
<path d="M92.2352 74.7592C92.6636 77.3228 94.384 84.4968 100.259 84.5648C100.623 84.569 100.987 84.544 101.347 84.49V84.3744C101.305 84.15 101.28 83.9226 101.272 83.6944C101.321 81.4925 101.638 79.3048 102.218 77.18C102.218 77.18 94.5948 75.1672 92.2352 74.7592Z" fill="#263238"/>
<path d="M107.127 58.3032C107.127 58.3032 110.337 60.4452 110.276 64.1172C110.214 67.7892 108.678 71.3524 108.338 71.4748C107.998 71.5972 107.127 58.3032 107.127 58.3032Z" fill="#263238"/>
<path d="M92.5888 60.3976C90.6848 63.8452 90.3788 74.902 92.4936 77.826C95.5672 82.0692 101.714 83.7148 105.604 79.7708C109.371 75.9424 109.514 61.5264 107.046 58.752C103.408 54.6652 95.3972 55.3112 92.5888 60.3976Z" fill="#FFBE9D"/>
<path d="M101.606 69.1968C101.606 69.1968 101.551 69.1968 101.551 69.2648C101.551 70.006 101.422 70.8628 100.742 71.0872V71.128C101.572 71.0396 101.728 69.904 101.606 69.1968Z" fill="#263238"/>
<path d="M100.966 68.4012C99.7764 68.272 99.6064 70.6656 100.708 70.788C101.81 70.9104 102 68.51 100.966 68.4012Z" fill="#263238"/>
<path d="M105.706 69.4416C105.706 69.4076 105.76 69.4416 105.76 69.5096C105.679 70.2508 105.72 71.1144 106.372 71.4068C106.372 71.4068 106.372 71.4544 106.372 71.4476C105.55 71.2708 105.516 70.1284 105.706 69.4416Z" fill="#263238"/>
<path d="M106.427 68.714C107.624 68.714 107.549 71.1076 106.427 71.1144C105.305 71.1212 105.4 68.714 106.427 68.714Z" fill="#263238"/>
<path d="M99.96 67.5988C100.282 67.5326 100.6 67.4463 100.912 67.3404C101.259 67.2958 101.582 67.1381 101.83 66.8916C101.893 66.799 101.924 66.6883 101.918 66.5764C101.912 66.4646 101.869 66.3579 101.796 66.2728C101.626 66.1258 101.419 66.0274 101.198 65.9879C100.976 65.9484 100.749 65.9693 100.538 66.0484C100.086 66.1425 99.6862 66.402 99.416 66.776C99.3587 66.8638 99.3282 66.9665 99.3285 67.0713C99.3288 67.1762 99.3597 67.2787 99.4176 67.3662C99.4754 67.4537 99.5576 67.5224 99.654 67.5637C99.7504 67.605 99.8568 67.6172 99.96 67.5988Z" fill="#263238"/>
<path d="M107.44 67.0412C107.124 66.9543 106.813 66.8499 106.508 66.7284C106.165 66.6623 105.852 66.4856 105.618 66.2252C105.559 66.129 105.534 66.0162 105.546 65.9042C105.559 65.7923 105.608 65.6876 105.686 65.6064C105.865 65.4712 106.078 65.3862 106.301 65.3599C106.525 65.3336 106.751 65.367 106.957 65.4568C107.4 65.5783 107.783 65.8592 108.032 66.2456C108.086 66.3367 108.112 66.4418 108.106 66.5477C108.101 66.6535 108.064 66.7554 108.001 66.8404C107.938 66.9255 107.851 66.9899 107.751 67.0257C107.651 67.0614 107.543 67.0668 107.44 67.0412Z" fill="#263238"/>
<path d="M100.232 75.854C100.395 76.0444 100.558 76.296 100.824 76.3368C101.102 76.3516 101.38 76.3076 101.64 76.2076C101.64 76.2076 101.687 76.2076 101.64 76.2484C101.523 76.3874 101.371 76.4919 101.2 76.5506C101.028 76.6094 100.844 76.6201 100.667 76.5816C100.522 76.5323 100.393 76.4418 100.298 76.3212C100.203 76.2005 100.144 76.0547 100.13 75.9016C100.15 75.8404 100.212 75.8268 100.232 75.854Z" fill="#263238"/>
<path d="M101.17 73.6848C101.339 73.9923 101.57 74.2619 101.847 74.4771C102.124 74.6923 102.442 74.8485 102.782 74.936C103.077 75.0108 103.382 75.0452 103.686 75.038C103.745 75.0449 103.804 75.0449 103.863 75.038H104.026C104.067 75.0328 104.104 75.0148 104.134 74.9866C104.163 74.9585 104.183 74.9217 104.19 74.8816V74.8V74.732C104.251 74.1608 104.258 73.2836 104.258 73.2836C104.455 73.406 105.488 73.9636 105.495 73.6644C105.612 71.0814 105.466 68.4932 105.06 65.9396C105.06 65.9215 105.053 65.9043 105.04 65.8915C105.027 65.8787 105.01 65.8716 104.992 65.8716C104.974 65.8716 104.957 65.8787 104.944 65.8915C104.931 65.9043 104.924 65.9215 104.924 65.9396C104.802 68.3264 105.094 70.6996 105.012 73.1136C104.645 72.913 104.251 72.7642 103.843 72.6716C103.761 72.6716 103.843 74.358 103.843 74.6096C103.37 74.6239 102.9 74.5428 102.459 74.371C102.019 74.1993 101.617 73.9404 101.279 73.61C101.198 73.576 101.136 73.6236 101.17 73.6848Z" fill="#263238"/>
<path d="M103.36 74.7252C103.015 75.1105 102.577 75.4008 102.088 75.5684C101.821 75.6566 101.533 75.6566 101.266 75.5684C100.681 75.3712 100.708 74.8272 100.851 74.3716C100.93 74.1331 101.038 73.9049 101.17 73.6916C101.77 74.2627 102.538 74.6252 103.36 74.7252Z" fill="#263238"/>
<path d="M102.102 75.5684C101.835 75.6566 101.546 75.6566 101.279 75.5684C100.694 75.3712 100.722 74.8272 100.864 74.3716C101.177 74.3977 101.471 74.5311 101.697 74.7492C101.922 74.9673 102.065 75.2567 102.102 75.5684Z" fill="#FF9CBD"/>
<path d="M91.2696 70.8016C92.5888 71.2436 94.2072 67.2792 94.6696 65.756C95.0776 64.396 95.6148 60.1256 95.6896 59.8332C95.7644 59.5408 101.395 63.7636 104.768 62.8592C108.14 61.9548 110.439 58.9968 110.52 57.596C110.602 56.1952 106.515 52.5436 102.925 52.2784C99.3344 52.0132 94.3568 56.4808 94.3568 56.4808C94.9625 55.8326 95.5151 55.1367 96.0092 54.4C95.9548 54.2368 93.6156 55.08 93.1464 56.7596C93.1464 56.7596 93.6564 54.7196 93.4796 54.6448C93.3028 54.57 91.4396 56.3448 91.834 57.7048C91.834 57.7048 89.7057 59.466 89.4677 61.4448C89.2297 63.4236 89.7192 70.2916 91.2696 70.8016Z" fill="#263238"/>
<path d="M107.168 62.2132C106.164 62.7239 105.089 63.0815 103.979 63.274C102.742 63.3423 101.508 63.109 100.382 62.594C99.2401 62.1199 98.1836 61.4631 97.2535 60.6492C96.4375 59.9692 95.7099 59.092 94.8327 58.4596C94.6083 58.2964 94.3431 58.616 94.4723 58.82C95.9163 60.9603 98.0127 62.5773 100.45 63.4304C101.58 63.8289 102.795 63.9269 103.975 63.7147C105.156 63.5025 106.26 62.9875 107.182 62.22C107.182 62.22 107.182 62.2064 107.168 62.2132Z" fill="#263238"/>
<path d="M99.5792 73.1544C98.9715 73.0552 98.4038 72.7876 97.9406 72.3818C97.4774 71.9761 97.1373 71.4486 96.959 70.8592C96.7807 70.2699 96.7713 69.6423 96.9319 69.0478C97.0925 68.4534 97.4166 67.9159 97.8674 67.4965C98.3182 67.0771 98.8776 66.7925 99.4821 66.6752C100.087 66.5579 100.712 66.6125 101.287 66.8328C101.862 67.0531 102.363 67.4304 102.735 67.9216C103.106 68.4128 103.332 68.9983 103.387 69.6116C103.461 70.4811 103.188 71.3445 102.627 72.0133C102.067 72.6821 101.264 73.1021 100.395 73.1816C100.123 73.2068 99.849 73.1976 99.5792 73.1544ZM100.565 67.0888C100.339 67.0636 100.111 67.0636 99.8852 67.0888C99.1624 67.1754 98.5 67.5348 98.0333 68.0936C97.5666 68.6523 97.3309 69.3681 97.3743 70.0948C97.4177 70.8214 97.7369 71.5041 98.2668 72.0033C98.7967 72.5025 99.4972 72.7805 100.225 72.7805C100.953 72.7805 101.654 72.5025 102.184 72.0033C102.713 71.5041 103.033 70.8214 103.076 70.0948C103.12 69.3681 102.884 68.6523 102.417 68.0936C101.95 67.5348 101.288 67.1754 100.565 67.0888Z" fill="#F16624"/>
<path d="M107.127 73.44C105.883 73.236 104.965 71.7808 105.04 70.04C105.058 69.2179 105.337 68.4229 105.835 67.7688C106.029 67.4735 106.297 67.2337 106.612 67.073C106.926 66.9122 107.278 66.836 107.631 66.8518C107.984 66.8675 108.327 66.9748 108.626 67.1629C108.925 67.3511 109.17 67.6138 109.337 67.9252C109.773 68.6197 109.982 69.4323 109.936 70.2508C109.854 72.0664 108.691 73.4944 107.338 73.4332L107.127 73.44ZM107.807 67.32H107.637C107.356 67.3184 107.078 67.3851 106.829 67.5141C106.579 67.6432 106.364 67.8309 106.202 68.0612C105.77 68.6543 105.532 69.3672 105.522 70.1012C105.454 71.6652 106.298 72.9844 107.406 73.032C108.514 73.0796 109.446 71.842 109.541 70.312C109.583 69.5941 109.4 68.8809 109.018 68.272C108.896 68.0307 108.721 67.8198 108.507 67.655C108.293 67.4902 108.044 67.3757 107.78 67.32H107.807Z" fill="#F16624"/>
<path d="M103.258 69.9924L102.993 69.6388C103.51 69.2444 104.686 68.7276 105.448 69.6388L105.114 69.9244C104.434 69.1084 103.306 69.9516 103.258 69.9924Z" fill="#F16624"/>
<path d="M89.216 70.3392L88.8352 70.1216C88.9372 69.9448 89.862 68.3808 90.8752 68.2652C91.8884 68.1496 96.9952 68.816 97.274 68.8568L97.2128 69.292C95.1312 68.9766 93.0335 68.7791 90.9296 68.7004C90.2496 68.7752 89.4608 69.9108 89.216 70.3392Z" fill="#F16624"/>
<path d="M93.024 69.5572C93.024 69.5572 91.2696 65.6404 89.5356 66.2048C87.8016 66.7692 88.6652 72.1208 90.372 73.1544C90.5828 73.3051 90.822 73.4113 91.0751 73.4666C91.3282 73.5219 91.5899 73.5252 91.8443 73.4762C92.0987 73.4273 92.3406 73.3271 92.555 73.1817C92.7695 73.0364 92.9522 72.8489 93.092 72.6308L93.024 69.5572Z" fill="#FFBE9D"/>
<path d="M89.8212 67.728C89.8212 67.728 89.7804 67.762 89.8212 67.7756C91.0112 68.544 91.4668 69.87 91.7048 71.1756C91.6543 71.0317 91.5732 70.9005 91.4671 70.7911C91.361 70.6816 91.2324 70.5964 91.0902 70.5415C90.948 70.4865 90.7955 70.4631 90.6433 70.4728C90.4912 70.4825 90.3429 70.5251 90.2088 70.5976V70.6792C90.4488 70.6506 90.6918 70.6966 90.9047 70.811C91.1176 70.9253 91.2902 71.1025 91.3988 71.3184C91.5731 71.6844 91.7097 72.0672 91.8068 72.4608C91.8476 72.59 92.0652 72.5628 92.0448 72.4608C92.3984 70.7812 91.5552 68.2312 89.8212 67.728Z" fill="#263238"/>
</svg>
