<svg width="14" height="18" viewBox="0 0 14 18" fill="none" xmlns="http://www.w3.org/2000/svg">
<path d="M7.00004 18C6.85429 18 6.70835 17.9437 6.59171 17.8595C6.32913 17.6063 0 11.8124 0 6.7499C0 2.95299 3.06251 0 7 0C10.9375 0 14 2.95309 14 6.7499C14 11.8124 7.6708 17.6063 7.40829 17.8595C7.29165 17.9439 7.14571 18 6.99996 18H7.00004ZM7.00004 1.12503C3.73334 1.12503 1.16632 3.59998 1.16632 6.75032C1.16632 10.6316 5.62887 15.3006 7.00004 16.6503C8.37098 15.3003 12.8338 10.6313 12.8338 6.75032C12.8338 3.60034 10.2669 1.12503 7.00004 1.12503Z" fill="#065197"/>
<path d="M7.0001 8.99996C5.71668 8.99996 4.66675 7.98755 4.66675 6.74998C4.66675 5.51242 5.71668 4.5 7.0001 4.5C8.28352 4.5 9.33345 5.51242 9.33345 6.74998C9.33345 7.98755 8.28352 8.99996 7.0001 8.99996ZM7.0001 5.62488C6.35846 5.62488 5.83331 6.13109 5.83331 6.74998C5.83331 7.3687 6.35827 7.87508 7.0001 7.87508C7.64174 7.87508 8.16689 7.36888 8.16689 6.74998C8.16689 6.13127 7.64174 5.62488 7.0001 5.62488Z" fill="#065197"/>
</svg>
