<svg width="12" height="16" viewBox="0 0 12 16" fill="none" xmlns="http://www.w3.org/2000/svg">
<path d="M5.99994 16C5.87501 16 5.74992 15.9499 5.64995 15.8751C5.42488 15.65 0 10.4999 0 5.99991C0 2.62488 2.62497 0 5.99991 0C9.37485 0 11.9998 2.62496 11.9998 5.99991C11.9998 10.4999 6.57487 15.6501 6.34987 15.8751C6.24989 15.9501 6.1248 16 5.99987 16H5.99994ZM5.99994 1.00003C3.19996 1.00003 0.999686 3.19998 0.999686 6.00029C0.999686 9.45032 4.82467 13.6005 5.99994 14.8003C7.17502 13.6002 11.0002 9.45004 11.0002 6.00029C11.0002 3.2003 8.80009 1.00003 5.99994 1.00003Z" fill="#00182E"/>
<path d="M5.99998 8C4.89993 8 4 7.10007 4 6.00001C4 4.89996 4.89993 4.00003 5.99998 4.00003C7.10004 4.00003 7.99997 4.89996 7.99997 6.00001C7.99997 7.10007 7.10004 8 5.99998 8ZM5.99998 4.99992C5.45001 4.99992 4.99989 5.44988 4.99989 6.00001C4.99989 6.54998 5.44985 7.00011 5.99998 7.00011C6.54995 7.00011 7.00007 6.55014 7.00007 6.00001C7.00007 5.45005 6.54995 4.99992 5.99998 4.99992Z" fill="#00182E"/>
</svg>
