<svg width="340" height="340" viewBox="0 0 340 340" fill="none" xmlns="http://www.w3.org/2000/svg">
<path d="M296.691 184.688C292.448 181.41 288.116 178.235 285.566 173.495C272.646 149.512 299.54 121.455 284.614 95.4652C277.039 82.28 262.099 72.6308 247.52 78.1116C231.982 83.9596 217.314 90.066 200.6 85.2312C171.36 76.7584 156.176 37.1144 124.324 37.7808C98.1784 38.3248 69.0812 65.8648 84.2044 94.4452C95.6624 116.069 88.502 133.967 62.0024 137.693C35.5028 141.42 24.106 172.72 31.96 186.164C39.814 199.607 54.8692 213.751 40.5484 219.715C26.2276 225.678 21.216 245.065 22.6508 258.475C24.0856 271.884 26.9416 277.114 26.9416 277.114H301.811C301.811 277.114 313.405 262.201 314.833 227.909C315.459 213.044 312.378 198.485 301.145 188.319C299.724 187.054 298.214 185.864 296.691 184.688Z" fill="#F16624"/>
<path opacity="0.7" d="M296.691 184.688C292.448 181.41 288.116 178.235 285.566 173.495C272.646 149.512 299.54 121.455 284.614 95.4652C277.039 82.28 262.099 72.6308 247.52 78.1116C231.982 83.9596 217.314 90.066 200.6 85.2312C171.36 76.7584 156.176 37.1144 124.324 37.7808C98.1784 38.3248 69.0812 65.8648 84.2044 94.4452C95.6624 116.069 88.502 133.967 62.0024 137.693C35.5028 141.42 24.106 172.72 31.96 186.164C39.814 199.607 54.8692 213.751 40.5484 219.715C26.2276 225.678 21.216 245.065 22.6508 258.475C24.0856 271.884 26.9416 277.114 26.9416 277.114H301.811C301.811 277.114 313.405 262.201 314.833 227.909C315.459 213.044 312.378 198.485 301.145 188.319C299.724 187.054 298.214 185.864 296.691 184.688Z" fill="white"/>
<path d="M166.981 299.2C195.711 299.2 219.001 296.764 219.001 293.76C219.001 290.756 195.711 288.32 166.981 288.32C138.251 288.32 114.961 290.756 114.961 293.76C114.961 296.764 138.251 299.2 166.981 299.2Z" fill="#F16624"/>
<path opacity="0.5" d="M166.981 299.2C195.711 299.2 219.001 296.764 219.001 293.76C219.001 290.756 195.711 288.32 166.981 288.32C138.251 288.32 114.961 290.756 114.961 293.76C114.961 296.764 138.251 299.2 166.981 299.2Z" fill="white"/>
<path d="M284.532 248.812V240.509H275.271V224.4H261.963V158.97H249.234V198.519H237.66V184.362H222.04V220.98H215.676V232.696H200.634V228.303H205.258V225.862H186.164V228.793H188.482V241.488H178.643V217.559H143.929V234.648H119.041V221.952H109.786V236.116H90.1136V210.236H82.0148V201.45H67.5444V241.488H53.0808V250.274H43.826V277.127H302.471V248.812H284.532Z" stroke="#2E353A" stroke-miterlimit="10"/>
<path d="M73.236 210.12H70.108V213.248H73.236V210.12Z" fill="#2E353A"/>
<path d="M79.7504 210.12H76.6224V213.248H79.7504V210.12Z" fill="#2E353A"/>
<path d="M73.236 216.641H70.108V219.769H73.236V216.641Z" fill="#2E353A"/>
<path d="M79.7504 216.641H76.6224V219.769H79.7504V216.641Z" fill="#2E353A"/>
<path d="M86.7884 216.641H83.6604V219.769H86.7884V216.641Z" fill="#2E353A"/>
<path d="M86.7884 223.156H83.6604V226.284H86.7884V223.156Z" fill="#2E353A"/>
<path d="M86.7884 229.677H83.6604V232.805H86.7884V229.677Z" fill="#2E353A"/>
<path d="M86.7884 236.191H83.6604V239.319H86.7884V236.191Z" fill="#2E353A"/>
<path d="M86.7884 242.712H83.6604V245.84H86.7884V242.712Z" fill="#2E353A"/>
<path d="M86.7884 249.234H83.6604V252.362H86.7884V249.234Z" fill="#2E353A"/>
<path d="M73.236 223.156H70.108V226.284H73.236V223.156Z" fill="#2E353A"/>
<path d="M79.7504 223.156H76.6224V226.284H79.7504V223.156Z" fill="#2E353A"/>
<path d="M73.236 229.677H70.108V232.805H73.236V229.677Z" fill="#2E353A"/>
<path d="M79.7504 229.677H76.6224V232.805H79.7504V229.677Z" fill="#2E353A"/>
<path d="M73.236 236.191H70.108V239.319H73.236V236.191Z" fill="#2E353A"/>
<path d="M79.7504 236.191H76.6224V239.319H79.7504V236.191Z" fill="#2E353A"/>
<path d="M73.236 242.712H70.108V245.84H73.236V242.712Z" fill="#2E353A"/>
<path d="M58.8948 246.364H55.7668V249.492H58.8948V246.364Z" fill="#2E353A"/>
<path d="M103.999 239.319H100.871V242.447H103.999V239.319Z" fill="#2E353A"/>
<path d="M110.255 239.319H107.127V242.447H110.255V239.319Z" fill="#2E353A"/>
<path d="M254.442 162.663H251.314V165.791H254.442V162.663Z" fill="#2E353A"/>
<path d="M258.352 162.663H255.224V165.791H258.352V162.663Z" fill="#2E353A"/>
<path d="M254.442 169.184H251.314V172.312H254.442V169.184Z" fill="#2E353A"/>
<path d="M258.352 169.184H255.224V172.312H258.352V169.184Z" fill="#2E353A"/>
<path d="M254.442 175.705H251.314V178.833H254.442V175.705Z" fill="#2E353A"/>
<path d="M258.352 175.705H255.224V178.833H258.352V175.705Z" fill="#2E353A"/>
<path d="M254.442 182.22H251.314V185.348H254.442V182.22Z" fill="#2E353A"/>
<path d="M258.352 182.22H255.224V185.348H258.352V182.22Z" fill="#2E353A"/>
<path d="M254.442 188.741H251.314V191.869H254.442V188.741Z" fill="#2E353A"/>
<path d="M258.352 188.741H255.224V191.869H258.352V188.741Z" fill="#2E353A"/>
<path d="M254.442 195.255H251.314V198.383H254.442V195.255Z" fill="#2E353A"/>
<path d="M258.352 195.255H255.224V198.383H258.352V195.255Z" fill="#2E353A"/>
<path d="M254.442 201.776H251.314V204.904H254.442V201.776Z" fill="#2E353A"/>
<path d="M258.352 201.776H255.224V204.904H258.352V201.776Z" fill="#2E353A"/>
<path d="M254.442 208.298H251.314V211.426H254.442V208.298Z" fill="#2E353A"/>
<path d="M258.352 208.298H255.224V211.426H258.352V208.298Z" fill="#2E353A"/>
<path d="M254.442 214.812H251.314V217.94H254.442V214.812Z" fill="#2E353A"/>
<path d="M258.352 214.812H255.224V217.94H258.352V214.812Z" fill="#2E353A"/>
<path d="M227.848 214.812H224.72V217.94H227.848V214.812Z" fill="#2E353A"/>
<path d="M234.627 214.812H231.499V217.94H234.627V214.812Z" fill="#2E353A"/>
<path d="M241.407 214.812H238.279V217.94H241.407V214.812Z" fill="#2E353A"/>
<path d="M227.848 228.895H224.72V232.023H227.848V228.895Z" fill="#2E353A"/>
<path d="M234.627 228.895H231.499V232.023H234.627V228.895Z" fill="#2E353A"/>
<path d="M241.407 228.895H238.279V232.023H241.407V228.895Z" fill="#2E353A"/>
<path d="M227.848 242.971H224.72V246.099H227.848V242.971Z" fill="#2E353A"/>
<path d="M234.627 242.971H231.499V246.099H234.627V242.971Z" fill="#2E353A"/>
<path d="M241.407 242.971H238.279V246.099H241.407V242.971Z" fill="#2E353A"/>
<path d="M254.442 221.333H251.314V224.461H254.442V221.333Z" fill="#2E353A"/>
<path d="M258.352 221.333H255.224V224.461H258.352V221.333Z" fill="#2E353A"/>
<path d="M254.442 227.848H251.314V230.976H254.442V227.848Z" fill="#2E353A"/>
<path d="M258.352 227.848H255.224V230.976H258.352V227.848Z" fill="#2E353A"/>
<path d="M254.442 234.369H251.314V237.497H254.442V234.369Z" fill="#2E353A"/>
<path d="M258.352 234.369H255.224V237.497H258.352V234.369Z" fill="#2E353A"/>
<path d="M264.874 227.848H261.746V230.976H264.874V227.848Z" fill="#2E353A"/>
<path d="M272.177 227.848H269.049V230.976H272.177V227.848Z" fill="#2E353A"/>
<path d="M264.874 234.11H261.746V237.238H264.874V234.11Z" fill="#2E353A"/>
<path d="M272.177 234.11H269.049V237.238H272.177V234.11Z" fill="#2E353A"/>
<path d="M264.874 240.366H261.746V243.494H264.874V240.366Z" fill="#2E353A"/>
<path d="M272.177 240.366H269.049V243.494H272.177V240.366Z" fill="#2E353A"/>
<path d="M264.874 246.622H261.746V249.75H264.874V246.622Z" fill="#2E353A"/>
<path d="M272.177 246.622H269.049V249.75H272.177V246.622Z" fill="#2E353A"/>
<path d="M254.442 240.89H251.314V244.018H254.442V240.89Z" fill="#2E353A"/>
<path d="M258.352 240.89H255.224V244.018H258.352V240.89Z" fill="#2E353A"/>
<path d="M254.442 247.404H251.314V250.532H254.442V247.404Z" fill="#2E353A"/>
<path d="M258.352 247.404H255.224V250.532H258.352V247.404Z" fill="#2E353A"/>
<path d="M79.7504 242.712H76.6224V245.84H79.7504V242.712Z" fill="#2E353A"/>
<path d="M73.236 249.234H70.108V252.362H73.236V249.234Z" fill="#2E353A"/>
<path d="M79.7504 249.234H76.6224V252.362H79.7504V249.234Z" fill="#2E353A"/>
<path d="M73.236 255.748H70.108V258.876H73.236V255.748Z" fill="#2E353A"/>
<path d="M79.7504 255.748H76.6224V258.876H79.7504V255.748Z" fill="#2E353A"/>
<path d="M73.236 262.269H70.108V265.397H73.236V262.269Z" fill="#2E353A"/>
<path d="M79.7504 262.269H76.6224V265.397H79.7504V262.269Z" fill="#2E353A"/>
<path d="M244.535 264.228V277.127H218.464V251.478H244.535V261.929" stroke="#2E353A" stroke-miterlimit="10"/>
<path d="M292.516 273.231V277.127H266.438V263.568H271.823" stroke="#2E353A" stroke-miterlimit="10"/>
<path d="M274.999 263.568H292.516V271.116" stroke="#2E353A" stroke-miterlimit="10"/>
<path d="M100.341 263.568H118.864V277.127H92.786V263.568H97.8656" stroke="#2E353A" stroke-miterlimit="10"/>
<path d="M59.5476 263.568H62.0228V277.127H52.3736V263.568H57.6028" stroke="#2E353A" stroke-miterlimit="10"/>
<path d="M233.58 251.478H229.412V277.127H233.58V251.478Z" stroke="#2E353A" stroke-miterlimit="10"/>
<path d="M201.178 254.966H197.084V248.186H210.902V254.966H204.891" stroke="#2E353A" stroke-miterlimit="10"/>
<path d="M127.99 243.494H112.084V249.234H127.99V243.494Z" stroke="#2E353A" stroke-miterlimit="10"/>
<path d="M121.21 243.494H119.646V277.127H121.21V243.494Z" stroke="#2E353A" stroke-miterlimit="10"/>
<path d="M170 39.1884C146.735 39.1884 124.423 48.4303 107.973 64.881C91.5219 81.3317 82.28 103.644 82.28 126.908C82.28 170.666 163.2 273.788 163.2 273.788H170C170 273.788 257.72 175.352 257.72 126.908C257.72 103.644 248.478 81.3317 232.027 64.881C215.577 48.4303 193.265 39.1884 170 39.1884ZM170 169.748C161.527 169.748 153.244 167.236 146.199 162.529C139.154 157.821 133.663 151.131 130.421 143.303C127.179 135.475 126.33 126.861 127.983 118.551C129.636 110.241 133.716 102.607 139.708 96.616C145.699 90.6247 153.332 86.5446 161.642 84.8916C169.952 83.2386 178.566 84.087 186.394 87.3294C194.222 90.5719 200.913 96.0628 205.62 103.108C210.327 110.153 212.84 118.435 212.84 126.908C212.84 132.534 211.732 138.105 209.579 143.303C207.426 148.5 204.27 153.223 200.292 157.201C196.314 161.179 191.592 164.335 186.394 166.487C181.197 168.64 175.626 169.748 170 169.748Z" fill="#263238" stroke="#263238" stroke-linecap="round" stroke-linejoin="round"/>
<path d="M163.2 39.1884C139.935 39.1884 117.623 48.4303 101.173 64.881C84.7219 81.3317 75.48 103.644 75.48 126.908C75.48 175.352 163.2 273.788 163.2 273.788C163.2 273.788 250.92 175.352 250.92 126.908C250.92 103.644 241.678 81.3317 225.227 64.881C208.777 48.4303 186.465 39.1884 163.2 39.1884ZM163.2 169.748C154.727 169.748 146.444 167.236 139.399 162.529C132.354 157.821 126.863 151.131 123.621 143.303C120.379 135.475 119.53 126.861 121.183 118.551C122.836 110.241 126.916 102.607 132.908 96.616C138.899 90.6247 146.532 86.5446 154.842 84.8916C163.152 83.2386 171.766 84.087 179.594 87.3294C187.422 90.5719 194.113 96.0628 198.82 103.108C203.527 110.153 206.04 118.435 206.04 126.908C206.04 138.27 201.526 149.167 193.492 157.201C185.458 165.235 174.562 169.748 163.2 169.748Z" fill="#F16624" stroke="#263238" stroke-linecap="round" stroke-linejoin="round"/>
</svg>
