<svg width="14" height="14" viewBox="0 0 14 14" fill="none" xmlns="http://www.w3.org/2000/svg">
<path d="M10.9375 4.66667V3.33333C10.9375 1.49333 9.3975 0 7.5 0C5.6025 0 4.0625 1.49333 4.0625 3.33333V4.66667H2V14H13V4.66667H10.9375ZM5.4375 3.33333C5.4375 2.22667 6.35875 1.33333 7.5 1.33333C8.64125 1.33333 9.5625 2.22667 9.5625 3.33333V4.66667H5.4375V3.33333ZM11.625 12.6667H3.375V6H11.625V12.6667ZM7.5 10.6667C8.25625 10.6667 8.875 10.0667 8.875 9.33333C8.875 8.6 8.25625 8 7.5 8C6.74375 8 6.125 8.6 6.125 9.33333C6.125 10.0667 6.74375 10.6667 7.5 10.6667Z" fill="#FC6B00"/>
</svg>
