<svg width="22" height="18" viewBox="0 0 22 18" fill="none" xmlns="http://www.w3.org/2000/svg">
<path d="M0.814748 1.65502H21.1853C21.6334 1.65502 22 1.28267 22 0.827508C22 0.372323 21.6334 0 21.1853 0H0.814748C0.366582 0 0 0.372345 0 0.827508C0 1.28269 0.366604 1.65502 0.814748 1.65502Z" fill="#F16624"/>
<path d="M0.814748 9.82749H13.037C13.4852 9.82749 13.8518 9.45514 13.8518 8.99998C13.8518 8.54482 13.4852 8.17247 13.037 8.17247L0.814748 8.17218C0.366582 8.17218 0 8.54453 0 8.99969C0 9.45488 0.366604 9.82749 0.814748 9.82749Z" fill="#F16624"/>
<path d="M0.814748 18H21.1853C21.6334 18 22 17.6276 22 17.1725C22 16.7173 21.6334 16.345 21.1853 16.345L0.814748 16.3447C0.366582 16.3447 0 16.717 0 17.1722C0 17.6274 0.366604 18 0.814748 18Z" fill="#F16624"/>
</svg>
