<svg width="17" height="17" viewBox="0 0 17 17" fill="none" xmlns="http://www.w3.org/2000/svg">
<path d="M8.4998 0C5.2103 0 2.5498 2.6605 2.5498 5.95C2.5498 10.4125 8.4998 17 8.4998 17C8.4998 17 14.4498 10.4125 14.4498 5.95C14.4498 2.6605 11.7893 0 8.4998 0ZM4.2498 5.95C4.2498 3.604 6.1538 1.7 8.4998 1.7C10.8458 1.7 12.7498 3.604 12.7498 5.95C12.7498 8.398 10.3018 12.0615 8.4998 14.348C6.7318 12.0785 4.2498 8.3725 4.2498 5.95Z" fill="black"/>
<path d="M8.49902 8.07501C9.67263 8.07501 10.624 7.12362 10.624 5.95001C10.624 4.77641 9.67263 3.82501 8.49902 3.82501C7.32542 3.82501 6.37402 4.77641 6.37402 5.95001C6.37402 7.12362 7.32542 8.07501 8.49902 8.07501Z" fill="black"/>
</svg>
