<svg width="16" height="16" viewBox="0 0 16 16" fill="none" xmlns="http://www.w3.org/2000/svg">
<path d="M12.7996 3.2H11.1996C11.1996 1.432 9.76761 0 7.99961 0C6.23161 0 4.79961 1.432 4.79961 3.2H3.19961C2.31961 3.2 1.59961 3.92 1.59961 4.8V14.4C1.59961 15.28 2.31961 16 3.19961 16H12.7996C13.6796 16 14.3996 15.28 14.3996 14.4V4.8C14.3996 3.92 13.6796 3.2 12.7996 3.2ZM7.99961 1.6C8.87961 1.6 9.59961 2.32 9.59961 3.2H6.39961C6.39961 2.32 7.11961 1.6 7.99961 1.6ZM12.7996 14.4H3.19961V4.8H4.79961V6.4C4.79961 6.84 5.15961 7.2 5.59961 7.2C6.03961 7.2 6.39961 6.84 6.39961 6.4V4.8H9.59961V6.4C9.59961 6.84 9.95961 7.2 10.3996 7.2C10.8396 7.2 11.1996 6.84 11.1996 6.4V4.8H12.7996V14.4Z" fill="black"/>
</svg>
