<svg width="16" height="16" viewBox="0 0 16 16" fill="none" xmlns="http://www.w3.org/2000/svg">
<path fill-rule="evenodd" clip-rule="evenodd" d="M6.87848 0.550675L6.03381 1.66172C5.96018 1.75927 5.82763 1.79415 5.70866 1.75703L4.34234 1.33281C3.92262 1.20262 3.46415 1.27326 3.1077 1.52106C2.7378 1.77783 2.52278 2.19009 2.52278 2.62687V4.00066C2.52278 4.10705 2.44317 4.19563 2.33752 4.22915L0.971197 4.65336C0.542515 4.78654 0.209864 5.1111 0.0707127 5.52109C-0.0714371 5.94008 0.00293883 6.39928 0.27391 6.75573L1.11785 7.8675C1.17814 7.94637 1.17814 8.05351 1.11785 8.1325L0.27391 9.24427C0.00306324 9.60072 -0.0714339 10.0599 0.0707127 10.4789C0.209874 10.8889 0.542515 11.2134 0.971197 11.3466L2.33752 11.7709C2.44317 11.8044 2.52278 11.8929 2.52278 11.9993V13.3731C2.52278 13.8099 2.73781 14.2223 3.1077 14.4789C3.46415 14.7267 3.92262 14.7975 4.34234 14.6672L5.70866 14.243C5.82776 14.2057 5.96019 14.2407 6.03381 14.3383L6.87848 15.4493C7.13974 15.7932 7.55571 16 7.99999 16C8.44427 16 8.86026 15.7931 9.1215 15.4493L9.96617 14.3383C10.0398 14.2407 10.1724 14.2058 10.2913 14.243L11.6576 14.6672C12.0774 14.7974 12.5358 14.7267 12.8923 14.4789C13.2622 14.2222 13.4772 13.8099 13.4772 13.3731V11.9993C13.4772 11.8929 13.5568 11.8044 13.6625 11.7709L15.0288 11.3466C15.4575 11.2135 15.7901 10.8889 15.9293 10.4789C16.0714 10.0599 15.997 9.60072 15.7261 9.24427L14.8821 8.1325C14.8218 8.05363 14.8218 7.94649 14.8821 7.8675L15.7261 6.75573C15.9969 6.39928 16.0714 5.94008 15.9293 5.52109C15.7901 5.1111 15.4575 4.78655 15.0288 4.65336L13.6625 4.22915C13.5568 4.19563 13.4772 4.10705 13.4772 4.00066V2.62687C13.4772 2.19009 13.2622 1.7777 12.8923 1.52106C12.5358 1.27326 12.0774 1.20249 11.6576 1.33281L10.2913 1.75703C10.1722 1.79428 10.0398 1.75927 9.96617 1.66172L9.1215 0.550675C8.86024 0.20683 8.44427 0 7.99999 0C7.55571 0 7.13972 0.206935 6.87848 0.550675ZM6.92308 2.33745L7.76702 1.22567C7.82134 1.15503 7.90842 1.11629 7.99999 1.11629C8.09156 1.11629 8.17865 1.15503 8.23297 1.22567L9.0769 2.33745C9.42961 2.80102 10.0525 3.00049 10.6226 2.82345L11.9889 2.39849C12.0798 2.37096 12.1787 2.38442 12.2553 2.43799C12.3193 2.48184 12.361 2.55111 12.361 2.62698V4.00077C12.361 4.58793 12.7479 5.11331 13.3314 5.29495L14.6977 5.7199C14.7795 5.74444 14.8458 5.8025 14.8726 5.87986C14.8956 5.94838 14.8816 6.02276 14.8376 6.08082L13.9929 7.19186C13.6268 7.67413 13.6268 8.32597 13.9929 8.80823L14.8376 9.91928C14.8814 9.97733 14.8956 10.0517 14.8726 10.1202C14.8458 10.1976 14.7795 10.2557 14.6977 10.2802L13.3314 10.7051C12.7479 10.8867 12.361 11.4122 12.361 11.9993V13.3731C12.361 13.449 12.3192 13.5183 12.2553 13.5621C12.1787 13.6157 12.0796 13.6291 11.9889 13.6016L10.6226 13.1767C10.0525 12.9995 9.42974 13.199 9.0769 13.6626L8.23297 14.7744C8.17865 14.8451 8.09156 14.8838 7.99999 14.8838C7.90842 14.8838 7.82134 14.8451 7.76702 14.7744L6.92308 13.6626C6.57037 13.1991 5.94746 12.9996 5.37736 13.1767L4.01104 13.6016C3.92022 13.6291 3.8213 13.6157 3.74468 13.5621C3.68064 13.5183 3.63903 13.449 3.63903 13.3731V11.9993C3.63903 11.4122 3.25206 10.8868 2.66863 10.7051L1.30231 10.2802C1.22046 10.2557 1.15418 10.1976 1.1274 10.1202C1.10435 10.0517 1.11843 9.97733 1.1624 9.91928L2.00708 8.80823C2.37321 8.32597 2.37321 7.67413 2.00708 7.19186L1.1624 6.08082C1.11855 6.02276 1.10435 5.94839 1.1274 5.87986C1.15418 5.8025 1.22046 5.74444 1.30231 5.7199L2.66863 5.29495C3.25206 5.11343 3.63903 4.58793 3.63903 4.00077V2.62698C3.63903 2.55111 3.68077 2.48184 3.74468 2.43799C3.82129 2.38442 3.92034 2.37096 4.01104 2.39849L5.37736 2.82345C5.94746 3.0006 6.57024 2.80114 6.92308 2.33745Z" fill="black"/>
<path fill-rule="evenodd" clip-rule="evenodd" d="M10.2362 4.97387L4.97406 10.236C4.75604 10.454 4.75604 10.8076 4.97406 11.0256C5.19208 11.2436 5.54566 11.2436 5.76368 11.0256L11.0258 5.7635C11.2438 5.54547 11.2438 5.1919 11.0258 4.97387C10.8078 4.75585 10.4542 4.75585 10.2362 4.97387Z" fill="black"/>
<path fill-rule="evenodd" clip-rule="evenodd" d="M7.16957 4.62049C6.51614 3.96706 5.45491 3.96706 4.8016 4.62049C4.14816 5.27393 4.14816 6.33516 4.8016 6.98847C5.45504 7.6419 6.51626 7.6419 7.16957 6.98847C7.82301 6.33503 7.82301 5.2738 7.16957 4.62049ZM6.37995 5.41012C6.59797 5.62814 6.59797 5.98171 6.37995 6.19974C6.16268 6.41701 5.80835 6.41701 5.59109 6.19974C5.37307 5.98172 5.37307 5.62814 5.59109 5.41012C5.80837 5.19209 6.16269 5.19209 6.37995 5.41012Z" fill="black"/>
<path fill-rule="evenodd" clip-rule="evenodd" d="M11.1979 9.01128C10.5445 8.35784 9.48323 8.35784 8.82992 9.01128C8.17648 9.66471 8.17648 10.7259 8.82992 11.3792C9.48336 12.0327 10.5446 12.0327 11.1979 11.3792C11.8513 10.7258 11.8513 9.66459 11.1979 9.01128ZM10.4083 9.80013C10.6263 10.0182 10.6263 10.3717 10.4083 10.5898C10.191 10.8078 9.83667 10.8078 9.61941 10.5898C9.40139 10.3717 9.40139 10.0182 9.61941 9.80013C9.83669 9.58286 10.191 9.58286 10.4083 9.80013Z" fill="black"/>
</svg>
