<svg width="22" height="22" viewBox="0 0 22 22" fill="none" xmlns="http://www.w3.org/2000/svg">
<path d="M11.6111 2.46736C13.1174 2.46736 14.3381 3.68806 14.3381 5.19444C14.3381 6.70083 13.1174 7.92153 11.6111 7.92153C10.1047 7.92153 8.88397 6.70083 8.88397 5.19444C8.88397 3.68806 10.1047 2.46736 11.6111 2.46736ZM11.6111 14.1549C15.4679 14.1549 19.5326 16.0508 19.5326 16.8819V18.3104H3.68953V16.8819C3.68953 16.0508 7.75418 14.1549 11.6111 14.1549ZM11.6111 0C8.74113 0 6.41661 2.32451 6.41661 5.19444C6.41661 8.06437 8.74113 10.3889 11.6111 10.3889C14.481 10.3889 16.8055 8.06437 16.8055 5.19444C16.8055 2.32451 14.481 0 11.6111 0ZM11.6111 11.6875C8.14376 11.6875 1.22217 13.4276 1.22217 16.8819V20.7778H21.9999V16.8819C21.9999 13.4276 15.0783 11.6875 11.6111 11.6875Z" fill="#FC6B00"/>
</svg>
