<svg width="22" height="20" viewBox="0 0 22 20" fill="none" xmlns="http://www.w3.org/2000/svg">
<path d="M19.8889 7.75L18.2383 16.106C18.0347 17.1369 17.9329 17.6523 17.6671 18.0379C17.4327 18.3779 17.11 18.6457 16.7348 18.8117C16.3093 19 15.7901 19 14.7518 19H7.24819C6.20988 19 5.69073 19 5.26521 18.8117C4.88996 18.6457 4.56734 18.3779 4.33294 18.0379C4.06713 17.6523 3.96531 17.1369 3.76168 16.106L2.11111 7.75M19.8889 7.75H17.6667M19.8889 7.75H21M2.11111 7.75H1M2.11111 7.75H4.33333M4.33333 7.75H17.6667M4.33333 7.75L7.66667 1M17.6667 7.75L14.3333 1M7.66667 11.125V14.5M11 11.125V14.5M14.3333 11.125V14.5" stroke="#065197" stroke-linecap="round" stroke-linejoin="round"/>
</svg>
