<svg width="321" height="214" viewBox="0 0 321 214" fill="none" xmlns="http://www.w3.org/2000/svg">
<path d="M281.962 22.8167H226.065V123.23H281.962V22.8167Z" fill="#EBEBEB"/>
<path d="M279.15 25.7313H228.299V120.238H279.15V25.7313Z" fill="#FAFAFA"/>
<path d="M284.325 124.137L281.962 123.23V21.1175H284.325V124.137Z" fill="#E0E0E0"/>
<path d="M280.254 52.9179H228.299V53.9237H280.254V52.9179Z" fill="#E0E0E0"/>
<path d="M280.254 75.4221H228.299V76.4279H280.254V75.4221Z" fill="#E0E0E0"/>
<path d="M280.254 97.9307H228.299V98.9365H280.254V97.9307Z" fill="#E0E0E0"/>
<path d="M252.439 53.4187V122.917H255.007V53.4187H252.439Z" fill="#E0E0E0"/>
<path d="M239.256 25.7313H238.092V53.4229H239.256V25.7313Z" fill="#E0E0E0"/>
<path d="M249.293 25.7313H248.129V53.4229H249.293V25.7313Z" fill="#E0E0E0"/>
<path d="M259.334 25.7313H258.17V53.4229H259.334V25.7313Z" fill="#E0E0E0"/>
<path d="M269.37 25.7313H268.206V53.4229H269.37V25.7313Z" fill="#E0E0E0"/>
<path d="M226.065 21.1175H223.703V123.855H226.065V21.1175Z" fill="#E0E0E0"/>
<path d="M284.325 20.0775H223.703V22.8167H284.325V20.0775Z" fill="#E0E0E0"/>
<path d="M285.925 124.471H222.025V127.022H285.925V124.471Z" fill="#E0E0E0"/>
<path d="M281.962 123.23L285.925 124.471H222.025L226.065 123.23H281.962Z" fill="#E0E0E0"/>
<path d="M43.7502 147.878H26.4761V152.449H43.7502V147.878Z" fill="#EBEBEB"/>
<path d="M36.4443 157.26C36.4425 157.233 36.4425 157.206 36.4443 157.179V156.943C36.4443 156.729 36.4443 156.43 36.4443 156.044C36.4443 155.257 36.4443 154.123 36.4143 152.693L36.4657 152.745L19.1745 152.796L19.2601 152.71V155.03C19.2601 155.792 19.2601 156.545 19.2601 157.277L19.1745 157.192L31.4837 157.23L35.1175 157.256H36.1019H36.4485C36.4485 157.256 36.4229 157.256 36.3715 157.256H36.1233H35.1603L31.5479 157.277L19.1745 157.316H19.0889V152.693C19.2643 152.514 19.1359 152.642 19.1787 152.603L36.4485 152.638H36.5042V152.693C36.5042 154.136 36.5042 155.261 36.4742 156.074C36.4742 156.455 36.4742 156.751 36.4742 156.965C36.4742 157.055 36.4742 157.132 36.4742 157.187C36.4742 157.243 36.4485 157.264 36.4443 157.26Z" fill="#E0E0E0"/>
<path d="M40.1767 29.7631C40.1767 29.7631 40.1767 29.7331 40.1767 29.6818V29.4464C40.1767 29.2324 40.1767 28.9328 40.1767 28.5476C40.1767 27.76 40.1767 26.6258 40.1467 25.1963L40.1981 25.2477L22.9283 25.2819L23.0139 25.1963V29.7631L22.924 29.6775L35.2375 29.716L38.8713 29.7417H39.8514H40.1981C40.1981 29.7417 40.1767 29.7417 40.121 29.7417H39.8728H38.9098L35.2975 29.7631L22.924 29.8016H22.8384V25.2006L22.9283 25.1107L40.1981 25.145H40.2323V25.2006C40.2323 26.643 40.2323 27.7686 40.2023 28.5818C40.2023 28.9627 40.2023 29.258 40.2023 29.472C40.2023 29.5619 40.2023 29.639 40.2023 29.6946C40.2023 29.7502 40.1809 29.7674 40.1767 29.7631Z" fill="#E0E0E0"/>
<path d="M304.073 150.168C304.071 150.141 304.071 150.114 304.073 150.087V149.851C304.073 149.637 304.073 149.338 304.073 148.953C304.073 148.161 304.073 147.027 304.043 145.597L304.094 145.653L286.82 145.687C286.863 145.648 286.734 145.772 286.91 145.597V147.912C286.91 148.674 286.91 149.423 286.91 150.159L286.824 150.074L299.134 150.112L302.767 150.138H303.752H304.008H303.76H302.797L299.172 150.228L286.803 150.266H286.717V145.606L286.803 145.52L304.077 145.554H304.133V145.606C304.133 147.052 304.107 148.195 304.103 148.991C304.103 149.373 304.103 149.669 304.103 149.877C304.103 149.971 304.103 150.044 304.103 150.104C304.103 150.164 304.077 150.168 304.073 150.168Z" fill="#E0E0E0"/>
<path d="M74.0441 56.359C74.0423 56.3319 74.0423 56.3048 74.0441 56.2777V56.0423C74.0441 55.8283 74.0441 55.5287 74.0441 55.1435C74.0441 54.3517 74.0441 53.2218 74.0184 51.788L74.0698 51.8436L56.7957 51.8779L56.8856 51.788V54.1035C56.8856 54.8653 56.8856 55.6143 56.8856 56.3505L56.8 56.2649L69.1092 56.3034L72.743 56.3291H73.7274H73.9927H73.7488H72.7858L69.1692 56.3548L56.8 56.3933H56.7144V52.9051C56.7144 52.7125 56.7144 52.5199 56.7144 52.323V51.788L56.8042 51.7024L74.0783 51.7366H74.134V51.788C74.134 53.2346 74.1083 54.356 74.104 55.1735C74.104 55.5544 74.104 55.8497 74.104 56.0637C74.104 56.1536 74.104 56.2263 74.104 56.2863C74.0872 56.313 74.0671 56.3374 74.0441 56.359Z" fill="#E0E0E0"/>
<path d="M76.3981 51.788C76.3963 51.7595 76.3963 51.7309 76.3981 51.7024C76.3981 51.6382 76.3981 51.5568 76.3981 51.4627C76.3981 51.2358 76.3981 50.932 76.3981 50.5425C76.3981 49.7421 76.3981 48.6122 76.3639 47.2212L76.4281 47.2811L66.0491 47.3068C65.972 47.3881 66.1561 47.1998 66.139 47.2212V49.5666C66.139 50.3285 66.139 51.0689 66.139 51.7794L66.0534 51.6981L73.4792 51.7366L75.6406 51.7623H76.2269H76.4324C76.3697 51.7685 76.3067 51.7685 76.244 51.7623H75.6791L73.5391 51.788L66.0576 51.8265H65.9763V51.788C65.9763 51.0775 65.9763 50.337 65.9763 49.5752V47.2298C65.9549 47.2298 66.1432 47.0628 66.0619 47.1399L76.4409 47.1656H76.5051V47.2298C76.5051 48.6379 76.4794 49.7978 76.4709 50.5896C76.4709 50.9705 76.4709 51.2701 76.4709 51.4926C76.4525 51.5924 76.4282 51.691 76.3981 51.788Z" fill="#E0E0E0"/>
<path d="M301.688 54.8653C301.685 54.8368 301.685 54.8081 301.688 54.7797C301.688 54.7197 301.688 54.6427 301.688 54.5485C301.688 54.3303 301.688 54.0307 301.688 53.6455C301.688 52.8579 301.688 51.7237 301.659 50.2942L301.714 50.3456L284.44 50.3841C284.479 50.3413 284.35 50.4697 284.526 50.2942V54.8567L284.44 54.7711L296.749 54.8096H300.383H301.363H301.62H301.714H301.385H300.422L296.809 54.8353L284.44 54.8738H284.354V54.7882C284.354 54.0521 284.354 53.3031 284.354 52.5369V50.2257L284.444 50.1359L301.718 50.1701H301.74V50.2257C301.74 51.6681 301.74 52.7937 301.71 53.6112C301.71 53.9879 301.71 54.2875 301.71 54.4972V54.7839C301.688 54.8396 301.688 54.8653 301.688 54.8653Z" fill="#E0E0E0"/>
<path d="M304.03 50.2943C304.027 50.2658 304.027 50.2371 304.03 50.2087V49.9647C304.03 49.7421 304.03 49.434 304.03 49.0488C304.03 48.2484 304.03 47.1142 303.995 45.7232L304.06 45.7874L293.651 45.796C293.574 45.873 293.758 45.689 293.736 45.7061V48.0515C293.736 48.8177 293.736 49.5581 293.736 50.2686L293.655 50.183L301.081 50.2258H303.221H303.803C303.873 50.2198 303.943 50.2198 304.013 50.2258C303.95 50.2327 303.887 50.2327 303.824 50.2258H303.259H301.119L293.638 50.2686H293.552V47.9659C293.552 47.585 293.552 47.1955 293.552 46.8018V45.6205C293.552 45.6205 293.719 45.4536 293.642 45.5349L304.021 45.5563H304.085V45.6162C304.085 47.0243 304.06 48.1842 304.051 48.9803C304.051 49.3612 304.051 49.6608 304.051 49.8834C304.055 50.0207 304.047 50.1581 304.03 50.2943Z" fill="#E0E0E0"/>
<path d="M43.6647 88.1979H26.3906V92.769H43.6647V88.1979Z" fill="#E0E0E0"/>
<path d="M56.0851 78.8119H38.811V83.3829H56.0851V78.8119Z" fill="#EBEBEB"/>
<path d="M48.792 88.1979C48.7877 88.1696 48.7877 88.1407 48.792 88.1123V87.8769C48.792 87.6629 48.792 87.3633 48.792 86.9781C48.792 86.1906 48.792 85.0564 48.762 83.6269L48.8177 83.6783L31.5436 83.7125L31.6292 83.6269V88.1894L31.5436 88.0995L43.8529 88.1423H47.4866H48.471H48.7278H48.8177H48.4924H47.5251L43.9128 88.168L31.5436 88.2065H31.458V88.1209C31.458 87.3847 31.458 86.6357 31.458 85.8696V83.5584L31.5479 83.4685L48.822 83.5028H48.8733V83.5584C48.8733 85.0008 48.8733 86.1478 48.8434 86.9439C48.8434 87.3205 48.8434 87.6159 48.8434 87.8299C48.8434 87.924 48.8434 87.9968 48.8434 88.0567C48.8336 88.1061 48.8163 88.1538 48.792 88.1979Z" fill="#E0E0E0"/>
<path d="M222.282 152.394H205.008V156.965H222.282V152.394Z" fill="#E0E0E0"/>
<path d="M234.702 143.008H217.428V147.579H234.702V143.008Z" fill="#EBEBEB"/>
<path d="M227.396 152.394C227.396 152.394 227.396 152.364 227.396 152.308V152.077C227.396 151.859 227.396 151.559 227.396 151.174C227.396 150.386 227.396 149.252 227.366 147.823L227.418 147.874L210.148 147.912C210.187 147.87 210.058 147.998 210.234 147.823V152.385L210.144 152.299L222.457 152.338L226.091 152.359H227.071H227.328H227.418H227.093H226.13L222.517 152.385L210.144 152.424H210.058V147.831L210.148 147.741L227.418 147.776H227.473V147.831C227.473 149.274 227.473 150.421 227.443 151.217C227.443 151.593 227.443 151.893 227.443 152.103C227.443 152.197 227.443 152.27 227.443 152.329C227.443 152.389 227.401 152.394 227.396 152.394Z" fill="#E0E0E0"/>
<path d="M88.8486 126.461C88.847 126.433 88.847 126.404 88.8486 126.376V126.14C88.8486 125.926 88.8486 125.627 88.8486 125.241C88.8486 124.454 88.8486 123.32 88.8229 121.89L88.8743 121.941L71.6002 121.976C71.6387 121.937 71.5146 122.066 71.6901 121.89V124.201C71.6901 124.967 71.6901 125.716 71.6901 126.453L71.6045 126.363L83.9138 126.405L87.5475 126.427H88.5319H88.7887C88.8186 126.424 88.8487 126.424 88.8786 126.427H88.5533H87.5903L83.9737 126.453L71.6045 126.491H71.4761V121.899C71.6516 121.723 71.5232 121.847 71.5617 121.809L88.8358 121.843H88.8914V121.899C88.8914 123.341 88.8657 124.467 88.8614 125.284C88.8614 125.661 88.8614 125.956 88.8614 126.17V126.397C88.8586 126.419 88.8543 126.44 88.8486 126.461Z" fill="#E0E0E0"/>
<path d="M91.1899 121.89C91.1899 121.89 91.1899 121.856 91.1899 121.804C91.1899 121.753 91.1899 121.659 91.1899 121.561C91.1899 121.334 91.1899 121.03 91.1899 120.645C91.1899 119.844 91.1899 118.71 91.1556 117.319L91.2198 117.383L80.8408 117.409L80.9307 117.319V119.664C80.9307 120.431 80.9307 121.171 80.9307 121.882L80.8451 121.796L88.2709 121.839L90.4323 121.86H91.0187H91.2241C91.1614 121.864 91.0985 121.864 91.0358 121.86H90.4708L88.3308 121.882L80.8494 121.92H80.7681V121.834C80.7681 121.124 80.7681 120.384 80.7681 119.617V117.272L80.8537 117.186H91.2327H91.2969V117.251C91.2969 118.659 91.2712 119.819 91.2626 120.615C91.2626 120.996 91.2626 121.295 91.2626 121.518C91.2473 121.643 91.223 121.768 91.1899 121.89Z" fill="#E0E0E0"/>
<path d="M299.955 201.49C299.955 201.549 236.414 201.601 158.052 201.601C79.6895 201.601 16.1357 201.549 16.1357 201.49C16.1357 201.43 79.6595 201.378 158.052 201.378C236.444 201.378 299.955 201.425 299.955 201.49Z" fill="#263238"/>
<path d="M284.89 185.581L287.638 196.499L292.303 204.503C292.383 204.639 292.434 204.791 292.452 204.948C292.471 205.105 292.458 205.265 292.412 205.417C292.367 205.568 292.291 205.709 292.189 205.83C292.087 205.951 291.961 206.05 291.819 206.121C291.656 206.204 291.476 206.247 291.293 206.247C291.11 206.247 290.929 206.204 290.766 206.121C288.669 204.991 280.982 200.792 280.828 199.983C280.644 199.046 277.16 188.662 277.16 188.662L284.89 185.581Z" fill="#F16624"/>
<g opacity="0.6">
<path d="M291.819 206.121L280.623 199.234L280.751 199.692C280.86 200.09 281.108 200.436 281.449 200.668C282.36 201.288 284.92 202.94 290.732 206.112C290.899 206.202 291.086 206.248 291.275 206.248C291.465 206.248 291.652 206.202 291.819 206.112V206.121Z" fill="white"/>
</g>
<g opacity="0.6">
<path d="M281.885 195.117C282.047 195.178 282.18 195.296 282.259 195.45C282.338 195.603 282.357 195.78 282.313 195.947C282.258 196.109 282.143 196.244 281.992 196.323C281.841 196.403 281.665 196.421 281.5 196.375C281.33 196.31 281.19 196.185 281.107 196.023C281.024 195.861 281.004 195.674 281.051 195.498C281.126 195.334 281.261 195.205 281.429 195.139C281.596 195.073 281.783 195.074 281.949 195.142" fill="white"/>
</g>
<path d="M288.044 202.063C288.214 201.653 288.458 201.277 288.763 200.955C289.116 200.685 289.519 200.488 289.948 200.372C289.948 200.343 289.79 200.295 289.52 200.33C289.176 200.386 288.855 200.54 288.595 200.771C288.334 201.003 288.145 201.304 288.048 201.639C287.971 201.896 288.001 202.063 288.044 202.063Z" fill="#263238"/>
<path d="M289.204 203.3C289.268 203.33 289.521 202.872 290.034 202.568C290.366 202.405 290.708 202.262 291.057 202.14C290.861 202.083 290.655 202.074 290.455 202.112C290.254 202.151 290.066 202.237 289.906 202.363C289.328 202.726 289.14 203.3 289.204 203.3Z" fill="#263238"/>
<path d="M286.075 200.599C286.762 199.671 287.705 198.963 288.789 198.562C288.189 198.607 287.615 198.823 287.134 199.184C286.653 199.545 286.286 200.036 286.075 200.599Z" fill="#263238"/>
<path d="M284.962 197.351C285.009 197.406 285.54 196.991 286.311 196.747C287.081 196.503 287.753 196.52 287.757 196.448C287.762 196.375 287.064 196.242 286.234 196.512C285.725 196.634 285.275 196.931 284.962 197.351Z" fill="#263238"/>
<path d="M284.072 194.166C284.503 193.882 284.971 193.659 285.463 193.503C285.971 193.421 286.488 193.408 287 193.465C287 193.439 286.854 193.336 286.572 193.259C286.19 193.168 285.792 193.168 285.411 193.259C285.029 193.351 284.675 193.531 284.376 193.786C284.145 193.982 284.051 194.145 284.072 194.166Z" fill="#263238"/>
<path d="M285.275 192.9C285.273 192.752 285.239 192.606 285.176 192.472C285.033 192.106 284.821 191.772 284.552 191.487C284.372 191.263 284.124 191.103 283.845 191.034C283.751 191.02 283.654 191.036 283.568 191.079C283.483 191.121 283.412 191.189 283.366 191.273C283.291 191.443 283.279 191.634 283.332 191.813C283.457 192.17 283.704 192.473 284.029 192.669C284.354 192.864 284.737 192.94 285.112 192.883C285.481 192.821 285.824 192.65 286.095 192.392C286.367 192.134 286.555 191.801 286.636 191.436C286.657 191.344 286.658 191.248 286.638 191.156C286.618 191.063 286.578 190.976 286.52 190.901C286.458 190.827 286.372 190.777 286.277 190.758C286.182 190.74 286.084 190.754 285.998 190.798C285.748 190.93 285.537 191.124 285.386 191.363C285.158 191.68 284.987 192.035 284.881 192.412C284.83 192.548 284.809 192.694 284.817 192.84C284.984 192.351 285.223 191.891 285.527 191.474C285.667 191.271 285.853 191.105 286.071 190.991C286.119 190.969 286.172 190.962 286.223 190.972C286.275 190.982 286.322 191.008 286.358 191.046C286.391 191.099 286.413 191.157 286.422 191.218C286.432 191.279 286.429 191.342 286.413 191.402C286.33 191.714 286.16 191.996 285.923 192.216C285.686 192.435 285.391 192.583 285.074 192.643C284.755 192.689 284.431 192.625 284.154 192.462C283.877 192.298 283.664 192.045 283.55 191.744C283.507 191.624 283.507 191.492 283.55 191.372C283.574 191.324 283.612 191.286 283.659 191.261C283.705 191.237 283.759 191.227 283.811 191.235C284.048 191.292 284.26 191.422 284.419 191.607C284.778 191.984 285.068 192.422 285.275 192.9Z" fill="#263238"/>
<path d="M248.116 187.306L248.724 196.473C248.724 196.473 239.599 199.504 239.543 201.211L257.378 201.34L257.018 187.01L248.116 187.306Z" fill="#F16624"/>
<g opacity="0.6">
<path d="M254.232 195.536C254.405 195.584 254.554 195.694 254.651 195.845C254.748 195.995 254.786 196.176 254.758 196.354C254.717 196.528 254.611 196.68 254.462 196.779C254.312 196.878 254.13 196.915 253.954 196.884C253.773 196.833 253.618 196.718 253.516 196.561C253.414 196.403 253.374 196.214 253.402 196.028C253.462 195.851 253.59 195.704 253.756 195.619C253.923 195.533 254.117 195.516 254.296 195.57" fill="white"/>
</g>
<g opacity="0.6">
<path d="M257.378 201.34L257.343 199.893L240.108 200.372C239.925 200.465 239.768 200.602 239.652 200.771C239.536 200.94 239.465 201.136 239.444 201.34H257.378Z" fill="white"/>
</g>
<path d="M248.433 196.392C248.433 196.482 248.861 196.508 249.289 196.773C249.717 197.038 249.965 197.398 250.046 197.364C250.128 197.329 249.978 196.829 249.447 196.508C248.916 196.187 248.411 196.315 248.433 196.392Z" fill="#263238"/>
<path d="M246.588 197.222C246.588 197.308 246.952 197.445 247.256 197.804C247.559 198.164 247.662 198.549 247.748 198.545C247.833 198.541 247.876 198.044 247.487 197.603C247.097 197.162 246.588 197.141 246.588 197.222Z" fill="#263238"/>
<path d="M245.595 199.495C245.672 199.495 245.779 199.067 245.543 198.601C245.308 198.134 244.893 197.954 244.859 198.027C244.824 198.1 245.081 198.348 245.287 198.738C245.492 199.127 245.505 199.487 245.595 199.495Z" fill="#263238"/>
<path d="M248.527 194.286C248.565 194.368 248.955 194.235 249.455 194.252C249.956 194.269 250.337 194.415 250.38 194.338C250.423 194.261 250.042 193.965 249.464 193.948C248.886 193.931 248.48 194.222 248.527 194.286Z" fill="#263238"/>
<g opacity="0.3">
<path d="M248.24 189.12L248.347 190.755L257.104 190.409L257.069 188.936L248.24 189.12Z" fill="black"/>
</g>
<path d="M248.437 192.437C248.733 192.506 249.042 192.494 249.332 192.403C249.651 192.336 249.961 192.231 250.256 192.091C250.432 192.007 250.6 191.909 250.761 191.8C250.86 191.743 250.949 191.669 251.022 191.581C251.077 191.518 251.11 191.438 251.114 191.355C251.119 191.271 251.096 191.188 251.048 191.119C251.003 191.06 250.944 191.012 250.877 190.98C250.811 190.947 250.737 190.93 250.663 190.931C250.549 190.934 250.437 190.952 250.329 190.986C250.14 191.04 249.957 191.11 249.781 191.196C249.482 191.339 249.209 191.53 248.972 191.761C248.57 192.155 248.441 192.484 248.471 192.502C248.501 192.519 248.702 192.249 249.113 191.92C249.353 191.73 249.617 191.572 249.896 191.449C250.062 191.377 250.232 191.319 250.406 191.273C250.59 191.222 250.752 191.213 250.804 191.295C250.855 191.376 250.804 191.342 250.804 191.397C250.747 191.458 250.682 191.511 250.611 191.556C250.207 191.835 249.762 192.051 249.293 192.198C249.002 192.258 248.716 192.338 248.437 192.437Z" fill="#263238"/>
<path d="M248.557 192.557C248.714 192.301 248.787 192.001 248.766 191.701C248.771 191.37 248.719 191.04 248.612 190.725C248.548 190.54 248.466 190.361 248.368 190.19C248.316 190.075 248.235 189.975 248.133 189.9C248.032 189.825 247.912 189.778 247.786 189.762C247.707 189.768 247.632 189.795 247.568 189.842C247.503 189.888 247.453 189.951 247.423 190.023C247.379 190.129 247.352 190.24 247.341 190.353C247.309 190.551 247.309 190.754 247.341 190.952C247.398 191.285 247.538 191.599 247.748 191.864C248.112 192.318 248.48 192.407 248.484 192.377C248.488 192.348 248.24 192.172 247.94 191.744C247.778 191.493 247.673 191.21 247.632 190.914C247.609 190.743 247.609 190.57 247.632 190.4C247.632 190.208 247.722 190.053 247.795 190.071C247.868 190.088 248.039 190.203 248.116 190.353C248.206 190.505 248.285 190.664 248.351 190.828C248.458 191.113 248.526 191.411 248.552 191.714C248.591 192.215 248.505 192.544 248.557 192.557Z" fill="#263238"/>
<path d="M248.073 107.347L275.242 107.141L288.374 193.383L277.096 194.813L262.646 123.902L258.319 195.065L258.307 195.279L246.113 195.065L248.073 107.347Z" fill="#263238"/>
<path d="M261.735 122.044C261.745 121.693 261.722 121.342 261.666 120.996C261.602 120.345 261.534 119.455 261.504 118.466C261.474 117.477 261.504 116.579 261.504 115.932C261.537 115.581 261.537 115.227 261.504 114.875C261.408 115.216 261.353 115.566 261.341 115.92C261.187 117.617 261.239 119.327 261.495 121.013C261.529 121.366 261.609 121.713 261.735 122.044Z" fill="#455A64"/>
<path d="M259.496 115.132C259.496 115.132 259.449 115.081 259.338 115.072C259.184 115.067 259.034 115.114 258.91 115.205C258.808 115.274 258.724 115.367 258.665 115.474C258.605 115.582 258.572 115.702 258.567 115.825C258.58 115.979 258.638 116.125 258.733 116.246C258.828 116.368 258.956 116.458 259.102 116.508C259.248 116.557 259.405 116.563 259.554 116.525C259.703 116.487 259.837 116.406 259.941 116.292C260.013 116.192 260.06 116.076 260.08 115.954C260.099 115.832 260.09 115.708 260.053 115.59C260.006 115.436 259.908 115.303 259.774 115.213C259.68 115.153 259.616 115.153 259.612 115.162C259.607 115.171 259.83 115.29 259.898 115.633C259.918 115.725 259.918 115.82 259.897 115.911C259.876 116.003 259.836 116.089 259.779 116.164C259.7 116.239 259.602 116.292 259.495 116.316C259.388 116.34 259.277 116.333 259.173 116.298C259.07 116.263 258.978 116.199 258.908 116.115C258.838 116.031 258.793 115.929 258.777 115.821C258.778 115.728 258.799 115.636 258.838 115.551C258.877 115.466 258.934 115.39 259.004 115.329C259.244 115.094 259.496 115.162 259.496 115.132Z" fill="#455A64"/>
<path d="M266.456 113.386C266.456 113.386 266.533 113.48 266.704 113.613C266.945 113.801 267.204 113.965 267.478 114.101C267.888 114.307 268.318 114.467 268.762 114.58C269.303 114.715 269.858 114.785 270.415 114.79C270.973 114.784 271.528 114.715 272.071 114.584C272.515 114.47 272.946 114.308 273.355 114.101C273.629 113.966 273.888 113.804 274.13 113.617C274.297 113.484 274.386 113.403 274.378 113.39C274.369 113.377 273.976 113.647 273.286 113.959C272.883 114.141 272.463 114.284 272.032 114.387C270.975 114.636 269.875 114.636 268.818 114.387C268.387 114.288 267.966 114.144 267.564 113.959C266.858 113.643 266.481 113.352 266.456 113.386Z" fill="#455A64"/>
<path d="M249.635 115.213C249.87 115.316 250.124 115.37 250.38 115.372C251.623 115.464 252.858 115.11 253.864 114.374C254.08 114.238 254.267 114.059 254.412 113.848C253.038 114.867 251.34 115.353 249.635 115.213Z" fill="#455A64"/>
<path d="M284.072 194.167C284.041 194.107 284.016 194.046 283.995 193.982C283.957 193.858 283.901 193.666 283.841 193.413C283.721 192.908 283.559 192.159 283.362 191.188C282.977 189.249 282.446 186.441 281.812 182.961C280.528 176.006 278.859 166.389 276.997 155.762C275.136 145.135 273.436 135.526 272.212 128.554C271.583 125.083 271.074 122.271 270.723 120.315C270.539 119.352 270.398 118.603 270.295 118.077C270.244 117.828 270.205 117.649 270.179 117.495L270.132 117.298C270.132 117.298 270.132 117.366 270.154 117.499C270.175 117.632 270.209 117.837 270.248 118.085C270.338 118.607 270.462 119.369 270.629 120.328C270.963 122.288 271.446 125.104 272.045 128.58L276.753 155.801C278.611 166.428 280.327 176.041 281.633 182.991C282.283 186.467 282.835 189.274 283.251 191.205C283.666 193.135 283.991 194.201 284.072 194.167Z" fill="#455A64"/>
<path d="M249.443 193.195C249.443 193.195 249.443 193.126 249.443 192.994C249.443 192.861 249.443 192.66 249.443 192.412C249.443 191.89 249.443 191.128 249.443 190.169C249.443 189.21 249.443 187.999 249.481 186.617C249.52 185.234 249.511 183.655 249.558 181.909C249.627 178.425 249.76 174.277 249.961 169.676C250.162 165.075 250.466 160.016 250.855 154.718C251.245 149.419 251.711 144.369 252.203 139.785C252.696 135.201 253.179 131.084 253.633 127.625C253.847 125.913 254.061 124.338 254.254 122.964C254.446 121.591 254.609 120.396 254.75 119.451C254.891 118.505 254.99 117.739 255.062 117.229C255.097 116.981 255.122 116.801 255.139 116.647C255.143 116.582 255.143 116.516 255.139 116.45C255.139 116.45 255.139 116.514 255.101 116.647C255.062 116.78 255.041 116.977 255.003 117.221C254.917 117.739 254.797 118.483 254.647 119.438C254.497 120.392 254.309 121.578 254.112 122.947C253.915 124.317 253.684 125.879 253.457 127.608C252.987 131.062 252.482 135.18 251.981 139.763C251.48 144.347 251.018 149.393 250.616 154.701C250.213 160.008 249.939 165.063 249.738 169.681C249.537 174.299 249.43 178.433 249.383 181.921C249.349 183.663 249.349 185.238 249.336 186.629C249.323 188.02 249.336 189.197 249.336 190.182C249.336 191.166 249.336 191.894 249.336 192.425C249.336 192.673 249.336 192.853 249.336 193.007C249.336 193.161 249.443 193.195 249.443 193.195Z" fill="#455A64"/>
<path d="M221.349 74.1039L238.328 79.0602L247.838 73.4448L255.054 82.0048L241.593 87.8342C240.642 88.2461 239.611 88.4421 238.575 88.4081C237.539 88.3741 236.523 88.1108 235.601 87.6373L218.909 79.0773L221.349 74.1039Z" fill="#FFBE9D"/>
<path d="M217.475 72.469L215.374 71.3776L209.527 68.3345C209.423 68.2927 209.308 68.2843 209.199 68.3104C209.089 68.3366 208.991 68.396 208.917 68.4805C208.842 68.565 208.796 68.6704 208.785 68.7823C208.773 68.8941 208.796 69.0068 208.851 69.1049L212.579 72.1694L211.004 72.76C210.694 72.8793 210.439 73.1097 210.289 73.4063L209.463 75.0541C209.463 75.0541 208.513 75.1568 208.419 75.7689C208.325 76.3809 209.035 76.5992 209.035 76.5992L208.855 77.3182C208.814 77.4841 208.809 77.6567 208.839 77.8248C208.869 77.993 208.935 78.1529 209.031 78.2941C209.934 78.6664 210.653 76.7704 210.653 76.7704L211.62 76.8731L212.673 79.0131C214.013 79.3384 213.379 77.2241 213.379 77.2241L213.97 77.3739C214.561 77.5194 214.869 77.9388 215.789 78.4096C216.709 78.8804 218.511 79.0473 218.511 79.0473L219.846 80.0317L223.912 74.472L217.475 72.469Z" fill="#FAFAFA"/>
<path d="M217.475 72.469L217.591 72.4904L217.92 72.5845L219.204 72.9654L223.947 74.4121L224.045 74.442L223.981 74.5234L219.953 80.0874L219.894 80.1687L219.817 80.1088L218.477 79.1287H218.528C217.626 79.0595 216.739 78.8635 215.892 78.5466C215.466 78.3368 215.059 78.0905 214.676 77.8104C214.491 77.6761 214.288 77.5681 214.073 77.4894C213.854 77.4295 213.61 77.3738 213.379 77.3139L213.508 77.177C213.626 77.5707 213.675 77.9819 213.653 78.3925C213.648 78.5094 213.62 78.6241 213.57 78.7299C213.52 78.8357 213.449 78.9305 213.362 79.0088C213.26 79.0719 213.146 79.1128 213.028 79.129C212.909 79.1452 212.788 79.1364 212.673 79.103H212.626L212.6 79.0516C212.267 78.3754 211.907 77.6563 211.543 76.9116L211.633 76.9758L210.777 76.8859H210.657L210.773 76.8174C210.638 77.1573 210.464 77.4805 210.255 77.7804C210.159 77.9473 210.031 78.0929 209.877 78.2085C209.723 78.324 209.547 78.407 209.36 78.4524H209.206C209.155 78.4524 209.108 78.4267 209.057 78.4139H209.022H209.001C209.001 78.4139 208.907 78.3368 208.95 78.3754L208.911 78.3154L208.847 78.187C208.771 78.013 208.731 77.825 208.731 77.6349C208.741 77.4535 208.773 77.2739 208.825 77.0999L208.95 76.5992L209.031 76.7361C208.799 76.6766 208.595 76.5391 208.453 76.3467C208.386 76.2448 208.343 76.1289 208.329 76.0078C208.314 75.8868 208.327 75.764 208.367 75.649C208.46 75.4318 208.631 75.2575 208.847 75.1611C209.044 75.0663 209.255 75.0042 209.472 74.977L209.386 75.037L209.908 73.9969L210.169 73.4876C210.249 73.303 210.364 73.1357 210.507 72.9954C210.653 72.8559 210.827 72.7494 211.017 72.683L211.535 72.4861L212.549 72.1009L212.519 72.2764L208.8 69.199C208.735 69.0825 208.71 68.9486 208.726 68.8164C208.742 68.6843 208.799 68.5606 208.89 68.4629C208.976 68.3699 209.088 68.3053 209.212 68.2778C209.336 68.2502 209.465 68.2611 209.583 68.3088L215.378 71.369L216.949 72.225L217.355 72.4518C217.404 72.4747 217.45 72.5035 217.492 72.5374C217.443 72.5191 217.394 72.4977 217.347 72.4733L216.919 72.2721L215.318 71.4674L209.493 68.4714C209.407 68.4375 209.313 68.4303 209.223 68.4509C209.133 68.4716 209.051 68.519 208.988 68.587C208.924 68.6591 208.884 68.7492 208.873 68.845C208.862 68.9408 208.882 69.0376 208.928 69.122V69.0963L212.665 72.1523L212.797 72.2635L212.635 72.3234L211.625 72.7129L211.107 72.9098C210.948 72.9704 210.802 73.0621 210.679 73.1794C210.554 73.3021 210.454 73.4473 210.383 73.6074L210.127 74.1168L209.604 75.1568L209.579 75.2082H209.519C209.159 75.2595 208.723 75.4136 208.599 75.7389C208.571 75.8216 208.562 75.9094 208.572 75.996C208.583 76.0826 208.612 76.1658 208.659 76.2397C208.772 76.3854 208.93 76.4905 209.108 76.5393L209.215 76.5692L209.189 76.6719L209.065 77.1727C209.015 77.3279 208.987 77.4892 208.98 77.652C208.979 77.811 209.011 77.9684 209.074 78.1143L209.129 78.217L209.159 78.2684C209.206 78.3026 209.099 78.217 209.112 78.2256H209.138C209.173 78.2366 209.209 78.2452 209.245 78.2513H209.352C209.664 78.1633 209.929 77.9556 210.088 77.6734C210.286 77.3881 210.449 77.0807 210.576 76.7575L210.61 76.6762H210.692H210.811L211.667 76.7661H211.732L211.757 76.8174C212.117 77.5493 212.476 78.2684 212.81 78.9574L212.737 78.9018C212.821 78.9271 212.909 78.9353 212.996 78.9257C213.082 78.9161 213.166 78.8891 213.242 78.8462C213.369 78.7232 213.442 78.5559 213.448 78.3797C213.469 77.9993 213.423 77.6182 213.311 77.254L213.264 77.07L213.444 77.117C213.683 77.177 213.906 77.2283 214.154 77.2968C214.388 77.3818 214.609 77.5 214.809 77.6478C215.183 77.9205 215.58 78.1611 215.994 78.3668C216.82 78.6766 217.684 78.8697 218.562 78.9403H218.588H218.61L219.945 79.929L219.808 79.9504C221.353 77.8489 222.735 75.9743 223.874 74.4207L223.912 74.5362L219.204 73.0211L217.946 72.5931L217.621 72.4818L217.475 72.469Z" fill="#263238"/>
<path d="M213.534 77.254C213.534 77.2754 213.067 77.1941 212.275 77.0785C211.484 76.963 210.362 76.8175 209.044 76.7062H209.065C208.944 76.7066 208.824 76.6768 208.716 76.6195C208.609 76.5622 208.517 76.4791 208.45 76.3778C208.382 76.2764 208.341 76.1599 208.33 76.0387C208.319 75.9175 208.337 75.7954 208.385 75.6833C208.49 75.4665 208.648 75.28 208.845 75.1415C209.042 75.003 209.271 74.9169 209.51 74.8915C210.015 74.8101 210.478 74.7845 210.931 74.7031C211.385 74.6218 211.822 74.5405 212.215 74.4335C212.609 74.3265 213.011 74.2152 213.367 74.0954C213.531 74.0509 213.684 73.9722 213.816 73.8643C213.869 73.8219 213.906 73.7634 213.923 73.6976C213.939 73.6318 213.933 73.5626 213.906 73.5005C213.838 73.3747 213.746 73.2629 213.636 73.1709L213.35 72.8799C213.17 72.6958 213.016 72.546 212.883 72.4262C212.618 72.1908 212.455 72.0923 212.455 72.0752C212.634 72.1397 212.8 72.2369 212.943 72.362C213.116 72.4956 213.282 72.6385 213.439 72.79L213.739 73.0682C213.869 73.1676 213.977 73.293 214.056 73.4363C214.098 73.529 214.108 73.6327 214.087 73.7321C214.065 73.8315 214.012 73.9213 213.936 73.9884C213.791 74.1189 213.618 74.2154 213.431 74.2709C213.071 74.3993 212.686 74.5234 212.271 74.6347C211.856 74.746 211.415 74.8401 210.961 74.9171C210.508 74.9942 210.011 75.0327 209.545 75.1098C209.342 75.1272 209.147 75.1961 208.979 75.31C208.81 75.4238 208.674 75.5788 208.582 75.7603C208.547 75.8381 208.532 75.9231 208.537 76.0081C208.542 76.0931 208.568 76.1756 208.612 76.2484C208.656 76.3212 208.718 76.3822 208.791 76.4261C208.864 76.4701 208.946 76.4957 209.031 76.5008C210.358 76.6292 211.479 76.8003 212.267 76.9544C212.661 77.0315 212.973 77.1 213.183 77.1556C213.304 77.169 213.423 77.2023 213.534 77.254Z" fill="#263238"/>
<path d="M213.379 74.2538C213.027 74.4083 212.638 74.4602 212.258 74.4035C212.059 74.396 211.861 74.3702 211.667 74.3265L211.77 74.2666C211.641 74.5576 211.539 74.7417 211.5 74.7288C211.462 74.716 211.5 74.5063 211.59 74.2024L211.612 74.1339H211.693L212.271 74.1724C212.642 74.1614 213.013 74.1886 213.379 74.2538Z" fill="#263238"/>
<path d="M251.711 67.226L240.771 75.619L248.441 85.7198L257.797 80.4083L251.711 67.226Z" fill="#F16624"/>
<path d="M251.711 67.226C253.295 66.2544 258.769 65.0517 258.769 65.0517L269.358 63.9004L278.543 68.1162L274.776 83.9222L278.08 113.724L246.558 115.436L251.711 67.226Z" fill="#F16624"/>
<path d="M269.709 80.4469H264.277V81.9107H269.709V80.4469Z" fill="#FAFAFA"/>
<path d="M269.717 81.9235H264.264V80.4384H269.717V81.9235ZM264.286 81.9235H269.695V80.464H264.286V81.9235Z" fill="#263238"/>
<path d="M250.38 76.3723C250.251 75.5702 250.198 74.7577 250.222 73.9456C250.173 73.1348 250.196 72.3213 250.29 71.5145C250.418 72.3168 250.471 73.1292 250.448 73.9413C250.497 74.7521 250.475 75.5656 250.38 76.3723Z" fill="#263238"/>
<path d="M270.252 49.3955L269.092 65.8093C268.996 67.0985 268.418 68.3041 267.472 69.1855C266.527 70.067 265.283 70.5593 263.991 70.5644C263.291 70.5616 262.6 70.4161 261.958 70.1366C261.317 69.8571 260.74 69.4495 260.262 68.939C259.784 68.4284 259.415 67.8256 259.178 67.1675C258.941 66.5094 258.841 65.8098 258.885 65.1117C258.987 63.5495 259.077 62.274 259.077 62.274C259.077 62.274 255.105 61.6534 255.058 57.6816C255.028 55.3875 255.426 50.1788 255.764 46.1941C255.874 44.893 256.469 43.6806 257.43 42.7974C258.392 41.9142 259.65 41.4248 260.956 41.4262H263.357C264.338 41.4837 265.297 41.7372 266.178 42.1716C267.059 42.6061 267.844 43.2126 268.487 43.9555C269.13 44.6983 269.617 45.5625 269.92 46.4968C270.223 47.4312 270.336 48.4168 270.252 49.3955Z" fill="#FFBE9D"/>
<path d="M259.073 62.2141C260.907 62.249 262.71 61.7364 264.251 60.7418C264.251 60.7418 263.027 63.6008 259.064 63.2456L259.073 62.2141Z" fill="#EB996E"/>
<path d="M256.573 51.2102C256.571 51.3579 256.627 51.5006 256.728 51.6078C256.83 51.715 256.969 51.7782 257.117 51.7838C257.189 51.7902 257.262 51.782 257.331 51.7596C257.4 51.7373 257.464 51.7013 257.518 51.6537C257.573 51.6062 257.618 51.5481 257.649 51.4829C257.681 51.4178 257.699 51.3468 257.703 51.2744C257.704 51.1264 257.648 50.9836 257.546 50.8766C257.443 50.7695 257.303 50.7065 257.155 50.7009C257.084 50.6951 257.011 50.7037 256.943 50.7264C256.874 50.749 256.811 50.7851 256.757 50.8326C256.702 50.8801 256.658 50.938 256.627 51.0028C256.595 51.0677 256.577 51.1382 256.573 51.2102Z" fill="#263238"/>
<path d="M256.449 50.1744C256.517 50.2515 256.95 49.9305 257.557 49.9348C258.165 49.939 258.614 50.2386 258.683 50.1659C258.751 50.0931 258.644 49.999 258.448 49.8577C258.184 49.6751 257.87 49.578 257.549 49.5795C257.23 49.5767 256.919 49.6774 256.663 49.8663C256.479 50.0075 256.415 50.1445 256.449 50.1744Z" fill="#263238"/>
<path d="M262.441 51.2145C262.44 51.3622 262.496 51.5044 262.599 51.6108C262.701 51.7172 262.841 51.7793 262.989 51.7837C263.061 51.7896 263.133 51.7809 263.201 51.7583C263.27 51.7357 263.333 51.6996 263.387 51.6521C263.442 51.6046 263.486 51.5467 263.517 51.4818C263.549 51.417 263.567 51.3464 263.571 51.2744C263.572 51.1271 263.516 50.985 263.415 50.878C263.313 50.771 263.175 50.7075 263.027 50.7009C262.955 50.6951 262.882 50.7038 262.813 50.7267C262.744 50.7495 262.68 50.7859 262.626 50.8338C262.571 50.8817 262.526 50.9401 262.495 51.0055C262.463 51.0708 262.445 51.1419 262.441 51.2145Z" fill="#263238"/>
<path d="M262.45 50.29C262.518 50.3628 262.95 50.0461 263.558 50.0461C264.166 50.0461 264.615 50.3542 264.684 50.2815C264.752 50.2087 264.645 50.1146 264.448 49.969C264.185 49.7861 263.871 49.6903 263.55 49.6951C263.232 49.6932 262.922 49.7921 262.664 49.9776C262.48 50.1231 262.416 50.2558 262.45 50.29Z" fill="#263238"/>
<path d="M260.288 54.6642C259.967 54.565 259.635 54.5061 259.299 54.4887C259.141 54.4887 258.996 54.4416 258.97 54.3346C258.954 54.1735 258.99 54.0116 259.073 53.8724C259.218 53.4957 259.372 53.0977 259.535 52.6868C260.173 50.9962 260.639 49.6052 260.571 49.5795C260.502 49.5538 259.924 50.902 259.287 52.5755C259.132 53.0035 258.983 53.393 258.859 53.7696C258.759 53.9574 258.73 54.1745 258.777 54.3817C258.8 54.4369 258.835 54.4862 258.88 54.5262C258.924 54.5662 258.977 54.5958 259.034 54.6128C259.121 54.6355 259.21 54.647 259.299 54.647C259.627 54.6977 259.959 54.7035 260.288 54.6642Z" fill="#263238"/>
<path d="M262.291 48.1714C262.351 48.3384 262.959 48.2613 263.678 48.3469C264.397 48.4325 264.962 48.6294 265.069 48.4796C265.112 48.4068 265.009 48.2528 264.774 48.0901C264.462 47.8933 264.11 47.7702 263.743 47.7301C263.377 47.6901 263.006 47.7341 262.659 47.859C262.398 47.9617 262.266 48.0944 262.291 48.1714Z" fill="#263238"/>
<path d="M256.453 48.976C256.56 49.1173 256.984 48.976 257.489 48.976C257.994 48.976 258.422 49.0659 258.521 48.9204C258.563 48.8519 258.495 48.715 258.311 48.5823C258.059 48.4251 257.767 48.3461 257.471 48.3552C257.174 48.3643 256.887 48.4612 256.646 48.6336C256.466 48.7663 256.406 48.9118 256.453 48.976Z" fill="#263238"/>
<path d="M268.912 52.3787C268.981 52.3487 271.643 51.5698 271.557 54.2876C271.472 57.0054 268.758 56.3548 268.758 56.2778C268.758 56.2007 268.912 52.3787 268.912 52.3787Z" fill="#FFBE9D"/>
<path d="M269.64 55.2762C269.64 55.2762 269.687 55.3105 269.769 55.349C269.824 55.3723 269.884 55.3843 269.944 55.3843C270.004 55.3843 270.064 55.3723 270.119 55.349C270.299 55.244 270.447 55.093 270.548 54.9117C270.65 54.7304 270.701 54.5253 270.697 54.3175C270.711 54.0852 270.673 53.8529 270.586 53.637C270.563 53.5509 270.519 53.4716 270.459 53.4061C270.399 53.3405 270.323 53.2905 270.239 53.2603C270.186 53.2441 270.128 53.2472 270.076 53.2691C270.025 53.291 269.982 53.3303 269.957 53.3802C269.918 53.4572 269.935 53.5129 269.918 53.5171C269.901 53.5214 269.863 53.4701 269.888 53.3545C269.906 53.2891 269.945 53.2317 270 53.1919C270.076 53.1368 270.172 53.1138 270.265 53.1277C270.374 53.1529 270.476 53.2054 270.56 53.2802C270.643 53.355 270.707 53.4498 270.744 53.5557C270.854 53.7954 270.903 54.0586 270.886 54.3218C270.891 54.5633 270.824 54.801 270.695 55.005C270.565 55.209 270.379 55.3704 270.158 55.4688C270.085 55.4881 270.008 55.4904 269.934 55.4756C269.86 55.4607 269.79 55.4291 269.73 55.3832C269.64 55.3404 269.61 55.2805 269.64 55.2762Z" fill="#EB996E"/>
<path d="M270.423 52.2845C270.165 52.2675 269.907 52.3211 269.677 52.4395C269.448 52.5578 269.254 52.7366 269.118 52.9565C268.938 53.346 268.9 53.7825 268.724 54.172C268.654 54.3738 268.519 54.5466 268.34 54.6629C268.161 54.7792 267.948 54.8324 267.736 54.814C267.596 54.7678 267.471 54.6864 267.372 54.5777C267.273 54.469 267.204 54.3366 267.171 54.1934C267.113 53.9038 267.113 53.6056 267.171 53.316C267.329 52.032 267.599 50.7908 267.65 49.5154C267.753 48.2317 267.473 46.9462 266.845 45.8217C266.526 45.2651 266.063 44.805 265.504 44.4901C264.945 44.1751 264.311 44.0171 263.67 44.0327C262.814 44.1012 262.052 44.542 261.213 44.6618C260.714 44.7264 260.206 44.6772 259.729 44.5178C259.252 44.3584 258.817 44.0931 258.456 43.7416C258.292 43.6079 258.121 43.4836 257.943 43.3693C257.951 43.0624 258.049 42.7647 258.225 42.5133C259.89 40.9725 262.886 40.5445 265.073 41.0966C266.19 41.3718 267.234 41.8868 268.132 42.606C269.03 43.3251 269.761 44.2311 270.274 45.261C271.219 47.3197 270.941 50.1873 270.419 52.2674" fill="#263238"/>
<path d="M255.717 45.5777C255.717 45.5777 266.139 42.2265 270.65 51.2445C270.65 51.2445 271.322 48.9846 271.322 47.7777C271.322 46.9687 270.839 42.158 265.891 40.6429C265.891 40.66 258.431 37.7967 255.717 45.5777Z" fill="#F16624"/>
<path d="M264.675 45.796C264.49 46.0946 264.238 46.3462 263.94 46.5308C263.641 46.7155 263.303 46.8282 262.953 46.8602C262.604 46.8921 262.251 46.8424 261.924 46.715C261.597 46.5875 261.303 46.3857 261.067 46.1256C260.963 46.3841 260.78 46.6035 260.545 46.7532C260.31 46.903 260.034 46.9756 259.755 46.961C259.477 46.9464 259.21 46.8453 258.992 46.6718C258.773 46.4982 258.615 46.2609 258.538 45.9929C258.255 46.308 257.91 46.5602 257.523 46.7334C257.329 46.8153 257.114 46.8358 256.908 46.7922C256.701 46.7486 256.513 46.643 256.368 46.4894C256.251 46.3088 256.194 46.0953 256.207 45.8804C256.221 45.6654 256.302 45.4603 256.441 45.2953C256.722 44.9692 257.086 44.724 257.494 44.5848C258.729 44.0414 260.086 43.8346 261.427 43.9856C262.775 44.1468 264.01 44.8194 264.877 45.8645" fill="#263238"/>
<g opacity="0.4">
<path d="M255.717 45.5777C256.587 44.6662 257.776 44.1277 259.034 44.0755C262.107 43.9385 267.86 45.6676 270.65 51.2445C270.65 51.2445 271.322 48.9846 271.322 47.7777C271.322 46.9687 270.839 42.158 265.891 40.6429C265.891 40.66 258.431 37.7967 255.717 45.5777Z" fill="black"/>
</g>
<path d="M270.213 50.1873C268.632 47.833 266.56 45.8487 264.14 44.3708C261.748 42.8728 257.784 41.3748 255.054 40.6686C254.246 40.4038 253.391 40.3148 252.546 40.4075C252.122 40.4629 251.723 40.6364 251.394 40.9081C251.064 41.1799 250.818 41.5389 250.684 41.944C250.427 42.9712 252.25 44.5591 253.11 45.184C253.951 45.7445 254.821 46.2588 255.717 46.7248C255.717 46.7248 255.696 44.8159 258.752 44.4221C262.907 43.8743 270.213 50.1873 270.213 50.1873Z" fill="#F16624"/>
<path d="M261.666 42.3977C260.729 41.8973 259.718 41.5519 258.67 41.3748C258.922 41.1786 259.197 41.0133 259.488 40.8826C260.307 41.0192 261.099 41.2866 261.833 41.6744L261.666 42.3977Z" fill="#E0E0E0"/>
<path d="M269.64 52.4728C269.462 52.6292 269.274 52.7722 269.075 52.9008C268.647 53.2176 268.193 53.5428 267.71 53.9024C267.083 54.4047 266.414 54.8528 265.711 55.242C266.281 54.675 266.906 54.166 267.577 53.7226C268.621 52.9265 269.571 52.383 269.64 52.4728Z" fill="#EBEBEB"/>
<path d="M269.897 56.4361C269.011 57.8022 267.743 58.877 266.25 59.5263C266.22 59.4663 267.153 58.9356 268.159 58.0796C269.165 57.2236 269.845 56.3933 269.897 56.4361Z" fill="#EBEBEB"/>
<path d="M254.96 55.1221C255.404 55.2549 255.857 55.3522 256.316 55.4132C258.285 55.3062 258.974 54.6428 262.189 55.3276C262.708 55.4373 263.243 55.4532 263.768 55.3746C264.404 55.2829 265.047 55.2371 265.69 55.2377L266.31 59.5177C266.31 59.5177 262.497 62.8518 259.064 62.4794C254.622 62.0086 254.099 56.8298 254.96 55.1221Z" fill="#FAFAFA"/>
<path d="M254.959 55.1221C254.959 55.1221 254.921 55.2334 254.844 55.4345C254.75 55.7383 254.688 56.051 254.66 56.3676C254.565 57.5435 254.779 58.7237 255.28 59.7916C255.626 60.522 256.148 61.1545 256.8 61.632C257.566 62.1563 258.465 62.453 259.393 62.488C260.423 62.5065 261.445 62.3037 262.389 61.8931C263.408 61.4729 264.374 60.9373 265.27 60.2966C265.621 60.0441 265.963 59.7916 266.28 59.5177V59.5605C266.062 58.0539 265.852 56.6115 265.664 55.2805L265.702 55.3147C264.943 55.3225 264.185 55.3797 263.434 55.4859C263.075 55.5107 262.714 55.492 262.36 55.4303C262.017 55.3661 261.692 55.289 261.367 55.242C260.762 55.1365 260.149 55.0849 259.535 55.0879C259.009 55.1037 258.485 55.161 257.968 55.2591C257.497 55.3404 257.074 55.4089 256.684 55.4388C256.511 55.4556 256.336 55.4556 256.162 55.4388C256.004 55.4388 255.862 55.3832 255.734 55.3532C255.225 55.2334 254.959 55.1435 254.959 55.1435C255.931 55.4547 256.973 55.4726 257.955 55.1949C259.084 54.9625 260.247 54.9509 261.379 55.1606C261.705 55.2034 262.039 55.2805 262.377 55.3447C262.724 55.4028 263.078 55.4201 263.43 55.396C264.184 55.2859 264.944 55.2272 265.706 55.2205H265.745V55.2548C265.942 56.5987 266.147 58.0411 266.366 59.5348C266.04 59.8087 265.698 60.0655 265.347 60.318C264.443 60.9609 263.47 61.4993 262.445 61.923C261.492 62.3354 260.462 62.5383 259.423 62.518C258.54 62.4992 257.68 62.2324 256.942 61.748C256.203 61.2637 255.615 60.5812 255.246 59.7787C254.748 58.7027 254.543 57.5142 254.651 56.3333C254.684 56.0145 254.751 55.7002 254.852 55.396C254.912 55.212 254.959 55.1221 254.959 55.1221Z" fill="#263238"/>
<path d="M255.319 57.6259C256.809 58.3509 258.449 58.7129 260.106 58.6824C261.762 58.6519 263.388 58.2297 264.85 57.4504C264.302 58.1892 263.612 58.8119 262.822 59.2823C261.884 59.7616 260.789 59.7873 259.732 59.783C258.892 59.8417 258.05 59.707 257.271 59.3893C256.528 58.9458 255.897 58.3382 255.426 57.6131" fill="#E0E0E0"/>
<path d="M264.397 56.5431C263.999 56.6966 263.586 56.8043 263.164 56.8641C262.158 57.0612 261.137 57.1785 260.112 57.215C259.088 57.2491 258.062 57.2047 257.044 57.0824C256.62 57.05 256.201 56.9711 255.794 56.847C256.223 56.8449 256.652 56.8706 257.078 56.924C259.105 57.0868 261.145 57.015 263.156 56.71C263.565 56.6278 263.98 56.5721 264.397 56.5431Z" fill="#E0E0E0"/>
<path d="M265.133 58.3279C264.902 58.6624 264.612 58.9523 264.277 59.1839C263.515 59.793 262.638 60.2414 261.697 60.5018C260.757 60.7622 259.774 60.8293 258.807 60.699C258.407 60.6653 258.014 60.564 257.647 60.3994C257.647 60.3651 258.101 60.4807 258.829 60.5406C260.733 60.7131 262.634 60.1867 264.179 59.0597C264.791 58.636 265.107 58.3022 265.133 58.3279Z" fill="#E0E0E0"/>
<path d="M265.202 57.352C265.099 57.4433 264.984 57.5184 264.859 57.5746C264.536 57.7546 264.2 57.9105 263.853 58.0411C263.339 58.2395 262.809 58.3955 262.27 58.5076C261.61 58.6426 260.94 58.7171 260.267 58.7302C259.591 58.7371 258.917 58.6841 258.251 58.5718C257.709 58.4748 257.176 58.3316 256.659 58.1438C256.307 58.0275 255.965 57.8844 255.636 57.7158C255.51 57.6647 255.393 57.5939 255.289 57.5061C255.289 57.4719 255.824 57.7287 256.706 57.9983C257.223 58.1573 257.751 58.2803 258.285 58.3664C259.594 58.5706 260.929 58.5489 262.231 58.3022C262.763 58.1961 263.286 58.0531 263.798 57.8742C264.671 57.5789 265.18 57.305 265.202 57.352Z" fill="#263238"/>
<path d="M262.009 57.352C260.327 57.6738 258.594 57.602 256.945 57.1423C256.945 57.0781 258.08 57.2664 259.475 57.3178C260.87 57.3691 262.004 57.2792 262.009 57.352Z" fill="#263238"/>
<path d="M214.749 110.706V76H263.023V110.706L237.437 110.92L214.749 110.706Z" fill="#F16624"/>
<g opacity="0.4">
<path d="M263.027 76H214.749V110.706H263.027V76Z" fill="black"/>
</g>
<path d="M237.437 110.92L214.749 110.706V76H237.365L237.437 110.92Z" fill="#F16624"/>
<path d="M226.981 76H223.972V82.0219H226.981V76Z" fill="#263238"/>
<path d="M222.35 103.045H216.358V109.037H222.35V103.045Z" fill="#FAFAFA"/>
<path d="M222.363 109.05H216.345V103.058H222.363V109.05ZM216.371 109.05H222.341V103.058H216.371V109.05Z" fill="#263238"/>
<path d="M274.322 83.9693L275.319 92.0457L260.339 100.935L262.668 106.071L279.694 99.1933C281.756 98.1447 283.52 96.5953 283.374 94.2756L282.557 82.9721L274.322 83.9693Z" fill="#FFBE9D"/>
<path d="M278.542 68.1162C279.998 69.3655 280.965 71.0892 281.273 72.9826C281.846 76.1113 283.794 84.8596 283.794 84.8596L273.522 86.0751V83.6697C273.522 83.6355 272.563 79.1586 272.563 79.1586L274.476 72.9826L278.542 68.1162Z" fill="#F16624"/>
<path d="M283.387 84.8981C283.157 84.9582 282.922 84.9997 282.685 85.0222L280.764 85.2876C279.142 85.5016 276.912 85.7841 274.412 86.0794L273.556 86.1821H273.441V86.0623C273.269 83.7725 273.081 81.7395 272.944 80.2757C272.876 79.5738 272.82 78.9917 272.777 78.5637C272.747 78.354 272.734 78.1421 272.739 77.9303C272.798 78.1344 272.838 78.3436 272.859 78.5551C272.923 78.9575 273 79.5438 273.094 80.2671C273.269 81.7266 273.488 83.7639 273.663 86.058L273.539 85.9553L274.395 85.8525C276.877 85.5529 279.103 85.2961 280.755 85.1249L282.685 84.9281C282.918 84.8985 283.153 84.8885 283.387 84.8981Z" fill="#263238"/>
<path d="M277.699 68.6812C277.699 68.7154 277.327 68.8738 276.758 69.2247C275.267 70.1426 274.109 71.5134 273.454 73.1366C273.201 73.7572 273.111 74.1681 273.073 74.1596C273.09 73.7898 273.168 73.4255 273.304 73.081C273.899 71.3794 275.102 69.9575 276.681 69.0878C276.995 68.8963 277.34 68.7588 277.699 68.6812Z" fill="#263238"/>
<path d="M260.108 100.486L257.908 101.492L256.967 101.128L252.165 100.828L249.169 101.492L249.083 101.663C249.083 103.294 252.169 102.652 253.115 102.908C254.061 103.165 253.2 105.181 253.2 105.181C253.2 105.181 248.955 110.715 248.214 112.029C247.846 112.692 247.966 113.056 248.18 113.257C248.29 113.352 248.43 113.407 248.576 113.411C248.721 113.416 248.864 113.371 248.98 113.283L250.547 112.175C250.547 112.175 254.861 112.427 255.156 112.282C255.566 111.973 255.921 111.596 256.205 111.169C258.251 109.206 260.543 107.517 263.023 106.144L260.108 100.486Z" fill="#FAFAFA"/>
<path d="M260.109 100.486C260.109 100.486 260.109 100.512 260.164 100.571C260.22 100.631 260.254 100.738 260.318 100.854L260.905 101.958C261.423 102.947 262.167 104.359 263.092 106.114L263.122 106.178L263.058 106.212C260.585 107.602 258.302 109.306 256.265 111.28C255.992 111.699 255.652 112.071 255.259 112.38C255.195 112.422 255.122 112.448 255.045 112.457H254.853H254.468H253.701C252.67 112.431 251.609 112.384 250.521 112.324L250.59 112.303L249.584 112.992L249.07 113.36C248.974 113.435 248.861 113.487 248.74 113.512C248.62 113.536 248.496 113.533 248.377 113.501C248.255 113.467 248.145 113.4 248.057 113.308C247.97 113.216 247.909 113.103 247.881 112.979C247.837 112.743 247.866 112.5 247.966 112.282C248.164 111.884 248.399 111.505 248.668 111.152C250.158 109.012 251.694 107 253.128 105.117V105.138C253.246 104.849 253.339 104.549 253.406 104.244C253.483 103.957 253.495 103.658 253.44 103.366C253.412 103.24 253.335 103.129 253.226 103.058C253.101 103 252.966 102.968 252.828 102.964C252.533 102.934 252.229 102.938 251.934 102.934C251.345 102.952 250.756 102.912 250.175 102.814C249.882 102.761 249.607 102.639 249.37 102.459C249.259 102.358 249.17 102.235 249.108 102.098C249.047 101.961 249.015 101.813 249.015 101.663V101.641L249.1 101.47V101.432H249.143L252.139 100.781H252.165L256.963 101.106L257.904 101.479H257.87L259.527 100.751L259.955 100.567L260.091 100.516L259.946 100.593L259.518 100.798L257.904 101.564H257.883L256.937 101.209L252.135 100.935H252.156L249.16 101.611L249.22 101.564L249.135 101.736V101.693C249.136 101.816 249.163 101.937 249.214 102.049C249.265 102.161 249.339 102.261 249.43 102.343C249.642 102.504 249.891 102.609 250.153 102.652C250.719 102.745 251.292 102.783 251.865 102.763C252.165 102.763 252.464 102.763 252.777 102.788C252.946 102.795 253.112 102.836 253.265 102.908C253.418 103.007 253.528 103.16 253.573 103.336C253.64 103.662 253.631 103.999 253.547 104.321C253.477 104.639 253.38 104.952 253.256 105.254C251.827 107.141 250.295 109.144 248.809 111.284C248.558 111.629 248.337 111.996 248.15 112.38C248.069 112.556 248.042 112.753 248.073 112.945C248.093 113.03 248.136 113.109 248.196 113.173C248.256 113.236 248.332 113.283 248.416 113.309C248.503 113.331 248.594 113.332 248.681 113.313C248.769 113.293 248.851 113.254 248.921 113.197L249.439 112.829L250.457 112.11L250.487 112.089H250.526C251.609 112.149 252.666 112.2 253.697 112.23H254.459H254.831H255.011C255.058 112.225 255.104 112.209 255.144 112.183C255.512 111.888 255.831 111.537 256.09 111.143C258.144 109.176 260.446 107.485 262.938 106.114L262.908 106.212L260.815 102.057C260.575 101.573 260.387 101.201 260.25 100.922L260.104 100.623L260.109 100.486Z" fill="#263238"/>
<path d="M254.604 108.46C253.983 109.138 253.321 109.779 252.622 110.377C252.062 110.895 251.548 111.357 251.176 111.687C250.984 111.88 250.77 112.049 250.538 112.192C251.117 111.473 251.764 110.811 252.468 110.214C253.119 109.559 253.835 108.971 254.604 108.46Z" fill="#263238"/>
<path d="M255.91 109.529C255.576 110.094 255.155 110.602 254.664 111.036C254.231 111.528 253.734 111.959 253.188 112.32C253.58 111.799 254.021 111.318 254.506 110.882C254.94 110.397 255.409 109.945 255.91 109.529Z" fill="#263238"/>
<path d="M54.0821 191.68C54.4416 190.289 53.53 188.889 52.5071 187.879C51.4842 186.869 50.2601 185.966 49.7294 184.631C48.8734 182.465 50.0247 179.666 48.5524 177.86C47.6964 176.798 46.1342 176.443 45.368 175.292C45.014 174.665 44.7789 173.979 44.6747 173.267C43.8543 169.67 42.0802 166.359 39.5387 163.684C39.3675 166.887 40.0608 170.078 41.546 172.921C42.1452 174.055 42.8771 175.159 43.074 176.426C43.395 178.48 42.2436 180.599 42.7487 182.619C43.3265 184.93 45.9244 186.471 46.0443 188.851C46.1513 190.862 44.3965 192.626 44.5292 194.633C44.6345 195.487 44.9411 196.304 45.4237 197.017C46.9773 199.585 49.2757 201.378 52.6997 201.323L56.9369 201.468L54.0821 191.68Z" fill="#F16624"/>
<g opacity="0.3">
<path d="M54.0821 191.68C54.4416 190.289 53.53 188.889 52.5071 187.879C51.4842 186.869 50.2601 185.966 49.7294 184.631C48.8734 182.465 50.0247 179.666 48.5524 177.86C47.6964 176.798 46.1342 176.443 45.368 175.292C45.014 174.665 44.7789 173.979 44.6747 173.267C43.8543 169.67 42.0802 166.359 39.5387 163.684C39.3675 166.887 40.0608 170.078 41.546 172.921C42.1452 174.055 42.8771 175.159 43.074 176.426C43.395 178.48 42.2436 180.599 42.7487 182.619C43.3265 184.93 45.9244 186.471 46.0443 188.851C46.1513 190.862 44.3965 192.626 44.5292 194.633C44.6345 195.487 44.9411 196.304 45.4237 197.017C46.9773 199.585 49.2757 201.378 52.6997 201.323L56.9369 201.468L54.0821 191.68Z" fill="black"/>
</g>
<path d="M57.8314 201.588C58.218 201.655 58.6132 201.655 58.9998 201.588C59.4694 201.518 59.931 201.402 60.378 201.241C60.9966 201.028 61.5753 200.712 62.09 200.308C62.3971 200.061 62.6369 199.74 62.7876 199.375C62.9184 198.96 62.9863 198.527 62.9888 198.091C62.9948 197.633 63.0277 197.176 63.0872 196.722C63.1712 196.238 63.347 195.774 63.6051 195.356C64.1059 194.479 64.9362 193.644 65.2016 192.459C65.4669 191.273 65.2829 190.019 65.086 188.744C64.8891 187.468 64.7008 186.086 65.1844 184.763C65.6681 183.441 66.5712 182.238 67.0334 180.744C67.4956 179.251 67.2816 177.616 67.3801 176.015C67.4097 175.202 67.5972 174.402 67.9322 173.661C68.2746 172.912 68.7497 172.202 69.122 171.414C69.8753 169.818 70.008 167.99 70.2134 166.235C70.3105 165.339 70.4117 164.436 70.5173 163.526C70.5774 162.609 70.7353 161.7 70.9881 160.817C71.2728 159.922 71.6115 159.046 72.0025 158.193C72.2041 157.751 72.3687 157.293 72.4947 156.823C72.5654 156.34 72.6111 155.853 72.6316 155.364C72.6764 154.385 72.6378 153.404 72.5161 152.432C72.4005 151.452 72.225 150.485 72.1223 149.505C72.1223 149.445 72.1223 149.389 72.1223 149.333L72.1009 149.141L71.9254 149.226C71.0267 149.684 70.2459 150.343 69.6442 151.152C69.0593 151.938 68.5881 152.803 68.2446 153.72C67.5384 155.544 67.2816 157.453 66.9264 159.284C66.5712 161.116 66.1175 162.897 65.1844 164.42C64.7179 165.174 64.1572 165.863 63.665 166.599C63.1394 167.316 62.7798 168.14 62.6122 169.013C62.3639 170.806 63.3526 172.381 63.1472 173.969C63.0464 174.749 62.7824 175.498 62.3725 176.169C61.9873 176.845 61.5165 177.453 61.0885 178.104C60.6507 178.72 60.2696 179.375 59.95 180.06C59.6501 180.736 59.4746 181.461 59.4321 182.2C59.3251 183.629 59.5306 184.986 59.4321 186.266C59.3155 187.484 58.9607 188.668 58.3878 189.75C57.8742 190.79 57.305 191.735 56.8256 192.647C56.5859 193.105 56.3676 193.55 56.1836 194C56.0152 194.433 55.8904 194.881 55.8112 195.339C55.6865 196.14 55.6764 196.954 55.7813 197.757C55.8945 198.878 56.3136 199.945 56.9925 200.843C57.0984 200.976 57.2143 201.101 57.3392 201.216C57.4236 201.303 57.5168 201.382 57.6174 201.451C57.7715 201.567 57.8571 201.618 57.8571 201.618C57.5559 201.378 57.2805 201.106 57.0353 200.809C56.3817 199.911 55.9852 198.851 55.8883 197.745C55.7932 196.951 55.8105 196.149 55.9396 195.361C56.0205 194.912 56.1467 194.474 56.3163 194.051C56.5081 193.596 56.7238 193.152 56.9626 192.72C57.4419 191.812 58.0197 190.875 58.5419 189.827C59.1328 188.728 59.5008 187.524 59.6247 186.283C59.736 184.973 59.5391 183.612 59.6461 182.217C59.6945 181.508 59.8684 180.814 60.1597 180.167C60.4731 179.493 60.8501 178.851 61.2854 178.249C61.7134 177.62 62.1713 176.991 62.5694 176.302C62.9996 175.605 63.2754 174.824 63.3783 174.012C63.5837 172.321 62.6036 170.733 62.8561 169.069C63.0212 168.232 63.3691 167.443 63.8748 166.757C64.3584 166.034 64.9234 165.345 65.3984 164.57C66.3614 163.017 66.828 161.189 67.1832 159.362C67.5384 157.534 67.7995 155.642 68.4929 153.857C68.8262 152.959 69.286 152.113 69.8582 151.345C70.4338 150.569 71.1808 149.936 72.041 149.496L71.8484 149.389C71.8484 149.44 71.8484 149.5 71.8484 149.56C71.9554 150.553 72.1352 151.525 72.2464 152.488C72.3572 153.442 72.3859 154.405 72.332 155.364C72.314 155.838 72.2711 156.311 72.2036 156.781C72.081 157.232 71.9221 157.673 71.7286 158.099C71.3356 158.963 70.994 159.849 70.7056 160.753C70.4518 161.652 70.2925 162.576 70.2306 163.509C70.1278 164.42 70.0294 165.324 69.9267 166.218C69.7255 167.999 69.5928 169.779 68.8695 171.32C68.51 172.086 68.0349 172.796 67.684 173.571C67.339 174.34 67.1457 175.168 67.1147 176.011C67.0248 177.646 67.2346 179.246 66.7937 180.693C66.3529 182.14 65.4284 183.338 64.9619 184.708C64.4954 186.077 64.6708 187.52 64.872 188.787C65.0732 190.053 65.3 191.303 65.009 192.429C64.7179 193.554 63.9561 194.393 63.4468 195.296C63.181 195.73 63.0035 196.211 62.9246 196.713C62.8661 197.173 62.836 197.636 62.8347 198.1C62.8353 198.518 62.7733 198.933 62.6507 199.332C62.5094 199.679 62.2844 199.985 61.9958 200.223C61.5009 200.622 60.9444 200.939 60.348 201.16C59.9086 201.326 59.4542 201.449 58.9913 201.528C58.7087 201.579 58.4224 201.606 58.1353 201.609L57.8314 201.588Z" fill="#263238"/>
<path d="M71.2233 151.675C71.2014 151.715 71.1869 151.758 71.1805 151.803C71.1548 151.901 71.1249 152.03 71.0864 152.184C71.005 152.518 70.9066 153.019 70.744 153.652C70.5813 154.285 70.1961 154.987 69.888 155.865C69.5798 156.742 69.1989 157.739 68.8779 158.861C68.5569 159.982 68.2701 161.245 67.9705 162.589C67.7139 164.025 67.2572 165.418 66.6138 166.727C66.2671 167.416 65.8733 168.114 65.5652 168.867C65.2588 169.648 65.0531 170.465 64.9531 171.298C64.7421 173.026 64.4378 174.74 64.0415 176.434C63.1855 179.91 62.3808 183.214 61.6447 186.227L59.6374 194.214C59.0767 196.473 58.623 198.31 58.3063 199.602L57.9553 201.074C57.9211 201.228 57.8954 201.353 57.874 201.455C57.8695 201.499 57.8695 201.544 57.874 201.588C57.874 201.588 57.874 201.549 57.9211 201.464C57.9682 201.378 57.9853 201.241 58.0324 201.087C58.1265 200.732 58.2592 200.231 58.4304 199.632C58.7685 198.348 59.2522 196.512 59.8428 194.261C60.4334 192.009 61.1268 189.287 61.91 186.291C62.6933 183.295 63.468 179.97 64.3282 176.494C64.7252 174.8 65.0295 173.086 65.2399 171.358C65.3353 170.547 65.5323 169.75 65.8262 168.987C66.1258 168.243 66.511 167.549 66.8577 166.847C67.5051 165.517 67.9605 164.102 68.2102 162.644C68.5012 161.296 68.7752 160.042 69.0662 158.916C69.3572 157.791 69.7039 156.776 70.0292 155.92C70.3545 155.064 70.714 154.333 70.8852 153.682C71.0564 153.031 71.112 152.539 71.1805 152.197C71.2062 152.043 71.2276 151.914 71.249 151.812C71.2466 151.765 71.238 151.719 71.2233 151.675Z" fill="#263238"/>
<path d="M58.5803 201.609C61.3495 199.966 62.1413 194.971 60.99 191.967C59.8386 188.962 57.8099 186.214 57.5018 183.009C57.2621 180.543 58.0667 178.018 57.5018 175.608C56.7271 172.36 53.5556 169.839 53.5898 166.501C53.5898 164.626 54.677 162.863 54.5956 160.988C54.4886 158.694 52.7253 156.871 51.6339 154.846C49.9647 151.752 49.8534 148.088 49.2842 144.617C48.7149 141.146 47.3881 137.427 44.3108 135.719C43.8571 138.668 43.0782 140.688 43.3221 144.681C43.412 146.115 45.0769 148.858 45.3038 152.004C45.4407 153.883 45.5349 155.762 45.6462 157.645C45.7574 159.528 45.8773 161.335 46.5321 163.047C47.0372 164.361 47.8461 165.55 48.2184 166.899C48.9204 169.445 47.9959 172.206 48.5651 174.787C49.0445 176.974 50.5596 178.857 50.8678 181.074C51.2958 184.19 49.2842 187.425 50.3156 190.4C50.8292 191.872 52.0276 193.058 52.3872 194.582C52.6525 195.763 52.3615 197.013 52.6054 198.198C52.9949 200.111 56.6415 201.597 58.5974 201.477" fill="#F16624"/>
<path d="M45.0643 138.646C45.0586 138.702 45.0586 138.758 45.0643 138.813C45.0643 138.937 45.0985 139.096 45.1242 139.297C45.1884 139.725 45.2612 140.345 45.4067 141.154C45.5522 141.963 45.9802 142.866 46.3141 143.988C46.6479 145.109 47.016 146.359 47.3284 147.78C47.6409 149.201 47.9105 150.776 48.1844 152.462C48.4583 154.148 48.7665 155.997 49.6054 157.757C49.9949 158.642 50.4271 159.528 50.7567 160.47C51.075 161.44 51.2706 162.447 51.3388 163.466C51.4957 165.629 51.7671 167.782 52.152 169.916C53.008 174.286 53.8083 178.446 54.5402 182.23C55.2721 186.013 56.0125 189.403 56.6032 192.262C57.1938 195.121 57.6775 197.398 58.0156 199.02C58.1825 199.803 58.3152 200.42 58.4093 200.856C58.4564 201.053 58.4949 201.211 58.5206 201.331C58.529 201.386 58.5448 201.439 58.5677 201.49C58.5743 201.436 58.5743 201.381 58.5677 201.327C58.5463 201.203 58.5163 201.044 58.4821 200.843C58.4008 200.415 58.2852 199.786 58.1354 198.999C57.8187 197.381 57.365 195.07 56.8086 192.223C56.2522 189.377 55.5589 185.957 54.8056 182.182L52.4387 169.869C52.0526 167.745 51.7797 165.602 51.6213 163.449C51.5502 162.412 51.3474 161.388 51.0178 160.402C50.6797 159.434 50.2388 158.548 49.8493 157.671C49.019 155.933 48.7237 154.123 48.4241 152.436C48.1245 150.75 47.8634 149.171 47.5339 147.75C47.2043 146.329 46.8448 145.053 46.4767 143.954C46.1086 142.854 45.6935 141.938 45.5265 141.146C45.3596 140.354 45.2783 139.721 45.197 139.301C45.1585 139.1 45.1328 138.942 45.1071 138.822C45.0997 138.762 45.0854 138.703 45.0643 138.646Z" fill="#263238"/>
<path d="M203.227 59.6247H189.471V78.9061H203.227V59.6247Z" fill="#244D73"/>
<path d="M203.227 59.6247H189.471V61.8589H203.227V59.6247Z" fill="#00182E"/>
<path d="M203.227 76.6719H189.471V78.9061H203.227V76.6719Z" fill="#00182E"/>
<path d="M200.514 63.2327H192.155V67.5898H200.514V63.2327Z" fill="#00182E"/>
<path d="M198.314 65.4113C198.292 65.4113 198.292 65.2358 198.211 64.9447C198.089 64.5312 197.835 64.169 197.488 63.9133C197.209 63.7054 196.878 63.5791 196.532 63.5483C196.186 63.5175 195.839 63.5834 195.528 63.7388C195.217 63.8942 194.956 64.1328 194.773 64.4282C194.59 64.7235 194.492 65.0638 194.492 65.4113C194.493 65.7914 194.61 66.1621 194.827 66.4741C195.044 66.786 195.351 67.0244 195.707 67.1575C196 67.2667 196.316 67.3012 196.626 67.2578C196.937 67.2145 197.231 67.0947 197.483 66.9093C197.827 66.6528 198.079 66.2927 198.202 65.8821C198.284 65.5867 198.284 65.4113 198.305 65.4113C198.326 65.4113 198.305 65.4541 198.305 65.5397C198.308 65.6621 198.295 65.7843 198.266 65.9035C198.171 66.3513 197.921 66.7512 197.56 67.0334C197.291 67.2468 196.971 67.3879 196.632 67.4433C196.293 67.4987 195.945 67.4666 195.621 67.3501C195.221 67.2073 194.875 66.9444 194.631 66.5973C194.386 66.2502 194.255 65.8359 194.255 65.4113C194.255 64.9866 194.386 64.5723 194.631 64.2252C194.875 63.8781 195.221 63.6152 195.621 63.4724C195.945 63.3579 196.293 63.3269 196.631 63.3822C196.97 63.4376 197.29 63.5775 197.56 63.7891C197.922 64.0721 198.172 64.4738 198.266 64.9233C198.295 65.0424 198.308 65.1647 198.305 65.2871C198.326 65.3685 198.322 65.4113 198.314 65.4113Z" fill="#455A64"/>
<path d="M193.118 69.2675C193.118 69.3319 193.099 69.3948 193.063 69.4483C193.027 69.5017 192.976 69.5434 192.917 69.5681C192.858 69.5927 192.792 69.5991 192.729 69.5866C192.666 69.574 192.608 69.543 192.563 69.4975C192.517 69.4521 192.486 69.3941 192.474 69.331C192.461 69.2679 192.467 69.2025 192.492 69.1431C192.517 69.0836 192.558 69.0328 192.612 68.9971C192.665 68.9613 192.728 68.9423 192.793 68.9423C192.879 68.9423 192.962 68.9765 193.023 69.0375C193.084 69.0985 193.118 69.1813 193.118 69.2675Z" fill="#263238"/>
<path d="M195.57 69.2675C195.57 69.3319 195.551 69.3948 195.515 69.4483C195.479 69.5017 195.429 69.5434 195.369 69.5681C195.31 69.5927 195.244 69.5991 195.181 69.5866C195.118 69.574 195.06 69.543 195.015 69.4975C194.969 69.4521 194.938 69.3941 194.926 69.331C194.913 69.2679 194.92 69.2025 194.944 69.1431C194.969 69.0836 195.011 69.0328 195.064 68.9971C195.117 68.9613 195.18 68.9423 195.245 68.9423C195.331 68.9423 195.414 68.9765 195.475 69.0375C195.536 69.0985 195.57 69.1813 195.57 69.2675Z" fill="#263238"/>
<path d="M198.023 69.2675C198.023 69.3527 197.989 69.4343 197.929 69.4945C197.868 69.5547 197.787 69.5885 197.702 69.5885C197.637 69.5894 197.573 69.5709 197.519 69.5355C197.465 69.5001 197.423 69.4493 197.398 69.3897C197.373 69.3301 197.366 69.2643 197.378 69.2009C197.391 69.1374 197.422 69.079 197.467 69.0333C197.513 68.9875 197.571 68.9564 197.635 68.944C197.698 68.9316 197.764 68.9384 197.824 68.9636C197.883 68.9887 197.934 69.0311 197.97 69.0852C198.005 69.1394 198.023 69.2028 198.023 69.2675Z" fill="#263238"/>
<path d="M192.793 71.6686C192.972 71.6686 193.118 71.523 193.118 71.3434C193.118 71.1637 192.972 71.0181 192.793 71.0181C192.613 71.0181 192.467 71.1637 192.467 71.3434C192.467 71.523 192.613 71.6686 192.793 71.6686Z" fill="#263238"/>
<path d="M195.57 71.3434C195.57 71.4077 195.551 71.4706 195.515 71.5241C195.479 71.5776 195.429 71.6193 195.369 71.6439C195.31 71.6685 195.244 71.6749 195.181 71.6624C195.118 71.6498 195.06 71.6188 195.015 71.5734C194.969 71.5279 194.938 71.4699 194.926 71.4068C194.913 71.3437 194.92 71.2783 194.944 71.2189C194.969 71.1594 195.011 71.1086 195.064 71.0729C195.117 71.0371 195.18 71.0181 195.245 71.0181C195.331 71.0181 195.414 71.0523 195.475 71.1133C195.536 71.1743 195.57 71.2571 195.57 71.3434Z" fill="#263238"/>
<path d="M197.702 71.6686C197.881 71.6686 198.027 71.523 198.027 71.3434C198.027 71.1637 197.881 71.0181 197.702 71.0181C197.522 71.0181 197.376 71.1637 197.376 71.3434C197.376 71.523 197.522 71.6686 197.702 71.6686Z" fill="#263238"/>
<path d="M192.793 73.7487C192.972 73.7487 193.118 73.6031 193.118 73.4234C193.118 73.2438 192.972 73.0981 192.793 73.0981C192.613 73.0981 192.467 73.2438 192.467 73.4234C192.467 73.6031 192.613 73.7487 192.793 73.7487Z" fill="#263238"/>
<path d="M195.57 73.4234C195.57 73.4878 195.551 73.5506 195.515 73.6041C195.479 73.6576 195.429 73.6993 195.369 73.7239C195.31 73.7486 195.244 73.755 195.181 73.7425C195.118 73.7299 195.06 73.6989 195.015 73.6534C194.969 73.6079 194.938 73.55 194.926 73.4869C194.913 73.4238 194.92 73.3584 194.944 73.2989C194.969 73.2395 195.011 73.1887 195.064 73.153C195.117 73.1172 195.18 73.0981 195.245 73.0981C195.331 73.0981 195.414 73.1324 195.475 73.1934C195.536 73.2544 195.57 73.3372 195.57 73.4234Z" fill="#263238"/>
<path d="M197.702 73.7487C197.881 73.7487 198.027 73.6031 198.027 73.4234C198.027 73.2438 197.881 73.0981 197.702 73.0981C197.522 73.0981 197.376 73.2438 197.376 73.4234C197.376 73.6031 197.522 73.7487 197.702 73.7487Z" fill="#263238"/>
<path d="M200.253 72.5203C200.903 72.5203 201.43 71.9934 201.43 71.3433C201.43 70.6933 200.903 70.1663 200.253 70.1663C199.603 70.1663 199.076 70.6933 199.076 71.3433C199.076 71.9934 199.603 72.5203 200.253 72.5203Z" fill="#F16624"/>
<path d="M184.059 16.3047H176.099V201.517H184.059V16.3047Z" fill="#00182E"/>
<path d="M176.638 24.0878H97.3682V201.49H176.638V24.0878Z" fill="#90ABC4"/>
<path d="M99.0503 16.3051H91.7144V201.518H99.0503V16.3051Z" fill="#00182E"/>
<path d="M184.06 16.3051H91.7144V24.1203H184.06V16.3051Z" fill="#00182E"/>
<path d="M183.612 16.264C183.612 16.264 183.518 16.3881 183.316 16.5764L182.46 17.3639L179.606 19.9319C178.501 20.9463 177.513 21.8793 176.836 22.5898C176.566 22.8587 176.313 23.1446 176.079 23.4458C176.019 23.5293 175.965 23.6165 175.916 23.7069C175.895 23.7711 175.882 23.8096 175.873 23.8096C175.865 23.8096 175.873 23.7711 175.873 23.6941C175.905 23.5903 175.949 23.491 176.006 23.3987C176.215 23.0663 176.454 22.7539 176.721 22.4657C177.586 21.5143 178.499 20.6072 179.456 19.7479C180.569 18.7335 181.596 17.8433 182.358 17.2141C182.734 16.8974 183.047 16.6492 183.265 16.478C183.373 16.3946 183.489 16.3229 183.612 16.264Z" fill="#455A64"/>
<path d="M98.5897 24.2504C98.5469 24.2889 96.8777 22.5384 94.8404 20.3384C92.8031 18.1385 91.211 16.3152 91.2538 16.2724C91.2966 16.2296 92.9658 17.9844 95.0031 20.1844C97.0403 22.3843 98.6368 24.2076 98.5897 24.2504Z" fill="#455A64"/>
<path d="M103.448 104.809H103.225C101.814 104.809 100.67 105.953 100.67 107.364V125.948C100.67 127.359 101.814 128.503 103.225 128.503H103.448C104.859 128.503 106.003 127.359 106.003 125.948V107.364C106.003 105.953 104.859 104.809 103.448 104.809Z" fill="#00182E"/>
<path d="M104.432 122.682C104.435 122.519 104.395 122.359 104.314 122.217C104.234 122.076 104.117 121.959 103.975 121.878C103.834 121.798 103.673 121.757 103.511 121.761C103.348 121.764 103.189 121.811 103.051 121.897C102.913 121.983 102.801 122.105 102.726 122.249C102.652 122.394 102.618 122.556 102.628 122.718C102.638 122.881 102.691 123.038 102.783 123.172C102.874 123.306 103 123.414 103.148 123.482V124.548C103.148 124.655 103.19 124.757 103.266 124.832C103.341 124.908 103.444 124.95 103.55 124.95C103.603 124.951 103.656 124.941 103.706 124.921C103.755 124.901 103.8 124.871 103.838 124.834C103.875 124.797 103.905 124.752 103.926 124.703C103.946 124.654 103.957 124.601 103.957 124.548V123.504C104.105 123.424 104.227 123.305 104.311 123.16C104.395 123.015 104.437 122.849 104.432 122.682Z" fill="#90ABC4"/>
<path d="M116.596 112.787H104.624C103.875 112.787 103.268 113.394 103.268 114.143V114.263C103.268 115.012 103.875 115.62 104.624 115.62H116.596C117.345 115.62 117.952 115.012 117.952 114.263V114.143C117.952 113.394 117.345 112.787 116.596 112.787Z" fill="#00182E"/>
<path d="M108.605 115.701C108.457 115.732 108.306 115.745 108.156 115.74L106.94 115.791C106.335 115.822 105.728 115.802 105.125 115.731C104.763 115.689 104.407 115.6 104.068 115.466C103.687 115.318 103.365 115.05 103.148 114.704C103.047 114.521 102.989 114.318 102.979 114.109C102.97 113.901 103.008 113.693 103.092 113.501C103.18 113.321 103.32 113.171 103.495 113.073C103.653 112.985 103.821 112.915 103.995 112.864C104.585 112.694 105.198 112.621 105.81 112.65C106.324 112.65 106.739 112.675 107.026 112.692C107.17 112.693 107.313 112.708 107.454 112.739C106.902 112.794 106.347 112.816 105.793 112.804C105.2 112.801 104.61 112.886 104.043 113.056C103.882 113.089 103.731 113.154 103.598 113.25C103.465 113.345 103.354 113.467 103.272 113.608C103.204 113.768 103.174 113.942 103.183 114.116C103.193 114.289 103.242 114.458 103.328 114.61C103.513 114.919 103.794 115.159 104.128 115.295C104.447 115.426 104.783 115.514 105.125 115.556C105.717 115.635 106.313 115.672 106.91 115.667C107.475 115.627 108.042 115.639 108.605 115.701Z" fill="#455A64"/>
<path d="M133.818 63.8105C133.818 63.8105 133.818 63.7591 133.818 63.665C133.818 63.5708 133.818 63.4338 133.818 63.2584C133.818 62.8946 133.818 62.3681 133.818 61.6833C133.818 60.3052 133.818 58.2978 133.793 55.7512C133.793 50.6623 133.763 43.4334 133.741 34.8349L133.84 34.9333H110.3L110.411 34.822C110.411 45.522 110.411 55.5073 110.411 63.7976L110.317 63.7035L127.369 63.7506L132.141 63.7762H133.403H132.158L127.407 63.8019L110.287 63.849H110.193V63.7591C110.193 55.4688 110.193 45.5006 110.193 34.7835V34.6722H110.308H133.848H133.951V34.7707C133.951 43.3949 133.913 50.6495 133.9 55.7427C133.9 58.2764 133.9 60.2795 133.874 61.6534C133.874 62.3296 133.874 62.8475 133.874 63.207C133.874 63.3782 133.874 63.5109 133.874 63.605C133.865 63.6758 133.847 63.745 133.818 63.8105Z" fill="#263238"/>
<path d="M129.949 60.2239C129.946 60.1868 129.946 60.1496 129.949 60.1126C129.949 60.0313 129.949 59.9285 129.949 59.8001C129.949 59.5134 129.949 59.1111 129.949 58.5889C129.949 57.5275 129.949 55.9909 129.924 54.0478C129.924 50.1573 129.894 44.6318 129.872 38.1348L129.975 38.2332H113.767C113.741 38.2332 113.976 38.0235 113.878 38.1262V39.6542C113.878 40.1635 113.878 40.6728 113.878 41.1779V44.1739C113.878 46.1469 113.878 48.0687 113.878 49.9262C113.878 53.6412 113.878 57.1037 113.878 60.1982L113.788 60.104L125.545 60.1554H128.824H129.68H129.983H129.697H128.841L125.584 60.1811L113.767 60.2281H113.672V60.1383C113.672 57.0353 113.672 53.5727 113.672 49.8663C113.672 48.0087 113.672 46.087 113.672 44.1139V38.1433L113.788 38.0278H129.996H130.095V38.1305C130.073 44.6746 130.056 50.2044 130.043 54.112C130.043 56.0423 130.043 57.5703 130.018 58.6274C130.018 59.141 130.018 59.5348 130.018 59.8173V60.1211C129.949 60.1896 129.949 60.2239 129.949 60.2239Z" fill="#263238"/>
<path d="M133.819 124.976C133.819 124.976 133.819 124.882 133.819 124.706C133.819 124.531 133.819 124.278 133.819 123.927C133.819 123.238 133.819 122.215 133.819 120.931C133.819 118.303 133.819 114.481 133.789 109.679C133.789 100.075 133.759 86.5673 133.742 70.8212L133.844 70.9282H110.304L110.416 70.8169C110.416 91.913 110.416 111.049 110.386 124.989L110.304 124.912L127.493 124.955H132.201H133.425H133.853C133.853 124.955 133.72 124.955 133.425 124.955H132.218L127.548 124.976L110.309 125.019H110.231V124.976C110.231 111.032 110.232 91.9001 110.197 70.804V70.6927H133.938V70.7997C133.917 86.5544 133.9 100.105 133.887 109.748C133.887 114.546 133.866 118.359 133.861 120.978C133.861 122.262 133.861 123.285 133.861 123.974C133.861 124.308 133.861 124.565 133.861 124.741C133.861 124.916 133.819 124.976 133.819 124.976Z" fill="#263238"/>
<path d="M129.949 121.98C129.949 121.98 129.949 121.894 129.949 121.74C129.949 121.586 129.949 121.342 129.949 121.043C129.949 120.422 129.949 119.523 129.949 118.359C129.949 116.018 129.949 112.62 129.919 108.365C129.919 99.8567 129.889 87.9112 129.868 74.1467L129.979 74.2537H113.741L113.852 74.1424C113.852 93.2655 113.822 110.428 113.814 121.976L113.741 121.903L125.631 121.941H128.828H129.658H129.949H129.675H128.858L125.674 121.963L113.741 122.001H113.664V121.98C113.664 110.424 113.643 93.2697 113.625 74.1467V74.044H130.056V74.151C130.035 87.9454 130.018 99.9166 130.005 108.442C130.005 112.688 129.984 116.078 129.975 118.41C129.975 119.566 129.975 120.461 129.975 121.073C129.975 121.368 129.975 121.595 129.975 121.757C129.975 121.92 129.949 121.98 129.949 121.98Z" fill="#263238"/>
<path d="M133.819 193.576C133.819 193.576 133.819 193.482 133.819 193.306C133.819 193.131 133.819 192.878 133.819 192.527C133.819 191.838 133.819 190.815 133.819 189.531C133.819 186.903 133.819 183.081 133.789 178.279C133.789 168.675 133.759 155.146 133.742 139.421L133.844 139.528H110.304L110.416 139.417C110.416 160.513 110.416 179.649 110.386 193.589L110.304 193.507L127.493 193.554H132.201H133.425H132.218L127.548 193.576L110.309 193.619H110.231V193.537C110.231 179.593 110.232 160.461 110.197 139.365V139.254H133.938V139.361C133.917 155.116 133.9 168.666 133.887 178.309C133.887 183.107 133.866 186.92 133.861 189.54C133.861 190.824 133.861 191.847 133.861 192.536C133.861 192.87 133.861 193.126 133.861 193.302C133.861 193.477 133.819 193.576 133.819 193.576Z" fill="#263238"/>
<path d="M129.949 190.576C129.949 190.576 129.949 190.49 129.949 190.332C129.949 190.173 129.949 189.938 129.949 189.638C129.949 189.018 129.949 188.119 129.949 186.955C129.949 184.613 129.949 181.215 129.919 176.961C129.919 168.452 129.889 156.507 129.868 142.742L129.979 142.849H113.741L113.852 142.738C113.852 161.861 113.822 179.024 113.814 190.571L113.741 190.498L125.631 190.537H128.828H129.658H129.949H129.675H128.858L125.674 190.558L113.741 190.597H113.664V190.524C113.664 178.968 113.643 161.814 113.625 142.691V142.58H130.056V142.687C130.035 156.481 130.018 168.452 130.005 176.978C130.005 181.224 129.984 184.613 129.975 186.946C129.975 188.102 129.975 188.996 129.975 189.608C129.975 189.904 129.975 190.13 129.975 190.293C129.975 190.456 129.949 190.576 129.949 190.576Z" fill="#263238"/>
<path d="M114.117 60.211C113.499 60.862 112.826 61.4591 112.106 61.9958C111.437 62.5876 110.721 63.1244 109.966 63.6008C110.588 62.9545 111.26 62.3591 111.977 61.8203C112.647 61.228 113.363 60.6898 114.117 60.211Z" fill="#263238"/>
<path d="M133.964 63.3825C133.218 63.0089 132.524 62.5383 131.901 61.983C131.234 61.4812 130.633 60.8973 130.112 60.2453C130.159 60.1982 130.968 60.9472 132.042 61.8075C133.116 62.6678 133.989 63.344 133.964 63.3825Z" fill="#263238"/>
<path d="M133.472 35.524C132.928 36.0574 132.333 36.5362 131.696 36.9535C131.102 37.4323 130.463 37.851 129.787 38.2033C130.331 37.6701 130.926 37.1913 131.563 36.7737C132.157 36.2967 132.797 35.8782 133.472 35.524Z" fill="#263238"/>
<path d="M113.805 37.7667C113.109 37.4924 112.453 37.1237 111.858 36.671C111.223 36.2769 110.647 35.7957 110.146 35.2415C110.783 35.6214 111.399 36.0373 111.99 36.487C112.62 36.8772 113.226 37.3046 113.805 37.7667Z" fill="#263238"/>
<path d="M113.655 74.2024C112.164 73.3434 110.993 72.021 110.321 70.436C110.381 70.406 110.92 71.4075 111.849 72.4433C112.778 73.479 113.694 74.1467 113.655 74.2024Z" fill="#263238"/>
<path d="M133.536 70.7698C133.032 71.3599 132.473 71.9002 131.866 72.3833C131.309 72.9225 130.702 73.407 130.052 73.83C130.556 73.241 131.115 72.7008 131.721 72.2164C132.278 71.6765 132.885 71.192 133.536 70.7698Z" fill="#263238"/>
<path d="M113.647 122.211C113.681 122.267 112.902 122.832 112.016 123.619C111.13 124.407 110.467 125.113 110.419 125.07C110.807 124.453 111.296 123.906 111.866 123.452C112.389 122.946 112.991 122.527 113.647 122.211Z" fill="#263238"/>
<path d="M133.159 124.916C132.02 124.073 130.975 123.109 130.043 122.04C130.633 122.435 131.181 122.89 131.678 123.397C132.223 123.851 132.719 124.36 133.159 124.916Z" fill="#263238"/>
<path d="M114.045 143.38C113.336 142.802 112.675 142.168 112.068 141.484C111.41 140.849 110.803 140.164 110.253 139.434C110.962 140.011 111.623 140.646 112.23 141.33C112.892 141.961 113.499 142.647 114.045 143.38Z" fill="#263238"/>
<path d="M133.741 139.267C133.193 139.944 132.59 140.575 131.939 141.154C131.338 141.78 130.683 142.353 129.983 142.866C131.132 141.557 132.389 140.347 133.741 139.25V139.267Z" fill="#263238"/>
<path d="M113.261 190.297C112.398 191.475 111.415 192.56 110.33 193.537C111.193 192.36 112.176 191.274 113.261 190.297Z" fill="#263238"/>
<path d="M133.429 193.576C132.759 193.179 132.145 192.695 131.601 192.138C131.013 191.636 130.491 191.06 130.048 190.426C130.649 190.914 131.221 191.437 131.76 191.992C132.348 192.486 132.905 193.015 133.429 193.576Z" fill="#263238"/>
<path d="M165.127 63.8105C165.127 63.8105 165.127 63.7591 165.127 63.665C165.127 63.5708 165.127 63.4338 165.127 63.2584C165.127 62.8946 165.127 62.3681 165.127 61.6833C165.127 60.3052 165.127 58.2978 165.101 55.7512C165.101 50.6623 165.071 43.4334 165.05 34.8349L165.148 34.9333H141.63L141.741 34.822C141.741 45.522 141.741 55.5073 141.741 63.7976L141.647 63.7035L158.702 63.7506L163.47 63.7762H164.754H163.509L158.758 63.8019L141.638 63.849H141.544V63.7591C141.544 55.4688 141.544 45.5006 141.544 34.7835V34.6722H141.66H165.178H165.281V34.7707C165.259 43.3949 165.242 50.6495 165.229 55.7427C165.229 58.2764 165.208 60.2795 165.204 61.6534C165.204 62.3296 165.204 62.8475 165.204 63.207C165.204 63.3782 165.204 63.5109 165.204 63.605C165.188 63.6769 165.162 63.7461 165.127 63.8105Z" fill="#263238"/>
<path d="M161.257 60.2239C161.254 60.1868 161.254 60.1496 161.257 60.1126C161.257 60.0313 161.257 59.9285 161.257 59.8001C161.257 59.5134 161.257 59.1111 161.257 58.5889C161.257 57.5275 161.257 55.9909 161.232 54.0478C161.232 50.1573 161.202 44.6318 161.18 38.1348L161.283 38.2332H145.075C145.049 38.2332 145.284 38.0235 145.186 38.1262V39.6542C145.186 40.1635 145.186 40.6728 145.186 41.1779V44.1739C145.186 46.1469 145.186 48.0687 145.186 49.9262C145.186 53.6412 145.186 57.1037 145.186 60.1982L145.096 60.104L156.853 60.1554H160.132H160.988H161.292H161.005H160.149L156.892 60.1811L145.075 60.2281H144.98V60.1383C144.98 57.0353 144.98 53.5727 144.98 49.8663C144.98 48.0087 144.98 46.087 144.98 44.1139V41.1179C144.98 40.6129 144.98 40.1036 144.98 39.5943V38.1433L145.096 38.0278H161.304H161.356V38.1305C161.334 44.6746 161.317 50.2044 161.304 54.112C161.304 56.0423 161.304 57.5703 161.279 58.6274C161.279 59.141 161.279 59.5348 161.279 59.8173V60.1211C161.257 60.1896 161.257 60.2239 161.257 60.2239Z" fill="#263238"/>
<path d="M165.126 124.976C165.126 124.976 165.126 124.882 165.126 124.706C165.126 124.531 165.126 124.278 165.126 123.927C165.126 123.238 165.126 122.215 165.126 120.931C165.126 118.303 165.126 114.481 165.096 109.679C165.096 100.075 165.066 86.5673 165.049 70.8212L165.152 70.9282H141.612L141.723 70.8169C141.723 91.913 141.702 111.049 141.693 124.989L141.612 124.912L158.801 124.955H163.509H164.733H165.161C165.161 124.955 165.028 124.955 164.754 124.955L163.496 124.976L158.826 124.997L141.586 125.04H141.509V124.976C141.509 111.032 141.488 91.9001 141.475 70.804V70.6927H165.216V70.7997C165.195 86.5544 165.178 100.105 165.165 109.748C165.165 114.546 165.144 118.359 165.139 120.978C165.139 122.262 165.139 123.285 165.139 123.974C165.139 124.308 165.139 124.565 165.139 124.741C165.139 124.916 165.126 124.976 165.126 124.976Z" fill="#263238"/>
<path d="M161.258 121.98C161.258 121.98 161.258 121.894 161.258 121.74C161.258 121.586 161.258 121.342 161.258 121.043C161.258 120.422 161.258 119.523 161.258 118.359C161.258 116.018 161.258 112.62 161.228 108.365C161.228 99.8567 161.198 87.9112 161.176 74.1467L161.287 74.2537H145.049L145.16 74.1424C145.16 93.2655 145.13 110.428 145.122 121.976L145.049 121.903L156.939 121.941H160.136H160.966H161.258H160.984H160.166L156.986 121.963L145.049 122.001H144.972V121.98C144.972 110.424 144.951 93.2697 144.934 74.1467V74.044H161.356V74.151C161.356 87.9454 161.317 99.9166 161.305 108.442C161.305 112.688 161.305 116.078 161.275 118.41C161.275 119.566 161.275 120.461 161.275 121.073C161.275 121.368 161.275 121.595 161.275 121.757C161.275 121.92 161.258 121.98 161.258 121.98Z" fill="#263238"/>
<path d="M165.127 193.576C165.127 193.576 165.127 193.482 165.127 193.306C165.127 193.131 165.127 192.878 165.127 192.527C165.127 191.838 165.127 190.815 165.127 189.531C165.127 186.903 165.127 183.081 165.097 178.279C165.097 168.675 165.067 155.146 165.05 139.421L165.152 139.528H141.612L141.724 139.417C141.724 160.513 141.702 179.649 141.694 193.589L141.612 193.507L158.801 193.554H163.509H164.733H165.161H164.754H163.547L158.878 193.576L141.638 193.619H141.561V193.537C141.561 179.593 141.54 160.461 141.527 139.365V139.254H165.268V139.361C165.247 155.116 165.229 168.666 165.217 178.309C165.217 183.107 165.195 186.92 165.191 189.54C165.191 190.824 165.191 191.847 165.191 192.536C165.191 192.87 165.191 193.126 165.191 193.302C165.191 193.477 165.127 193.576 165.127 193.576Z" fill="#263238"/>
<path d="M161.258 190.576C161.258 190.576 161.258 190.49 161.258 190.332C161.258 190.173 161.258 189.938 161.258 189.638C161.258 189.018 161.258 188.119 161.258 186.955C161.258 184.613 161.258 181.215 161.228 176.961C161.228 168.452 161.198 156.507 161.176 142.742L161.287 142.849H145.049L145.16 142.738C145.16 161.861 145.13 179.024 145.122 190.571L145.049 190.498L156.939 190.537H160.136H160.966H161.258H160.984H160.166L156.986 190.558L145.049 190.597H144.972V190.524C144.972 178.968 144.951 161.814 144.934 142.691V142.58H161.356V142.687C161.356 156.481 161.317 168.452 161.305 176.978C161.305 181.224 161.305 184.613 161.275 186.946C161.275 188.102 161.275 188.996 161.275 189.608C161.275 189.904 161.275 190.13 161.275 190.293C161.275 190.456 161.258 190.576 161.258 190.576Z" fill="#263238"/>
<path d="M145.426 60.211C144.807 60.862 144.134 61.4591 143.414 61.9958C142.745 62.5876 142.029 63.1244 141.274 63.6008C141.896 62.9545 142.569 62.3591 143.286 61.8203C143.955 61.228 144.671 60.6898 145.426 60.211Z" fill="#263238"/>
<path d="M165.264 63.3825C164.517 63.0089 163.824 62.5383 163.201 61.983C162.534 61.4812 161.933 60.8973 161.412 60.2453C161.459 60.1982 162.268 60.9472 163.342 61.8075C164.416 62.6678 165.298 63.344 165.264 63.3825Z" fill="#263238"/>
<path d="M164.78 35.524C164.236 36.0574 163.641 36.5362 163.004 36.9535C162.41 37.4323 161.771 37.851 161.095 38.2033C161.64 37.6714 162.235 37.1927 162.871 36.7737C163.466 36.2967 164.105 35.8782 164.78 35.524Z" fill="#263238"/>
<path d="M145.113 37.7667C144.417 37.4924 143.762 37.1237 143.166 36.671C142.531 36.2769 141.955 35.7957 141.454 35.2415C142.092 35.6214 142.708 36.0373 143.299 36.487C143.929 36.8772 144.534 37.3046 145.113 37.7667Z" fill="#263238"/>
<path d="M144.964 74.2024C143.472 73.3434 142.301 72.021 141.629 70.436C141.689 70.406 142.229 71.4075 143.157 72.4433C144.086 73.479 145.002 74.1467 144.964 74.2024Z" fill="#263238"/>
<path d="M164.836 70.7698C164.332 71.3599 163.773 71.9002 163.166 72.3833C162.611 72.9223 162.004 73.4068 161.356 73.83C161.861 73.241 162.419 72.7008 163.025 72.2164C163.58 71.6767 164.187 71.1922 164.836 70.7698Z" fill="#263238"/>
<path d="M144.955 122.211C144.989 122.267 144.21 122.832 143.324 123.619C142.438 124.407 141.775 125.113 141.728 125.07C142.115 124.453 142.605 123.906 143.175 123.452C143.698 122.946 144.299 122.527 144.955 122.211Z" fill="#263238"/>
<path d="M164.467 124.916C163.328 124.073 162.283 123.109 161.352 122.04C161.941 122.435 162.489 122.89 162.987 123.397C163.531 123.851 164.027 124.36 164.467 124.916Z" fill="#263238"/>
<path d="M145.353 143.38C144.644 142.802 143.983 142.168 143.376 141.484C142.718 140.849 142.111 140.164 141.561 139.434C142.271 140.01 142.933 140.644 143.538 141.33C144.2 141.961 144.807 142.647 145.353 143.38Z" fill="#263238"/>
<path d="M165.049 139.267C164.503 139.945 163.9 140.577 163.247 141.154C162.646 141.78 161.991 142.353 161.292 142.866C162.44 141.557 163.697 140.347 165.049 139.25V139.267Z" fill="#263238"/>
<path d="M144.569 190.297C143.706 191.475 142.723 192.56 141.638 193.537C142.038 192.92 142.501 192.347 143.02 191.825C143.485 191.266 144.004 190.755 144.569 190.297Z" fill="#263238"/>
<path d="M164.737 193.576C164.068 193.179 163.453 192.695 162.91 192.138C162.321 191.636 161.799 191.06 161.356 190.426C161.957 190.914 162.529 191.437 163.068 191.992C163.656 192.486 164.213 193.015 164.737 193.576Z" fill="#263238"/>
<path d="M211.291 163.749H158.792V201.49H211.291V163.749Z" fill="#F16624"/>
<path d="M172.874 163.749C172.946 163.749 172.874 171.718 172.874 171.718H168.987V163.749H172.874Z" fill="#263238"/>
<g opacity="0.4">
<path d="M185.041 201.49H211.291V163.748H185.041V201.49Z" fill="black"/>
</g>
<path d="M167.421 194.102H160.393V199.076H167.421V194.102Z" fill="#FAFAFA"/>
<path d="M167.43 199.084H160.38V194.089H167.43V199.084ZM160.402 199.084H167.408V194.111H160.402V199.084Z" fill="#263238"/>
<path d="M172.232 194.102H168.718V199.076H172.232V194.102Z" fill="#FAFAFA"/>
<path d="M172.24 199.084H168.705V194.089H172.24V199.084ZM168.731 199.084H172.219V194.111H168.731V199.084Z" fill="#263238"/>
</svg>
