<svg width="17" height="16" viewBox="0 0 17 16" fill="none" xmlns="http://www.w3.org/2000/svg">
<path fill-rule="evenodd" clip-rule="evenodd" d="M15.0792 12.8356C15.2517 12.6629 15.2376 12.3791 15.0486 12.2246L12.2969 9.97303C12.1328 9.83877 11.8937 9.85079 11.7439 10.0007L10.4948 11.2497C10.1172 11.6272 9.53058 11.7265 9.05028 11.4643C7.99578 10.8891 7.18131 10.3171 6.47491 9.60656C5.76932 8.89711 5.18612 8.06444 4.57778 6.9856C4.3058 6.50308 4.39987 5.90566 4.78374 5.52191L6.02447 4.28118C6.17434 4.13131 6.18622 3.8922 6.05196 3.72822L3.8005 0.976458C3.64593 0.787488 3.36208 0.7734 3.1894 0.94593L1.66231 2.47316C0.86029 3.27504 0.598113 4.46478 1.03671 5.48215C2.09136 7.92825 3.22558 9.73696 4.70309 11.2091C6.18114 12.6818 8.02345 13.8381 10.5241 14.9494C11.5533 15.4068 12.7651 15.15 13.5784 14.3366L15.0792 12.8356ZM15.5712 11.5859C16.1378 12.0496 16.1804 12.9012 15.6626 13.4191L14.1615 14.92C13.124 15.9576 11.5515 16.309 10.1886 15.7034C7.63183 14.5672 5.6933 13.3608 4.12038 11.7937C2.54689 10.2259 1.36059 8.31811 0.278954 5.80896C-0.303713 4.45745 0.0565566 2.912 1.07875 1.88974L2.60598 0.362511C3.12372 -0.155231 3.97532 -0.112796 4.43903 0.453955L6.69063 3.20572C7.0933 3.69789 7.05737 4.41508 6.60774 4.86471L5.36716 6.1053C5.23717 6.23528 5.21176 6.43005 5.29657 6.58036C5.88337 7.62136 6.42446 8.38593 7.05985 9.02493C7.69443 9.66297 8.43775 10.1905 9.44529 10.74C9.59268 10.8204 9.78317 10.7944 9.91123 10.6662L11.1604 9.41724C11.61 8.96761 12.3272 8.93182 12.8192 9.3345L15.5712 11.5859Z" fill="#00182E"/>
</svg>
