<svg width="20" height="18" viewBox="0 0 20 18" fill="none" xmlns="http://www.w3.org/2000/svg">
<path d="M17.9977 3.21728C17.9993 3.23071 18 3.24427 18 3.25796V17.5928C18 17.8177 17.7915 18 17.5342 18H3.46579C3.20855 18 3 17.8177 3 17.5928V0.407189C3 0.182312 3.20855 0 3.46579 0H14.2736C14.2891 0 14.3046 0.00075337 14.3201 0.00200894C14.3314 0.00301341 14.3425 0.00464567 14.3534 0.00640355C14.3574 0.00690578 14.3615 0.00728243 14.3653 0.00791025C14.3787 0.0102958 14.3916 0.0133093 14.4046 0.0165738C14.4061 0.0169505 14.4077 0.0172016 14.4093 0.0175783C14.4224 0.0210941 14.4353 0.0252373 14.4478 0.0296319C14.4492 0.0302597 14.4507 0.0305108 14.4521 0.0310131C14.464 0.0354077 14.4755 0.0403044 14.4869 0.0454524C14.489 0.0463313 14.4913 0.0472102 14.4935 0.0482147C14.5037 0.052986 14.5134 0.0582594 14.5231 0.0636585C14.5262 0.0654163 14.5295 0.0670486 14.5327 0.0688065C14.5413 0.0738289 14.5496 0.079479 14.5578 0.0851291C14.5615 0.0876403 14.5656 0.0899004 14.5693 0.0926625C14.5778 0.098815 14.5858 0.105344 14.5939 0.111998C14.5967 0.11451 14.6 0.116644 14.6029 0.119281L17.8638 2.96999C17.8667 2.9725 17.8693 2.97539 17.8722 2.9779C17.8798 2.98493 17.8873 2.99196 17.8943 2.99937C17.8975 3.00263 17.9 3.00615 17.9029 3.00941C17.9094 3.0167 17.9158 3.02385 17.9216 3.03151C17.9237 3.03415 17.9255 3.03704 17.9275 3.0398C17.9336 3.04834 17.9397 3.05687 17.9451 3.06579C17.9463 3.06767 17.9473 3.06968 17.9483 3.07156C17.9542 3.08148 17.9598 3.09153 17.9648 3.10182C17.9654 3.10308 17.9658 3.10434 17.9664 3.10559C17.9714 3.11664 17.9762 3.12782 17.9802 3.13924C17.9806 3.14062 17.9809 3.142 17.9813 3.14339C17.9851 3.15469 17.9885 3.16611 17.9912 3.17779C17.992 3.18118 17.9924 3.18469 17.993 3.18808C17.995 3.19775 17.9968 3.20742 17.998 3.21734L17.9977 3.21728ZM14.7391 1.39039V2.85066H16.4095L14.7391 1.39039ZM3.93129 17.1855H17.0684V3.66516H14.2734C14.0161 3.66516 13.8074 3.48285 13.8074 3.25797V0.814454H3.93137L3.93129 17.1855ZM10.5213 5.39992C12.0112 5.39992 13.2233 6.45952 13.2233 7.76193V9.74689C13.9119 10.3684 14.2907 11.1849 14.2907 12.0524C14.2907 13.8868 12.5894 15.3792 10.4984 15.3792C8.40729 15.3792 6.70604 13.8868 6.70604 12.0524C6.70604 11.1849 7.0848 10.3684 7.77362 9.74689V7.76193C7.77362 6.45949 8.9857 5.39992 10.4755 5.39992H10.5213ZM8.61757 7.76193V9.17195C9.18403 8.88819 9.82778 8.73702 10.4982 8.73702C11.1687 8.73702 11.8125 8.88819 12.379 9.17195V7.76193C12.379 6.86645 11.5457 6.13796 10.5213 6.13796H10.4752C9.4509 6.13796 8.61758 6.86645 8.61758 7.76193H8.61757ZM10.4982 10.4643C9.8651 10.4643 9.34993 10.9147 9.34993 11.4682C9.34993 11.8925 9.65126 12.2564 10.0763 12.4041V13.4058C10.0763 13.6096 10.2651 13.7748 10.4983 13.7748C10.7314 13.7748 10.9204 13.6095 10.9204 13.4058V12.4041C11.3454 12.2564 11.6467 11.8925 11.6467 11.4682C11.6467 10.9147 11.1315 10.4643 10.4983 10.4643H10.4982ZM10.4982 11.2022C10.666 11.2022 10.8024 11.3216 10.8024 11.4682C10.8024 11.6162 10.666 11.7366 10.4982 11.7366C10.3306 11.7366 10.1942 11.6162 10.1942 11.4682C10.1942 11.3216 10.3306 11.2022 10.4982 11.2022Z" fill="black"/>
</svg>
