<svg width="18" height="20" viewBox="0 0 18 20" fill="none" xmlns="http://www.w3.org/2000/svg">
<path d="M15.5 15.0039V14C15.5 12.8954 14.6046 12 13.5 12C12.3954 12 11.5 12.8954 11.5 14V15.0039M9 1H5.8C4.11984 1 3.27976 1 2.63803 1.32698C2.07354 1.6146 1.6146 2.07354 1.32698 2.63803C1 3.27976 1 4.11984 1 5.8V14.2C1 15.8802 1 16.7202 1.32698 17.362C1.6146 17.9265 2.07354 18.3854 2.63803 18.673C3.27976 19 4.11984 19 5.8 19H6M9 1L15 7M9 1V3.8C9 4.9201 9 5.48016 9.21799 5.90798C9.40973 6.28431 9.71569 6.59027 10.092 6.78201C10.5198 7 11.0799 7 12.2 7H15M15 7V8.5M5 15H6M5 11H8M5 7H6M11.6 19H15.4C15.9601 19 16.2401 19 16.454 18.891C16.6422 18.7951 16.7951 18.6422 16.891 18.454C17 18.2401 17 17.9601 17 17.4V16.6C17 16.0399 17 15.7599 16.891 15.546C16.7951 15.3578 16.6422 15.2049 16.454 15.109C16.2401 15 15.9601 15 15.4 15H11.6C11.0399 15 10.7599 15 10.546 15.109C10.3578 15.2049 10.2049 15.3578 10.109 15.546C10 15.7599 10 16.0399 10 16.6V17.4C10 17.9601 10 18.2401 10.109 18.454C10.2049 18.6422 10.3578 18.7951 10.546 18.891C10.7599 19 11.0399 19 11.6 19Z" stroke="#065197" stroke-linecap="round" stroke-linejoin="round"/>
</svg>
