<svg width="20" height="19" viewBox="0 0 20 19" fill="none" xmlns="http://www.w3.org/2000/svg">
<path d="M17.1111 7.75L15.7907 14.2491C15.6278 15.0509 15.5463 15.4518 15.3337 15.7517C15.1461 16.0161 14.888 16.2244 14.5878 16.3535C14.2474 16.5 13.8321 16.5 13.0014 16.5H6.99855C6.16791 16.5 5.75259 16.5 5.41216 16.3535C5.11197 16.2244 4.85387 16.0161 4.66635 15.7517C4.4537 15.4518 4.37225 15.0509 4.20935 14.2491L2.88889 7.75M17.1111 7.75H15.3333M17.1111 7.75H18M2.88889 7.75H2M2.88889 7.75H4.66667M4.66667 7.75H15.3333M4.66667 7.75L7.33333 2.5M15.3333 7.75L12.6667 2.5M7.33333 10.375V13M10 10.375V13M12.6667 10.375V13" stroke="#244D73" stroke-linecap="round" stroke-linejoin="round"/>
</svg>
