<svg width="14" height="16" viewBox="0 0 14 16" fill="none" xmlns="http://www.w3.org/2000/svg">
<path d="M13.0236 15.0698C13.0236 15.5808 12.609 16 12.0959 16H0.927654C0.417109 16 0 15.5824 0 15.0698C0 11.4736 2.91532 8.55805 6.51171 8.55805C10.1081 8.55805 13.0234 11.4736 13.0234 15.0698H13.0236ZM6.51184 9.67441C3.5942 9.67441 1.21769 11.9902 1.11961 14.8839H11.9038C11.8057 11.9901 9.42922 9.67441 6.51158 9.67441H6.51184ZM6.51184 7.81392C4.35414 7.81392 2.60475 6.06479 2.60475 3.90683C2.60475 1.74912 4.35414 0 6.51184 0C8.66954 0 10.4189 1.74912 10.4189 3.90683C10.4189 6.06479 8.66954 7.81392 6.51184 7.81392ZM6.51184 6.69756C8.05306 6.69756 9.30257 5.44831 9.30257 3.90683C9.30257 2.36561 8.05306 1.11609 6.51184 1.11609C4.97063 1.11609 3.72111 2.36561 3.72111 3.90683C3.72111 5.44831 4.97063 6.69756 6.51184 6.69756Z" fill="#00182E"/>
</svg>
