<svg width="18" height="18" viewBox="0 0 18 18" fill="none" xmlns="http://www.w3.org/2000/svg">
<path d="M1.83659e-06 9.85018C-0.000885727 10.6098 0.319961 11.3352 0.884877 11.8505C1.4498 12.3661 2.20717 12.6248 2.97386 12.5642C3.74055 12.5034 4.44661 12.129 4.92114 11.5312L10.921 14.3187C10.5935 15.1845 10.7324 16.1553 11.29 16.8976C11.8475 17.64 12.7479 18.0529 13.6819 17.9946C14.6159 17.9364 15.4565 17.4149 15.9151 16.6092C16.3737 15.8035 16.3877 14.8233 15.9525 14.0049C15.5175 13.1866 14.6922 12.6417 13.7603 12.5573C12.8284 12.4727 11.9164 12.8601 11.3377 13.5865L5.33745 10.7989C5.5762 10.1768 5.57205 9.48917 5.32561 8.86993L13.0535 4.46364C13.6435 5.18924 14.5659 5.57026 15.5034 5.4756C16.4409 5.38094 17.266 4.82345 17.6952 3.9947C18.1243 3.1661 18.099 2.17911 17.6279 1.37288C17.1568 0.566752 16.3042 0.0513636 15.363 0.00360578C14.4218 -0.0440174 13.5201 0.382565 12.9681 1.13682C12.4159 1.89107 12.2884 2.87042 12.6293 3.73807L4.90226 8.14436C4.42284 7.55518 3.71663 7.18939 2.9532 7.1349C2.18977 7.08041 1.4377 7.34205 0.877545 7.85729C0.317355 8.37238 -0.000551767 9.0945 5.41301e-05 9.85036L1.83659e-06 9.85018ZM13.5017 13.3835V13.3836C14.0079 13.3836 14.4932 13.5822 14.8512 13.9357C15.2092 14.2891 15.4102 14.7686 15.4102 15.2685C15.4102 15.7684 15.2092 16.2479 14.8512 16.6014C14.4932 16.9548 14.0079 17.1535 13.5017 17.1535C12.9955 17.1535 12.51 16.9548 12.152 16.6014C11.7942 16.2479 11.593 15.7684 11.593 15.2685C11.5936 14.7687 11.7949 14.2897 12.1527 13.9363C12.5105 13.5829 12.9956 13.3842 13.5016 13.3837L13.5017 13.3835ZM15.1982 0.871811C15.7043 0.871811 16.1898 1.07049 16.5477 1.42389C16.9057 1.77742 17.1068 2.25686 17.1068 2.75681C17.1068 3.25671 16.9057 3.73605 16.5477 4.08958C16.1898 4.4431 15.7043 4.64165 15.1982 4.64165C14.692 4.64165 14.2065 4.44312 13.8485 4.08958C13.4906 3.73603 13.2895 3.25671 13.2895 2.75681C13.2901 2.25705 13.4914 1.77801 13.8493 1.42464C14.2069 1.07125 14.6921 0.87241 15.1982 0.871849L15.1982 0.871811ZM4.66545 9.85044C4.66545 10.3503 4.46442 10.8298 4.10643 11.1834C3.74846 11.5367 3.26299 11.7354 2.75676 11.7354C2.25072 11.7354 1.76521 11.5368 1.40724 11.1834C1.04926 10.8298 0.84822 10.3504 0.84822 9.85044C0.84822 9.35053 1.04925 8.8712 1.40724 8.51767C1.76522 8.16414 2.25068 7.96559 2.75676 7.96559C3.2628 7.96618 3.74801 8.165 4.10568 8.51823C4.4635 8.87162 4.66484 9.35079 4.66541 9.8504L4.66545 9.85044Z" fill="#065197"/>
</svg>
