<svg width="18" height="20" viewBox="0 0 18 20" fill="none" xmlns="http://www.w3.org/2000/svg">
<path d="M9 1H5.8C4.11984 1 3.27976 1 2.63803 1.32698C2.07354 1.6146 1.6146 2.07354 1.32698 2.63803C1 3.27976 1 4.11984 1 5.8V14.2C1 15.8802 1 16.7202 1.32698 17.362C1.6146 17.9265 2.07354 18.3854 2.63803 18.673C3.27976 19 4.11984 19 5.8 19H9M9 1L15 7M9 1V3.8C9 4.9201 9 5.48016 9.21799 5.90798C9.40973 6.28431 9.71569 6.59027 10.092 6.78201C10.5198 7 11.0799 7 12.2 7H15M15 7V8M5 15H7M5 11H8M5 7H6M17 13.21C16.9318 13.2141 16.7357 13.21 16.6667 13.21C15.6422 13.21 14.7077 12.7524 14 12C13.2923 12.7524 12.3578 13.2099 11.3333 13.2099C11.2643 13.2099 11.0684 13.2141 11.0002 13.21C11.0002 13.21 11 13.9855 11 14.3979C11 16.6121 12.2748 18.4725 14 19C15.7252 18.4725 17 16.6121 17 14.3979C17 13.9855 17 13.21 17 13.21Z" stroke="#065197" stroke-linecap="round" stroke-linejoin="round"/>
</svg>
