<svg width="340" height="340" viewBox="0 0 340 340" fill="none" xmlns="http://www.w3.org/2000/svg">
<path d="M178.446 79.4376C179.199 79.171 179.927 78.8388 180.622 78.4448C181.591 77.8477 182.431 77.0632 183.093 76.1373C183.755 75.2113 184.226 74.1626 184.477 73.0524C184.639 72.2907 184.703 71.5115 184.668 70.7336C184.586 69.8755 184.418 69.028 184.164 68.204C183.695 66.4428 183.185 64.5252 182.634 62.4784L178.922 48.5112L174.434 31.5792C174.032 30.056 173.625 28.5124 173.203 26.9348C172.869 25.3583 172.096 23.9085 170.973 22.7528C169.813 21.5729 168.325 20.7696 166.702 20.4476C165.016 20.1573 163.283 20.3144 161.677 20.9032L117.13 32.64C115.224 33.1482 113.563 34.3201 112.445 35.9448C111.336 37.5446 110.841 39.4905 111.051 41.4256C111.191 42.3902 111.405 43.3427 111.69 44.2748C111.942 45.2336 112.187 46.1856 112.438 47.1308C112.937 49.0258 113.429 50.9048 113.914 52.768C115.865 60.248 117.742 67.4084 119.537 74.2628C120.444 77.69 121.314 81.0266 122.149 84.2724C122.43 85.8653 123.116 87.3592 124.141 88.6108C125.152 89.7978 126.48 90.6728 127.969 91.1336C130.948 92.1808 133.906 90.7596 136.728 90.1476L144.888 88.0328L169.443 81.6952L176.127 80.002L177.868 79.5804C178.262 79.4852 178.466 79.458 178.466 79.458C178.466 79.458 178.276 79.5328 177.888 79.6416L176.161 80.1312L169.504 81.94L145.024 88.4816L136.864 90.6372L132.539 91.7728C130.951 92.1759 129.282 92.1272 127.72 91.6322C126.158 91.1372 124.765 90.2155 123.699 88.9712C122.611 87.6597 121.878 86.091 121.571 84.4152C120.714 81.1784 119.834 77.8442 118.932 74.4124C117.13 67.5648 115.233 60.384 113.275 52.9312C112.785 51.068 112.291 49.189 111.792 47.294C111.538 46.3511 111.287 45.3991 111.037 44.438C110.735 43.4755 110.508 42.4911 110.357 41.4936C110.132 39.403 110.665 37.3009 111.86 35.5708C113.071 33.7931 114.881 32.5111 116.96 31.96L161.514 20.2912C163.211 19.6851 165.036 19.5305 166.811 19.8424C168.544 20.2043 170.129 21.0784 171.36 22.3516C172.547 23.5843 173.364 25.125 173.72 26.7988C174.128 28.3696 174.536 29.92 174.93 31.4432C176.515 37.5632 177.99 43.2072 179.337 48.3956C180.683 53.584 181.893 58.2624 182.961 62.3832C183.491 64.4459 183.985 66.359 184.443 68.1224C184.698 68.9698 184.871 69.8396 184.96 70.72C184.99 71.5246 184.912 72.3296 184.729 73.1136C184.46 74.246 183.964 75.312 183.271 76.2471C182.577 77.1822 181.702 77.9669 180.697 78.5536C180.179 78.8596 179.627 79.1016 179.051 79.2744C178.65 79.3968 178.446 79.4376 178.446 79.4376Z" fill="#E0E0E0"/>
<path d="M160.534 62.0296C160.401 62.0896 160.262 62.1374 160.119 62.1724L158.923 62.5124L154.462 63.7432L139.502 67.7688H139.379L139.325 67.6532L138.291 65.28L131.049 47.9264L131.158 47.974L127.16 48.994L126.092 49.2524L125.718 49.3272C125.834 49.2751 125.955 49.2341 126.079 49.2048L127.133 48.8988L131.117 47.7972H131.199V47.872L138.536 65.1916L139.543 67.592L139.373 67.5036L154.387 63.5732L158.868 62.4308L160.079 62.1384C160.227 62.0898 160.38 62.0534 160.534 62.0296Z" fill="#E0E0E0"/>
<path d="M137.666 63.4168C137.666 63.4168 137.7 63.4168 137.768 63.376L138.074 63.2808L139.278 62.9408L143.779 61.7032L159.338 57.5212L159.236 57.6708C159.004 54.9508 158.753 51.9656 158.488 48.892C158.358 47.3144 158.222 45.764 158.1 44.2816L158.284 44.4108L139.924 49.2252L134.484 50.626L133.015 50.9932L132.634 51.0748C132.546 51.0748 132.505 51.0748 132.498 51.0748L132.627 51.034L133.001 50.9184L134.463 50.5036L139.903 49.0212L158.263 44.1116L158.426 44.064V44.234C158.549 45.7164 158.678 47.2668 158.814 48.8444C159.072 51.918 159.317 54.8828 159.548 57.63V57.7456H159.433L143.847 61.8256L139.325 62.9816L138.108 63.2808L137.795 63.3556L137.666 63.4168Z" fill="#E0E0E0"/>
<path d="M146.2 71.9508C146.2 71.9508 146.125 71.774 145.948 71.4816C145.7 71.0752 145.325 70.7621 144.881 70.5908C144.559 70.4675 144.213 70.4254 143.871 70.4681C143.529 70.5108 143.204 70.637 142.922 70.8356C142.711 71.0155 142.539 71.2365 142.417 71.4852C142.294 71.7338 142.223 72.0049 142.209 72.2818C142.194 72.5587 142.236 72.8356 142.333 73.0957C142.429 73.3558 142.577 73.5935 142.768 73.7944C142.959 73.9952 143.189 74.155 143.444 74.264C143.699 74.3729 143.974 74.4288 144.251 74.428C144.528 74.4273 144.803 74.3701 145.057 74.2599C145.311 74.1496 145.541 73.9886 145.731 73.7868C146.03 73.4188 146.2 72.9623 146.214 72.488C146.214 72.148 146.173 71.9576 146.214 71.9508C146.301 72.1163 146.345 72.301 146.343 72.488C146.37 73.0004 146.216 73.5059 145.908 73.916C145.674 74.2291 145.363 74.4767 145.006 74.6351C144.649 74.7935 144.257 74.8573 143.868 74.8204C143.393 74.7803 142.941 74.5943 142.576 74.2879C142.211 73.9815 141.949 73.5696 141.827 73.1087C141.705 72.6478 141.728 72.1604 141.894 71.7133C142.06 71.2662 142.36 70.8813 142.752 70.6112C143.069 70.3923 143.437 70.258 143.82 70.2211C144.203 70.1842 144.589 70.2459 144.942 70.4004C145.412 70.6067 145.797 70.9695 146.03 71.4272C146.129 71.585 146.187 71.7649 146.2 71.9508Z" fill="#E0E0E0"/>
<path d="M159.8 68.3536C159.8 68.3536 159.725 68.17 159.548 67.8844C159.298 67.4797 158.924 67.1671 158.481 66.9936C158.13 66.8592 157.749 66.8244 157.379 66.8929C157.01 66.9614 156.666 67.1307 156.387 67.3819C156.108 67.6332 155.903 67.9568 155.796 68.317C155.689 68.6771 155.683 69.0599 155.78 69.423C155.876 69.7862 156.071 70.1156 156.343 70.3749C156.615 70.6343 156.953 70.8135 157.321 70.8928C157.688 70.972 158.07 70.9484 158.425 70.8243C158.779 70.7002 159.093 70.4806 159.331 70.1896C159.63 69.819 159.8 69.3603 159.814 68.884C159.814 68.5508 159.773 68.3604 159.814 68.3536C159.902 68.5163 159.946 68.699 159.943 68.884C159.972 69.3966 159.818 69.9028 159.508 70.312C159.277 70.6199 158.972 70.8643 158.621 71.0225C158.27 71.1806 157.885 71.2474 157.502 71.2164C157.027 71.176 156.577 70.9897 156.213 70.6831C155.849 70.3765 155.588 69.9646 155.467 69.5041C155.347 69.0435 155.372 68.5569 155.539 68.111C155.706 67.6652 156.006 67.282 156.4 67.014C156.718 66.7951 157.087 66.6609 157.471 66.624C157.855 66.5871 158.243 66.6488 158.596 66.8032C159.068 67.0076 159.453 67.371 159.684 67.83C159.765 67.9926 159.805 68.1723 159.8 68.3536Z" fill="#E0E0E0"/>
<path d="M283.342 323.442C268.076 315.962 262.201 298.54 260.277 282.39C259.957 279.67 259.223 276.95 260.141 274.366C261.059 271.782 263.779 269.749 266.356 270.511C268.491 271.143 269.715 273.326 271.116 275.067C272.999 277.394 275.499 279.142 278.331 280.112C280.174 280.731 282.37 280.949 283.914 279.759C286.035 278.127 285.811 274.89 285.389 272.224L283.002 257.326C282.574 254.66 282.146 251.94 282.588 249.281C283.03 246.622 284.498 243.991 286.926 242.889C289.354 241.788 292.72 242.767 293.651 245.296C294.046 246.344 293.998 247.506 294.243 248.601C294.488 249.696 295.188 250.845 296.283 250.995C297.378 251.144 298.323 250.22 299.003 249.315C301.342 246.201 302.675 242.447 303.892 238.728C305.109 235.008 306.258 231.214 308.305 227.895C310.352 224.577 313.446 221.714 317.234 220.905C321.021 220.096 325.455 221.836 326.998 225.434C328.542 229.031 326.971 233.199 325.04 236.64C322.195 241.7 318.634 246.322 314.466 250.362C313.718 251.09 312.902 251.872 312.732 252.912C312.426 254.776 314.384 256.312 316.227 256.598C318.322 256.958 320.443 256.421 322.565 256.34C324.686 256.258 327.073 256.836 328.161 258.686C329.678 261.242 327.835 264.452 325.876 266.669C321.955 271.099 317.302 274.823 312.12 277.678C310.264 278.691 308.298 279.643 306.925 281.262C305.551 282.88 304.973 285.43 306.245 287.164C307.516 288.898 310.032 289.122 312.032 288.422C314.031 287.722 315.697 286.328 317.54 285.287C320.994 283.336 325.768 282.86 328.603 285.668C330.466 287.518 331.044 290.394 330.643 292.998C330.242 295.603 328.991 297.976 327.61 300.206C322.796 308.006 316.132 314.711 308.081 318.968C300.03 323.224 292.271 325.237 283.349 323.442" fill="#F5F5F5"/>
<path d="M285.94 312.732C287.26 303.567 289.106 294.485 291.468 285.532C292.08 283.147 292.686 280.795 293.284 278.474C293.882 276.162 294.481 273.87 295.202 271.674C296.597 267.437 298.225 263.281 300.077 259.223C301.818 255.34 303.613 251.743 305.313 248.343C307.013 244.943 308.679 241.856 310.311 239.081C312.858 234.69 315.75 230.508 318.961 226.576C320.09 225.216 321.001 224.135 321.633 223.434L322.354 222.639C322.431 222.544 322.517 222.457 322.612 222.38C322.546 222.483 322.474 222.58 322.395 222.673L321.715 223.502C321.116 224.223 320.226 225.291 319.117 226.705C315.973 230.673 313.131 234.871 310.617 239.265C309.012 242.039 307.38 245.16 305.687 248.533C303.994 251.906 302.226 255.544 300.499 259.413C298.666 263.462 297.055 267.607 295.671 271.83C294.957 274.026 294.372 276.298 293.767 278.63C293.162 280.962 292.57 283.302 291.958 285.682C289.601 294.615 287.744 303.673 286.396 312.814" fill="#E0E0E0"/>
<path d="M295.337 271.633C295.156 271.283 295.01 270.917 294.902 270.538C294.651 269.817 294.317 268.77 293.93 267.471C293.141 264.874 292.182 261.249 291.135 257.271C290.088 253.293 289.095 249.669 288.252 247.071C287.844 245.779 287.504 244.739 287.259 244.018C287.11 243.655 287 243.276 286.933 242.889C287.141 243.223 287.313 243.579 287.443 243.95C287.742 244.63 288.123 245.677 288.585 246.956C289.496 249.519 290.564 253.116 291.611 257.122C292.658 261.127 293.556 264.642 294.263 267.376C294.589 268.607 294.868 269.647 295.093 270.477C295.218 270.851 295.301 271.239 295.337 271.633Z" fill="#E0E0E0"/>
<path d="M328.651 259.95C328.21 260.116 327.755 260.241 327.291 260.324C326.427 260.535 325.169 260.841 323.626 261.263C320.539 262.086 316.309 263.371 311.705 264.989C307.102 266.608 303.008 268.274 300.077 269.559C298.609 270.184 297.432 270.728 296.616 271.096C296.203 271.313 295.77 271.493 295.324 271.633C295.704 271.37 296.107 271.142 296.528 270.953C297.323 270.524 298.479 269.933 299.928 269.26C302.831 267.9 306.925 266.179 311.535 264.547C315.47 263.142 319.473 261.939 323.531 260.943C325.088 260.562 326.359 260.311 327.243 260.161C327.705 260.047 328.176 259.976 328.651 259.95Z" fill="#E0E0E0"/>
<path d="M286.28 312.038C286.162 311.926 286.062 311.798 285.981 311.658L285.199 310.508C284.519 309.502 283.601 308.026 282.479 306.19C280.221 302.518 277.256 297.35 274.067 291.591C270.878 285.831 267.947 280.643 265.791 276.923L263.16 272.53C262.881 272.054 262.65 271.66 262.48 271.334C262.387 271.197 262.314 271.048 262.262 270.892C262.376 271.01 262.476 271.139 262.561 271.279C262.772 271.592 263.031 271.959 263.337 272.428C264.017 273.428 264.941 274.904 266.057 276.74C268.314 280.418 271.272 285.58 274.468 291.346C277.664 297.112 280.588 302.294 282.744 306.007L285.335 310.4L286.015 311.603C286.121 311.736 286.211 311.883 286.28 312.038Z" fill="#E0E0E0"/>
<path d="M329.576 290.36C329.449 290.467 329.307 290.554 329.154 290.618L327.896 291.264L323.259 293.597C319.349 295.569 313.97 298.357 308.033 301.43C302.097 304.504 296.691 307.251 292.733 309.142C290.755 310.087 289.15 310.835 288.028 311.331L286.729 311.896C286.582 311.969 286.427 312.024 286.267 312.059C286.396 311.956 286.538 311.869 286.688 311.8L287.946 311.154L292.577 308.822C296.494 306.857 301.873 304.062 307.809 300.988C313.745 297.915 319.151 295.168 323.102 293.277C325.081 292.332 326.693 291.584 327.815 291.088L329.107 290.53C329.255 290.452 329.412 290.395 329.576 290.36Z" fill="#E0E0E0"/>
<path d="M22.0796 77.3092C22.0796 77.3092 14.4976 79.152 20.5156 95.5672C26.5336 111.982 31.0692 120.299 31.0692 120.299C31.0692 120.299 32.0348 124.059 28.9408 124.25C25.8468 124.44 19.3324 122.577 17.5372 126.106C15.674 129.771 18.0268 133.729 23.29 137.584C28.5532 141.44 39.7732 150.314 40.8 151.123C41.8268 151.932 42.6632 153.714 40.5824 154.183C38.5016 154.652 23.3444 154.401 23.6572 161.595C23.97 168.79 40.3852 177.133 42.16 178.078C43.9348 179.024 44.2884 179.867 44.0164 180.873C43.7444 181.88 38.6512 181.315 34.34 181.417C30.0288 181.519 25.0444 182.403 25.5748 186.544C26.1052 190.686 35.258 200.348 59.6836 205.761L71.162 207.529L78.642 198.546C93.4184 178.364 93.9216 165.056 91.562 161.595C89.2024 158.134 84.9048 160.766 81.5932 163.533C78.2816 166.301 74.834 170.082 73.9636 169.51C73.0932 168.939 72.8008 168.069 73.508 166.185C74.2152 164.302 81.0628 147.2 76.5476 141.583C72.0324 135.966 60.8124 146.159 58.9356 147.186C57.0588 148.213 56.5284 146.275 56.7528 145.024C56.9772 143.772 59.5544 129.683 60.9688 123.311C62.3832 116.94 61.5264 112.431 57.7116 110.894C54.0328 109.419 50.3608 115.131 47.9128 117.014C45.4648 118.898 43.7104 115.45 43.7104 115.45C43.7104 115.45 41.6296 106.209 35.3192 89.9028C29.0088 73.5964 21.93 77.35 21.93 77.35" fill="#EBEBEB"/>
<path d="M71.434 210.31C66.844 198.322 59.0444 176.868 52.2512 158.488C45.458 140.107 39.2972 123.481 34.7684 111.466C32.504 105.475 30.6884 100.586 29.3896 97.2468C28.764 95.574 28.2676 94.2752 27.9344 93.3776C27.7712 92.9424 27.6488 92.6092 27.5604 92.3644C27.472 92.1196 27.4448 92.0176 27.4448 92.0176C27.4448 92.0176 27.4992 92.1264 27.5944 92.3508L28.0024 93.3504L29.5256 97.1924C30.838 100.531 32.7148 105.352 35.0064 111.377C39.5964 123.366 45.798 139.985 52.5912 158.365C59.3844 176.746 67.1432 198.206 71.672 210.222" fill="#E0E0E0"/>
<path d="M26.561 129.084C26.83 129.166 27.0898 129.276 27.3362 129.411C27.8258 129.635 28.5262 129.982 29.3762 130.417C31.0898 131.294 33.4562 132.573 35.9994 134.021L42.541 137.761L44.5266 138.883C44.7683 139.003 44.9963 139.149 45.2066 139.318C44.9364 139.246 44.676 139.141 44.4314 139.006C43.9418 138.781 43.2414 138.434 42.3914 137.986C40.6778 137.088 38.3522 135.789 35.7954 134.334L29.2402 130.642L27.2478 129.533C27 129.415 26.7691 129.264 26.561 129.084Z" fill="#E0E0E0"/>
<path d="M46.1313 138.679C46.0429 138.632 48.4569 133.688 51.5169 127.629C54.5769 121.57 57.1405 116.702 57.2289 116.749C57.3173 116.797 54.9033 121.74 51.8433 127.799C48.7833 133.858 46.2401 138.72 46.1313 138.679Z" fill="#E0E0E0"/>
<path d="M55.291 167.375C55.4455 167.126 55.6305 166.898 55.8418 166.695L57.433 164.995C58.793 163.554 60.6222 161.595 62.5738 159.283C64.5254 156.971 66.239 154.89 67.4562 153.347L68.9046 151.518C69.0703 151.284 69.2594 151.067 69.469 150.872C69.3453 151.129 69.1949 151.373 69.0202 151.599C68.7074 152.055 68.2518 152.708 67.6602 153.503C66.4906 155.088 64.8178 157.236 62.8526 159.521C60.8874 161.806 59.0106 163.778 57.6166 165.172C56.9366 165.852 56.3518 166.423 55.9438 166.797C55.7458 167.011 55.5271 167.205 55.291 167.375Z" fill="#E0E0E0"/>
<path d="M35.6729 162.595C35.9394 162.597 36.2046 162.633 36.4617 162.704L38.5765 163.132C40.3513 163.506 42.8061 164.05 45.5125 164.676C48.2189 165.301 50.6669 165.879 52.428 166.321L54.5156 166.858C54.7756 166.912 55.0288 166.994 55.2704 167.103C55.0061 167.101 54.7432 167.065 54.4884 166.994L52.3601 166.6C50.5785 166.226 48.1237 165.682 45.4173 165.056C42.7109 164.431 40.2697 163.853 38.5017 163.411L36.4141 162.874C36.1566 162.811 35.9077 162.717 35.6729 162.595Z" fill="#E0E0E0"/>
<path d="M40.5415 188.952C40.8781 188.975 41.2123 189.025 41.5411 189.101L44.2611 189.638C46.5459 190.108 49.7011 190.781 53.1691 191.549C56.6371 192.318 59.7923 193.025 62.0567 193.555L64.7767 194.235C65.1109 194.301 65.4385 194.397 65.7559 194.521C65.4161 194.506 65.0788 194.456 64.7495 194.371L62.0295 193.834C59.7447 193.365 56.5895 192.692 53.1215 191.923C49.6535 191.155 46.4711 190.4 44.1999 189.89L41.4799 189.21C41.159 189.157 40.8445 189.07 40.5415 188.952Z" fill="#E0E0E0"/>
<path d="M65.1509 194.194C65.3501 193.89 65.5778 193.606 65.8309 193.344L67.7689 191.114C69.4077 189.224 71.6517 186.612 74.0589 183.634C76.4661 180.656 78.5741 177.949 80.0837 175.964L81.8789 173.611C82.0811 173.313 82.3086 173.033 82.5589 172.774C82.3955 173.096 82.2044 173.404 81.9877 173.692C81.5933 174.277 81.0153 175.107 80.2809 176.12C78.8189 178.16 76.7381 180.88 74.3309 183.865C71.9237 186.85 69.6389 189.414 67.9525 191.264C67.1093 192.182 66.4157 192.923 65.9125 193.419C65.6782 193.696 65.4236 193.955 65.1509 194.194Z" fill="#E0E0E0"/>
<path d="M316.295 324.686C316.295 324.788 250.791 324.863 170.007 324.863C89.2226 324.863 23.7046 324.788 23.7046 324.686C23.7046 324.584 89.1954 324.51 170.007 324.51C250.818 324.51 316.295 324.591 316.295 324.686Z" fill="#263238"/>
<path d="M284.648 44.5945H264.928C263.634 44.6283 262.405 45.1743 261.513 46.1125C260.621 47.0508 260.137 48.3048 260.168 49.5993V53.176C260.199 54.4705 259.715 55.7245 258.823 56.6628C257.931 57.601 256.703 58.147 255.408 58.1808H216.954C215.655 58.1487 214.421 57.6035 213.523 56.6644C212.624 55.7253 212.135 54.4686 212.16 53.1693V49.5584C212.186 48.2655 211.7 47.0146 210.809 46.0775C209.918 45.1404 208.693 44.5928 207.4 44.5536H200.464H183.199C179.08 44.5536 175.13 46.1888 172.217 49.0998C169.303 52.0108 167.664 55.9595 167.661 60.078L167.613 309.074C167.613 313.19 169.248 317.137 172.158 320.049C175.068 322.96 179.015 324.596 183.131 324.598L284.682 324.659C286.721 324.661 288.74 324.261 290.625 323.482C292.509 322.703 294.221 321.56 295.663 320.119C297.106 318.678 298.25 316.967 299.031 315.083C299.811 313.2 300.213 311.181 300.213 309.142L300.261 60.1393C300.264 58.0914 299.861 56.0632 299.077 54.1716C298.292 52.2799 297.141 50.5622 295.69 49.1173C294.239 47.6724 292.516 46.5289 290.621 45.7526C288.726 44.9764 286.696 44.5828 284.648 44.5945Z" fill="white"/>
<path d="M284.648 44.5944C284.648 44.5944 284.825 44.5944 285.178 44.5944C285.704 44.5935 286.229 44.6322 286.749 44.71C288.814 44.9703 290.8 45.6656 292.577 46.75C293.894 47.5225 295.086 48.49 296.113 49.6196C297.369 50.9753 298.371 52.5462 299.071 54.2572C299.878 56.2591 300.273 58.4029 300.234 60.5608C300.234 62.8524 300.234 65.3208 300.234 67.8776C300.234 88.5632 300.268 118.49 300.288 155.462C300.308 192.433 300.288 236.477 300.288 285.342V308.611C300.325 310.218 300.125 311.822 299.696 313.371C299.263 314.924 298.593 316.401 297.711 317.75C296.811 319.094 295.724 320.3 294.481 321.334C291.927 323.402 288.791 324.619 285.512 324.816C282.261 324.911 279.024 324.816 275.76 324.856H256.013H215.438H184.205C180.609 325.04 177.052 324.039 174.08 322.007C171.139 319.946 168.982 316.95 167.96 313.507C167.475 311.801 167.257 310.03 167.314 308.258V303.022C167.314 296.058 167.314 289.138 167.314 282.261C167.314 268.525 167.314 254.998 167.314 241.679C167.314 215.07 167.314 189.407 167.314 164.954C167.314 140.502 167.314 117.273 167.314 95.5264C167.314 84.6464 167.314 74.1608 167.314 64.0696C167.314 62.8048 167.314 61.5468 167.314 60.3024C167.314 59.6768 167.368 59.0444 167.402 58.4188C167.436 57.7932 167.559 57.1744 167.715 56.5692C168.276 54.1496 169.396 51.8951 170.986 49.9868C172.53 48.1513 174.472 46.6924 176.665 45.7213C178.858 44.7503 181.244 44.2928 183.641 44.3836H197.173H206.87C207.955 44.3257 209.03 44.6242 209.93 45.2336C210.805 45.8493 211.468 46.7212 211.827 47.7292C212.125 48.7223 212.231 49.7632 212.14 50.796V52.36C212.124 52.8547 212.14 53.3498 212.187 53.8424C212.333 54.8134 212.766 55.7183 213.432 56.44C214.05 57.1651 214.88 57.6787 215.805 57.9088C216.261 58.0182 216.73 58.0662 217.199 58.0516H224.237H244.705H253.728C254.442 58.0516 255.17 58.0516 255.843 58.0516C256.518 57.9672 257.166 57.735 257.74 57.3716C258.293 57.0213 258.77 56.5641 259.144 56.027C259.517 55.4899 259.78 54.8836 259.916 54.2436C260.028 53.6201 260.069 52.986 260.039 52.3532C260.039 51.7276 260.039 51.1088 260.039 50.4968C260.011 49.8927 260.039 49.2873 260.12 48.688C260.218 48.1054 260.416 47.5441 260.705 47.0288C261.255 46.0537 262.121 45.2955 263.16 44.88C264.157 44.5658 265.207 44.4548 266.247 44.5536C265.254 44.5536 264.207 44.4516 263.214 44.8868C262.192 45.2972 261.344 46.0494 260.814 47.0152C260.539 47.5202 260.348 48.0669 260.25 48.6336C260.176 49.2245 260.151 49.8203 260.175 50.4152C260.175 51.0272 260.175 51.646 260.175 52.2716C260.201 52.9156 260.16 53.5606 260.052 54.196C259.913 54.8587 259.642 55.4869 259.257 56.0439C258.872 56.6008 258.379 57.0753 257.808 57.4396C257.207 57.8103 256.531 58.0425 255.83 58.1196C255.109 58.1808 254.415 58.1196 253.694 58.1196H217.199C216.707 58.1389 216.215 58.0909 215.737 57.9768C214.76 57.7374 213.884 57.1947 213.234 56.4264C212.566 55.6599 212.138 54.7141 212.004 53.7064C211.961 53.259 211.945 52.8094 211.956 52.36V50.8232C212.04 49.8223 211.937 48.8144 211.65 47.8516C211.312 46.8974 210.684 46.0725 209.855 45.492C208.999 44.9173 207.98 44.6357 206.951 44.6896H183.722C181.371 44.601 179.03 45.0513 176.879 46.0059C174.728 46.9605 172.824 48.3943 171.312 50.1976C169.76 52.0674 168.667 54.2754 168.123 56.644C167.967 57.2356 167.919 57.8476 167.81 58.4528C167.702 59.058 167.736 59.6768 167.729 60.3024V64.0696C167.729 74.1608 167.729 84.6464 167.729 95.5264C167.729 117.286 167.729 140.508 167.729 164.954V241.679C167.729 254.98 167.729 268.507 167.729 282.261V308.258C167.67 309.989 167.881 311.719 168.354 313.385C169.36 316.735 171.469 319.647 174.338 321.647C177.237 323.613 180.702 324.568 184.198 324.367H194.684H215.431H256.006H275.781C279.038 324.367 282.302 324.421 285.512 324.326C288.704 324.133 291.755 322.944 294.236 320.926C295.448 319.921 296.509 318.746 297.384 317.438C298.242 316.126 298.893 314.69 299.316 313.181C299.732 311.676 299.926 310.118 299.894 308.557C299.894 306.979 299.894 305.415 299.894 303.844C299.894 297.588 299.894 291.403 299.894 285.287C299.894 236.402 299.941 192.365 299.962 155.407C299.982 118.449 300.03 88.5088 300.05 67.8232C300.05 65.2392 300.05 62.798 300.05 60.5064C300.094 58.3661 299.708 56.2386 298.914 54.2504C298.225 52.5516 297.237 50.9901 295.997 49.64C293.571 46.9668 290.284 45.2293 286.708 44.7304C286.191 44.6502 285.668 44.6025 285.144 44.5876C284.825 44.6148 284.648 44.5944 284.648 44.5944Z" fill="#263238"/>
<path d="M192.705 69.7408C192.705 69.802 190.135 69.8836 186.973 69.904C183.811 69.9244 181.24 69.904 181.24 69.836C181.24 69.768 183.804 69.6932 186.973 69.666C190.141 69.6388 192.705 69.6728 192.705 69.7408Z" fill="#263238"/>
<path d="M192.726 72.6717C192.726 72.7397 190.162 72.8145 187 72.8417C183.838 72.8689 181.268 72.8417 181.268 72.7669C181.268 72.6921 183.831 72.6241 186.993 72.5969C190.155 72.5697 192.726 72.6037 192.726 72.6717Z" fill="#263238"/>
<path d="M192.753 75.6024C192.753 75.6704 190.189 75.7452 187.02 75.7724C183.852 75.7996 181.288 75.7724 181.288 75.6976C181.288 75.6228 183.852 75.5548 187.02 75.5276C190.189 75.5004 192.753 75.5344 192.753 75.6024Z" fill="#263238"/>
<path d="M230.343 261.732H179.309V312.766H230.343V261.732Z" fill="#F5F5F5"/>
<path d="M224.318 290.931C220.163 285.131 211.344 281.16 204.177 282.227C198.369 283.091 193.229 285.79 190.413 291.557C190.225 291.933 190.13 292.35 190.136 292.771C190.143 293.191 190.25 293.605 190.451 293.975C190.651 294.345 190.937 294.662 191.286 294.898C191.635 295.134 192.035 295.283 192.453 295.331C202.129 296.486 211.91 296.454 221.578 295.236C223.067 295.045 224.842 294.63 224.944 292.788C224.953 292.116 224.732 291.461 224.318 290.931Z" fill="#F16624"/>
<g opacity="0.5">
<path d="M224.318 290.931C220.164 285.131 211.344 281.16 204.177 282.227C198.37 283.091 193.229 285.79 190.414 291.557" fill="white"/>
</g>
<path d="M201.375 290.639C201.341 290.639 201.042 290.374 200.648 289.83C200.121 289.11 199.746 288.291 199.546 287.422C199.376 286.558 199.303 285.678 199.328 284.798C199.298 284.435 199.328 284.069 199.417 283.716C199.53 284.063 199.585 284.426 199.58 284.791C199.626 285.647 199.728 286.498 199.886 287.341C200.088 288.169 200.413 288.962 200.852 289.694C201.066 289.985 201.241 290.303 201.375 290.639Z" fill="#F5F5F5"/>
<path d="M207.529 290.36C207.427 290.36 207.577 288.714 207.359 286.715C207.141 284.716 206.679 283.145 206.767 283.111C207.767 285.39 208.033 287.923 207.529 290.36Z" fill="#F5F5F5"/>
<path d="M213.894 289.415C213.792 289.374 214.275 288.279 214.39 286.838C214.506 285.396 214.241 284.233 214.343 284.206C214.685 285.048 214.822 285.959 214.744 286.864C214.666 287.77 214.375 288.644 213.894 289.415Z" fill="#F5F5F5"/>
<path d="M230.935 96.7572H179.309V174.148H230.935V96.7572Z" fill="#F5F5F5"/>
<path d="M230.935 179.982H179.309V257.373H230.935V179.982Z" fill="#F5F5F5"/>
<path d="M287.477 165.369H235.851V237.626H287.477V165.369Z" fill="#F5F5F5"/>
<path d="M287.055 242.706H235.43V312.759H287.055V242.706Z" fill="#F5F5F5"/>
<path d="M287.477 96.7572H235.851V160.677H287.477V96.7572Z" fill="#F5F5F5"/>
<path d="M213.235 119.898V141.352C213.235 142.29 212.48 143.262 211.093 143.997C209.234 144.87 207.195 145.294 205.143 145.234H205.109C200.043 145.234 197.017 143.235 197.017 141.352V119.857C197.017 117.762 198.56 115.58 200.111 113.417C201.151 111.976 201.403 109.902 201.471 108.657C201.471 108.514 201.471 108.385 201.471 108.263H201.328C201.03 108.285 200.736 108.189 200.509 107.996C200.283 107.802 200.142 107.526 200.117 107.229V106.325C200.14 106.026 200.28 105.748 200.507 105.552C200.734 105.356 201.029 105.257 201.328 105.278H208.937C209.163 105.271 209.386 105.327 209.583 105.438C209.779 105.55 209.942 105.713 210.052 105.91C210.115 106.039 210.147 106.181 210.147 106.325V107.229C210.121 107.526 209.98 107.8 209.754 107.994C209.527 108.187 209.234 108.284 208.937 108.263H208.76C208.76 108.385 208.76 108.514 208.76 108.657C208.808 109.881 209.059 111.955 210.12 113.417C211.671 115.58 213.207 117.762 213.214 119.857L213.235 119.898Z" fill="#FAFAFA"/>
<path d="M213.234 119.898V119.68C213.216 119.466 213.186 119.252 213.146 119.041C212.964 118.23 212.661 117.45 212.248 116.729C211.585 115.581 210.851 114.475 210.052 113.417C209.116 111.871 208.644 110.089 208.692 108.283V108.161H208.76C209.028 108.201 209.301 108.141 209.527 107.992C209.754 107.842 209.916 107.614 209.984 107.352C209.984 107.08 209.984 106.746 209.984 106.44C210 106.3 209.981 106.158 209.927 106.027C209.874 105.896 209.788 105.781 209.678 105.692C209.446 105.506 209.153 105.411 208.855 105.427H205.788H201.409C201.238 105.412 201.067 105.433 200.905 105.49C200.743 105.546 200.595 105.636 200.471 105.754C200.358 105.872 200.282 106.021 200.253 106.182C200.242 106.368 200.242 106.554 200.253 106.74C200.253 106.93 200.253 107.154 200.253 107.311C200.275 107.477 200.348 107.632 200.464 107.753C200.59 107.88 200.744 107.978 200.914 108.038C201.083 108.098 201.264 108.119 201.443 108.1H201.599V108.27C201.591 109.147 201.496 110.022 201.314 110.881C201.137 111.782 200.789 112.641 200.287 113.41C199.143 114.865 198.199 116.466 197.479 118.17C197.325 118.61 197.225 119.067 197.179 119.53C197.179 119.986 197.179 120.489 197.179 120.972V123.923C197.179 125.918 197.179 127.94 197.179 129.989C197.179 133.593 197.179 137.115 197.179 140.515C197.159 140.924 197.177 141.334 197.234 141.739C197.332 142.12 197.527 142.468 197.798 142.752C198.352 143.34 199.024 143.804 199.77 144.112C201.24 144.702 202.804 145.022 204.387 145.058C205.895 145.136 207.406 145.001 208.875 144.656C210.263 144.382 211.536 143.7 212.534 142.698C212.747 142.452 212.909 142.165 213.01 141.855C213.086 141.539 213.114 141.213 213.091 140.889V138.917C213.091 137.625 213.091 136.388 213.091 135.204C213.091 130.492 213.132 126.677 213.146 124.012C213.146 122.706 213.146 121.686 213.146 120.965C213.146 120.244 213.18 119.904 213.18 119.904C213.215 120.257 213.229 120.611 213.221 120.965C213.221 121.686 213.221 122.706 213.255 124.012C213.255 126.677 213.255 130.492 213.309 135.204C213.309 136.388 213.309 137.625 213.309 138.917V140.889C213.335 141.24 213.307 141.593 213.227 141.936C213.117 142.286 212.936 142.61 212.697 142.888C211.663 143.938 210.335 144.649 208.889 144.928C207.392 145.289 205.851 145.433 204.313 145.357C202.681 145.325 201.068 144.998 199.553 144.391C198.76 144.074 198.046 143.589 197.458 142.97C197.15 142.642 196.928 142.242 196.812 141.807C196.746 141.375 196.724 140.938 196.744 140.502C196.744 137.102 196.744 133.579 196.744 129.975C196.744 127.922 196.744 125.9 196.744 123.91V120.958C196.744 120.462 196.744 120 196.744 119.49C196.789 118.998 196.894 118.514 197.057 118.048C197.789 116.315 198.752 114.688 199.92 113.213C200.796 111.714 201.234 109.999 201.185 108.263L201.348 108.426C201.125 108.445 200.9 108.414 200.691 108.335C200.482 108.256 200.292 108.132 200.137 107.97C199.979 107.801 199.877 107.588 199.845 107.358C199.845 107.12 199.845 106.95 199.845 106.746C199.832 106.545 199.832 106.343 199.845 106.141C199.885 105.918 199.992 105.712 200.151 105.55C200.303 105.401 200.484 105.287 200.684 105.214C200.883 105.142 201.095 105.112 201.307 105.128H205.686H208.753C209.111 105.117 209.461 105.236 209.739 105.461C209.875 105.576 209.981 105.722 210.05 105.887C210.118 106.051 210.147 106.229 210.133 106.406C210.133 106.726 210.133 107.012 210.133 107.352C210.059 107.671 209.867 107.951 209.597 108.137C209.327 108.324 208.997 108.402 208.671 108.358L208.787 108.242C208.722 110.008 209.166 111.754 210.065 113.274C210.855 114.348 211.577 115.47 212.228 116.634C212.634 117.369 212.919 118.166 213.071 118.993C213.106 119.207 213.126 119.423 213.132 119.639C213.182 119.718 213.217 119.806 213.234 119.898Z" fill="#263238"/>
<path d="M208.359 108.236C206.098 108.473 203.819 108.473 201.559 108.236C203.819 107.998 206.098 107.998 208.359 108.236Z" fill="#263238"/>
<path d="M212.554 122.76C212.19 122.582 211.787 122.499 211.382 122.516C210.977 122.534 210.583 122.653 210.235 122.862C209.541 123.285 208.79 123.608 208.005 123.821C207.048 123.91 206.088 123.67 205.285 123.141C204.484 122.618 203.64 122.163 202.762 121.781C201.891 121.485 200.954 121.439 200.059 121.65C199.163 121.86 198.344 122.318 197.696 122.971V141.331C197.696 141.331 198.709 144.466 205.822 143.976C212.935 143.487 212.371 140.345 212.371 140.345L212.554 122.76Z" fill="#F16624"/>
<path d="M267.519 268.77V290.047C267.519 290.986 266.771 291.944 265.384 292.679C263.539 293.55 261.514 293.972 259.475 293.91C254.436 293.91 251.43 291.917 251.43 290.047V268.797C251.43 268.797 251.43 268.797 251.43 268.75C251.43 266.669 252.967 264.5 254.504 262.358C255.544 260.923 255.789 258.856 255.864 257.645C255.864 257.502 255.864 257.373 255.864 257.258H255.68C255.384 257.278 255.091 257.181 254.866 256.988C254.641 256.794 254.501 256.52 254.477 256.224V255.326C254.499 255.03 254.639 254.754 254.864 254.56C255.09 254.367 255.384 254.27 255.68 254.293H263.242C263.466 254.285 263.688 254.34 263.884 254.45C264.079 254.561 264.241 254.723 264.35 254.918C264.41 255.046 264.44 255.186 264.439 255.326V256.224C264.416 256.519 264.277 256.794 264.053 256.988C263.829 257.181 263.537 257.278 263.242 257.258H263.099C263.099 257.373 263.099 257.502 263.099 257.645C263.147 258.856 263.391 260.923 264.425 262.358C265.969 264.5 267.492 266.669 267.505 268.75C267.526 268.743 267.519 268.756 267.519 268.77Z" fill="#FAFAFA"/>
<path d="M267.519 268.77C267.523 268.698 267.523 268.625 267.519 268.552C267.504 268.338 267.477 268.125 267.437 267.913C267.255 267.109 266.955 266.337 266.546 265.622C265.888 264.479 265.157 263.379 264.357 262.33C263.425 260.796 262.953 259.026 262.997 257.23V257.101H263.112C263.379 257.141 263.65 257.081 263.874 256.931C264.098 256.781 264.258 256.553 264.323 256.292C264.323 256.027 264.323 255.694 264.323 255.388C264.336 255.249 264.314 255.108 264.261 254.979C264.208 254.85 264.124 254.736 264.017 254.646C263.785 254.463 263.496 254.369 263.201 254.381H260.154H255.802C255.633 254.366 255.462 254.388 255.301 254.444C255.141 254.5 254.994 254.59 254.871 254.708C254.757 254.825 254.681 254.975 254.653 255.136C254.643 255.319 254.643 255.503 254.653 255.687C254.653 255.87 254.653 256.095 254.653 256.251C254.675 256.417 254.749 256.572 254.864 256.693C254.989 256.819 255.141 256.914 255.308 256.973C255.475 257.032 255.654 257.052 255.83 257.033H255.993V257.203C255.985 258.074 255.889 258.942 255.707 259.794C255.533 260.689 255.187 261.541 254.687 262.303C253.548 263.757 252.61 265.358 251.899 267.063C251.744 267.502 251.646 267.959 251.607 268.423C251.607 268.872 251.607 269.375 251.607 269.851C251.607 270.817 251.607 271.796 251.607 272.789V278.8C251.607 282.384 251.607 285.886 251.607 289.265C251.586 289.67 251.604 290.075 251.661 290.476C251.762 290.855 251.956 291.204 252.226 291.489C252.776 292.075 253.443 292.538 254.184 292.849C255.637 293.42 257.179 293.728 258.74 293.76C260.238 293.838 261.74 293.703 263.201 293.359C264.579 293.091 265.845 292.413 266.832 291.414C267.046 291.17 267.207 290.886 267.308 290.578C267.382 290.264 267.407 289.94 267.383 289.619C267.383 288.939 267.383 288.3 267.383 287.66C267.383 286.375 267.383 285.151 267.383 283.975C267.383 279.29 267.424 275.495 267.437 272.85C267.437 271.551 267.437 270.538 267.471 269.831C267.505 269.124 267.471 268.777 267.471 268.777C267.512 269.127 267.525 269.479 267.512 269.831C267.512 270.511 267.512 271.551 267.512 272.85C267.512 275.495 267.546 279.29 267.573 283.975C267.573 285.151 267.573 286.375 267.573 287.66C267.573 288.3 267.573 288.952 267.573 289.619C267.6 289.968 267.57 290.319 267.485 290.659C267.375 291.006 267.197 291.328 266.961 291.604C265.936 292.65 264.618 293.362 263.18 293.644C261.692 294.004 260.16 294.149 258.631 294.073C257.018 294.039 255.424 293.714 253.926 293.114C253.175 292.791 252.499 292.317 251.94 291.72C251.635 291.393 251.416 290.996 251.301 290.564C251.235 290.137 251.212 289.704 251.233 289.272V269.838C251.233 269.348 251.233 268.886 251.233 268.382C251.278 267.891 251.383 267.407 251.546 266.941C252.272 265.222 253.228 263.609 254.388 262.147C255.255 260.656 255.69 258.954 255.646 257.23L255.802 257.387C255.582 257.405 255.361 257.374 255.154 257.297C254.947 257.219 254.76 257.097 254.606 256.938C254.447 256.77 254.347 256.556 254.32 256.326C254.32 256.095 254.32 255.925 254.32 255.721C254.307 255.519 254.307 255.317 254.32 255.116C254.363 254.895 254.469 254.692 254.626 254.531C254.777 254.384 254.958 254.27 255.156 254.197C255.354 254.124 255.565 254.095 255.775 254.109H260.127H263.174C263.53 254.097 263.878 254.216 264.153 254.442C264.288 254.557 264.394 254.701 264.463 254.864C264.531 255.027 264.56 255.204 264.547 255.381C264.547 255.7 264.547 255.986 264.547 256.319C264.465 256.633 264.273 256.907 264.006 257.091C263.739 257.276 263.415 257.359 263.092 257.326L263.208 257.21C263.144 258.96 263.583 260.692 264.472 262.201C265.262 263.265 265.98 264.38 266.621 265.54C267.026 266.272 267.311 267.064 267.464 267.886C267.501 268.097 267.519 268.311 267.519 268.525C267.539 268.695 267.532 268.77 267.519 268.77Z" fill="#263238"/>
<path d="M262.677 257.176C260.439 257.412 258.183 257.412 255.945 257.176C258.183 256.94 260.439 256.94 262.677 257.176Z" fill="#263238"/>
<path d="M266.846 271.612C266.484 271.433 266.084 271.348 265.681 271.365C265.278 271.382 264.886 271.499 264.541 271.708C263.852 272.128 263.108 272.451 262.331 272.666C261.373 272.752 260.415 272.513 259.611 271.986C258.815 271.462 257.975 271.007 257.101 270.626C256.236 270.334 255.307 270.29 254.418 270.5C253.529 270.711 252.718 271.167 252.076 271.816V290.081C252.076 290.081 253.076 293.202 260.141 292.713C267.206 292.223 266.655 289.102 266.655 289.102L266.846 271.612Z" fill="#F16624"/>
<g opacity="0.5">
<path d="M266.846 271.612C266.484 271.433 266.084 271.348 265.681 271.365C265.278 271.382 264.886 271.499 264.541 271.708C263.852 272.128 263.108 272.451 262.331 272.666C261.373 272.752 260.415 272.513 259.611 271.986C258.815 271.462 257.975 271.007 257.101 270.626C256.236 270.334 255.307 270.29 254.418 270.5C253.529 270.711 252.718 271.167 252.076 271.816V290.081C252.076 290.081 253.076 293.202 260.141 292.713C267.206 292.223 266.655 289.102 266.655 289.102L266.846 271.612Z" fill="white"/>
</g>
<path d="M278.589 191.447C278.357 191.352 278.104 191.318 277.854 191.346C277.605 191.375 277.367 191.466 277.161 191.61C277.059 191.678 276.951 191.76 276.849 191.842C273.397 194.394 269.2 195.74 264.908 195.67C256.551 195.67 249.628 190.985 248.391 184.865V183.709C248.401 183.593 248.387 183.476 248.35 183.366C248.313 183.256 248.253 183.155 248.175 183.069C248.097 182.984 248.001 182.915 247.895 182.868C247.789 182.821 247.674 182.797 247.558 182.797C247.441 182.797 247.326 182.821 247.22 182.868C247.114 182.915 247.018 182.984 246.94 183.069C246.862 183.155 246.802 183.256 246.765 183.366C246.728 183.476 246.714 183.593 246.725 183.709V186.946C246.73 187.022 246.746 187.098 246.772 187.17C246.198 188.44 245.894 189.816 245.881 191.209C245.881 198.274 253.361 204.014 262.616 204.014C270.375 204.014 276.896 199.981 278.8 194.494C278.823 194.47 278.838 194.438 278.841 194.405C279.061 193.967 279.184 193.487 279.201 192.998C279.252 192.708 279.221 192.41 279.114 192.136C279.006 191.863 278.824 191.624 278.589 191.447Z" fill="#F16624"/>
<g opacity="0.3">
<path d="M247.765 188.02C247.765 188.02 255.646 206.149 277.005 193.46C277.005 193.46 271.503 199.172 264.329 200.559C257.829 201.804 248.2 198.138 247.765 188.02Z" fill="black"/>
</g>
<path d="M279.174 192.358C279.045 192.671 278.535 192.76 278.038 192.549C277.542 192.338 277.243 191.91 277.358 191.597C277.474 191.284 277.997 191.202 278.494 191.413C278.99 191.624 279.31 192.046 279.174 192.358Z" fill="#F16624"/>
<path d="M287.137 75.48C287.081 75.4899 287.023 75.4899 286.967 75.48H286.484H284.696L278.691 75.5344H278.644V75.4868C278.596 75.1672 278.548 74.8068 278.494 74.494C278.079 71.5836 277.712 68.986 277.467 67.286H277.501H275.461C275.414 67.2919 275.366 67.2919 275.318 67.286H275.461H275.89H277.488H277.522V67.32C277.773 69.0132 278.161 71.6108 278.596 74.5144C278.644 74.8544 278.691 75.1944 278.739 75.5072L278.684 75.4596H284.689H287.13L287.137 75.48Z" fill="#263238"/>
<path d="M278.433 73.78C278.433 73.78 278.433 73.78 278.48 73.78H278.603H279.085H280.894L287.123 73.7188L287.069 73.7664C287.245 72.7124 287.443 71.5768 287.64 70.4072C287.742 69.802 287.844 69.2036 287.946 68.6392L288 68.7072H280.656H277.739C277.705 68.7072 277.691 68.7072 277.691 68.7072H277.895H278.48H280.656L288 68.646H288.068V68.714L287.769 70.4752C287.565 71.6516 287.368 72.7872 287.191 73.8752V73.916H287.143H280.915H278.453L278.433 73.78Z" fill="#263238"/>
<path d="M280.84 77.8056C280.84 77.8056 280.84 77.7308 280.793 77.6016C280.741 77.4252 280.63 77.2717 280.48 77.1664C280.371 77.0899 280.246 77.0406 280.115 77.0228C279.983 77.0051 279.85 77.0193 279.725 77.0644C279.573 77.1214 279.443 77.2232 279.351 77.3563C279.259 77.4893 279.21 77.6472 279.21 77.809C279.21 77.9708 279.259 78.1288 279.351 78.2618C279.443 78.3948 279.573 78.4966 279.725 78.5536C279.85 78.6014 279.984 78.6165 280.116 78.5975C280.249 78.5784 280.374 78.5259 280.48 78.4448C280.627 78.3373 280.734 78.1843 280.786 78.0096C280.827 77.8804 280.827 77.8056 280.833 77.8056C280.851 77.8748 280.851 77.9473 280.833 78.0164C280.791 78.2119 280.683 78.3871 280.527 78.5128C280.41 78.6038 280.273 78.6644 280.127 78.6893C279.981 78.7142 279.831 78.7026 279.691 78.6556C279.515 78.5956 279.362 78.4821 279.254 78.3309C279.146 78.1797 279.087 77.9984 279.087 77.8124C279.087 77.6265 279.146 77.4452 279.254 77.294C279.362 77.1427 279.515 77.0292 279.691 76.9692C279.832 76.9194 279.983 76.9058 280.13 76.9296C280.277 76.9533 280.416 77.0137 280.534 77.1052C280.691 77.2273 280.799 77.4007 280.84 77.5948C280.86 77.6637 280.86 77.7367 280.84 77.8056Z" fill="#263238"/>
<path d="M286.28 77.7716C286.28 77.7716 286.28 77.6968 286.232 77.5744C286.182 77.3973 286.071 77.2434 285.919 77.1392C285.812 77.061 285.687 77.0108 285.555 76.993C285.423 76.9752 285.289 76.9904 285.165 77.0372C285.052 77.073 284.949 77.1334 284.863 77.214C284.777 77.2946 284.709 77.3934 284.666 77.5032C284.623 77.613 284.604 77.731 284.612 77.8488C284.62 77.9666 284.654 78.0811 284.712 78.1841C284.769 78.2871 284.849 78.376 284.946 78.4443C285.042 78.5126 285.152 78.5586 285.268 78.579C285.385 78.5994 285.504 78.5937 285.618 78.5622C285.732 78.5308 285.837 78.4744 285.926 78.3972C286.074 78.2859 286.183 78.1315 286.239 77.9552C286.273 77.826 286.273 77.7512 286.28 77.7512C286.297 77.8204 286.297 77.8929 286.28 77.962C286.241 78.1572 286.135 78.3328 285.981 78.4584C285.851 78.5608 285.695 78.625 285.53 78.6436C285.366 78.6623 285.199 78.6348 285.05 78.5642C284.9 78.4936 284.773 78.3827 284.683 78.2439C284.592 78.1051 284.543 77.9439 284.539 77.7784C284.539 77.5932 284.595 77.4124 284.701 77.2604C284.807 77.1084 284.957 76.9925 285.131 76.9284C285.27 76.8786 285.42 76.865 285.566 76.8888C285.713 76.9125 285.85 76.973 285.967 77.0644C286.127 77.1836 286.236 77.3583 286.273 77.554C286.296 77.6244 286.298 77.7 286.28 77.7716Z" fill="#263238"/>
<path d="M288.041 70.0912C289.34 69.8107 290.166 68.5299 289.886 67.2303C289.605 65.9308 288.324 65.1047 287.025 65.3852C285.725 65.6657 284.899 66.9465 285.18 68.2461C285.46 69.5456 286.741 70.3717 288.041 70.0912Z" fill="#F16624"/>
<path d="M287.83 66.8236V68.6528H287.402V67.1636H287.035V66.8236H287.83Z" fill="white"/>
<path d="M268.954 289.401H198.662C193.449 289.401 189.224 293.627 189.224 298.84V303.368C189.224 308.581 193.449 312.807 198.662 312.807H268.954C274.166 312.807 278.392 308.581 278.392 303.368V298.84C278.392 293.627 274.166 289.401 268.954 289.401Z" fill="#F16624"/>
<g opacity="0.3">
<path d="M268.954 289.401H198.662C193.449 289.401 189.224 293.627 189.224 298.84V303.368C189.224 308.581 193.449 312.807 198.662 312.807H268.954C274.166 312.807 278.392 308.581 278.392 303.368V298.84C278.392 293.627 274.166 289.401 268.954 289.401Z" fill="black"/>
</g>
<path d="M265.492 289.401H195.201C189.988 289.401 185.762 293.627 185.762 298.84V303.368C185.762 308.581 189.988 312.807 195.201 312.807H265.492C270.705 312.807 274.931 308.581 274.931 303.368V298.84C274.931 293.627 270.705 289.401 265.492 289.401Z" fill="#F16624"/>
<path d="M227.664 299.819C227.664 301.016 226.794 301.743 225.359 301.743H223.999V303.423H223.21V297.888H225.372C226.794 297.888 227.664 298.615 227.664 299.819ZM226.875 299.819C226.875 299.023 226.345 298.574 225.332 298.574H223.972V301.056H225.332C226.345 301.056 226.875 300.608 226.875 299.819Z" fill="white"/>
<path d="M232.077 302.036H229.16L228.555 303.396H227.739L230.248 297.86H231.03L233.539 303.396H232.71L232.077 302.036ZM231.798 301.403L230.608 298.683L229.412 301.403H231.798Z" fill="white"/>
<path d="M236.123 301.505V303.423H235.341V301.492L233.145 297.888H233.988L235.756 300.805L237.537 297.888H238.319L236.123 301.505Z" fill="white"/>
<path d="M206.843 206.319C207.044 205.015 206.986 203.684 206.671 202.403C206.356 201.122 205.791 199.915 205.008 198.853C204.224 197.792 203.239 196.895 202.108 196.216C200.977 195.536 199.723 195.087 198.417 194.895C198.273 194.838 198.116 194.827 197.965 194.86C197.814 194.894 197.677 194.973 197.571 195.085C197.465 195.198 197.395 195.34 197.37 195.492C197.345 195.645 197.367 195.802 197.431 195.942C197.669 198.485 198.707 200.886 200.396 202.802C202.084 204.718 204.336 206.049 206.829 206.604" fill="#244D73"/>
<path d="M192.828 224.781C195.35 229.983 198.948 233.485 203.47 233.655C204.367 233.655 205.047 233.097 205.904 233.043C206.405 233.157 206.888 233.34 207.339 233.587C207.578 233.688 207.834 233.746 208.094 233.757C212.731 233.505 216.689 230.241 219.354 224.781C223.06 217.131 221.918 208.916 216.798 206.421C216.124 206.085 215.42 205.812 214.696 205.605C213.869 205.374 213.011 205.273 212.153 205.306C210.156 205.433 208.191 205.876 206.332 206.618L206.081 206.713C201.919 204.87 198.601 204.864 195.371 206.421C190.25 208.916 189.115 217.131 192.828 224.781Z" fill="#F16624"/>
<path d="M192.916 217.036C192.676 216.556 192.533 216.034 192.494 215.499C192.342 214.205 192.499 212.894 192.95 211.672C193.401 210.45 194.135 209.352 195.092 208.468C195.465 208.082 195.914 207.779 196.411 207.577C196.445 207.624 195.935 207.958 195.262 208.644C194.395 209.542 193.723 210.61 193.289 211.78C192.854 212.951 192.667 214.198 192.739 215.444C192.807 216.43 192.977 217.015 192.916 217.036Z" fill="#FAFAFA"/>
<path d="M193.854 220.667C193.759 220.667 193.596 220.327 193.487 219.864C193.378 219.402 193.371 219.001 193.487 218.974C193.603 218.946 193.745 219.314 193.854 219.783C193.963 220.252 193.949 220.646 193.854 220.667Z" fill="#FAFAFA"/>
<path d="M217.43 193.8C217.43 193.868 216.464 194.235 215.023 195.099C214.182 195.609 213.38 196.179 212.622 196.806C211.716 197.59 210.879 198.45 210.12 199.376C209.354 200.312 208.672 201.313 208.08 202.368C207.614 203.232 207.214 204.13 206.883 205.054C206.319 206.645 206.155 207.679 206.087 207.665C206.083 207.418 206.11 207.171 206.169 206.931C206.206 206.644 206.263 206.36 206.339 206.081C206.422 205.709 206.524 205.341 206.645 204.979C206.945 204.024 207.329 203.098 207.794 202.212C208.938 200.035 210.511 198.113 212.418 196.561C213.19 195.934 214.013 195.375 214.88 194.888C215.212 194.697 215.555 194.524 215.907 194.371C216.165 194.243 216.431 194.129 216.702 194.031C216.935 193.926 217.179 193.849 217.43 193.8Z" fill="#263238"/>
<path d="M280.405 122.638C276.25 116.844 267.43 112.873 260.263 113.941C254.456 114.804 249.315 117.504 246.5 123.27C246.313 123.647 246.219 124.063 246.226 124.483C246.234 124.904 246.342 125.316 246.542 125.686C246.742 126.056 247.028 126.373 247.375 126.609C247.723 126.845 248.123 126.995 248.54 127.044C258.216 128.199 267.996 128.167 277.664 126.949C279.16 126.759 280.929 126.344 281.031 124.501C281.04 123.827 280.819 123.17 280.405 122.638Z" fill="#F16624"/>
<path d="M257.462 122.352C257.428 122.352 257.128 122.087 256.734 121.543C256.209 120.823 255.834 120.004 255.632 119.136C255.462 118.272 255.389 117.392 255.415 116.511C255.389 116.146 255.419 115.779 255.503 115.423C255.619 115.769 255.674 116.133 255.666 116.498C255.715 117.356 255.819 118.21 255.979 119.054C256.175 119.885 256.501 120.679 256.945 121.407C257.157 121.699 257.331 122.017 257.462 122.352Z" fill="#263238"/>
<path d="M263.622 122.067C263.513 122.067 263.663 120.421 263.452 118.422C263.241 116.423 262.772 114.852 262.861 114.818C263.41 115.93 263.73 117.142 263.799 118.381C263.985 119.609 263.925 120.862 263.622 122.067Z" fill="#263238"/>
<path d="M269.96 121.128C269.865 121.088 270.341 119.986 270.456 118.544C270.572 117.103 270.307 115.94 270.409 115.92C270.75 116.762 270.888 117.673 270.81 118.578C270.732 119.483 270.441 120.357 269.96 121.128Z" fill="#263238"/>
<g opacity="0.3">
<path d="M262.541 114.315C261.906 115.478 261.663 116.815 261.846 118.128C262.03 119.441 262.631 120.66 263.561 121.604C264.163 119.133 263.798 116.526 262.541 114.315Z" fill="black"/>
</g>
<g opacity="0.3">
<path d="M256.625 121.332C255.966 120.136 255.572 118.812 255.469 117.45C255.476 116.848 255.389 116.249 255.211 115.675C254.496 116.564 254.144 117.692 254.225 118.83C254.322 120.026 254.883 121.137 255.789 121.924C255.924 122.05 256.087 122.144 256.265 122.196C256.354 122.218 256.449 122.212 256.535 122.179C256.621 122.146 256.695 122.088 256.748 122.012C256.87 121.802 256.748 121.543 256.625 121.332Z" fill="black"/>
</g>
<g opacity="0.3">
<path d="M270.538 116.457C270.514 116.219 270.445 115.988 270.334 115.777C270.277 115.674 270.191 115.59 270.087 115.534C269.984 115.479 269.866 115.454 269.749 115.464C269.429 115.518 269.273 115.879 269.178 116.192C268.643 117.533 268.481 118.995 268.709 120.421C268.783 120.741 268.994 121.101 269.327 121.101C269.661 121.101 269.749 120.829 269.865 120.605C270.517 119.326 270.752 117.876 270.538 116.457Z" fill="black"/>
</g>
<path d="M191.406 159.997V160.636H190.937V160.004C190.435 159.991 189.948 159.825 189.543 159.528L189.795 158.957C190.129 159.202 190.524 159.35 190.937 159.385V158.25C190.305 158.093 189.625 157.889 189.625 157.094C189.625 156.516 190.046 156.006 190.937 155.924V155.244H191.406V155.876C191.814 155.896 192.211 156.015 192.562 156.223L192.324 156.801C192.043 156.636 191.73 156.532 191.406 156.495V157.644C192.039 157.794 192.725 157.998 192.725 158.787C192.725 159.406 192.297 159.902 191.406 159.997ZM190.937 157.556V156.543C190.536 156.604 190.359 156.815 190.359 157.06C190.359 157.304 190.604 157.461 190.937 157.556ZM191.998 158.875C191.998 158.596 191.746 158.46 191.406 158.365V159.372C191.821 159.31 191.998 159.12 191.998 158.875Z" fill="#263238"/>
<path d="M196.132 155.965V159.95H195.391V156.584H194.548V155.965H196.132Z" fill="#263238"/>
<path d="M197.833 159.514C197.823 159.687 197.779 159.856 197.703 160.011L197.411 160.813H196.949L197.18 159.936C197.097 159.902 197.027 159.843 196.98 159.768C196.932 159.692 196.909 159.604 196.915 159.514C196.907 159.449 196.913 159.384 196.932 159.321C196.951 159.259 196.984 159.201 197.027 159.152C197.071 159.103 197.124 159.064 197.184 159.037C197.243 159.01 197.308 158.996 197.374 158.996C197.439 158.996 197.504 159.01 197.563 159.037C197.623 159.064 197.676 159.103 197.72 159.152C197.763 159.201 197.796 159.259 197.815 159.321C197.835 159.384 197.84 159.449 197.833 159.514Z" fill="#263238"/>
<path d="M201.212 158.726C201.212 159.406 200.709 160.011 199.634 160.011C199.099 160.019 198.575 159.857 198.138 159.548L198.451 158.97C198.788 159.23 199.202 159.369 199.627 159.365C200.151 159.365 200.471 159.134 200.471 158.753C200.471 158.372 200.219 158.134 199.396 158.134H198.437L198.641 155.965H200.981V156.584H199.24L199.151 157.508H199.532C200.743 157.508 201.212 158.018 201.212 158.726Z" fill="#263238"/>
<path d="M201.641 157.957C201.641 156.645 202.361 155.917 203.307 155.917C204.252 155.917 204.973 156.658 204.973 157.957C204.973 159.256 204.259 159.997 203.307 159.997C202.355 159.997 201.641 159.27 201.641 157.957ZM204.231 157.957C204.231 156.992 203.851 156.55 203.307 156.55C202.763 156.55 202.389 156.992 202.389 157.957C202.389 158.923 202.763 159.365 203.307 159.365C203.851 159.365 204.231 158.916 204.231 157.957Z" fill="#263238"/>
<path d="M221.455 165.029C221.455 165.131 214.145 165.206 205.135 165.206C196.125 165.206 188.815 165.131 188.815 165.029C188.815 164.927 196.125 164.852 205.135 164.852C214.145 164.852 221.455 164.934 221.455 165.029Z" fill="#263238"/>
<path d="M204 167.688C204 167.79 200.6 167.865 196.418 167.865C192.236 167.865 188.829 167.79 188.829 167.688C188.829 167.586 192.229 167.511 196.418 167.511C200.607 167.511 204 167.593 204 167.688Z" fill="#263238"/>
<path d="M248.642 143.691V144.33H248.2V143.698C247.711 143.677 247.238 143.514 246.84 143.228L247.091 142.65C247.423 142.902 247.819 143.053 248.234 143.086V141.943C247.601 141.794 246.921 141.583 246.921 140.794C246.921 140.216 247.343 139.706 248.234 139.618V138.978H248.703V139.611C249.112 139.625 249.51 139.745 249.859 139.958L249.621 140.529C249.34 140.364 249.027 140.259 248.703 140.223V141.372C249.335 141.528 250.022 141.726 250.022 142.521C249.961 143.099 249.56 143.602 248.642 143.691ZM248.173 141.256V140.243C247.765 140.304 247.595 140.508 247.595 140.76C247.595 141.012 247.839 141.161 248.2 141.256H248.173ZM249.233 142.569C249.233 142.29 248.982 142.161 248.642 142.066V143.072C249.057 143.011 249.233 142.8 249.233 142.569Z" fill="#263238"/>
<path d="M254.878 143.024V143.65H251.933V143.154L253.518 141.651C253.905 141.277 253.973 141.046 253.973 140.821C253.973 140.461 253.722 140.25 253.232 140.25C253.055 140.241 252.878 140.273 252.716 140.345C252.555 140.418 252.412 140.527 252.3 140.665L251.784 140.264C251.964 140.04 252.195 139.862 252.457 139.744C252.72 139.626 253.006 139.571 253.293 139.584C254.164 139.584 254.721 140.019 254.721 140.726C254.713 140.974 254.648 141.217 254.53 141.435C254.412 141.654 254.245 141.842 254.041 141.984L252.974 143.004L254.878 143.024Z" fill="#263238"/>
<path d="M256.271 143.215C256.261 143.385 256.217 143.551 256.142 143.704L255.85 144.507H255.387L255.619 143.636C255.535 143.603 255.464 143.544 255.416 143.469C255.367 143.393 255.343 143.305 255.347 143.215C255.347 143.092 255.395 142.975 255.482 142.888C255.569 142.801 255.686 142.752 255.809 142.752C255.932 142.752 256.049 142.801 256.136 142.888C256.223 142.975 256.271 143.092 256.271 143.215Z" fill="#263238"/>
<path d="M259.699 143.024V143.65H256.755V143.154L258.339 141.651C258.727 141.277 258.795 141.046 258.795 140.821C258.795 140.461 258.543 140.25 258.053 140.25C257.876 140.241 257.7 140.273 257.538 140.345C257.376 140.418 257.233 140.527 257.122 140.665L256.605 140.264C256.786 140.039 257.018 139.86 257.282 139.742C257.545 139.624 257.833 139.57 258.121 139.584C258.985 139.584 259.543 140.019 259.543 140.726C259.535 140.974 259.469 141.217 259.351 141.435C259.233 141.654 259.066 141.842 258.863 141.984L257.795 143.004L259.699 143.024Z" fill="#263238"/>
<path d="M263.024 142.426C263.024 143.106 262.521 143.704 261.446 143.704C260.911 143.716 260.386 143.554 259.95 143.242L260.263 142.671C260.599 142.927 261.01 143.063 261.433 143.058C261.963 143.058 262.276 142.827 262.276 142.453C262.276 142.079 262.031 141.828 261.208 141.828H260.243L260.453 139.658H262.793V140.284H261.079L260.991 141.202H261.371C262.555 141.202 263.024 141.719 263.024 142.426Z" fill="#263238"/>
<path d="M278.691 148.73C278.691 148.825 271.381 148.906 262.371 148.906C253.361 148.906 246.051 148.825 246.051 148.73C246.051 148.634 253.368 148.553 262.371 148.553C271.374 148.553 278.691 148.634 278.691 148.73Z" fill="#263238"/>
<path d="M261.249 151.388C261.249 151.484 257.849 151.565 253.661 151.565C249.472 151.565 246.079 151.484 246.079 151.388C246.079 151.293 249.479 151.212 253.661 151.212C257.843 151.212 261.249 151.293 261.249 151.388Z" fill="#263238"/>
<path d="M190.101 242.76V243.399H189.632V242.76C189.13 242.746 188.644 242.58 188.238 242.284L188.496 241.713C188.826 241.961 189.22 242.11 189.632 242.141V241.006C188.999 240.849 188.326 240.645 188.326 239.856C188.326 239.272 188.748 238.768 189.632 238.68V238.034H190.101V238.68C190.509 238.7 190.906 238.819 191.257 239.027L191.026 239.605C190.742 239.441 190.427 239.336 190.101 239.299V240.448C190.733 240.604 191.42 240.802 191.42 241.59C191.42 242.162 190.999 242.665 190.101 242.76ZM189.632 240.319V239.306C189.231 239.374 189.061 239.578 189.061 239.829C189.061 240.081 189.305 240.217 189.632 240.312V240.319ZM190.693 241.638C190.693 241.359 190.441 241.23 190.101 241.128V242.141C190.516 242.08 190.693 241.876 190.693 241.631V241.638Z" fill="#263238"/>
<path d="M193.446 240.72C193.446 239.408 194.167 238.68 195.112 238.68C196.057 238.68 196.778 239.414 196.778 240.72C196.778 242.026 196.064 242.76 195.112 242.76C194.16 242.76 193.446 242.026 193.446 240.72ZM196.037 240.72C196.037 239.761 195.656 239.312 195.112 239.312C194.568 239.312 194.194 239.761 194.194 240.72C194.194 241.679 194.568 242.128 195.112 242.128C195.656 242.128 196.037 241.679 196.037 240.72Z" fill="#263238"/>
<path d="M198.125 242.277C198.114 242.447 198.07 242.614 197.996 242.767L197.703 243.569H197.248L197.472 242.699C197.391 242.663 197.322 242.604 197.275 242.529C197.227 242.454 197.204 242.366 197.207 242.277C197.199 242.212 197.205 242.146 197.224 242.084C197.244 242.021 197.276 241.964 197.32 241.915C197.363 241.866 197.417 241.826 197.476 241.8C197.536 241.773 197.601 241.759 197.666 241.759C197.731 241.759 197.796 241.773 197.856 241.8C197.916 241.826 197.969 241.866 198.012 241.915C198.056 241.964 198.088 242.021 198.108 242.084C198.127 242.146 198.133 242.212 198.125 242.277Z" fill="#263238"/>
<path d="M201.504 241.482C201.504 242.162 201.001 242.767 199.927 242.767C199.391 242.778 198.866 242.616 198.431 242.304L198.743 241.726C199.078 241.985 199.49 242.124 199.913 242.121C200.443 242.121 200.756 241.89 200.756 241.509C200.756 241.128 200.511 240.89 199.689 240.89H198.723L198.934 238.721H201.28V239.36H199.566L199.478 240.285H199.859C201.035 240.264 201.504 240.774 201.504 241.482Z" fill="#263238"/>
<path d="M201.96 240.72C201.96 239.408 202.681 238.68 203.626 238.68C204.571 238.68 205.292 239.414 205.292 240.72C205.292 242.026 204.578 242.76 203.626 242.76C202.674 242.76 201.96 242.026 201.96 240.72ZM204.551 240.72C204.551 239.761 204.17 239.312 203.626 239.312C203.082 239.312 202.708 239.761 202.708 240.72C202.708 241.679 203.082 242.128 203.626 242.128C204.17 242.128 204.524 241.679 204.524 240.72H204.551Z" fill="#263238"/>
<path d="M220.157 247.792C220.157 247.887 212.84 247.969 203.837 247.969C194.833 247.969 187.517 247.887 187.517 247.792C187.517 247.697 194.827 247.615 203.837 247.615C212.847 247.615 220.157 247.69 220.157 247.792Z" fill="#263238"/>
<path d="M202.708 250.451C202.708 250.546 199.308 250.628 195.126 250.628C190.944 250.628 187.544 250.546 187.544 250.451C187.544 250.356 190.944 250.274 195.126 250.274C199.308 250.274 202.708 250.349 202.708 250.451Z" fill="#263238"/>
<path d="M245.99 221.177V221.816H245.528V221.184C245.023 221.171 244.535 221.005 244.127 220.708L244.385 220.136C244.717 220.386 245.114 220.534 245.528 220.565V219.429C244.895 219.273 244.215 219.069 244.215 218.28C244.215 217.695 244.637 217.192 245.528 217.104V216.458H245.99V217.09C246.398 217.11 246.795 217.229 247.146 217.437L246.915 218.015C246.631 217.849 246.316 217.745 245.99 217.709V218.858C246.623 219.014 247.309 219.212 247.309 220C247.309 220.585 246.888 221.088 245.99 221.177ZM245.528 218.736V217.722C245.12 217.79 244.95 217.994 244.95 218.246C244.95 218.498 245.195 218.64 245.528 218.736ZM246.582 220.055C246.582 219.776 246.33 219.647 245.99 219.545V220.558C246.405 220.49 246.582 220.32 246.582 220.055Z" fill="#263238"/>
<path d="M250.716 217.144V221.129H249.975V217.763H249.131V217.144H250.716Z" fill="#263238"/>
<path d="M252.423 220.701C252.412 220.871 252.368 221.037 252.293 221.19L252.001 221.993H251.539L251.763 221.122C251.682 221.087 251.613 221.028 251.565 220.953C251.518 220.877 251.495 220.79 251.498 220.701C251.498 220.578 251.547 220.461 251.633 220.374C251.72 220.287 251.838 220.238 251.96 220.238C252.083 220.238 252.201 220.287 252.287 220.374C252.374 220.461 252.423 220.578 252.423 220.701Z" fill="#263238"/>
<path d="M252.831 219.137C252.831 217.824 253.551 217.097 254.497 217.097C255.442 217.097 256.163 217.831 256.163 219.137C256.163 220.442 255.483 221.177 254.497 221.177C253.511 221.177 252.831 220.449 252.831 219.137ZM255.421 219.137C255.421 218.178 255.041 217.729 254.497 217.729C253.953 217.729 253.579 218.178 253.579 219.137C253.579 220.096 253.953 220.544 254.497 220.544C255.041 220.544 255.421 220.102 255.421 219.137Z" fill="#263238"/>
<path d="M256.666 219.137C256.666 217.824 257.387 217.097 258.332 217.097C259.277 217.097 259.998 217.831 259.998 219.137C259.998 220.442 259.284 221.177 258.332 221.177C257.38 221.177 256.666 220.449 256.666 219.137ZM259.257 219.137C259.257 218.178 258.876 217.729 258.332 217.729C257.788 217.729 257.414 218.178 257.414 219.137C257.414 220.096 257.788 220.544 258.332 220.544C258.876 220.544 259.257 220.102 259.257 219.137Z" fill="#263238"/>
<path d="M276.08 226.216C276.08 226.311 268.763 226.392 259.76 226.392C250.757 226.392 243.44 226.311 243.44 226.216C243.44 226.12 250.75 226.032 259.76 226.032C268.77 226.032 276.08 226.114 276.08 226.216Z" fill="#263238"/>
<path d="M258.597 228.874C258.597 228.97 255.197 229.051 251.015 229.051C246.833 229.051 243.433 228.97 243.433 228.874C243.433 228.779 246.833 228.691 251.015 228.691C255.197 228.691 258.597 228.772 258.597 228.874Z" fill="#263238"/>
<path d="M251.437 73.8004C251.437 73.8956 243.556 73.9772 233.839 73.9772C224.121 73.9772 216.233 73.8956 216.233 73.8004C216.233 73.7052 224.115 73.6236 233.839 73.6236C243.563 73.6236 251.437 73.6984 251.437 73.8004Z" fill="#F16624"/>
<path d="M22.168 284.954C21.116 284.997 20.1089 285.391 19.3075 286.074C18.5062 286.757 17.9571 287.689 17.748 288.721C17.3061 290.38 16.9588 292.062 16.7076 293.76C16.7076 293.76 12.716 297.35 16.7076 298.309C20.6992 299.268 22.1476 293.889 22.1476 293.889L22.7596 284.927L22.168 284.954Z" fill="#FFBE9D"/>
<path d="M62.1387 216.24C62.1387 216.24 74.6099 174.359 75.8815 172.557C77.9759 169.572 98.1651 160.596 98.1651 160.596L103.605 149.552L137.136 144.16L145.452 154.863L168.824 172.04L167.192 231.282L166.321 272.646L170.748 324.285L64.6003 324.088L69.4011 313.208L74.4399 219.286L62.1387 216.24Z" fill="#F16624"/>
<path d="M76.5207 210.589C76.4897 210.479 76.476 210.364 76.4799 210.249C76.4799 209.984 76.4799 209.664 76.4255 209.277C76.4255 208.434 76.3507 207.237 76.3235 205.707C76.2691 202.688 76.2691 198.519 76.3983 193.916C76.5275 189.312 76.7723 185.15 77.0035 182.138C77.1123 180.635 77.2211 179.418 77.3095 178.582L77.4115 177.616C77.4218 177.503 77.4423 177.392 77.4727 177.283C77.4919 177.395 77.4919 177.51 77.4727 177.623C77.4727 177.881 77.4727 178.201 77.4319 178.588C77.3843 179.486 77.3163 180.69 77.2347 182.158C77.0715 185.171 76.8675 189.326 76.7383 193.929C76.6091 198.533 76.5683 202.688 76.5615 205.707C76.5615 207.176 76.5615 208.379 76.5615 209.277C76.5615 209.664 76.5615 209.957 76.5615 210.249C76.5641 210.364 76.5504 210.478 76.5207 210.589Z" fill="#263238"/>
<g opacity="0.3">
<path d="M100.565 198.56C100.54 198.091 100.676 197.627 100.953 197.248C101.418 196.677 102.057 196.273 102.772 196.097C103.487 195.92 104.24 195.98 104.917 196.268C106.692 197.118 107.576 199.158 107.936 201.096C108.324 203.218 108.27 205.408 108.671 207.529C109.072 209.651 110.031 211.813 111.901 212.908C114.206 214.268 117.232 213.656 119.653 214.798C123.257 216.492 124.093 221.177 124.277 225.162C124.617 232.703 124.277 240.251 123.964 247.792L121.883 295.95L119.986 320.11L110.221 324.258L97.3013 239.36L100.565 198.56Z" fill="black"/>
</g>
<path d="M103.36 191.678C103.287 191.741 103.201 191.787 103.109 191.814C102.843 191.909 102.558 191.938 102.279 191.896C101.768 191.805 101.292 191.577 100.901 191.236C100.51 190.894 100.22 190.452 100.062 189.958C99.8525 189.281 99.7853 188.568 99.8651 187.864C99.9551 187.075 100.087 186.292 100.259 185.518C100.586 183.872 100.939 182.077 101.32 180.193C102.082 176.419 102.789 173.006 103.319 170.537L103.999 167.62C104.065 167.26 104.159 166.905 104.278 166.559C104.264 166.925 104.217 167.29 104.135 167.647C103.993 168.402 103.816 169.395 103.598 170.592C103.129 173.067 102.456 176.487 101.694 180.261C101.307 182.145 100.939 183.94 100.606 185.579C100.273 187.218 99.9263 188.7 100.327 189.883C100.465 190.345 100.722 190.762 101.073 191.092C101.425 191.422 101.857 191.652 102.327 191.76C102.673 191.81 103.026 191.782 103.36 191.678Z" fill="#263238"/>
<path d="M106.801 175.923C106.801 175.957 106.522 175.957 106.06 176.1C105.411 176.314 104.841 176.716 104.421 177.256C104.105 177.638 103.893 178.096 103.805 178.584C103.717 179.072 103.756 179.575 103.918 180.044C104.096 180.625 104.444 181.14 104.918 181.521C105.393 181.902 105.971 182.132 106.577 182.181C107.183 182.229 107.79 182.094 108.319 181.793C108.848 181.492 109.274 181.039 109.541 180.492C109.776 180.056 109.894 179.566 109.884 179.071C109.875 178.575 109.738 178.091 109.487 177.664C109.16 177.063 108.66 176.575 108.052 176.263C107.617 176.045 107.372 176.004 107.372 175.97C107.372 175.936 107.44 175.97 107.569 175.97C107.762 175.996 107.949 176.049 108.127 176.127C108.797 176.408 109.358 176.9 109.725 177.528C109.985 177.961 110.145 178.446 110.194 178.949C110.248 179.532 110.129 180.118 109.854 180.635C109.563 181.246 109.092 181.754 108.506 182.093C107.919 182.431 107.244 182.583 106.569 182.529C105.894 182.475 105.252 182.218 104.726 181.791C104.2 181.364 103.817 180.788 103.625 180.139C103.434 179.584 103.411 178.986 103.557 178.418C103.715 177.825 104.028 177.284 104.464 176.853C104.9 176.421 105.444 176.114 106.039 175.964C106.228 175.913 106.423 175.891 106.617 175.896C106.68 175.894 106.742 175.903 106.801 175.923Z" fill="#263238"/>
<path d="M118.218 219.218L56.9093 208.121L28.2881 214.404L92.3305 225.93L118.218 219.218Z" fill="#90ABC4"/>
<g opacity="0.6">
<path d="M118.218 219.218L56.9093 208.121L28.2881 214.404L92.3305 225.93L118.218 219.218Z" fill="black"/>
</g>
<path d="M79.0161 245.956C79.8457 234.654 82.9465 205.952 85.2721 194.861C85.9521 191.542 86.7681 188.149 88.6721 185.341C90.5761 182.532 93.9353 180.479 97.2809 180.996C100.273 181.458 102.68 183.886 103.891 186.66C105.073 189.467 105.601 192.506 105.434 195.548C104.856 209.256 103.673 224.611 103.687 237.32" fill="#244D73"/>
<path d="M99.7766 219.042C99.0325 219.321 98.2744 219.562 97.5054 219.762C93.8458 220.893 90.3433 222.481 87.081 224.488C86.4233 224.937 85.7424 225.35 85.041 225.726C85.041 225.726 85.1974 225.556 85.5238 225.298C85.8502 225.039 86.333 224.692 86.945 224.278C88.5518 223.211 90.2414 222.274 91.9974 221.476C93.7542 220.677 95.5737 220.025 97.4374 219.524C98.1514 219.334 98.7362 219.198 99.1374 219.123C99.346 219.068 99.5609 219.041 99.7766 219.042Z" fill="#263238"/>
<path d="M100.796 205.999C100.796 206.054 99.8783 206.258 98.4095 206.713C94.5756 207.891 90.9944 209.773 87.8491 212.262C86.6455 213.214 85.9451 213.867 85.9043 213.826C86.0313 213.639 86.1796 213.468 86.3463 213.316C86.6455 213.003 87.1011 212.575 87.7063 212.072C89.2452 210.755 90.9262 209.615 92.7179 208.672C94.5101 207.73 96.4006 206.989 98.3551 206.462C98.9438 206.297 99.5408 206.163 100.143 206.06C100.357 206.007 100.577 205.986 100.796 205.999Z" fill="#263238"/>
<path d="M99.4228 195.5C99.4228 195.561 98.6952 195.595 97.546 195.806C96.0518 196.083 94.6032 196.566 93.2416 197.241C91.8834 197.923 90.625 198.788 89.5016 199.811C88.638 200.6 88.1416 201.171 88.1416 201.124C88.1416 201.076 88.2232 200.954 88.4204 200.688C88.7 200.313 89.0068 199.958 89.3384 199.628C91.5391 197.412 94.4055 195.979 97.4984 195.548C97.9625 195.483 98.4306 195.451 98.8992 195.452C99.2392 195.459 99.416 195.473 99.4228 195.5Z" fill="#263238"/>
<path d="M91.8 228.194C91.7969 228.215 91.7969 228.235 91.8 228.256V267.492C91.8 269.212 90.44 270.987 87.8628 272.333C85.2856 273.68 81.6068 274.598 76.9828 274.604H76.9216C67.6396 274.604 62.0908 270.939 62.0908 267.492V228.256C62.0925 228.235 62.0925 228.215 62.0908 228.194C62.0908 228.194 62.0908 228.147 62.0908 228.12C62.0908 224.284 64.9264 220.279 67.7688 216.322C69.6728 213.683 70.1284 209.875 70.2168 207.645C70.2168 207.373 70.2168 207.135 70.2168 206.917H69.9584C69.6882 206.94 69.4161 206.909 69.158 206.826C68.8999 206.743 68.6609 206.609 68.4551 206.433C68.2494 206.256 68.0809 206.04 67.9595 205.797C67.8382 205.555 67.7664 205.291 67.7484 205.02V203.361C67.7647 203.089 67.8352 202.823 67.9558 202.579C68.0763 202.335 68.2446 202.117 68.4505 201.939C68.6565 201.761 68.896 201.626 69.155 201.542C69.414 201.458 69.6871 201.427 69.9584 201.45H83.8984C84.3127 201.436 84.7226 201.538 85.0827 201.743C85.4427 201.948 85.7389 202.249 85.9384 202.613C86.0498 202.846 86.1078 203.102 86.1084 203.361V205.02C86.0905 205.291 86.0185 205.556 85.8967 205.799C85.7749 206.042 85.6058 206.258 85.3993 206.435C85.1928 206.612 84.953 206.746 84.6941 206.828C84.4352 206.911 84.1624 206.941 83.8916 206.917H83.64C83.64 207.135 83.64 207.373 83.64 207.645C83.7284 209.875 84.184 213.683 86.0948 216.322C88.9304 220.279 91.7524 224.284 91.7728 228.12C91.8 228.147 91.8 228.181 91.8 228.194Z" fill="#FAFAFA"/>
<path d="M91.8002 228.194C91.8093 228.061 91.8093 227.927 91.8002 227.793C91.7754 227.401 91.7277 227.01 91.6574 226.624C91.331 225.132 90.7832 223.697 90.0322 222.367C88.8251 220.255 87.4851 218.222 86.0202 216.281C85.1544 214.999 84.5363 213.567 84.1978 212.058C83.7946 210.376 83.5847 208.654 83.5722 206.924V206.802H83.6946C84.2101 206.836 84.7241 206.715 85.1702 206.455C85.3945 206.325 85.5875 206.147 85.7356 205.935C85.8836 205.722 85.9831 205.479 86.027 205.224C86.027 204.7 86.027 204.109 86.027 203.544C86.0506 203.272 86.0078 202.998 85.9024 202.746C85.797 202.494 85.6321 202.271 85.4218 202.096C84.9774 201.736 84.4158 201.552 83.8442 201.579H78.2002H70.1694C69.8397 201.55 69.5076 201.592 69.1956 201.702C68.8835 201.813 68.5988 201.989 68.3606 202.218C68.1335 202.454 67.982 202.753 67.9254 203.075C67.9078 203.422 67.9078 203.769 67.9254 204.116C67.9254 204.462 67.9254 204.857 67.9254 205.176C67.9734 205.507 68.1204 205.815 68.347 206.06C68.5899 206.308 68.8853 206.497 69.2114 206.615C69.5374 206.733 69.8858 206.775 70.2306 206.74H70.3938V206.91C70.3826 208.51 70.2095 210.105 69.877 211.67C69.5471 213.299 68.9102 214.85 68.0002 216.24C67.0414 217.6 66.0554 218.96 65.1442 220.402C64.2012 221.834 63.4255 223.369 62.8322 224.978C62.5437 225.795 62.3587 226.645 62.2814 227.508C62.2338 228.358 62.2814 229.269 62.2814 230.153V246.677C62.2814 253.28 62.2814 259.733 62.2814 265.962C62.2445 266.723 62.281 267.485 62.3902 268.24C62.5814 268.958 62.9483 269.617 63.4578 270.157C64.483 271.247 65.7276 272.107 67.1094 272.68C68.4661 273.248 69.8794 273.67 71.3254 273.938C72.7416 274.206 74.1759 274.367 75.6162 274.421C78.3898 274.562 81.1694 274.308 83.8714 273.666C85.162 273.351 86.414 272.895 87.6046 272.306C88.7574 271.757 89.7885 270.982 90.6374 270.028C91.0341 269.56 91.3366 269.02 91.5282 268.437C91.671 267.847 91.7215 267.24 91.6778 266.635V263.017C91.6778 260.658 91.6778 258.386 91.6778 256.217C91.6778 247.568 91.7186 240.577 91.7322 235.708C91.7458 230.84 91.7934 228.188 91.7934 228.188C91.814 228.352 91.814 228.519 91.7934 228.684C91.7934 229.024 91.7934 229.507 91.7934 230.132C91.7934 231.418 91.7934 233.294 91.7934 235.708C91.7934 240.564 91.7934 247.568 91.8478 256.217C91.8478 258.38 91.8478 260.651 91.8478 263.017V267.56C91.839 267.884 91.7888 268.206 91.6982 268.518C91.4979 269.14 91.1766 269.715 90.753 270.212C89.8834 271.202 88.8214 272.004 87.6318 272.571C86.4224 273.161 85.1524 273.617 83.8442 273.931C81.1472 274.577 78.3732 274.843 75.6026 274.72C74.1463 274.669 72.696 274.508 71.2642 274.237C69.7929 273.963 68.3547 273.535 66.9734 272.959C65.5421 272.382 64.2524 271.503 63.1926 270.382C62.6443 269.809 62.249 269.107 62.0434 268.342C61.9221 267.561 61.8811 266.771 61.921 265.982V230.166C61.921 229.269 61.921 228.398 61.921 227.494C62.0034 226.603 62.1952 225.726 62.4922 224.883C63.0946 223.247 63.8841 221.686 64.845 220.232C65.7562 218.783 66.7558 217.416 67.7146 216.063C68.5941 214.703 69.21 213.19 69.5302 211.602C69.8581 210.064 70.0334 208.497 70.0538 206.924L70.2102 207.08C69.8218 207.115 69.4306 207.063 69.0648 206.927C68.6991 206.792 68.368 206.577 68.0954 206.298C67.8239 206.008 67.6503 205.639 67.599 205.244C67.599 204.843 67.599 204.51 67.599 204.143C67.579 203.778 67.579 203.413 67.599 203.048C67.6696 202.666 67.8518 202.313 68.1226 202.035C68.3912 201.775 68.712 201.575 69.0637 201.448C69.4154 201.322 69.79 201.271 70.1626 201.3H78.1934H83.8034C84.4355 201.277 85.0545 201.485 85.5442 201.885C85.7813 202.085 85.9668 202.339 86.0852 202.625C86.2035 202.911 86.2512 203.222 86.2242 203.531C86.2242 204.116 86.2242 204.653 86.2242 205.244C86.1767 205.535 86.0654 205.811 85.8985 206.053C85.7315 206.295 85.513 206.497 85.2586 206.645C84.773 206.927 84.2135 207.055 83.6538 207.012L83.7626 206.904C83.8238 210.487 84.5174 213.806 86.1358 216.158C87.5909 218.11 88.9175 220.154 90.107 222.278C90.8541 223.622 91.3864 225.074 91.6846 226.583C91.7501 226.985 91.7888 227.392 91.8002 227.8C91.8238 227.93 91.8238 228.064 91.8002 228.194Z" fill="#263238"/>
<path d="M82.8783 206.822C80.8162 207.001 78.7455 207.06 76.6767 206.999C74.6055 207.06 72.5326 207.001 70.4683 206.822C72.5328 206.647 74.6055 206.588 76.6767 206.645C78.7455 206.588 80.816 206.647 82.8783 206.822Z" fill="#263238"/>
<path d="M90.5622 233.437C89.311 232.621 87.6586 232.982 86.3122 233.621C84.9658 234.26 83.6942 235.151 82.2322 235.382C80.5118 235.661 78.7778 234.974 77.2478 234.11C75.7178 233.247 74.2694 232.179 72.6238 231.588C71.0278 231.048 69.3124 230.967 67.6728 231.354C66.0331 231.742 64.5349 232.581 63.3486 233.777V267.464C63.3486 267.464 65.1982 273.21 78.227 272.313C91.2558 271.415 90.229 265.656 90.229 265.656L90.5622 233.437Z" fill="#F16624"/>
<path d="M56.0455 210.508C56.2382 209.264 56.1826 207.995 55.8817 206.773C55.5808 205.551 55.0408 204.401 54.2927 203.39C53.5447 202.378 52.6035 201.525 51.5236 200.879C50.4436 200.233 49.2464 199.808 48.0011 199.628C47.7729 199.569 47.5311 199.595 47.3211 199.702C47.0423 199.893 47.0355 200.294 47.0627 200.627C47.2905 203.057 48.2816 205.353 49.894 207.185C51.5064 209.017 53.6574 210.292 56.0387 210.827" fill="#244D73"/>
<path d="M42.6699 228.126C45.0771 233.09 48.5383 236.436 52.8291 236.599C53.6859 236.599 54.3319 236.062 55.1479 236.014C55.6223 236.125 56.0798 236.299 56.5079 236.531C56.7229 236.626 56.9533 236.681 57.1879 236.694C61.6215 236.456 65.3955 233.342 67.9387 228.126C71.4815 220.83 70.3867 212.99 65.4975 210.603C64.8558 210.283 64.1868 210.021 63.4983 209.821C62.7073 209.608 61.8895 209.512 61.0707 209.535C59.1804 209.67 57.3224 210.097 55.5627 210.8L55.3247 210.888C51.3467 209.134 48.1779 209.12 45.1247 210.61C40.2083 212.99 39.1203 220.83 42.6699 228.126Z" fill="#F16624"/>
<path d="M42.7516 220.735C42.5195 220.277 42.3808 219.778 42.3436 219.266C42.1989 218.031 42.3484 216.779 42.7797 215.613C43.2111 214.446 43.9121 213.398 44.8256 212.554C45.186 212.189 45.6161 211.9 46.0904 211.704C46.0904 211.759 45.6416 212.072 44.9956 212.731C44.17 213.595 43.5291 214.617 43.112 215.737C42.698 216.858 42.522 218.053 42.5952 219.246C42.6496 220.157 42.84 220.714 42.7516 220.735Z" fill="#FAFAFA"/>
<path d="M43.6563 224.203C43.5611 224.203 43.3979 223.883 43.2959 223.434C43.1939 222.986 43.1871 222.612 43.2959 222.591C43.4047 222.571 43.5475 222.911 43.6563 223.36C43.7651 223.808 43.7515 224.182 43.6563 224.203Z" fill="#FAFAFA"/>
<path d="M66.1503 198.56C66.1503 198.621 65.2391 198.975 63.8587 199.804C63.0556 200.288 62.2917 200.833 61.5739 201.436C60.7007 202.182 59.8931 203.001 59.1599 203.884C58.4415 204.781 57.8 205.736 57.2423 206.74C56.7954 207.564 56.4134 208.421 56.0999 209.304C55.5627 210.814 55.4199 211.806 55.3315 211.793C55.3318 211.564 55.3568 211.336 55.4063 211.113C55.4397 210.839 55.4942 210.569 55.5695 210.304C55.648 209.945 55.7456 209.591 55.8619 209.243C56.148 208.333 56.5144 207.45 56.9567 206.604C58.0436 204.524 59.5456 202.689 61.3699 201.212C62.1105 200.608 62.9049 200.073 63.7431 199.614C64.0899 199.403 64.4231 199.26 64.7223 199.118C64.9688 198.994 65.2233 198.888 65.4839 198.798C65.6959 198.693 65.9196 198.613 66.1503 198.56Z" fill="#263238"/>
<path d="M28.2879 214.404L20.5835 311.59L92.3915 328.95C92.3915 328.95 117.443 320.457 117.783 319.879C118.123 319.301 118.218 219.239 118.218 219.239L92.3303 225.95L28.2879 214.404Z" fill="#F16624"/>
<g opacity="0.4">
<path d="M28.2879 214.404L20.5835 311.59L92.3915 328.95C92.3915 328.95 117.443 320.457 117.783 319.879C118.123 319.301 118.218 219.239 118.218 219.239L92.3303 225.95L28.2879 214.404Z" fill="black"/>
</g>
<path d="M140.916 101.198L136.911 157.916C136.596 162.379 134.601 166.557 131.328 169.607C128.054 172.657 123.746 174.353 119.272 174.352C116.85 174.357 114.452 173.865 112.228 172.905C110.004 171.945 108.001 170.538 106.343 168.772C104.685 167.006 103.408 164.918 102.591 162.637C101.774 160.357 101.434 157.933 101.592 155.516C101.946 150.117 102.272 145.69 102.272 145.69C102.272 145.69 88.5429 143.555 88.3729 129.826C88.2777 121.897 89.6445 103.904 90.8141 90.1204C91.198 85.6183 93.2605 81.425 96.5923 78.3729C99.9241 75.3207 104.282 73.6328 108.8 73.644H117.089C120.479 73.8431 123.795 74.7197 126.84 76.2219C129.886 77.724 132.599 79.8214 134.82 82.39C137.042 84.9585 138.726 87.9463 139.773 91.1766C140.82 94.4069 141.209 97.8144 140.916 101.198Z" fill="#FFBE9D"/>
<path d="M102.299 145.69C102.299 145.69 110.956 146.2 120.177 140.406C120.177 140.406 115.757 150.396 102.055 149.158L102.299 145.69Z" fill="#EB996E"/>
<path d="M93.4183 104.278C93.6631 104.536 95.1455 103.435 97.2603 103.442C99.3751 103.448 100.912 104.502 101.143 104.244C101.252 104.128 101.007 103.673 100.334 103.176C99.42 102.547 98.3357 102.213 97.2263 102.218C96.1284 102.219 95.0585 102.564 94.1663 103.204C93.5203 103.707 93.3027 104.169 93.4183 104.278Z" fill="#263238"/>
<path d="M116.28 106.706C116.278 107.216 116.473 107.707 116.826 108.076C117.178 108.445 117.66 108.663 118.17 108.684C118.421 108.706 118.673 108.677 118.913 108.599C119.152 108.521 119.373 108.396 119.563 108.231C119.754 108.066 119.909 107.865 120.02 107.639C120.131 107.413 120.196 107.168 120.21 106.916C120.216 106.405 120.021 105.912 119.668 105.542C119.315 105.172 118.831 104.955 118.32 104.938C118.069 104.915 117.816 104.944 117.576 105.021C117.337 105.099 117.115 105.224 116.925 105.389C116.734 105.554 116.579 105.755 116.468 105.982C116.358 106.208 116.293 106.454 116.28 106.706Z" fill="#263238"/>
<path d="M95.3223 106.706C95.3184 107.216 95.5136 107.709 95.8665 108.078C96.2194 108.448 96.7022 108.665 97.2127 108.684C97.4637 108.707 97.7165 108.678 97.9562 108.601C98.1959 108.523 98.4175 108.398 98.6078 108.233C98.7982 108.068 98.9534 107.867 99.0642 107.64C99.175 107.414 99.2391 107.168 99.2527 106.916C99.2602 106.406 99.0671 105.912 98.7149 105.542C98.3627 105.173 97.8796 104.955 97.3691 104.938C97.1175 104.913 96.8635 104.94 96.6227 105.017C96.3818 105.094 96.1589 105.219 95.9676 105.384C95.7763 105.549 95.6205 105.751 95.5096 105.979C95.3986 106.206 95.335 106.453 95.3223 106.706Z" fill="#263238"/>
<path d="M113.948 104.285C114.192 104.536 115.682 103.435 117.79 103.442C119.898 103.448 121.441 104.502 121.672 104.244C121.781 104.128 121.536 103.673 120.863 103.176C119.949 102.547 118.865 102.213 117.756 102.218C116.658 102.219 115.588 102.564 114.696 103.204C114.05 103.707 113.832 104.169 113.948 104.285Z" fill="#263238"/>
<path d="M106.291 119.925C106.291 119.809 104.992 119.585 102.891 119.313C102.354 119.252 101.844 119.15 101.755 118.782C101.706 118.226 101.83 117.668 102.109 117.184L103.707 113.104C105.917 107.263 107.522 102.462 107.284 102.374C107.046 102.286 105.06 106.95 102.85 112.792C102.284 114.211 101.774 115.577 101.32 116.892C100.986 117.544 100.888 118.291 101.041 119.007C101.12 119.197 101.242 119.367 101.396 119.504C101.55 119.64 101.734 119.74 101.932 119.796C102.229 119.877 102.535 119.92 102.843 119.925C104.958 120.04 106.284 120.047 106.291 119.925Z" fill="#263238"/>
<path d="M112.499 121.387C112.159 121.387 112.152 123.658 110.194 125.283C108.236 126.908 105.794 126.643 105.774 126.976C105.774 127.119 106.318 127.418 107.352 127.452C108.693 127.469 109.997 127.015 111.037 126.167C112.033 125.348 112.674 124.176 112.826 122.896C112.914 121.944 112.656 121.373 112.499 121.387Z" fill="#263238"/>
<path d="M113.403 97.4236C113.614 97.9948 115.715 97.7228 118.163 98.022C120.611 98.3212 122.645 98.9944 122.971 98.4844C123.121 98.2396 122.767 97.6956 121.965 97.1244C120.892 96.4341 119.671 96.0076 118.401 95.88C117.135 95.7261 115.85 95.8777 114.655 96.322C113.771 96.7028 113.315 97.1516 113.403 97.4236Z" fill="#263238"/>
<path d="M93.7106 98.2396C94.0846 98.7224 95.5398 98.2396 97.2874 98.1988C99.035 98.158 100.511 98.5252 100.857 98.022C101 97.7772 100.769 97.2944 100.123 96.8456C99.2553 96.2996 98.2444 96.0248 97.2197 96.0563C96.1949 96.0878 95.2028 96.4241 94.3702 97.0224C93.7514 97.512 93.5474 98.0084 93.7106 98.2396Z" fill="#263238"/>
<path d="M136.286 111.52C136.524 111.418 145.724 108.732 145.425 118.116C145.126 127.5 135.762 125.263 135.755 124.998C135.749 124.732 136.286 111.52 136.286 111.52Z" fill="#FFBE9D"/>
<path d="M138.72 121.509C138.761 121.509 138.883 121.632 139.155 121.768C139.538 121.945 139.974 121.967 140.373 121.829C141.379 121.496 142.263 119.952 142.358 118.259C142.412 117.456 142.282 116.651 141.977 115.906C141.899 115.609 141.75 115.336 141.542 115.11C141.335 114.884 141.076 114.711 140.787 114.607C140.601 114.551 140.4 114.563 140.221 114.64C140.042 114.717 139.896 114.855 139.808 115.029C139.672 115.287 139.727 115.478 139.679 115.491C139.631 115.505 139.482 115.328 139.57 114.94C139.633 114.71 139.769 114.507 139.958 114.362C140.222 114.176 140.549 114.1 140.869 114.152C141.252 114.241 141.606 114.427 141.897 114.691C142.189 114.955 142.408 115.289 142.535 115.661C142.906 116.489 143.072 117.394 143.018 118.3C142.895 120.19 141.869 121.924 140.502 122.278C140.247 122.342 139.981 122.349 139.723 122.297C139.466 122.245 139.223 122.136 139.013 121.978C138.72 121.72 138.72 121.53 138.72 121.509Z" fill="#EB996E"/>
<path d="M141.508 111.18C140.08 110.833 137.605 112.159 136.993 113.499C136.381 114.838 136.245 116.355 135.633 117.694C135.021 119.034 133.647 120.251 132.233 119.911C131.747 119.758 131.311 119.479 130.968 119.103C130.626 118.727 130.388 118.267 130.281 117.769C130.084 116.77 130.084 115.742 130.281 114.743C130.832 110.357 131.75 106.012 131.927 101.599C132.104 97.1856 131.478 92.5956 129.159 88.8352C126.84 85.0748 122.584 82.3072 118.177 82.6608C115.26 82.8988 112.588 84.422 109.691 84.8232C107.967 85.0514 106.214 84.8841 104.564 84.3338C102.915 83.7836 101.412 82.865 100.171 81.6476C99.8512 81.3348 98.3892 80.3624 98.3892 80.3624C98.3892 80.138 98.6 78.1796 99.3752 77.4656C105.121 72.148 115.484 70.6656 123.08 72.5764C130.676 74.4872 137.795 79.8456 141.059 86.9652C144.323 94.0848 143.358 103.965 141.556 111.18" fill="#263238"/>
<path d="M89.3384 87.6452C90.5692 90.4944 93.7108 92.1536 96.8184 92.4664C99.926 92.7792 102.993 91.9768 105.978 91.1064C108.963 90.236 116.98 88.9304 120.088 89.0256C120.55 89.0256 121.108 89.0256 121.36 88.638C121.686 88.1144 121.162 87.482 120.68 87.108C116.6 83.8984 106.692 81.9332 101.497 81.7156C96.3015 81.498 90.8548 83.7556 88.0396 88.1008" fill="#263238"/>
<path d="M90.6914 87.9988C90.6914 87.9988 126.731 76.4388 142.29 107.576C142.29 107.576 144.615 99.7764 144.615 95.5944C144.615 92.8064 142.949 76.1736 125.841 70.9444C125.841 70.9444 100.062 61.1116 90.6914 87.9988Z" fill="#F16624"/>
<g opacity="0.4">
<path d="M90.6914 87.9988C93.6876 84.8437 97.7952 82.9802 102.143 82.8036C112.771 82.3276 132.654 88.3048 142.263 107.576C142.263 107.576 144.588 99.7764 144.588 95.5944C144.588 92.8064 142.922 76.1736 125.813 70.9444C125.841 70.9444 100.062 61.1116 90.6914 87.9988Z" fill="black"/>
</g>
<path d="M140.76 103.924C135.297 95.7906 128.138 88.9357 119.775 83.8304C111.52 78.6556 97.8316 73.542 88.4 71.0328C85.5712 70.2848 82.62 69.6252 79.73 70.1284C76.84 70.6316 74.0112 72.5492 73.2972 75.3916C72.3996 78.948 78.7372 84.4356 81.6816 86.5912C84.5882 88.5285 87.5983 90.306 90.6984 91.9156C90.6984 91.9156 90.6168 85.3196 101.177 83.9596C115.532 82.11 140.76 103.924 140.76 103.924Z" fill="#F16624"/>
<path d="M111.248 77.01C111.248 77.01 106.053 74.1404 100.844 73.474C101.712 72.7901 102.662 72.2189 103.673 71.774C106.503 72.2429 109.239 73.1611 111.779 74.494L111.248 77.01Z" fill="#FAFAFA"/>
<path d="M156.495 170.571C156.495 170.571 146.649 181.825 147.737 197.486C147.886 199.655 147.995 202.681 148.26 204.843C149.92 218.28 152.49 230.751 152.49 230.751H153.428L187.762 222.272C187.762 222.272 182.587 192.467 181.397 188.51C177.596 175.841 164.56 168.871 164.56 168.871L156.495 170.571Z" fill="#F16624"/>
<path d="M117.783 319.879C117.783 319.879 117.783 319.709 117.783 319.376C117.783 319.042 117.783 318.532 117.783 317.88C117.783 316.56 117.783 314.629 117.783 312.134C117.783 307.122 117.783 299.894 117.823 290.836C117.885 272.755 117.973 247.595 118.075 219.218L118.293 219.388L105.237 222.788L92.4119 226.114L92.5411 225.944C92.7179 240.169 92.6703 253.592 92.6023 265.724C92.5343 277.855 92.4663 288.687 92.4119 297.745C92.3575 306.802 92.4119 314.065 92.4119 319.097C92.4119 321.599 92.4119 323.537 92.4119 324.863V326.359C92.4119 326.026 92.4119 325.516 92.4119 324.863C92.4119 323.503 92.3643 321.599 92.3235 319.097C92.2623 314.085 92.2215 306.802 92.2283 297.745C92.2351 288.687 92.3031 277.848 92.3439 265.724C92.3847 253.599 92.4255 240.169 92.2419 225.95V225.808L92.3779 225.774L105.196 222.448L118.259 219.048L118.483 218.987V219.218C118.333 247.595 118.204 272.762 118.116 290.836C118.055 299.866 118 307.122 117.966 312.134C117.966 314.629 117.925 316.56 117.912 317.88C117.912 318.56 117.912 319.029 117.912 319.376C117.912 319.722 117.783 319.879 117.783 319.879Z" fill="#263238"/>
<path d="M101.884 150.334C101.884 150.334 100.524 163.397 104.917 165.43C109.874 167.715 114.818 165.478 117.837 163.54C125.936 158.372 137.972 144.017 137.972 144.017L146.132 154.612C146.132 154.612 125.582 179.309 121.455 179.146C118.735 179.044 114.553 176.426 111.935 174.583C110.502 173.582 109.226 172.375 108.147 171L104.591 166.478C100.15 168.667 96.56 171.476 94.078 175.073C94.078 175.073 92.8948 165.927 95.0232 161.779C97.1516 157.631 101.395 150.47 101.395 150.47L101.884 150.334Z" fill="#F16624"/>
<path d="M94.7719 162.132C94.7553 162.211 94.7279 162.286 94.6903 162.357C94.6291 162.52 94.5407 162.731 94.4251 162.996C94.1427 163.841 93.9401 164.711 93.8199 165.594C93.4251 168.846 93.4251 172.134 93.8199 175.386L93.5751 175.338C94.719 173.406 96.2133 171.704 97.9815 170.32C99.9831 168.692 102.17 167.307 104.496 166.192L104.605 166.138L104.686 166.233C106.121 167.899 107.637 169.633 109.235 171.394C110.834 173.239 112.633 174.899 114.601 176.344C115.54 177.01 116.562 177.551 117.64 177.956C118.171 178.149 118.717 178.297 119.272 178.398C119.816 178.486 120.369 178.507 120.918 178.459C123.128 178.255 124.998 176.99 126.548 175.658L140.617 160.657L144.697 156.352L145.792 155.217L146.078 154.924L146.187 154.836L146.105 154.945L145.833 155.258L144.779 156.427L140.767 160.8L126.8 175.882C125.994 176.599 125.114 177.229 124.175 177.759C123.192 178.316 122.104 178.664 120.979 178.779C120.398 178.826 119.814 178.806 119.238 178.718C118.661 178.616 118.095 178.464 117.545 178.262C116.434 177.846 115.381 177.291 114.41 176.61C112.415 175.151 110.59 173.472 108.97 171.605C107.365 169.837 105.849 168.096 104.421 166.423L104.618 166.464C102.315 167.57 100.147 168.939 98.1583 170.544C96.4329 171.9 94.9695 173.559 93.8403 175.44L93.6363 175.794L93.5955 175.392C93.2155 172.119 93.2521 168.81 93.7043 165.546C93.8437 164.662 94.0715 163.794 94.3843 162.955C94.5067 162.67 94.6155 162.466 94.6835 162.323C94.7088 162.257 94.7383 162.194 94.7719 162.132Z" fill="#263238"/>
<g opacity="0.3">
<path d="M95.2748 173.142C95.1375 173.484 95.1122 173.862 95.2026 174.22C95.293 174.577 95.4944 174.898 95.778 175.134C96.0612 175.243 96.3688 175.272 96.6674 175.218C96.9659 175.164 97.2439 175.029 97.4712 174.828C97.9167 174.42 98.3014 173.951 98.6136 173.434C99.4269 172.262 100.405 171.213 101.517 170.32C102.612 169.436 104.115 168.688 105.373 169.313C106.16 169.833 106.756 170.594 107.073 171.482C108.78 174.971 110.826 178.52 114.165 180.513C117.504 182.505 121.795 182.594 125.474 181.295C129.131 179.871 132.349 177.509 134.803 174.447C137.239 171.394 139.398 168.131 141.256 164.696C142.793 162.037 144.35 159.297 144.826 156.264C144.405 156.502 143.412 158.032 142.99 158.27C142.99 158.27 127.14 175.726 125.65 176.63C124.161 177.534 120.054 183.559 108.419 170.51L104.57 166.335C104.57 166.335 97.24 169.891 95.2748 173.142Z" fill="black"/>
</g>
<path d="M137.729 210.802L120.3 208.129L119.493 213.391L136.922 216.065L137.729 210.802Z" fill="white"/>
<path d="M184.878 222.931L157.678 229.507L160.82 255.163L108.732 294.284C106.651 294.576 104.516 294.909 103.333 295.208C100.483 295.888 95.4514 303.062 94.0302 303.776L83.8778 311.61C83.8778 311.61 82.9871 315.173 87.6179 314.459C92.2487 313.745 97.4098 310.189 97.947 310.189C98.4842 310.189 100.103 311.27 99.307 313.589C98.627 315.629 95.839 322.646 95.839 322.646L92.3914 328.97C92.3914 328.97 107.297 329.46 111.431 323.932C114.26 320.178 122.991 309.536 122.991 309.536C122.991 309.536 184.307 279.371 187.986 273.054C192.997 264.459 184.878 222.931 184.878 222.931Z" fill="#FFBE9D"/>
<path d="M172.339 266.22C172.376 265.284 172.335 264.347 172.217 263.418C171.888 261.175 170.788 259.116 169.107 257.595C167.426 256.074 165.268 255.185 163.003 255.082C162.066 255.056 161.129 255.108 160.201 255.238C160.433 255.127 160.681 255.052 160.936 255.014C161.619 254.869 162.318 254.807 163.016 254.83C165.36 254.869 167.61 255.758 169.347 257.331C171.085 258.905 172.192 261.056 172.462 263.384C172.546 264.078 172.546 264.779 172.462 265.472C172.458 265.726 172.416 265.978 172.339 266.22Z" fill="#EB996E"/>
<path d="M104.638 319.389C104.585 319.972 104.466 320.547 104.285 321.103C103.937 322.478 103.43 323.808 102.775 325.067C102.123 326.355 101.131 327.439 99.9057 328.202C99.5315 328.425 99.1257 328.59 98.7021 328.692C98.5494 328.745 98.3863 328.761 98.2261 328.739C98.7625 328.533 99.2811 328.283 99.7765 327.991C100.922 327.197 101.856 326.135 102.496 324.897C103.124 323.655 103.64 322.361 104.04 321.028C104.192 320.465 104.392 319.917 104.638 319.389Z" fill="#EB996E"/>
<path d="M111.86 317.016C111.757 317.587 111.581 318.142 111.337 318.668C110.825 319.97 110.23 321.238 109.555 322.463C108.878 323.688 108.124 324.869 107.297 325.999C106.984 326.497 106.609 326.954 106.182 327.359C106.444 326.842 106.749 326.349 107.093 325.883C107.678 324.992 108.453 323.741 109.242 322.32C110.031 320.899 110.663 319.6 111.105 318.6C111.31 318.051 111.563 317.521 111.86 317.016Z" fill="#EB996E"/>
<path d="M111.663 272.612C111.737 272.897 111.778 273.189 111.785 273.482C111.847 274.04 111.894 274.842 111.921 275.856C112.049 281.104 111.291 286.336 109.677 291.332C109.365 292.284 109.093 293.053 108.875 293.57C108.782 293.846 108.661 294.113 108.515 294.365C108.56 294.076 108.638 293.794 108.746 293.522C108.923 292.992 109.161 292.216 109.426 291.258C110.156 288.759 110.711 286.211 111.085 283.635C111.453 281.058 111.644 278.459 111.656 275.856C111.656 274.856 111.656 274.047 111.656 273.489C111.631 273.197 111.633 272.904 111.663 272.612Z" fill="#263238"/>
<path d="M96.9272 280.779C97.258 281.474 97.5442 282.189 97.7841 282.921C98.2873 284.281 98.9877 286.09 99.8241 288.096C100.66 290.102 101.436 291.904 102.014 293.202C102.354 293.893 102.652 294.604 102.904 295.331C102.466 294.689 102.092 294.006 101.789 293.291C101.15 292.012 100.327 290.224 99.4977 288.211C98.6681 286.198 98.0084 284.342 97.5664 282.982C97.286 282.269 97.072 281.531 96.9272 280.779Z" fill="#263238"/>
<path d="M92.9765 298.384C92.8394 298.443 92.6955 298.484 92.5481 298.506L91.3037 298.806C90.7597 298.935 90.1001 299.084 89.3181 299.214C88.5361 299.343 87.6589 299.533 86.6661 299.656C85.6733 299.778 84.6261 299.948 83.4361 300.05C82.2461 300.152 81.0153 300.24 79.7029 300.315C73.9866 300.569 68.2605 300.132 62.6485 299.016C61.3633 298.738 60.1325 298.493 59.0037 298.18C57.8749 297.867 56.8209 297.595 55.8689 297.303C54.9169 297.01 54.0601 296.718 53.3121 296.466C52.5641 296.215 51.9521 295.97 51.4149 295.786L50.2249 295.31C50.0845 295.257 49.9482 295.193 49.8169 295.12C49.9668 295.141 50.1132 295.182 50.2521 295.242L51.4625 295.657C51.9793 295.848 52.6253 296.079 53.3733 296.337C54.1213 296.596 54.9781 296.868 55.9369 297.119C56.8957 297.371 57.9361 297.69 59.0717 297.949C60.2073 298.207 61.4245 298.486 62.7097 298.751C65.5058 299.273 68.3271 299.65 71.1621 299.88C73.9997 300.084 76.846 300.138 79.6893 300.043C81.0017 299.975 82.2461 299.928 83.4089 299.812C84.5717 299.696 85.6461 299.588 86.6321 299.465C87.6181 299.343 88.5021 299.193 89.2841 299.071C90.0661 298.948 90.7325 298.833 91.2765 298.724L92.5345 298.493C92.6772 298.44 92.8255 298.403 92.9765 298.384Z" fill="#263238"/>
<path d="M90.3857 286.559C89.2604 286.147 88.1785 285.626 87.1557 285.002C86.0788 284.479 85.0542 283.855 84.0957 283.138C85.2231 283.545 86.3055 284.067 87.3257 284.696C88.4053 285.213 89.4304 285.837 90.3857 286.559Z" fill="#263238"/>
<path d="M187.761 222.272L187.591 222.326L187.088 222.462L185.143 222.958L177.827 224.767L152.531 230.887L152.347 230.928V230.744C151.633 226.073 150.654 221.034 149.709 215.784C149.09 212.282 148.553 208.848 148.185 205.516C147.818 202.184 147.655 198.941 147.608 195.854C147.533 192.932 147.703 190.009 148.118 187.116C148.486 184.584 149.238 182.124 150.348 179.819C151.298 177.931 152.568 176.221 154.101 174.767C155.256 173.667 156.581 172.762 158.025 172.088C158.944 171.677 159.907 171.374 160.895 171.183L161.67 171.088C161.758 171.079 161.847 171.079 161.935 171.088C161.849 171.116 161.76 171.134 161.67 171.142L160.908 171.278C159.935 171.488 158.988 171.808 158.086 172.23C156.668 172.928 155.369 173.846 154.238 174.95C152.739 176.403 151.5 178.1 150.572 179.969C149.493 182.256 148.764 184.693 148.41 187.197C148.011 190.078 147.851 192.987 147.934 195.894C147.988 198.968 148.165 202.191 148.532 205.516C148.899 208.842 149.443 212.269 150.062 215.764C151.001 221.007 151.973 226.052 152.687 230.724L152.476 230.581L177.806 224.563L185.143 222.85L187.102 222.408L187.612 222.299C187.661 222.285 187.711 222.276 187.761 222.272Z" fill="#263238"/>
</svg>
