<svg width="14" height="14" viewBox="0 0 14 14" fill="none" xmlns="http://www.w3.org/2000/svg">
<path d="M7.38882 1.57014C8.34743 1.57014 9.12424 2.34694 9.12424 3.30556C9.12424 4.26417 8.34743 5.04097 7.38882 5.04097C6.43021 5.04097 5.6534 4.26417 5.6534 3.30556C5.6534 2.34694 6.43021 1.57014 7.38882 1.57014ZM7.38882 9.00764C9.8432 9.00764 12.4298 10.2142 12.4298 10.7431V11.6521H2.34785V10.7431C2.34785 10.2142 4.93445 9.00764 7.38882 9.00764ZM7.38882 0C5.5625 0 4.08327 1.47924 4.08327 3.30556C4.08327 5.13188 5.5625 6.61111 7.38882 6.61111C9.21514 6.61111 10.6944 5.13188 10.6944 3.30556C10.6944 1.47924 9.21514 0 7.38882 0ZM7.38882 7.4375C5.18236 7.4375 0.77771 8.54486 0.77771 10.7431V13.2222H13.9999V10.7431C13.9999 8.54486 9.59528 7.4375 7.38882 7.4375Z" fill="#FC6B00"/>
</svg>
