<svg width="18" height="15" viewBox="0 0 18 15" fill="none" xmlns="http://www.w3.org/2000/svg">
<path d="M1 4V11.7C1 12.6801 1 13.1701 1.19377 13.5445C1.36421 13.8738 1.63617 14.1415 1.97068 14.3093C2.35097 14.5 2.8488 14.5 3.84444 14.5H14.1556C15.1512 14.5 15.649 14.5 16.0293 14.3093C16.3638 14.1415 16.6358 13.8738 16.8062 13.5445C17 13.1701 17 12.6801 17 11.7V6.3625C17 5.7928 17 5.50795 16.9333 5.27498C16.7654 4.68896 16.3001 4.23098 15.7048 4.0657C15.4681 4 15.1787 4 14.6 4M1 4V3.3C1 2.31991 1 1.82986 1.19377 1.45552C1.36421 1.12623 1.63617 0.858517 1.97068 0.690739C2.35097 0.5 2.8488 0.5 3.84444 0.5H11.7556C12.7512 0.5 13.249 0.5 13.6293 0.690739C13.9638 0.858517 14.2358 1.12623 14.4062 1.45552C14.6 1.82986 14.6 2.31991 14.6 3.3V4M1 4H14.6M17 7.5H15.2222C14.2404 7.5 13.4444 8.2835 13.4444 9.25C13.4444 10.2165 14.2404 11 15.2222 11H17V7.5Z" stroke="#244D73" stroke-linecap="round" stroke-linejoin="round"/>
</svg>
